<?xml version="1.0" encoding="utf-8" standalone="no"?>
<!DOCTYPE svg PUBLIC "-//W3C//DTD SVG 1.1//EN"
  "http://www.w3.org/Graphics/SVG/1.1/DTD/svg11.dtd">
<svg xmlns:xlink="http://www.w3.org/1999/xlink" width="725.107031pt" height="429.211281pt" viewBox="0 0 725.107031 429.211281" xmlns="http://www.w3.org/2000/svg" version="1.1">
 <metadata>
  <rdf:RDF xmlns:dc="http://purl.org/dc/elements/1.1/" xmlns:cc="http://creativecommons.org/ns#" xmlns:rdf="http://www.w3.org/1999/02/22-rdf-syntax-ns#">
   <cc:Work>
    <dc:type rdf:resource="http://purl.org/dc/dcmitype/StillImage"/>
    <dc:date>2026-06-25T10:13:58.594648</dc:date>
    <dc:format>image/svg+xml</dc:format>
    <dc:creator>
     <cc:Agent>
      <dc:title>Matplotlib v3.10.0, https://matplotlib.org/</dc:title>
     </cc:Agent>
    </dc:creator>
   </cc:Work>
  </rdf:RDF>
 </metadata>
 <defs>
  <style type="text/css">*{stroke-linejoin: round; stroke-linecap: butt}</style>
 </defs>
 <g id="figure_1">
  <g id="patch_1">
   <path d="M 0 429.211281
L 725.107031 429.211281
L 725.107031 0
L 0 0
z
" style="fill: #fcfcfd"/>
  </g>
  <g id="axes_1">
   <g id="patch_2">
    <path d="M 52.627031 384.408
L 717.907031 384.408
L 717.907031 85.32
L 52.627031 85.32
z
" style="fill: #ffffff"/>
   </g>
   <g id="matplotlib.axis_1">
    <g id="xtick_1">
     <g id="text_1">
      <!-- 20% -->
      <g style="fill: #262626" transform="translate(80.395033 402.701125) scale(0.11 -0.11)">
       <defs>
        <path id="MicrosoftYaHei-32" d="M 2666 3572
Q 2666 3963 2419 4186
Q 2172 4409 1747 4409
Q 1447 4409 1140 4256
Q 834 4103 569 3819
L 569 4413
Q 806 4659 1107 4790
Q 1409 4922 1816 4922
Q 2472 4922 2872 4570
Q 3272 4219 3272 3619
Q 3272 3084 3026 2693
Q 2781 2303 2188 1894
Q 1581 1475 1376 1294
Q 1172 1113 1090 947
Q 1009 781 1009 544
L 3416 544
L 3416 0
L 372 0
L 372 241
Q 372 659 486 951
Q 600 1244 862 1520
Q 1125 1797 1681 2184
Q 2250 2584 2458 2886
Q 2666 3188 2666 3572
z
" transform="scale(0.015625)"/>
        <path id="MicrosoftYaHei-30" d="M 284 2325
Q 284 3606 709 4264
Q 1134 4922 1941 4922
Q 3478 4922 3478 2441
Q 3478 1216 3045 567
Q 2613 -81 1831 -81
Q 1094 -81 689 534
Q 284 1150 284 2325
z
M 909 2353
Q 909 425 1888 425
Q 2850 425 2850 2384
Q 2850 4413 1906 4413
Q 909 4413 909 2353
z
" transform="scale(0.015625)"/>
        <path id="MicrosoftYaHei-25" d="M 272 3619
Q 272 4213 589 4563
Q 906 4913 1444 4913
Q 1959 4913 2248 4591
Q 2538 4269 2538 3694
Q 2538 3122 2219 2765
Q 1900 2409 1372 2409
Q 872 2409 572 2740
Q 272 3072 272 3619
z
M 753 3650
Q 753 3247 928 3028
Q 1103 2809 1406 2809
Q 1719 2809 1889 3036
Q 2059 3263 2059 3675
Q 2059 4078 1892 4298
Q 1725 4519 1422 4519
Q 1113 4519 933 4289
Q 753 4059 753 3650
z
M 4647 4841
L 1538 -31
L 1016 -31
L 4125 4841
L 4647 4841
z
M 3172 1134
Q 3172 1728 3489 2083
Q 3806 2438 4341 2438
Q 4853 2438 5143 2114
Q 5434 1791 5434 1203
Q 5434 634 5112 279
Q 4791 -75 4272 -75
Q 3769 -75 3470 261
Q 3172 597 3172 1134
z
M 3650 1163
Q 3650 769 3825 548
Q 4000 328 4303 328
Q 4616 328 4786 556
Q 4956 784 4956 1194
Q 4956 1600 4786 1815
Q 4616 2031 4319 2031
Q 4000 2031 3825 1801
Q 3650 1572 3650 1163
z
" transform="scale(0.015625)"/>
       </defs>
       <use xlink:href="#MicrosoftYaHei-32"/>
       <use xlink:href="#MicrosoftYaHei-30" transform="translate(58.642578 0)"/>
       <use xlink:href="#MicrosoftYaHei-25" transform="translate(117.285156 0)"/>
      </g>
     </g>
    </g>
    <g id="xtick_2">
     <g id="text_2">
      <!-- 30% -->
      <g style="fill: #262626" transform="translate(164.887908 402.701125) scale(0.11 -0.11)">
       <defs>
        <path id="MicrosoftYaHei-33" d="M 447 809
Q 944 425 1569 425
Q 2069 425 2361 670
Q 2653 916 2653 1328
Q 2653 2247 1338 2247
L 934 2247
L 934 2753
L 1319 2753
Q 2484 2753 2484 3616
Q 2484 4413 1594 4413
Q 1084 4413 634 4069
L 634 4647
Q 1109 4922 1744 4922
Q 2363 4922 2738 4598
Q 3113 4275 3113 3759
Q 3113 2809 2144 2538
L 2144 2525
Q 2669 2469 2973 2155
Q 3278 1841 3278 1372
Q 3278 719 2808 319
Q 2338 -81 1556 -81
Q 869 -81 447 175
L 447 809
z
" transform="scale(0.015625)"/>
       </defs>
       <use xlink:href="#MicrosoftYaHei-33"/>
       <use xlink:href="#MicrosoftYaHei-30" transform="translate(58.642578 0)"/>
       <use xlink:href="#MicrosoftYaHei-25" transform="translate(117.285156 0)"/>
      </g>
     </g>
    </g>
    <g id="xtick_3">
     <g id="text_3">
      <!-- 40% -->
      <g style="fill: #262626" transform="translate(249.380783 402.701125) scale(0.11 -0.11)">
       <defs>
        <path id="MicrosoftYaHei-34" d="M 2906 4841
L 2906 1644
L 3631 1644
L 3631 1138
L 2906 1138
L 2906 0
L 2313 0
L 2313 1138
L 53 1138
L 53 1616
Q 656 2294 1265 3178
Q 1875 4063 2272 4841
L 2906 4841
z
M 741 1644
L 2313 1644
L 2313 3950
Q 1988 3366 1616 2817
Q 1244 2269 741 1644
z
" transform="scale(0.015625)"/>
       </defs>
       <use xlink:href="#MicrosoftYaHei-34"/>
       <use xlink:href="#MicrosoftYaHei-30" transform="translate(58.642578 0)"/>
       <use xlink:href="#MicrosoftYaHei-25" transform="translate(117.285156 0)"/>
      </g>
     </g>
    </g>
    <g id="xtick_4">
     <g id="text_4">
      <!-- 50% -->
      <g style="fill: #262626" transform="translate(333.873658 402.701125) scale(0.11 -0.11)">
       <defs>
        <path id="MicrosoftYaHei-35" d="M 3294 1494
Q 3294 784 2823 350
Q 2353 -84 1559 -84
Q 878 -84 544 119
L 544 744
Q 1034 425 1544 425
Q 2050 425 2361 704
Q 2672 984 2672 1447
Q 2672 1909 2348 2167
Q 2025 2425 1434 2425
Q 978 2425 613 2384
L 791 4841
L 3053 4841
L 3053 4303
L 1306 4303
L 1206 2931
L 1647 2950
Q 2416 2950 2855 2567
Q 3294 2184 3294 1494
z
" transform="scale(0.015625)"/>
       </defs>
       <use xlink:href="#MicrosoftYaHei-35"/>
       <use xlink:href="#MicrosoftYaHei-30" transform="translate(58.642578 0)"/>
       <use xlink:href="#MicrosoftYaHei-25" transform="translate(117.285156 0)"/>
      </g>
     </g>
    </g>
    <g id="xtick_5">
     <g id="text_5">
      <!-- 60% -->
      <g style="fill: #262626" transform="translate(418.366534 402.701125) scale(0.11 -0.11)">
       <defs>
        <path id="MicrosoftYaHei-36" d="M 3181 4219
Q 2803 4413 2391 4413
Q 1763 4413 1381 3866
Q 1000 3319 994 2372
L 1009 2372
Q 1353 3038 2106 3038
Q 2734 3038 3109 2628
Q 3484 2219 3484 1541
Q 3484 831 3051 375
Q 2619 -81 1947 -81
Q 1209 -81 789 495
Q 369 1072 369 2131
Q 369 3413 920 4167
Q 1472 4922 2372 4922
Q 2888 4922 3181 4781
L 3181 4219
z
M 1031 1584
Q 1031 1106 1286 765
Q 1541 425 1963 425
Q 2363 425 2613 719
Q 2863 1013 2863 1475
Q 2863 1975 2627 2253
Q 2391 2531 1956 2531
Q 1544 2531 1287 2250
Q 1031 1969 1031 1584
z
" transform="scale(0.015625)"/>
       </defs>
       <use xlink:href="#MicrosoftYaHei-36"/>
       <use xlink:href="#MicrosoftYaHei-30" transform="translate(58.642578 0)"/>
       <use xlink:href="#MicrosoftYaHei-25" transform="translate(117.285156 0)"/>
      </g>
     </g>
    </g>
    <g id="xtick_6">
     <g id="text_6">
      <!-- 70% -->
      <g style="fill: #262626" transform="translate(502.859409 402.701125) scale(0.11 -0.11)">
       <defs>
        <path id="MicrosoftYaHei-37" d="M 3422 4463
Q 2659 3131 2223 1998
Q 1788 866 1684 0
L 1047 0
Q 1163 853 1594 1947
Q 2025 3041 2747 4300
L 347 4300
L 347 4841
L 3422 4841
L 3422 4463
z
" transform="scale(0.015625)"/>
       </defs>
       <use xlink:href="#MicrosoftYaHei-37"/>
       <use xlink:href="#MicrosoftYaHei-30" transform="translate(58.642578 0)"/>
       <use xlink:href="#MicrosoftYaHei-25" transform="translate(117.285156 0)"/>
      </g>
     </g>
    </g>
    <g id="xtick_7">
     <g id="text_7">
      <!-- 80% -->
      <g style="fill: #262626" transform="translate(587.352284 402.701125) scale(0.11 -0.11)">
       <defs>
        <path id="MicrosoftYaHei-38" d="M 306 1350
Q 306 1769 556 2122
Q 806 2475 1200 2625
Q 884 2803 700 3081
Q 516 3359 516 3684
Q 516 4028 692 4312
Q 869 4597 1183 4759
Q 1497 4922 1875 4922
Q 2256 4922 2572 4761
Q 2888 4600 3063 4315
Q 3238 4031 3238 3684
Q 3238 3366 3058 3086
Q 2878 2806 2559 2625
Q 2953 2472 3200 2119
Q 3447 1766 3447 1350
Q 3447 938 3250 611
Q 3053 284 2690 103
Q 2328 -78 1875 -78
Q 1425 -78 1065 103
Q 706 284 506 612
Q 306 941 306 1350
z
M 906 1378
Q 906 947 1172 687
Q 1438 428 1878 428
Q 2309 428 2582 692
Q 2856 956 2856 1378
Q 2856 1778 2579 2051
Q 2303 2325 1878 2325
Q 1456 2325 1181 2058
Q 906 1791 906 1378
z
M 1081 3634
Q 1081 3309 1312 3076
Q 1544 2844 1878 2844
Q 2206 2844 2445 3078
Q 2684 3313 2684 3634
Q 2684 3963 2454 4191
Q 2225 4419 1878 4419
Q 1534 4419 1307 4195
Q 1081 3972 1081 3634
z
" transform="scale(0.015625)"/>
       </defs>
       <use xlink:href="#MicrosoftYaHei-38"/>
       <use xlink:href="#MicrosoftYaHei-30" transform="translate(58.642578 0)"/>
       <use xlink:href="#MicrosoftYaHei-25" transform="translate(117.285156 0)"/>
      </g>
     </g>
    </g>
    <g id="xtick_8">
     <g id="text_8">
      <!-- 90% -->
      <g style="fill: #262626" transform="translate(671.845159 402.701125) scale(0.11 -0.11)">
       <defs>
        <path id="MicrosoftYaHei-39" d="M 578 656
Q 978 425 1441 425
Q 2091 425 2448 937
Q 2806 1450 2806 2394
Q 2800 2388 2794 2394
Q 2475 1788 1722 1788
Q 1113 1788 713 2206
Q 313 2625 313 3294
Q 313 4006 750 4464
Q 1188 4922 1884 4922
Q 2606 4922 3012 4355
Q 3419 3788 3419 2703
Q 3419 1363 2894 641
Q 2369 -81 1441 -81
Q 931 -81 578 84
L 578 656
z
M 931 3372
Q 931 2884 1181 2598
Q 1431 2313 1872 2313
Q 2253 2313 2512 2573
Q 2772 2834 2772 3206
Q 2772 3728 2514 4070
Q 2256 4413 1834 4413
Q 1444 4413 1187 4116
Q 931 3819 931 3372
z
" transform="scale(0.015625)"/>
       </defs>
       <use xlink:href="#MicrosoftYaHei-39"/>
       <use xlink:href="#MicrosoftYaHei-30" transform="translate(58.642578 0)"/>
       <use xlink:href="#MicrosoftYaHei-25" transform="translate(117.285156 0)"/>
      </g>
     </g>
    </g>
    <g id="text_9">
     <!-- 赛程密度（非零剩余对局比例，%） -->
     <g style="fill: #1f2430" transform="translate(289.928906 419.028156) scale(0.12 -0.12)">
      <defs>
       <path id="MicrosoftYaHei-8d5b" d="M 6306 1097
Q 6144 909 5994 691
Q 5419 934 4963 1234
L 4963 53
L 4538 53
L 4538 1178
L 1900 1178
L 1900 16
L 1475 16
L 1475 1222
Q 938 866 375 622
Q 219 847 94 984
Q 1100 1366 1894 1991
L 250 1991
L 250 2353
L 2100 2353
L 2100 2753
L 775 2753
L 775 3103
L 2100 3103
L 2100 3503
L 900 3503
L 900 3853
L 2100 3853
L 2100 4159
L 2513 4159
L 2513 3853
L 3900 3853
L 3900 4159
L 4313 4159
L 4313 3853
L 5500 3853
L 5500 3503
L 4313 3503
L 4313 3103
L 5663 3103
L 5663 2753
L 4313 2753
L 4313 2353
L 6150 2353
L 6150 1991
L 4581 1991
Q 5231 1434 6306 1097
z
M 363 4734
L 3000 4734
Q 2869 4966 2756 5147
L 3200 5347
Q 3350 5122 3569 4734
L 6044 4734
L 6044 3728
L 5581 3728
L 5581 4359
L 819 4359
L 819 3722
L 363 3722
L 363 4734
z
M 3450 1028
Q 3450 584 3338 278
Q 4613 -47 5900 -428
L 5713 -878
Q 4531 -472 3144 -72
Q 2681 -641 775 -884
Q 756 -847 544 -441
Q 2313 -234 2706 134
Q 3006 378 3006 1028
L 3450 1028
z
M 1900 1528
L 4563 1528
Q 4294 1747 4075 1991
L 2444 1991
Q 2175 1741 1900 1528
z
M 2513 3103
L 3900 3103
L 3900 3503
L 2513 3503
L 2513 3103
z
M 2513 2353
L 3900 2353
L 3900 2753
L 2513 2753
L 2513 2353
z
" transform="scale(0.015625)"/>
       <path id="MicrosoftYaHei-7a0b" d="M 2750 5028
L 5850 5028
L 5850 2884
L 5375 2884
L 5375 3141
L 3225 3141
L 3225 2884
L 2750 2884
L 2750 5028
z
M 44 903
Q 663 1806 994 3041
L 119 3041
L 119 3453
L 1094 3453
L 1094 4431
Q 700 4375 288 4328
Q 238 4541 156 4759
Q 1219 4847 2300 5097
L 2438 4659
Q 2003 4572 1544 4497
L 1544 3453
L 2413 3453
L 2413 3041
L 1544 3041
L 1544 2216
L 1788 2428
Q 2038 2172 2519 1609
L 2144 1303
Q 1781 1766 1544 2050
L 1544 -841
L 1094 -841
L 1094 2153
Q 763 1078 256 359
Q 156 628 44 903
z
M 2250 -84
L 4038 -84
L 4038 841
L 2619 841
L 2619 1259
L 4038 1259
L 4038 2109
L 2469 2109
L 2469 2528
L 6113 2528
L 6113 2109
L 4538 2109
L 4538 1259
L 5956 1259
L 5956 841
L 4538 841
L 4538 -84
L 6325 -84
L 6325 -503
L 2250 -503
L 2250 -84
z
M 5375 4603
L 3225 4603
L 3225 3566
L 5375 3566
L 5375 4603
z
" transform="scale(0.015625)"/>
       <path id="MicrosoftYaHei-5bc6" d="M 63 1622
Q 947 1872 1800 2228
L 1800 3659
L 2244 3659
L 2244 2419
Q 3594 3034 4850 3909
L 5144 3534
Q 3834 2656 2391 1997
Q 2522 1872 2775 1872
L 3975 1872
Q 4350 1872 4425 2084
Q 4506 2291 4550 2753
Q 4756 2666 5025 2572
Q 4931 2091 4888 1953
Q 4756 1441 4094 1441
L 2669 1441
Q 2128 1441 1925 1794
Q 1131 1459 300 1191
Q 197 1419 63 1622
z
M 5063 -809
L 5063 -566
L 850 -566
L 850 1078
L 1325 1078
L 1325 -116
L 2944 -116
L 2944 1322
L 3444 1322
L 3444 -116
L 5063 -116
L 5063 1078
L 5538 1078
L 5538 -809
L 5063 -809
z
M 331 4672
L 3009 4672
Q 2894 4897 2750 5141
L 3213 5359
Q 3406 5041 3569 4672
L 6075 4672
L 6075 3559
L 5569 3559
L 5569 4222
L 838 4222
L 838 3559
L 331 3559
L 331 4672
z
M 1063 3534
L 1500 3366
Q 1206 2684 863 2116
Q 663 2216 406 2316
Q 750 2809 1063 3534
z
M 5075 3053
L 5438 3322
Q 5925 2791 6275 2322
L 5863 2016
Q 5531 2503 5075 3053
z
M 2588 3847
L 2913 4128
Q 3331 3797 3656 3478
L 3294 3141
Q 2938 3528 2588 3847
z
" transform="scale(0.015625)"/>
       <path id="MicrosoftYaHei-5ea6" d="M 1550 1216
L 1550 1628
L 5469 1628
L 5469 1222
Q 4903 613 4147 163
Q 5050 -200 6263 -309
L 6019 -797
Q 4625 -603 3644 -109
Q 2600 -619 1250 -866
Q 1150 -666 994 -416
Q 2231 -222 3166 166
Q 2497 600 2066 1216
L 1550 1216
z
M 1363 3541
L 2294 3541
L 2294 4066
L 2769 4066
L 2769 3541
L 4538 3541
L 4538 4072
L 5013 4072
L 5013 3541
L 6150 3541
L 6150 3128
L 5013 3128
L 5013 1928
L 4538 1928
L 4538 2147
L 2769 2147
L 2769 1922
L 2294 1922
L 2294 3128
L 1363 3128
L 1363 3541
z
M 3025 5172
L 3481 5391
Q 3694 5056 3909 4634
L 6213 4634
L 6213 4197
L 1225 4197
L 1225 2316
Q 1225 178 394 -872
Q 238 -666 38 -447
Q 725 397 738 2347
L 738 4634
L 3331 4634
Q 3188 4909 3025 5172
z
M 2769 2547
L 4538 2547
L 4538 3128
L 2769 3128
L 2769 2547
z
M 4819 1216
L 2588 1216
Q 3031 728 3656 391
Q 4334 741 4819 1216
z
" transform="scale(0.015625)"/>
       <path id="MicrosoftYaHei-ff08" d="M 5288 -1100
Q 4172 119 4172 1850
Q 4172 3603 5288 4838
L 5825 4838
Q 4716 3572 4716 1856
Q 4716 166 5819 -1100
L 5288 -1100
z
" transform="scale(0.015625)"/>
       <path id="MicrosoftYaHei-975e" d="M 3688 5284
L 4188 5284
L 4188 4391
L 6131 4391
L 6131 3941
L 4188 3941
L 4188 2716
L 6038 2716
L 6038 2266
L 4188 2266
L 4188 1016
L 6269 1016
L 6269 566
L 4188 566
L 4188 -797
L 3688 -797
L 3688 5284
z
M 150 1016
L 2206 1016
L 2206 2266
L 375 2266
L 375 2716
L 2206 2716
L 2206 3941
L 275 3941
L 275 4391
L 2206 4391
L 2206 5284
L 2706 5284
L 2706 -797
L 2206 -797
L 2206 566
L 150 566
L 150 1016
z
" transform="scale(0.015625)"/>
       <path id="MicrosoftYaHei-96f6" d="M 406 4234
L 2938 4234
L 2938 4616
L 600 4616
L 600 5016
L 5700 5016
L 5700 4616
L 3413 4616
L 3413 4234
L 6019 4234
L 6019 3072
L 5556 3072
L 5556 3834
L 3413 3834
L 3413 2959
L 2938 2959
L 2938 3834
L 869 3834
L 869 3072
L 406 3072
L 406 4234
z
M 1650 3
L 1844 384
Q 2500 178 3188 -47
L 4338 678
L 1238 678
L 1238 1078
L 3256 1078
Q 3006 1397 2694 1747
L 3044 2009
Q 3350 1684 3638 1341
L 3269 1078
L 4994 1078
L 4994 609
L 3675 -216
Q 4056 -347 4450 -491
L 4256 -916
Q 2744 -347 1650 3
z
M 3544 2834
L 3456 2722
Q 4538 1722 6350 1391
Q 6169 1116 6044 903
Q 4281 1416 3200 2428
Q 2206 1516 325 803
Q 206 1003 50 1234
Q 2013 1841 3038 2834
L 3544 2834
z
M 1075 2859
L 2456 2859
L 2456 2497
L 1075 2497
L 1075 2859
z
M 3894 2859
L 5263 2859
L 5263 2497
L 3894 2497
L 3894 2859
z
M 1150 3528
L 2456 3528
L 2456 3166
L 1150 3166
L 1150 3528
z
M 3894 3528
L 5188 3528
L 5188 3166
L 3894 3166
L 3894 3528
z
" transform="scale(0.015625)"/>
       <path id="MicrosoftYaHei-5269" d="M 106 -84
Q 1356 809 1931 1966
L 1931 3472
L 144 3472
L 144 3922
L 1931 3922
L 1931 4528
Q 1225 4503 506 4478
Q 469 4691 419 4928
Q 2869 4997 3956 5072
L 4044 4622
Q 3225 4584 2388 4547
L 2388 3922
L 4200 3922
L 4200 3472
L 2388 3472
L 2388 1672
Q 3156 1047 4075 247
L 3738 -109
Q 3044 547 2388 1147
L 2388 -834
L 1931 -834
L 1931 1184
Q 1375 322 456 -484
Q 319 -316 106 -84
z
M 5575 5278
L 6031 5278
L 6031 59
Q 6031 -747 5356 -759
Q 5094 -766 4544 -747
Q 4519 -491 4456 -228
Q 4925 -278 5188 -278
Q 5575 -278 5575 209
L 5575 5278
z
M 5000 628
L 4563 628
L 4563 4684
L 5000 4684
L 5000 628
z
M 2844 3197
L 3269 3197
L 3269 2816
Q 3794 2966 4106 3072
L 4263 2684
Q 4088 2641 3269 2428
L 3269 2053
Q 3269 1816 3444 1816
L 3569 1816
Q 3781 1816 3831 2022
Q 3875 2222 3919 2509
Q 4138 2409 4331 2334
Q 4275 2084 4225 1897
Q 4094 1391 3638 1391
L 3344 1391
Q 2844 1391 2844 1991
L 2844 3197
z
M 75 1866
Q 600 1941 1063 2022
L 1063 2472
L 163 2472
L 163 2872
L 1063 2872
L 1063 3197
L 1488 3197
L 1488 1347
L 1063 1347
L 1063 1634
Q 625 1547 194 1459
L 75 1866
z
" transform="scale(0.015625)"/>
       <path id="MicrosoftYaHei-4f59" d="M 325 1972
L 2994 1972
L 2994 2841
L 1463 2841
L 1463 3153
Q 969 2816 394 2509
Q 263 2722 81 2966
Q 2013 3928 2994 5278
L 3656 5278
L 3531 5122
Q 4575 3772 6313 3078
Q 6119 2809 5981 2591
Q 5425 2859 4931 3191
L 4931 2841
L 3500 2841
L 3500 1972
L 6075 1972
L 6075 1503
L 3500 1503
L 3500 59
Q 3500 -803 2656 -803
Q 2363 -803 1869 -791
Q 1838 -553 1788 -272
Q 2256 -322 2563 -328
Q 2994 -341 2994 109
L 2994 1503
L 325 1503
L 325 1972
z
M 3219 4741
Q 2619 3978 1681 3309
L 4756 3309
Q 3894 3922 3219 4741
z
M 4481 1234
Q 5469 472 6156 -134
L 5769 -534
Q 5000 203 4138 897
L 4481 1234
z
M 1644 1241
L 2094 941
Q 1331 28 656 -572
Q 481 -416 238 -228
Q 1031 397 1644 1241
z
" transform="scale(0.015625)"/>
       <path id="MicrosoftYaHei-5bf9" d="M 694 3691
Q 1234 2909 1741 2166
Q 2113 3081 2213 4147
L 250 4147
L 250 4622
L 2725 4622
L 2725 4166
Q 2553 2809 2059 1700
Q 2569 953 3044 247
L 2594 -53
Q 2203 563 1803 1181
Q 1247 163 388 -622
Q 263 -428 81 -166
Q 975 638 1500 1647
Q 919 2538 319 3434
L 694 3691
z
M 2975 3941
L 5056 3941
L 5056 5278
L 5563 5278
L 5563 3941
L 6325 3941
L 6325 3466
L 5563 3466
L 5563 191
Q 5563 -716 4669 -716
Q 4388 -716 3744 -709
Q 3713 -478 3644 -147
Q 4263 -197 4588 -197
Q 5056 -197 5056 278
L 5056 3466
L 2975 3466
L 2975 3941
z
M 3088 2684
L 3494 2928
Q 4000 2184 4388 1484
L 3919 1216
Q 3550 1922 3088 2684
z
" transform="scale(0.015625)"/>
       <path id="MicrosoftYaHei-5c40" d="M 1313 2453
Q 1313 434 450 -709
Q 306 -497 94 -266
Q 813 747 813 2422
L 813 5009
L 5669 5009
L 5669 3234
L 5175 3234
L 5175 3422
L 1313 3422
L 1313 2878
L 5969 2878
Q 5919 1141 5888 616
Q 5838 -147 5606 -422
Q 5388 -728 4619 -728
Q 4244 -728 3656 -691
Q 3625 -378 3575 -153
Q 4238 -234 4725 -234
Q 5100 -234 5225 -53
Q 5356 122 5394 647
Q 5419 1109 5450 2453
L 1313 2453
z
M 1900 1909
L 4631 1909
L 4631 309
L 2369 309
L 2369 53
L 1900 53
L 1900 1909
z
M 5175 4584
L 1313 4584
L 1313 3847
L 5175 3847
L 5175 4584
z
M 4163 716
L 4163 1503
L 2369 1503
L 2369 716
L 4163 716
z
" transform="scale(0.015625)"/>
       <path id="MicrosoftYaHei-6bd4" d="M 3225 5316
L 3744 5316
L 3744 2672
Q 4959 3550 5744 4509
L 6188 4178
Q 5175 3063 3744 2056
L 3744 247
Q 3744 -166 4106 -166
L 5175 -166
Q 5588 -166 5650 203
Q 5725 678 5763 1247
Q 6025 1147 6300 1066
Q 6244 484 6150 22
Q 6019 -622 5319 -622
L 3944 -622
Q 3225 -622 3225 159
L 3225 5316
z
M 1063 5153
L 1063 3278
L 2825 3278
L 2825 2809
L 1063 2809
L 1063 153
Q 1713 428 2763 928
Q 2763 634 2788 366
Q 1869 -3 1231 -328
Q 956 -472 725 -672
L 344 -184
Q 544 -34 544 272
L 544 5153
L 1063 5153
z
" transform="scale(0.015625)"/>
       <path id="MicrosoftYaHei-4f8b" d="M 2381 1841
L 2631 2191
Q 2916 1997 3247 1738
Q 3488 2378 3581 3128
L 2703 3128
Q 2350 1984 1831 1291
Q 1700 1491 1531 1678
Q 2238 2694 2578 4522
L 1900 4522
L 1900 4959
L 4319 4959
L 4319 4522
L 3044 4522
Q 2947 4009 2828 3559
L 4044 3559
L 4044 3128
Q 3788 666 2038 -822
Q 1900 -634 1694 -416
Q 2578 297 3063 1303
Q 2753 1556 2381 1841
z
M 88 2291
Q 894 3659 1281 5322
L 1744 5234
Q 1578 4534 1325 3853
L 1325 -809
L 900 -809
L 900 2847
Q 625 2275 288 1716
Q 213 1966 88 2291
z
M 5575 5303
L 6031 5303
L 6031 84
Q 6031 -391 5881 -566
Q 5750 -728 5356 -734
Q 5088 -741 4488 -722
Q 4463 -466 4400 -203
Q 4881 -253 5188 -253
Q 5431 -259 5500 -166
Q 5575 -84 5575 234
L 5575 5303
z
M 4913 653
L 4469 653
L 4469 4322
L 4913 4322
L 4913 653
z
" transform="scale(0.015625)"/>
       <path id="MicrosoftYaHei-ff0c" d="M 1931 775
L 1403 -891
L 966 -891
L 1350 775
L 1931 775
z
" transform="scale(0.015625)"/>
       <path id="MicrosoftYaHei-ff09" d="M 1113 -1100
L 575 -1100
Q 1684 163 1684 1888
Q 1684 3581 581 4838
L 1113 4838
Q 2222 3628 2222 1888
Q 2222 128 1113 -1100
z
" transform="scale(0.015625)"/>
      </defs>
      <use xlink:href="#MicrosoftYaHei-8d5b"/>
      <use xlink:href="#MicrosoftYaHei-7a0b" transform="translate(100 0)"/>
      <use xlink:href="#MicrosoftYaHei-5bc6" transform="translate(200 0)"/>
      <use xlink:href="#MicrosoftYaHei-5ea6" transform="translate(300 0)"/>
      <use xlink:href="#MicrosoftYaHei-ff08" transform="translate(400 0)"/>
      <use xlink:href="#MicrosoftYaHei-975e" transform="translate(500 0)"/>
      <use xlink:href="#MicrosoftYaHei-96f6" transform="translate(600 0)"/>
      <use xlink:href="#MicrosoftYaHei-5269" transform="translate(700 0)"/>
      <use xlink:href="#MicrosoftYaHei-4f59" transform="translate(800 0)"/>
      <use xlink:href="#MicrosoftYaHei-5bf9" transform="translate(900 0)"/>
      <use xlink:href="#MicrosoftYaHei-5c40" transform="translate(1000 0)"/>
      <use xlink:href="#MicrosoftYaHei-6bd4" transform="translate(1100 0)"/>
      <use xlink:href="#MicrosoftYaHei-4f8b" transform="translate(1200 0)"/>
      <use xlink:href="#MicrosoftYaHei-ff0c" transform="translate(1300 0)"/>
      <use xlink:href="#MicrosoftYaHei-25" transform="translate(1400 0)"/>
      <use xlink:href="#MicrosoftYaHei-ff09" transform="translate(1488.964844 0)"/>
     </g>
    </g>
   </g>
   <g id="matplotlib.axis_2">
    <g id="ytick_1">
     <g id="line2d_1">
      <path d="M 52.627031 332.866659
L 717.907031 332.866659
" clip-path="url(#p5e789d516d)" style="fill: none; stroke: #e6e8f0; stroke-width: 0.8; stroke-linecap: round"/>
     </g>
     <g id="text_10">
      <!-- 100 -->
      <g style="fill: #262626" transform="translate(23.775625 337.263221) scale(0.11 -0.11)">
       <defs>
        <path id="MicrosoftYaHei-31" d="M 1781 0
L 1781 4141
Q 1638 3997 1295 3819
Q 953 3641 663 3569
L 663 4169
Q 1047 4275 1484 4508
Q 1922 4741 2156 4947
L 2388 4947
L 2388 0
L 1781 0
z
" transform="scale(0.015625)"/>
       </defs>
       <use xlink:href="#MicrosoftYaHei-31"/>
       <use xlink:href="#MicrosoftYaHei-30" transform="translate(58.642578 0)"/>
       <use xlink:href="#MicrosoftYaHei-30" transform="translate(117.285156 0)"/>
      </g>
     </g>
    </g>
    <g id="ytick_2">
     <g id="line2d_2">
      <path d="M 52.627031 267.147512
L 717.907031 267.147512
" clip-path="url(#p5e789d516d)" style="fill: none; stroke: #e6e8f0; stroke-width: 0.8; stroke-linecap: round"/>
     </g>
     <g id="text_11">
      <!-- 200 -->
      <g style="fill: #262626" transform="translate(23.775625 271.544075) scale(0.11 -0.11)">
       <use xlink:href="#MicrosoftYaHei-32"/>
       <use xlink:href="#MicrosoftYaHei-30" transform="translate(58.642578 0)"/>
       <use xlink:href="#MicrosoftYaHei-30" transform="translate(117.285156 0)"/>
      </g>
     </g>
    </g>
    <g id="ytick_3">
     <g id="line2d_3">
      <path d="M 52.627031 201.428366
L 717.907031 201.428366
" clip-path="url(#p5e789d516d)" style="fill: none; stroke: #e6e8f0; stroke-width: 0.8; stroke-linecap: round"/>
     </g>
     <g id="text_12">
      <!-- 300 -->
      <g style="fill: #262626" transform="translate(23.775625 205.824928) scale(0.11 -0.11)">
       <use xlink:href="#MicrosoftYaHei-33"/>
       <use xlink:href="#MicrosoftYaHei-30" transform="translate(58.642578 0)"/>
       <use xlink:href="#MicrosoftYaHei-30" transform="translate(117.285156 0)"/>
      </g>
     </g>
    </g>
    <g id="ytick_4">
     <g id="line2d_4">
      <path d="M 52.627031 135.709219
L 717.907031 135.709219
" clip-path="url(#p5e789d516d)" style="fill: none; stroke: #e6e8f0; stroke-width: 0.8; stroke-linecap: round"/>
     </g>
     <g id="text_13">
      <!-- 400 -->
      <g style="fill: #262626" transform="translate(23.775625 140.105782) scale(0.11 -0.11)">
       <use xlink:href="#MicrosoftYaHei-34"/>
       <use xlink:href="#MicrosoftYaHei-30" transform="translate(58.642578 0)"/>
       <use xlink:href="#MicrosoftYaHei-30" transform="translate(117.285156 0)"/>
      </g>
     </g>
    </g>
    <g id="text_14">
     <!-- 中位运行时间（毫秒） -->
     <g style="fill: #1f2430" transform="translate(16.7925 294.864) rotate(-90) scale(0.12 -0.12)">
      <defs>
       <path id="MicrosoftYaHei-4e2d" d="M 525 3972
L 2931 3972
L 2931 5334
L 3469 5334
L 3469 3972
L 5900 3972
L 5900 1122
L 5388 1122
L 5388 1459
L 3469 1459
L 3469 -866
L 2931 -866
L 2931 1459
L 1038 1459
L 1038 1122
L 525 1122
L 525 3972
z
M 5388 3509
L 3469 3509
L 3469 1922
L 5388 1922
L 5388 3509
z
M 1038 1922
L 2931 1922
L 2931 3509
L 1038 3509
L 1038 1922
z
" transform="scale(0.015625)"/>
       <path id="MicrosoftYaHei-4f4d" d="M 1788 -59
L 4228 -59
Q 4678 1144 5269 3372
L 5831 3203
Q 5453 2044 4756 -59
L 6319 -59
L 6319 -522
L 1788 -522
L 1788 -59
z
M 81 2291
Q 975 3641 1431 5322
L 1963 5191
Q 1703 4397 1406 3709
L 1406 -853
L 938 -853
L 938 2731
Q 644 2181 319 1716
Q 231 1953 81 2291
z
M 1919 4191
L 4122 4191
Q 3844 4659 3506 5059
L 3931 5353
Q 4206 5034 4613 4497
L 4150 4191
L 6206 4191
L 6206 3728
L 1919 3728
L 1919 4191
z
M 2769 3309
Q 3181 2184 3669 584
L 3150 434
Q 2725 1966 2294 3147
L 2769 3309
z
" transform="scale(0.015625)"/>
       <path id="MicrosoftYaHei-8fd0" d="M 4319 2197
L 4713 2447
Q 5419 1522 5963 666
L 5513 359
Q 5372 597 5225 834
Q 3450 722 2681 622
Q 2469 591 2238 516
L 2006 966
Q 2250 1134 2413 1366
Q 2838 2009 3250 2859
L 1919 2859
L 1919 3334
L 6200 3334
L 6200 2859
L 3844 2859
Q 3303 1866 2800 1116
Q 3750 1172 4959 1253
Q 4650 1731 4319 2197
z
M 2756 -141
L 4588 -178
L 6313 -109
Q 6206 -366 6113 -609
L 4250 -622
L 2650 -603
Q 1656 -578 1156 122
Q 769 -209 369 -697
L 100 -166
Q 116 -147 931 547
L 931 2678
L 131 2678
L 131 3141
L 1431 3141
L 1431 459
Q 1903 -125 2756 -141
z
M 2338 4947
L 5838 4947
L 5838 4472
L 2338 4472
L 2338 4947
z
M 794 5278
Q 1275 4697 1744 4078
L 1300 3778
Q 881 4403 413 5003
L 794 5278
z
" transform="scale(0.015625)"/>
       <path id="MicrosoftYaHei-884c" d="M 2363 2978
L 6319 2978
L 6319 2509
L 5106 2509
L 5106 66
Q 5106 -709 4325 -709
Q 3800 -709 3256 -703
Q 3219 -453 3163 -141
Q 3650 -191 4144 -191
Q 4575 -191 4575 234
L 4575 2509
L 2363 2509
L 2363 2978
z
M 100 1578
Q 1069 2372 1863 3809
L 2300 3541
Q 1978 2984 1619 2500
L 1619 -809
L 1100 -809
L 1100 1856
Q 725 1431 319 1072
Q 219 1334 100 1578
z
M 2725 4866
L 5969 4866
L 5969 4397
L 2725 4397
L 2725 4866
z
M 131 3559
Q 1125 4328 1731 5347
L 2181 5072
Q 1456 3959 381 3078
Q 269 3316 131 3559
z
" transform="scale(0.015625)"/>
       <path id="MicrosoftYaHei-65f6" d="M 344 4728
L 2500 4728
L 2500 -366
L 2006 -366
L 2006 153
L 838 153
L 838 -441
L 344 -441
L 344 4728
z
M 2706 3941
L 4925 3941
L 4925 5322
L 5425 5322
L 5425 3941
L 6313 3941
L 6313 3478
L 5425 3478
L 5425 116
Q 5425 -722 4625 -722
Q 4263 -722 3563 -703
Q 3531 -478 3463 -178
Q 4119 -228 4488 -228
Q 4925 -228 4925 216
L 4925 3478
L 2706 3478
L 2706 3941
z
M 838 616
L 2006 616
L 2006 2234
L 838 2234
L 838 616
z
M 2006 4266
L 838 4266
L 838 2684
L 2006 2684
L 2006 4266
z
M 3406 2878
Q 3906 1966 4163 1422
Q 4000 1347 3663 1172
Q 3419 1766 2963 2653
L 3406 2878
z
" transform="scale(0.015625)"/>
       <path id="MicrosoftYaHei-95f4" d="M 1863 3647
L 4513 3647
L 4513 553
L 2313 553
L 2313 166
L 1863 166
L 1863 3647
z
M 2388 4453
L 2388 4922
L 6013 4922
L 6013 -28
Q 6013 -816 5119 -816
Q 4756 -816 4169 -803
Q 4144 -616 4069 -297
Q 4588 -334 5056 -334
Q 5525 -334 5525 122
L 5525 4453
L 2388 4453
z
M 419 4084
L 906 4084
L 906 -816
L 419 -816
L 419 4084
z
M 2313 997
L 4063 997
L 4063 1884
L 2313 1884
L 2313 997
z
M 4063 3203
L 2313 3203
L 2313 2328
L 4063 2328
L 4063 3203
z
M 744 5003
L 1100 5322
Q 1575 4872 1981 4447
L 1575 4091
Q 1194 4541 744 5003
z
" transform="scale(0.015625)"/>
       <path id="MicrosoftYaHei-6beb" d="M 238 -47
L 194 297
L 2763 469
L 2763 847
L 781 709
L 738 1066
L 2763 1200
L 2763 1559
Q 1875 1506 1056 1472
Q 1031 1591 975 1822
Q 3006 1909 5106 2078
L 5231 1734
Q 4181 1650 3213 1588
L 3213 1228
L 5425 1378
L 5456 1034
L 3213 878
L 3213 497
L 6188 697
L 6225 347
L 3213 147
L 3213 53
Q 3213 -309 3575 -309
L 5200 -309
Q 5463 -309 5525 -153
Q 5575 -22 5619 247
Q 5850 134 6056 84
Q 5950 -428 5788 -559
Q 5631 -703 5163 -703
L 3394 -703
Q 2763 -703 2763 -47
L 2763 119
L 238 -47
z
M 1131 4047
L 5269 4047
L 5269 2853
L 4819 2853
L 4819 2972
L 1581 2972
L 1581 2853
L 1131 2853
L 1131 4047
z
M 350 2628
L 6063 2628
L 6063 1666
L 5606 1666
L 5606 2253
L 806 2253
L 806 1666
L 350 1666
L 350 2628
z
M 213 4747
L 3016 4747
Q 2894 4972 2794 5153
L 3244 5366
Q 3381 5113 3563 4747
L 6200 4747
L 6200 4372
L 213 4372
L 213 4747
z
M 4819 3709
L 1581 3709
L 1581 3309
L 4819 3309
L 4819 3709
z
" transform="scale(0.015625)"/>
       <path id="MicrosoftYaHei-79d2" d="M 44 903
Q 616 1744 978 3059
L 113 3059
L 113 3484
L 1100 3484
L 1100 4456
Q 703 4400 281 4353
Q 231 4566 150 4784
Q 1244 4878 2344 5128
L 2481 4691
Q 2041 4603 1563 4525
L 1563 3484
L 2438 3484
L 2438 3059
L 1563 3059
L 1563 2178
L 1844 2422
Q 2094 2166 2575 1603
L 2200 1297
Q 1809 1794 1563 2088
L 1563 -822
L 1100 -822
L 1100 2175
Q 766 1059 256 359
Q 156 628 44 903
z
M 1944 -316
Q 4481 253 5594 2284
L 6025 2003
Q 4756 -141 2206 -766
Q 2088 -534 1944 -316
z
M 4025 5278
L 4513 5278
L 4513 1328
L 4025 1328
L 4025 5278
z
M 3075 4266
L 3544 4141
Q 3275 3078 2906 1997
Q 2681 2097 2425 2172
Q 2850 3247 3075 4266
z
M 4950 4141
L 5375 4341
Q 5856 3566 6281 2722
L 5831 2484
Q 5444 3328 4950 4141
z
" transform="scale(0.015625)"/>
      </defs>
      <use xlink:href="#MicrosoftYaHei-4e2d"/>
      <use xlink:href="#MicrosoftYaHei-4f4d" transform="translate(100 0)"/>
      <use xlink:href="#MicrosoftYaHei-8fd0" transform="translate(200 0)"/>
      <use xlink:href="#MicrosoftYaHei-884c" transform="translate(300 0)"/>
      <use xlink:href="#MicrosoftYaHei-65f6" transform="translate(400 0)"/>
      <use xlink:href="#MicrosoftYaHei-95f4" transform="translate(500 0)"/>
      <use xlink:href="#MicrosoftYaHei-ff08" transform="translate(600 0)"/>
      <use xlink:href="#MicrosoftYaHei-6beb" transform="translate(700 0)"/>
      <use xlink:href="#MicrosoftYaHei-79d2" transform="translate(800 0)"/>
      <use xlink:href="#MicrosoftYaHei-ff09" transform="translate(900 0)"/>
     </g>
    </g>
   </g>
   <g id="line2d_5">
    <path d="M 82.867031 352.486584
L 154.010032 332.896298
L 305.167786 288.877548
L 469.759906 236.853811
L 567.602656 174.622117
L 687.667031 98.914909
" clip-path="url(#p5e789d516d)" style="fill: none; stroke-dasharray: 4.81,2.08; stroke-dashoffset: 0; stroke: #f0986e; stroke-width: 1.3"/>
    <defs>
     <path id="m6a28291d66" d="M 0 3
C 0.795609 3 1.55874 2.683901 2.12132 2.12132
C 2.683901 1.55874 3 0.795609 3 0
C 3 -0.795609 2.683901 -1.55874 2.12132 -2.12132
C 1.55874 -2.683901 0.795609 -3 0 -3
C -0.795609 -3 -1.55874 -2.683901 -2.12132 -2.12132
C -2.683901 -1.55874 -3 -0.795609 -3 0
C -3 0.795609 -2.683901 1.55874 -2.12132 2.12132
C -1.55874 2.683901 -0.795609 3 0 3
z
" style="stroke: #804126"/>
    </defs>
    <g clip-path="url(#p5e789d516d)">
     <use xlink:href="#m6a28291d66" x="82.867031" y="352.486584" style="fill: #f0986e; stroke: #804126"/>
     <use xlink:href="#m6a28291d66" x="154.010032" y="332.896298" style="fill: #f0986e; stroke: #804126"/>
     <use xlink:href="#m6a28291d66" x="305.167786" y="288.877548" style="fill: #f0986e; stroke: #804126"/>
     <use xlink:href="#m6a28291d66" x="469.759906" y="236.853811" style="fill: #f0986e; stroke: #804126"/>
     <use xlink:href="#m6a28291d66" x="567.602656" y="174.622117" style="fill: #f0986e; stroke: #804126"/>
     <use xlink:href="#m6a28291d66" x="687.667031" y="98.914909" style="fill: #f0986e; stroke: #804126"/>
    </g>
   </g>
   <g id="line2d_6">
    <path d="M 82.867031 370.813091
L 154.010032 367.202218
L 305.167786 366.777147
L 469.759906 367.231923
L 567.602656 362.040768
L 687.667031 358.556799
" clip-path="url(#p5e789d516d)" style="fill: none; stroke: #a3befa; stroke-width: 1.3; stroke-linecap: round"/>
    <defs>
     <path id="mac3dedb52e" d="M -3 3
L 3 3
L 3 -3
L -3 -3
z
" style="stroke: #2e4780; stroke-linejoin: miter"/>
    </defs>
    <g clip-path="url(#p5e789d516d)">
     <use xlink:href="#mac3dedb52e" x="82.867031" y="370.813091" style="fill: #a3befa; stroke: #2e4780; stroke-linejoin: miter"/>
     <use xlink:href="#mac3dedb52e" x="154.010032" y="367.202218" style="fill: #a3befa; stroke: #2e4780; stroke-linejoin: miter"/>
     <use xlink:href="#mac3dedb52e" x="305.167786" y="366.777147" style="fill: #a3befa; stroke: #2e4780; stroke-linejoin: miter"/>
     <use xlink:href="#mac3dedb52e" x="469.759906" y="367.231923" style="fill: #a3befa; stroke: #2e4780; stroke-linejoin: miter"/>
     <use xlink:href="#mac3dedb52e" x="567.602656" y="362.040768" style="fill: #a3befa; stroke: #2e4780; stroke-linejoin: miter"/>
     <use xlink:href="#mac3dedb52e" x="687.667031" y="358.556799" style="fill: #a3befa; stroke: #2e4780; stroke-linejoin: miter"/>
    </g>
   </g>
   <g id="patch_3">
    <path d="M 52.627031 384.408
L 52.627031 85.32
" style="fill: none; stroke: #d7dbe7; stroke-width: 1.25; stroke-linejoin: miter; stroke-linecap: square"/>
   </g>
   <g id="patch_4">
    <path d="M 52.627031 384.408
L 717.907031 384.408
" style="fill: none; stroke: #d7dbe7; stroke-width: 1.25; stroke-linejoin: miter; stroke-linecap: square"/>
   </g>
   <g id="legend_1">
    <g id="line2d_7">
     <path d="M 57.027031 68.353709
L 68.027031 68.353709
L 79.027031 68.353709
" style="fill: none; stroke-dasharray: 4.81,2.08; stroke-dashoffset: 0; stroke: #f0986e; stroke-width: 1.3"/>
     <g>
      <use xlink:href="#m6a28291d66" x="68.027031" y="68.353709" style="fill: #f0986e; stroke: #804126"/>
     </g>
    </g>
    <g id="text_15">
     <!-- 埃德蒙兹-卡普 -->
     <g style="fill: #262626" transform="translate(87.827031 72.203709) scale(0.11 -0.11)">
      <defs>
       <path id="MicrosoftYaHei-57c3" d="M 2219 1447
L 3909 1447
Q 3941 1775 3947 2222
L 2925 2222
Q 2681 1834 2413 1547
Q 2250 1678 2025 1847
Q 2625 2491 2925 3241
L 3381 3097
Q 3281 2866 3172 2659
L 5956 2659
L 5956 2222
L 4428 2222
Q 4422 1781 4394 1447
L 6213 1447
L 6213 1009
L 4463 1009
Q 5066 -94 6369 -341
Q 6169 -597 6000 -841
Q 4806 -438 4184 688
Q 3756 -306 1994 -916
Q 1863 -709 1675 -453
Q 3466 44 3819 1009
L 2219 1009
L 2219 1447
z
M 44 634
Q 466 734 938 859
L 938 3297
L 125 3297
L 125 3753
L 938 3753
L 938 5241
L 1406 5241
L 1406 3753
L 2100 3753
L 2100 3297
L 1406 3297
L 1406 988
Q 1728 1081 2075 1184
Q 2075 884 2088 691
Q 1119 422 138 103
L 44 634
z
M 5144 4709
Q 5794 3884 6275 3234
L 5844 2928
Q 5672 3191 5491 3450
Q 4188 3391 3069 3309
Q 2819 3291 2513 3197
L 2288 3691
Q 2538 3784 2756 3978
Q 3319 4522 3813 5372
L 4313 5147
Q 3694 4328 3175 3759
Q 4319 3806 5206 3856
Q 4991 4156 4769 4453
L 5144 4709
z
" transform="scale(0.015625)"/>
       <path id="MicrosoftYaHei-5fb7" d="M 2150 3853
L 3775 3853
L 3775 4353
L 1981 4353
L 1981 4747
L 3775 4747
L 3775 5328
L 4225 5328
L 4225 4747
L 6150 4747
L 6150 4353
L 4225 4353
L 4225 3853
L 5881 3853
L 5881 2097
L 5463 2097
L 5463 2291
L 2569 2291
L 2569 2097
L 2150 2097
L 2150 3853
z
M 75 1597
Q 875 2378 1544 3641
L 1963 3428
Q 1691 2925 1400 2484
L 1400 -828
L 950 -828
L 950 1863
Q 628 1453 281 1109
Q 188 1353 75 1597
z
M 2775 1034
L 3213 1034
L 3213 122
Q 3213 -247 3550 -247
L 4325 -247
Q 4744 -247 4800 41
Q 4856 334 4881 722
Q 5088 641 5350 547
Q 5269 134 5213 -122
Q 5106 -659 4519 -659
L 3450 -659
Q 2775 -659 2775 78
L 2775 1034
z
M 1825 1772
L 6244 1772
L 6244 1378
L 1825 1378
L 1825 1772
z
M 106 3584
Q 894 4272 1519 5322
L 1944 5066
Q 1163 3866 344 3134
Q 231 3359 106 3584
z
M 2138 1041
L 2550 891
Q 2281 159 1963 -409
Q 1806 -328 1569 -197
Q 1919 372 2138 1041
z
M 5463 3472
L 4756 3472
L 4756 2672
L 5463 2672
L 5463 3472
z
M 3663 2672
L 4363 2672
L 4363 3472
L 3663 3472
L 3663 2672
z
M 2569 2672
L 3269 2672
L 3269 3472
L 2569 3472
L 2569 2672
z
M 5325 922
L 5700 1128
Q 5969 747 6331 72
L 5913 -153
Q 5681 372 5325 922
z
M 3500 1097
L 3813 1328
Q 4163 953 4456 559
L 4094 291
Q 3844 666 3500 1097
z
" transform="scale(0.015625)"/>
       <path id="MicrosoftYaHei-8499" d="M 5444 1941
L 5681 1547
Q 5194 1347 4706 1166
Q 5200 216 6319 -147
Q 6113 -403 5981 -566
Q 4906 -97 4313 1022
Q 4088 941 3869 866
Q 3944 597 3944 316
Q 3944 -816 2931 -816
Q 2488 -816 2088 -803
Q 2063 -653 1981 -347
Q 2394 -391 2831 -391
Q 3506 -391 3506 328
Q 3506 434 3488 566
Q 2294 -128 350 -747
Q 250 -559 138 -372
Q 2056 122 3381 928
Q 3325 1084 3200 1266
Q 2019 622 450 103
Q 356 278 206 478
Q 1800 897 3000 1528
Q 2894 1659 2763 1766
Q 1925 1397 425 966
Q 338 1141 206 1347
Q 1500 1609 2744 2084
L 350 2084
L 350 2447
L 6075 2447
L 6075 2084
L 3525 2084
Q 3356 2009 3150 1928
Q 3475 1653 3738 1216
Q 4631 1534 5444 1941
z
M 131 4803
L 2000 4803
L 2000 5297
L 2438 5297
L 2438 4803
L 3956 4803
L 3956 5297
L 4394 5297
L 4394 4803
L 6306 4803
L 6306 4416
L 4394 4416
L 4394 4059
L 3956 4059
L 3956 4416
L 2438 4416
L 2438 4059
L 2000 4059
L 2000 4416
L 131 4416
L 131 4803
z
M 338 3909
L 6063 3909
L 6063 3009
L 5588 3009
L 5588 3547
L 813 3547
L 813 3009
L 338 3009
L 338 3909
z
M 1263 3172
L 5125 3172
L 5125 2822
L 1263 2822
L 1263 3172
z
" transform="scale(0.015625)"/>
       <path id="MicrosoftYaHei-5179" d="M 3713 2134
Q 4141 2144 4734 2181
Q 4991 2628 5225 3091
L 5706 2859
Q 4731 1203 3825 3
Q 4538 38 5347 91
Q 5134 516 4900 953
L 5306 1134
Q 5813 209 6225 -634
L 5794 -828
Q 5672 -569 5544 -303
Q 4316 -372 3250 -466
L 3100 -53
Q 3319 72 3450 241
Q 4006 978 4491 1769
Q 3850 1728 3225 1666
L 3119 2078
Q 3703 2788 4241 3822
L 2059 3822
Q 1453 2816 925 2091
Q 1384 2106 2006 2147
Q 2263 2588 2481 3028
L 2956 2797
Q 2025 1191 1038 -9
Q 1722 38 2444 88
Q 2275 478 2094 872
L 2494 1047
Q 2881 228 3188 -522
L 2769 -709
Q 2691 -509 2609 -306
Q 1172 -406 506 -491
L 369 -59
Q 569 53 744 278
Q 1303 1003 1756 1725
Q 953 1678 469 1628
L 363 2047
Q 856 2625 1494 3822
L 163 3822
L 163 4259
L 2150 4259
Q 1784 4663 1400 5016
L 1719 5316
Q 2188 4922 2575 4516
L 2309 4259
L 3800 4259
Q 4200 4766 4600 5322
L 5031 5053
Q 4681 4622 4381 4259
L 6263 4259
L 6263 3822
L 4791 3822
Q 4278 2931 3713 2134
z
" transform="scale(0.015625)"/>
       <path id="MicrosoftYaHei-2d" d="M 2328 1681
L 488 1681
L 488 2153
L 2328 2153
L 2328 1681
z
" transform="scale(0.015625)"/>
       <path id="MicrosoftYaHei-5361" d="M 194 2909
L 2688 2909
L 2688 5297
L 3213 5297
L 3213 4366
L 5838 4366
L 5838 3903
L 3213 3903
L 3213 2909
L 6231 2909
L 6231 2434
L 194 2434
L 194 2909
z
M 2681 2209
L 3206 2209
L 3206 1491
L 3463 1822
Q 4950 1141 5881 616
L 5556 153
Q 4706 672 3206 1397
L 3206 -859
L 2681 -859
L 2681 2209
z
" transform="scale(0.015625)"/>
       <path id="MicrosoftYaHei-666e" d="M 1025 1934
L 5375 1934
L 5375 -828
L 4900 -828
L 4900 -541
L 1500 -541
L 1500 -828
L 1025 -828
L 1025 1934
z
M 150 2872
L 2256 2872
L 2256 4159
L 350 4159
L 350 4584
L 2066 4584
Q 1881 4838 1638 5109
L 2000 5372
Q 2288 5078 2538 4772
L 2275 4584
L 3872 4584
Q 4116 4938 4369 5359
L 4825 5109
Q 4619 4822 4438 4584
L 6050 4584
L 6050 4159
L 4144 4159
L 4144 2872
L 6250 2872
L 6250 2447
L 150 2447
L 150 2872
z
M 1500 -116
L 4900 -116
L 4900 491
L 1500 491
L 1500 -116
z
M 4900 1509
L 1500 1509
L 1500 903
L 4900 903
L 4900 1509
z
M 2713 2872
L 3688 2872
L 3688 4159
L 2713 4159
L 2713 2872
z
M 4513 3259
Q 4850 3603 5175 4041
L 5575 3753
Q 5225 3334 4863 2966
L 4513 3259
z
M 788 3722
L 1125 4028
Q 1525 3647 1838 3309
L 1475 2984
Q 1194 3316 788 3722
z
" transform="scale(0.015625)"/>
      </defs>
      <use xlink:href="#MicrosoftYaHei-57c3"/>
      <use xlink:href="#MicrosoftYaHei-5fb7" transform="translate(100 0)"/>
      <use xlink:href="#MicrosoftYaHei-8499" transform="translate(200 0)"/>
      <use xlink:href="#MicrosoftYaHei-5179" transform="translate(300 0)"/>
      <use xlink:href="#MicrosoftYaHei-2d" transform="translate(400 0)"/>
      <use xlink:href="#MicrosoftYaHei-5361" transform="translate(443.261719 0)"/>
      <use xlink:href="#MicrosoftYaHei-666e" transform="translate(543.261719 0)"/>
     </g>
    </g>
    <g id="line2d_8">
     <path d="M 180.58625 68.353709
L 191.58625 68.353709
L 202.58625 68.353709
" style="fill: none; stroke: #a3befa; stroke-width: 1.3; stroke-linecap: round"/>
     <g>
      <use xlink:href="#mac3dedb52e" x="191.58625" y="68.353709" style="fill: #a3befa; stroke: #2e4780; stroke-linejoin: miter"/>
     </g>
    </g>
    <g id="text_16">
     <!-- 迪尼茨算法 -->
     <g style="fill: #262626" transform="translate(211.38625 72.203709) scale(0.11 -0.11)">
      <defs>
       <path id="MicrosoftYaHei-8fea" d="M 2200 4322
L 3775 4322
L 3775 5328
L 4238 5328
L 4238 4322
L 5813 4322
L 5813 316
L 5363 316
L 5363 559
L 2650 559
L 2650 278
L 2200 278
L 2200 4322
z
M 2816 -219
L 4206 -241
L 6319 -191
Q 6213 -441 6113 -672
L 4463 -684
L 2844 -669
Q 1588 -653 1088 47
Q 906 -97 356 -753
L 88 -222
Q 478 131 863 459
L 863 2641
L 150 2641
L 150 3097
L 1350 3097
L 1350 366
Q 1809 -200 2816 -219
z
M 5363 3909
L 4238 3909
L 4238 2641
L 5363 2641
L 5363 3909
z
M 2650 2641
L 3775 2641
L 3775 3909
L 2650 3909
L 2650 2641
z
M 2650 972
L 3775 972
L 3775 2241
L 2650 2241
L 2650 972
z
M 4238 972
L 5363 972
L 5363 2241
L 4238 2241
L 4238 972
z
M 731 5266
Q 1194 4722 1694 4047
L 1244 3747
Q 838 4372 344 4984
L 731 5266
z
" transform="scale(0.015625)"/>
       <path id="MicrosoftYaHei-5c3c" d="M 1369 3059
Q 1375 316 488 -803
Q 338 -622 100 -384
Q 888 491 881 3172
L 881 4984
L 5831 4984
L 5831 2859
L 5344 2859
L 5344 3059
L 1369 3059
z
M 2256 2859
L 2763 2859
L 2763 1231
Q 4209 1766 5581 2609
L 5906 2203
Q 4572 1403 2763 725
L 2763 228
Q 2763 -197 3181 -197
L 5131 -197
Q 5600 -197 5669 191
Q 5738 584 5781 1128
Q 6044 1022 6313 941
Q 6263 516 6144 -65
Q 6025 -647 5231 -647
L 3063 -647
Q 2256 -647 2256 134
L 2256 2859
z
M 1369 4534
L 1369 3509
L 5344 3509
L 5344 4534
L 1369 4534
z
" transform="scale(0.015625)"/>
       <path id="MicrosoftYaHei-8328" d="M 238 4678
L 1863 4678
L 1863 5328
L 2350 5328
L 2350 4678
L 4125 4678
L 4125 5341
L 4625 5341
L 4625 4678
L 6225 4678
L 6225 4234
L 4625 4234
L 4625 3597
L 4125 3597
L 4125 4234
L 2350 4234
L 2350 3584
L 1863 3584
L 1863 4234
L 238 4234
L 238 4678
z
M 3556 2403
L 4044 2403
Q 4044 2150 4034 1950
Q 4500 281 6288 -328
Q 6056 -566 5863 -791
Q 4388 -141 3866 1153
Q 3450 -191 1656 -872
Q 1531 -678 1319 -397
Q 3106 141 3463 1422
Q 3563 1766 3556 2403
z
M 1706 1641
Q 2481 2784 2850 3959
L 3363 3797
Q 3234 3453 3100 3134
L 6006 3134
L 6006 2691
Q 5744 1978 5456 1422
Q 5256 1528 4988 1616
Q 5294 2172 5488 2691
L 2897 2691
Q 2544 1944 2131 1353
Q 1944 1497 1706 1641
z
M 1075 1741
Q 1325 1591 1556 1484
Q 1113 234 769 -797
L 238 -584
Q 631 328 1075 1741
z
M 556 3666
Q 988 3372 1650 2822
Q 1419 2566 1288 2422
Q 619 3028 244 3309
L 556 3666
z
" transform="scale(0.015625)"/>
       <path id="MicrosoftYaHei-7b97" d="M 969 3728
L 2006 3728
Q 1775 4016 1544 4266
L 1769 4428
L 1244 4428
Q 875 3963 400 3566
Q 263 3722 88 3884
Q 856 4484 1300 5347
L 1831 5347
Q 1684 5059 1506 4791
L 3325 4791
L 3325 4428
L 1919 4428
Q 2144 4200 2369 3953
L 2072 3728
L 4953 3728
Q 4716 4003 4425 4266
L 4641 4428
L 4019 4428
Q 3772 4050 3506 3753
Q 3344 3897 3125 4047
Q 3656 4603 4000 5347
L 4538 5347
Q 4394 5053 4244 4791
L 6225 4791
L 6225 4428
L 4800 4428
Q 5069 4206 5294 3972
L 4991 3728
L 5475 3728
L 5475 916
L 5038 916
L 5038 1122
L 1406 1122
L 1406 916
L 969 916
L 969 3728
z
M 150 609
L 1850 609
Q 1875 788 1875 1003
L 2331 1003
Q 2331 794 2309 609
L 4356 609
L 4356 997
L 4819 997
L 4819 609
L 6300 609
L 6300 222
L 4819 222
L 4819 -828
L 4356 -828
L 4356 222
L 2244 222
Q 2019 -619 763 -884
Q 644 -691 488 -472
Q 1525 -297 1756 222
L 150 222
L 150 609
z
M 5038 3378
L 1406 3378
L 1406 2959
L 5038 2959
L 5038 3378
z
M 1406 1472
L 5038 1472
L 5038 1891
L 1406 1891
L 1406 1472
z
M 1406 2216
L 5038 2216
L 5038 2634
L 1406 2634
L 1406 2216
z
" transform="scale(0.015625)"/>
       <path id="MicrosoftYaHei-6cd5" d="M 4888 1328
Q 5488 509 6181 -553
Q 5931 -697 5694 -841
Q 5519 -550 5350 -278
Q 3300 -447 2138 -559
L 1906 -16
Q 2300 159 2675 716
Q 3088 1303 3441 1953
L 1800 1953
L 1800 2403
L 3763 2403
L 3763 3728
L 2106 3728
L 2106 4178
L 3763 4178
L 3763 5322
L 4263 5322
L 4263 4178
L 5994 4178
L 5994 3728
L 4263 3728
L 4263 2403
L 6288 2403
L 6288 1953
L 4069 1953
Q 3372 806 2706 -28
Q 3897 28 5088 141
Q 4766 644 4475 1066
L 4888 1328
z
M 1013 1828
Q 1244 1728 1506 1622
Q 1063 291 731 -784
L 194 -603
Q 606 497 1013 1828
z
M 400 3622
Q 869 3291 1500 2772
Q 1269 2509 1138 2366
Q 431 2997 88 3259
L 400 3622
z
M 644 5241
Q 1144 4841 1719 4328
Q 1506 4109 1350 3941
Q 775 4509 325 4897
L 644 5241
z
" transform="scale(0.015625)"/>
      </defs>
      <use xlink:href="#MicrosoftYaHei-8fea"/>
      <use xlink:href="#MicrosoftYaHei-5c3c" transform="translate(100 0)"/>
      <use xlink:href="#MicrosoftYaHei-8328" transform="translate(200 0)"/>
      <use xlink:href="#MicrosoftYaHei-7b97" transform="translate(300 0)"/>
      <use xlink:href="#MicrosoftYaHei-6cd5" transform="translate(400 0)"/>
     </g>
    </g>
   </g>
  </g>
  <g id="text_17">
   <!-- 剩余赛程越密，网络越难分配 -->
   <g style="fill: #1f2430" transform="translate(52.627031 18.39125) scale(0.14 -0.14)">
    <defs>
     <path id="MicrosoftYaHei-Bold-5269" d="M 5281 5259
L 6044 5259
L 6044 122
Q 6044 -300 5855 -519
Q 5666 -738 5302 -753
Q 4938 -769 4525 -778
Q 4450 -316 4344 109
Q 4594 97 5006 97
Q 5281 97 5281 422
L 5281 5259
z
M 938 1253
L 938 1491
L 231 1291
L 113 1872
Q 450 1938 938 2050
L 938 2334
L 169 2334
L 169 2866
L 938 2866
L 938 3084
L 1550 3084
L 1550 1297
Q 1669 1422 1775 1550
L 1775 3309
L 219 3309
L 219 3984
L 1775 3984
L 1775 4403
L 438 4359
Q 400 4691 331 5047
Q 2244 5072 3744 5178
L 3881 4503
L 2531 4431
L 2531 3984
L 4019 3984
L 4019 3309
L 2531 3309
L 2531 1388
Q 3353 878 4144 341
L 3644 -303
Q 3069 166 2531 556
L 2531 -853
L 1775 -853
L 1775 522
Q 1225 -103 488 -709
Q 250 -184 81 109
Q 931 653 1509 1253
L 938 1253
z
M 4313 4634
L 4988 4634
L 4988 647
L 4313 647
L 4313 4634
z
M 3819 2403
Q 4044 2272 4263 2166
Q 4144 1625 3997 1461
Q 3850 1297 3625 1297
L 3363 1297
Q 2756 1297 2756 1903
L 2756 3116
L 3369 3116
L 3369 2813
Q 3653 2950 3919 3097
L 4225 2609
L 3369 2288
L 3369 2053
Q 3369 1872 3500 1872
L 3575 1872
Q 3663 1872 3717 1969
Q 3772 2066 3819 2403
z
" transform="scale(0.015625)"/>
     <path id="MicrosoftYaHei-Bold-4f59" d="M 4100 5284
L 3875 5072
Q 4894 4128 6300 3647
Q 5981 3122 5831 2841
Q 5450 2984 5100 3166
L 5100 2703
L 3763 2703
L 3763 2178
L 6050 2178
L 6050 1403
L 3763 1403
L 3763 128
Q 3763 -747 3081 -784
Q 2669 -809 1988 -809
Q 1944 -434 1825 28
Q 2300 -3 2550 -3
Q 2869 -9 2869 334
L 2869 1403
L 350 1403
L 350 2178
L 2869 2178
L 2869 2703
L 1300 2703
L 1300 3122
Q 944 2934 563 2766
Q 406 3091 81 3572
Q 1750 4209 2881 5284
L 4100 5284
z
M 4650 1272
Q 5663 522 6275 22
L 5669 -653
Q 5138 -159 4094 709
L 4650 1272
z
M 113 41
Q 1038 628 1694 1278
L 2306 722
Q 1619 22 694 -628
Q 431 -303 113 41
z
M 3288 4472
Q 2700 3934 1894 3453
L 4594 3453
Q 3894 3884 3288 4472
z
" transform="scale(0.015625)"/>
     <path id="MicrosoftYaHei-Bold-8d5b" d="M 125 1247
Q 881 1522 1388 1859
L 275 1859
L 275 2447
L 1788 2447
L 1788 2722
L 719 2722
L 719 3203
L 1788 3203
L 1788 3478
L 1175 3478
L 1175 3966
L 1788 3966
L 1788 4228
L 2575 4228
L 2575 3966
L 3831 3966
L 3831 4228
L 4619 4228
L 4619 3966
L 5231 3966
L 5231 3478
L 4619 3478
L 4619 3203
L 5713 3203
L 5713 2722
L 4619 2722
L 4619 2447
L 6150 2447
L 6150 1859
L 5044 1859
Q 5625 1472 6275 1247
Q 6113 1022 5875 609
Q 5500 772 5138 1016
L 5138 228
L 4375 228
L 4375 1028
L 2038 1028
L 2038 228
L 1275 228
L 1275 1072
Q 919 834 538 634
Q 331 953 125 1247
z
M 2850 816
L 3663 816
Q 3613 547 3513 328
Q 4775 84 6000 -209
L 5625 -897
Q 4406 -541 3119 -203
Q 2456 -766 588 -891
Q 425 -497 231 -141
Q 1694 -78 2275 128
Q 2788 309 2850 816
z
M 4138 1859
L 2244 1859
Q 2081 1697 1906 1553
L 4456 1553
Q 4294 1697 4138 1859
z
M 2575 2447
L 3831 2447
L 3831 2722
L 2575 2722
L 2575 2447
z
M 2575 3203
L 3831 3203
L 3831 3478
L 2575 3478
L 2575 3203
z
M 6106 3684
L 5431 3684
L 5431 4328
L 975 4328
L 975 3678
L 300 3678
L 300 4916
L 2744 4916
Q 2669 5091 2594 5266
L 3588 5328
Q 3650 5172 3744 4916
L 6106 4916
L 6106 3684
z
" transform="scale(0.015625)"/>
     <path id="MicrosoftYaHei-Bold-7a0b" d="M 125 3484
L 956 3484
L 956 4172
Q 584 4134 213 4109
Q 169 4584 100 4909
Q 1088 4959 2325 5172
L 2519 4391
Q 2138 4322 1756 4269
L 1756 3484
L 2469 3484
L 2469 2741
L 1756 2741
L 1756 2053
L 1931 2228
Q 2244 1966 2744 1491
L 2188 953
Q 1966 1228 1756 1466
L 1756 -866
L 956 -866
L 956 1544
Q 725 841 388 203
Q 269 741 88 1253
Q 500 1825 838 2741
L 125 2741
L 125 3484
z
M 2688 5066
L 5944 5066
L 5944 2966
L 2688 2966
L 2688 5066
z
M 5113 4341
L 3519 4341
L 3519 3691
L 5113 3691
L 5113 4341
z
M 2238 53
L 3888 53
L 3888 591
L 2663 591
L 2663 1291
L 3888 1291
L 3888 1809
L 2550 1809
L 2550 2534
L 6150 2534
L 6150 1809
L 4744 1809
L 4744 1291
L 5981 1291
L 5981 591
L 4744 591
L 4744 53
L 6300 53
L 6300 -672
L 2238 -672
L 2238 53
z
" transform="scale(0.015625)"/>
     <path id="MicrosoftYaHei-Bold-8d8a" d="M 2850 2447
L 2269 2447
L 2269 1747
L 2825 1747
L 2825 984
L 2269 984
L 2269 166
Q 2472 97 3978 97
Q 4897 97 6306 122
Q 6144 -359 6050 -716
Q 3172 -734 2278 -665
Q 1384 -597 963 69
Q 853 -509 675 -847
Q 400 -566 75 -253
Q 400 509 400 2184
L 1131 2184
Q 1125 1641 1094 1178
Q 1213 778 1488 531
L 1488 2447
L 125 2447
L 125 3209
L 1175 3209
L 1175 3822
L 306 3822
L 306 4584
L 1175 4584
L 1175 5322
L 1981 5322
L 1981 4584
L 2769 4584
L 2769 3822
L 1981 3822
L 1981 3209
L 2850 3209
L 2850 2447
z
M 5544 5309
Q 5794 5034 6119 4584
L 5697 4334
L 6200 4334
L 6200 3616
L 4984 3616
Q 5019 3013 5081 2547
Q 5278 2953 5438 3409
L 6069 3184
Q 5728 2288 5306 1563
Q 5466 1153 5581 1153
Q 5675 1153 5715 1395
Q 5756 1638 5775 2066
Q 6056 1916 6363 1772
Q 6309 1294 6231 939
Q 6153 584 5993 428
Q 5834 272 5606 272
Q 5128 272 4828 828
Q 4547 450 4238 134
Q 3956 397 3644 647
Q 4138 1066 4534 1619
Q 4347 2353 4275 3616
L 3794 3616
L 3794 2141
Q 4000 2309 4231 2491
Q 4244 2072 4306 1666
Q 3681 1197 3313 809
L 2888 1303
Q 3050 1491 3050 1803
L 3050 4334
L 4247 4334
Q 4234 4797 4238 5316
L 4956 5316
Q 4950 4794 4959 4334
L 5497 4334
Q 5300 4659 5038 5003
L 5544 5309
z
" transform="scale(0.015625)"/>
     <path id="MicrosoftYaHei-Bold-5bc6" d="M 2488 5228
L 3563 5359
Q 3616 5159 3703 4797
L 6100 4797
L 6100 3384
L 5256 3384
L 5256 4078
L 3272 4078
Q 3463 3844 3713 3503
L 3081 3103
Q 2788 3559 2506 3909
L 2778 4078
L 1156 4078
L 1156 3613
L 1706 3197
Q 1231 2603 744 2128
L 200 2634
Q 594 3028 903 3384
L 313 3384
L 313 4797
L 2628 4797
Q 2547 5059 2488 5228
z
M 4369 3991
L 5019 3547
Q 4028 2322 2675 1744
Q 2750 1656 2925 1659
L 3813 1659
Q 4066 1659 4130 1818
Q 4194 1978 4250 2503
Q 4725 2303 5031 2203
Q 4938 1759 4852 1515
Q 4766 1272 4653 1176
Q 4541 1081 4348 1032
Q 4156 984 3894 984
L 3656 984
L 3656 153
L 4919 153
L 4919 1097
L 5769 1097
L 5769 -828
L 4919 -828
L 4919 -572
L 625 -572
L 625 972
L 1475 972
L 1475 153
L 2738 153
L 2738 984
L 2581 984
Q 1997 984 1844 1444
Q 1200 1244 456 1097
Q 256 1572 113 1878
Q 1041 2028 1788 2256
L 1788 3591
L 2619 3591
L 2619 2563
Q 3625 3019 4369 3991
z
M 5256 3341
Q 5713 2872 6300 2147
L 5613 1653
Q 5156 2322 4650 2909
L 5256 3341
z
" transform="scale(0.015625)"/>
     <path id="MicrosoftYaHei-Bold-ff0c" d="M 2075 831
L 1569 -863
L 831 -863
L 1191 831
L 2075 831
z
" transform="scale(0.015625)"/>
     <path id="MicrosoftYaHei-Bold-7f51" d="M 1781 4059
L 2334 2925
Q 2581 3484 2800 4091
L 3222 3897
L 3556 4047
L 4063 2950
Q 4297 3509 4513 4116
L 5188 3828
Q 4872 2891 4488 2028
L 5144 566
L 4438 216
L 4059 1128
Q 3756 528 3425 -34
Q 3284 75 3147 175
L 2813 9
L 2328 1159
Q 1969 481 1575 -103
Q 1419 44 1194 228
L 1194 -809
L 356 -809
L 356 5078
L 6038 5078
L 6038 278
Q 6038 -206 5853 -467
Q 5669 -728 5336 -772
Q 5003 -816 4094 -816
Q 4006 -309 3900 59
Q 4344 16 4800 16
Q 5200 16 5200 409
L 5200 4297
L 1194 4297
L 1194 3753
L 1781 4059
z
M 1194 3628
L 1194 775
Q 1584 1381 1928 2066
Q 1559 2884 1194 3628
z
M 3216 3088
Q 2997 2534 2759 2025
L 3194 1091
Q 3438 1550 3669 2047
L 3216 3088
z
" transform="scale(0.015625)"/>
     <path id="MicrosoftYaHei-Bold-7edc" d="M 1025 3353
Q 1288 3366 1400 3366
Q 1644 3791 1900 4334
L 2638 3997
Q 2019 2922 1338 1784
Q 1806 1847 2313 1922
Q 2269 1503 2263 1147
Q 975 978 481 859
L 238 1559
Q 550 1878 988 2641
Q 631 2616 325 2578
L 88 3284
Q 531 3822 1163 5328
L 1938 5028
Q 1488 4172 1025 3353
z
M 2675 -859
L 2675 1666
L 5900 1666
L 5900 -859
L 5088 -859
L 5088 -572
L 3488 -572
L 3488 -859
L 2675 -859
z
M 238 -497
L 94 378
Q 875 459 2463 703
Q 2425 178 2431 -159
Q 1038 -353 238 -497
z
M 5088 884
L 3488 884
L 3488 209
L 5088 209
L 5088 884
z
M 2494 3609
Q 3225 4434 3694 5328
L 4538 5191
Q 4394 4934 4244 4703
L 6038 4703
L 6038 3953
Q 5681 3297 5056 2791
Q 5625 2584 6319 2478
Q 6188 2009 6131 1666
Q 5019 1909 4288 2297
Q 3513 1922 2463 1653
Q 2288 2134 2150 2397
Q 2975 2572 3569 2803
Q 3356 2997 3163 3241
Q 3006 3084 2894 2972
Q 2744 3247 2494 3609
z
M 3781 3972
Q 3725 3897 3656 3809
Q 3919 3441 4288 3172
Q 4800 3509 5063 3972
L 3781 3972
z
" transform="scale(0.015625)"/>
     <path id="MicrosoftYaHei-Bold-96be" d="M 3063 5328
L 3863 5116
Q 3734 4678 3575 4266
L 4541 4266
Q 4303 4681 4044 5066
L 4719 5384
Q 5069 4909 5331 4484
L 4903 4266
L 6213 4266
L 6213 3591
L 5113 3591
L 5113 2916
L 6125 2916
L 6125 2272
L 5113 2272
L 5113 1597
L 6125 1597
L 6125 953
L 5113 953
L 5113 266
L 6250 266
L 6250 -397
L 3375 -397
L 3375 -822
L 2550 -822
L 2550 2250
Q 2409 2041 2263 1841
Q 2138 2228 2009 2500
Q 1903 2131 1766 1781
L 2444 497
L 1750 34
Q 1569 428 1341 884
Q 969 216 463 -372
Q 244 59 19 428
Q 559 1041 913 1734
Q 525 2484 44 3366
L 700 3684
L 1284 2656
Q 1484 3303 1544 4009
L 163 4009
L 163 4797
L 2363 4797
Q 2328 3878 2147 3047
Q 2744 4075 3063 5328
z
M 3375 2916
L 4288 2916
L 4288 3591
L 3375 3591
L 3375 2916
z
M 3375 1597
L 4288 1597
L 4288 2272
L 3375 2272
L 3375 1597
z
M 3375 266
L 4288 266
L 4288 953
L 3375 953
L 3375 266
z
" transform="scale(0.015625)"/>
     <path id="MicrosoftYaHei-Bold-5206" d="M 6350 3028
Q 6088 2703 5750 2228
Q 5519 2409 5303 2603
Q 5219 606 5172 190
Q 5125 -225 4862 -451
Q 4600 -678 4128 -678
Q 3484 -678 2913 -659
Q 2856 -141 2781 284
Q 3594 216 3956 216
Q 4172 216 4230 408
Q 4288 600 4325 1978
L 2781 1978
Q 2728 1100 2529 631
Q 2331 163 1907 -215
Q 1484 -594 844 -872
Q 456 -353 194 -78
Q 750 144 1111 414
Q 1472 684 1630 989
Q 1788 1294 1841 1978
L 950 1978
L 950 2475
Q 794 2356 631 2247
Q 344 2653 63 2953
Q 1475 3947 2194 5316
L 3031 4953
Q 2378 3722 1391 2841
L 5047 2841
Q 4088 3766 3463 4903
L 4238 5303
Q 5038 3922 6350 3028
z
" transform="scale(0.015625)"/>
     <path id="MicrosoftYaHei-Bold-914d" d="M 163 5009
L 3406 5009
L 3406 4297
L 2519 4297
L 2519 3753
L 3325 3753
L 3325 -797
L 2663 -797
L 2663 -391
L 994 -391
L 994 -784
L 331 -784
L 331 3753
L 1138 3753
L 1138 4297
L 163 4297
L 163 5009
z
M 1700 3753
L 1981 3753
L 1981 4297
L 1700 4297
L 1700 3753
z
M 1350 1397
Q 1166 1556 994 1694
L 994 1266
L 2663 1266
L 2663 1634
L 2531 1634
Q 1981 1634 1981 2197
L 1981 3097
L 1697 3097
Q 1672 1950 1350 1397
z
M 2738 2159
L 2781 2159
L 2781 3097
L 2519 3097
L 2519 2397
Q 2519 2159 2738 2159
z
M 888 1941
Q 1131 2303 1131 3097
L 888 3097
L 888 1941
z
M 994 259
L 2663 259
L 2663 647
L 994 647
L 994 259
z
M 5538 1334
Q 5819 1209 6331 1047
Q 6209 119 6125 -164
Q 6041 -447 5842 -578
Q 5644 -709 5325 -709
L 4513 -709
Q 3713 -709 3713 153
L 3713 3003
L 5188 3003
L 5188 4184
L 3619 4184
L 3619 4984
L 6000 4984
L 6000 2203
L 4519 2203
L 4519 359
Q 4519 78 4788 78
L 5081 78
Q 5316 78 5394 250
Q 5472 422 5538 1334
z
" transform="scale(0.015625)"/>
    </defs>
    <use xlink:href="#MicrosoftYaHei-Bold-5269"/>
    <use xlink:href="#MicrosoftYaHei-Bold-4f59" transform="translate(100 0)"/>
    <use xlink:href="#MicrosoftYaHei-Bold-8d5b" transform="translate(200 0)"/>
    <use xlink:href="#MicrosoftYaHei-Bold-7a0b" transform="translate(300 0)"/>
    <use xlink:href="#MicrosoftYaHei-Bold-8d8a" transform="translate(400 0)"/>
    <use xlink:href="#MicrosoftYaHei-Bold-5bc6" transform="translate(500 0)"/>
    <use xlink:href="#MicrosoftYaHei-Bold-ff0c" transform="translate(600 0)"/>
    <use xlink:href="#MicrosoftYaHei-Bold-7f51" transform="translate(700 0)"/>
    <use xlink:href="#MicrosoftYaHei-Bold-7edc" transform="translate(800 0)"/>
    <use xlink:href="#MicrosoftYaHei-Bold-8d8a" transform="translate(900 0)"/>
    <use xlink:href="#MicrosoftYaHei-Bold-96be" transform="translate(1000 0)"/>
    <use xlink:href="#MicrosoftYaHei-Bold-5206" transform="translate(1100 0)"/>
    <use xlink:href="#MicrosoftYaHei-Bold-914d" transform="translate(1200 0)"/>
   </g>
  </g>
  <g id="text_18">
   <!-- 固定球队数量，改变球队对之间存在剩余比赛的比例；中位数覆盖所有目标球队。 -->
   <g style="fill: #6f768a" transform="translate(52.627031 37.114062) scale(0.095 -0.095)">
    <defs>
     <path id="MicrosoftYaHei-56fa" d="M 469 4997
L 5938 4997
L 5938 -834
L 5469 -834
L 5469 -509
L 944 -509
L 944 -841
L 469 -841
L 469 4997
z
M 5469 4541
L 944 4541
L 944 -53
L 5469 -53
L 5469 4541
z
M 1869 2459
L 2963 2459
L 2963 3216
L 1313 3216
L 1313 3641
L 2963 3641
L 2963 4366
L 3425 4366
L 3425 3641
L 5081 3641
L 5081 3216
L 3425 3216
L 3425 2459
L 4531 2459
L 4531 434
L 4081 434
L 4081 691
L 2319 691
L 2319 434
L 1869 434
L 1869 2459
z
M 4081 2047
L 2319 2047
L 2319 1103
L 4081 1103
L 4081 2047
z
" transform="scale(0.015625)"/>
     <path id="MicrosoftYaHei-5b9a" d="M 81 -384
Q 1119 509 1281 2241
L 1806 2159
Q 1731 1581 1578 1081
Q 2063 50 3081 -103
L 3081 2647
L 225 2647
L 225 3116
L 6163 3116
L 6163 2647
L 3600 2647
L 3600 1634
L 5775 1634
L 5775 1172
L 3600 1172
L 3600 -138
Q 4844 -169 6306 -116
Q 6200 -359 6125 -634
Q 4594 -653 3450 -616
Q 2041 -616 1378 528
Q 1022 -300 413 -872
Q 269 -628 81 -384
z
M 450 4566
L 3116 4566
Q 2931 4834 2725 5091
L 3200 5347
Q 3444 5066 3731 4716
L 3450 4566
L 5981 4566
L 5981 3378
L 5488 3378
L 5488 4097
L 944 4097
L 944 3384
L 450 3384
L 450 4566
z
" transform="scale(0.015625)"/>
     <path id="MicrosoftYaHei-7403" d="M 2244 766
Q 3059 1263 3950 1872
L 3950 3691
L 2350 3691
L 2350 4141
L 3950 4141
L 3950 5253
L 4425 5253
L 4425 4141
L 6200 4141
L 6200 3691
L 4425 3691
L 4425 3134
Q 4581 2622 4791 2184
Q 5331 2709 5694 3153
L 6100 2809
Q 5584 2300 5003 1778
Q 5547 838 6356 322
Q 6319 266 6194 128
Q 6056 -16 6000 -97
Q 4975 644 4425 2034
L 4425 16
Q 4425 -728 3650 -728
Q 3344 -728 2994 -722
Q 2956 -484 2894 -209
Q 3263 -253 3563 -253
Q 3950 -253 3950 128
L 3950 1319
Q 3303 869 2556 316
L 2244 766
z
M 94 359
Q 516 403 981 463
L 981 2353
L 213 2353
L 213 2803
L 981 2803
L 981 4272
L 131 4272
L 131 4722
L 2269 4722
L 2269 4272
L 1438 4272
L 1438 2803
L 2163 2803
L 2163 2353
L 1438 2353
L 1438 522
Q 1813 575 2213 634
Q 2188 384 2181 153
Q 1013 3 156 -128
L 94 359
z
M 2381 3022
L 2763 3253
Q 3169 2722 3569 2078
L 3169 1803
Q 2738 2534 2381 3022
z
M 4763 4884
L 5038 5197
Q 5481 4903 5850 4591
L 5550 4247
Q 5181 4591 4763 4884
z
" transform="scale(0.015625)"/>
     <path id="MicrosoftYaHei-961f" d="M 2456 1728
Q 2663 603 1831 466
Q 1575 422 1163 459
Q 1113 716 1019 997
Q 1369 916 1625 947
Q 2125 997 1931 1747
Q 1819 2266 1338 2866
Q 1688 3772 1931 4566
L 913 4566
L 913 -841
L 419 -841
L 419 5003
L 2469 5003
L 2469 4566
Q 2144 3609 1869 2947
Q 2381 2272 2456 1728
z
M 3738 5253
L 4250 5253
Q 4244 4366 4228 3656
Q 4584 794 6325 -228
Q 6094 -478 5913 -709
Q 4522 291 4056 2316
Q 3703 409 2094 -822
Q 1950 -647 1725 -422
Q 3688 972 3725 3697
Q 3738 4216 3738 5253
z
" transform="scale(0.015625)"/>
     <path id="MicrosoftYaHei-6570" d="M 4175 5303
L 4675 5228
Q 4544 4622 4369 4097
L 6281 4097
L 6281 3672
L 5888 3672
Q 5731 1834 5088 753
Q 5594 66 6375 -372
Q 6175 -647 6038 -866
Q 5275 -372 4769 309
Q 4194 -403 3400 -928
Q 3263 -747 3044 -534
Q 3919 41 4463 772
Q 3956 1647 3794 2791
Q 3663 2559 3519 2359
Q 3394 2541 3206 2759
Q 3931 3803 4175 5303
z
M 150 1697
L 1100 1697
Q 1238 1934 1369 2184
L 1819 2041
Q 1719 1866 1619 1697
L 3150 1697
L 3150 1291
Q 2913 678 2431 216
Q 2775 53 3131 -109
L 2856 -541
Q 2469 -322 2050 -103
Q 1344 -609 269 -903
Q 169 -703 56 -466
Q 969 -259 1600 128
Q 1063 403 475 691
Q 675 978 863 1284
L 150 1284
L 150 1697
z
M 219 3847
L 1656 3847
L 1656 5247
L 2119 5247
L 2119 3847
L 3319 3847
L 3319 3434
L 2119 3434
L 2119 3053
L 2306 3266
Q 2888 2841 3281 2516
L 2981 2166
Q 2638 2491 2119 2897
L 2119 2184
L 1656 2184
L 1656 3059
Q 1088 2466 331 2016
Q 213 2197 63 2397
Q 850 2822 1506 3434
L 219 3434
L 219 3847
z
M 5388 3672
L 4219 3672
Q 4188 3591 4150 3516
Q 4263 2191 4775 1247
Q 5275 2159 5388 3672
z
M 1088 834
Q 1531 634 2000 416
Q 2431 784 2675 1284
L 1375 1284
Q 1231 1053 1088 834
z
M 3038 5091
L 3425 4834
Q 3081 4384 2738 4003
Q 2594 4128 2400 4266
Q 2725 4647 3038 5091
z
M 381 4816
L 738 5059
Q 1019 4716 1319 4322
L 931 4047
Q 656 4453 381 4816
z
" transform="scale(0.015625)"/>
     <path id="MicrosoftYaHei-91cf" d="M 113 -278
L 2981 -278
L 2981 78
L 475 78
L 475 403
L 2981 403
L 2981 759
L 1494 759
L 1494 597
L 1069 597
L 1069 2516
L 5350 2516
L 5350 597
L 4925 597
L 4925 759
L 3419 759
L 3419 403
L 5931 403
L 5931 78
L 3419 78
L 3419 -278
L 6288 -278
L 6288 -616
L 113 -616
L 113 -278
z
M 1119 5072
L 5306 5072
L 5306 3284
L 4881 3284
L 4881 3453
L 1544 3453
L 1544 3284
L 1119 3284
L 1119 5072
z
M 163 3153
L 6263 3153
L 6263 2816
L 163 2816
L 163 3153
z
M 1544 3778
L 4881 3778
L 4881 4116
L 1544 4116
L 1544 3778
z
M 4881 4747
L 1544 4747
L 1544 4416
L 4881 4416
L 4881 4747
z
M 3419 1084
L 4925 1084
L 4925 1491
L 3419 1491
L 3419 1084
z
M 1494 1084
L 2981 1084
L 2981 1491
L 1494 1491
L 1494 1084
z
M 4925 2191
L 3419 2191
L 3419 1791
L 4925 1791
L 4925 2191
z
M 1494 1791
L 2981 1791
L 2981 2191
L 1494 2191
L 1494 1791
z
" transform="scale(0.015625)"/>
     <path id="MicrosoftYaHei-6539" d="M 2513 2709
Q 3106 3791 3575 5341
L 4069 5197
Q 3894 4694 3709 4234
L 6238 4234
L 6238 3772
L 5506 3772
Q 5338 1747 4597 772
Q 5203 125 6331 -259
Q 6150 -434 5938 -747
Q 4863 -234 4272 391
Q 3634 -259 2363 -847
Q 2213 -628 1994 -403
Q 3303 144 3941 791
Q 3363 1594 3147 2944
Q 2988 2616 2825 2316
Q 2669 2541 2513 2709
z
M 450 2809
L 2013 2809
L 2013 4372
L 331 4372
L 331 4809
L 2500 4809
L 2500 2034
L 2013 2034
L 2013 2372
L 938 2372
L 938 303
Q 1700 666 2500 1116
Q 2544 816 2600 609
Q 1788 203 931 -278
Q 700 -441 569 -572
L 231 -141
Q 450 59 450 422
L 450 2809
z
M 3463 3634
Q 3681 2050 4269 1184
Q 4853 2038 5016 3772
L 3522 3772
L 3463 3634
z
" transform="scale(0.015625)"/>
     <path id="MicrosoftYaHei-53d8" d="M 838 1634
L 838 2066
L 5088 2066
L 5088 1634
Q 4494 853 3659 309
Q 4675 -178 6313 -297
Q 6088 -609 5950 -822
Q 4275 -594 3178 34
Q 2122 -509 425 -866
Q 269 -622 106 -403
Q 1741 -122 2728 328
Q 2047 838 1553 1634
L 838 1634
z
M 231 4534
L 3081 4534
Q 2888 4884 2725 5141
L 3175 5359
Q 3481 4884 3600 4659
L 3359 4534
L 6200 4534
L 6200 4091
L 4181 4091
L 4181 2353
L 3700 2353
L 3700 4091
L 2694 4091
L 2694 2341
L 2213 2341
L 2213 4091
L 231 4091
L 231 4534
z
M 4475 1634
L 2116 1634
Q 2575 953 3197 572
Q 3947 1016 4475 1634
z
M 4556 3434
L 4900 3728
Q 5700 3009 6213 2459
L 5825 2116
Q 5219 2797 4556 3434
z
M 1381 3741
L 1756 3422
Q 1119 2691 500 2097
Q 344 2272 138 2447
Q 794 3009 1381 3741
z
" transform="scale(0.015625)"/>
     <path id="MicrosoftYaHei-4e4b" d="M 538 4134
L 5663 4134
L 5663 3666
Q 3991 1913 1738 534
Q 2363 -72 3544 -122
Q 5031 -147 6313 -88
Q 6163 -450 6113 -622
Q 5469 -622 3338 -597
Q 2019 -547 1250 309
Q 1188 384 1113 316
Q 688 -78 325 -516
L 50 3
Q 531 472 844 703
Q 1056 853 1256 834
Q 3406 2147 4931 3672
L 538 3672
L 538 4134
z
M 2650 5109
L 3113 5341
Q 3369 4972 3688 4441
L 3200 4178
Q 2938 4653 2650 5109
z
" transform="scale(0.015625)"/>
     <path id="MicrosoftYaHei-5b58" d="M 169 4641
L 1925 4641
Q 2053 4991 2163 5359
L 2675 5228
Q 2578 4928 2472 4641
L 6275 4641
L 6275 4178
L 2291 4178
Q 1963 3384 1563 2709
L 1563 -797
L 1081 -797
L 1081 1984
Q 747 1528 369 1141
Q 244 1359 69 1591
Q 1113 2688 1744 4178
L 169 4178
L 169 4641
z
M 1838 1791
L 3994 1791
L 3994 2203
Q 4656 2628 5156 3047
L 2256 3047
L 2256 3503
L 5869 3503
L 5869 2997
Q 5231 2491 4475 1978
L 4475 1791
L 6319 1791
L 6319 1334
L 4475 1334
L 4475 -72
Q 4475 -784 3763 -784
Q 3425 -784 2856 -766
Q 2825 -528 2775 -259
Q 3375 -322 3663 -322
Q 3994 -322 3994 9
L 3994 1334
L 1838 1334
L 1838 1791
z
" transform="scale(0.015625)"/>
     <path id="MicrosoftYaHei-5728" d="M 250 4553
L 2088 4553
Q 2241 4931 2363 5328
L 2881 5197
Q 2772 4869 2647 4553
L 6275 4553
L 6275 4091
L 2450 4091
Q 2078 3256 1581 2519
L 1581 -791
L 1094 -791
L 1094 1853
Q 756 1431 375 1047
Q 244 1266 75 1497
Q 1225 2691 1884 4091
L 250 4091
L 250 4553
z
M 1800 109
L 3756 109
L 3756 1978
L 2131 1978
L 2131 2428
L 3756 2428
L 3756 3684
L 4269 3684
L 4269 2428
L 5919 2428
L 5919 1978
L 4269 1978
L 4269 109
L 6275 109
L 6275 -328
L 1800 -328
L 1800 109
z
" transform="scale(0.015625)"/>
     <path id="MicrosoftYaHei-7684" d="M 356 4284
L 988 4284
Q 1219 4853 1369 5322
L 1894 5172
Q 1697 4694 1513 4284
L 2763 4284
L 2763 -691
L 2263 -691
L 2263 -203
L 856 -203
L 856 -734
L 356 -734
L 356 4284
z
M 2856 3003
Q 3444 3934 3850 5322
L 4375 5191
Q 4216 4719 4050 4303
L 6063 4303
Q 5988 1091 5938 259
Q 5894 -722 4906 -722
Q 4338 -722 3750 -684
Q 3713 -372 3650 -128
L 3669 -128
Q 4294 -216 4813 -216
Q 5381 -216 5425 384
Q 5494 1316 5525 3834
L 3850 3834
Q 3578 3231 3288 2772
Q 3119 2891 2856 3003
z
M 856 266
L 2263 266
L 2263 1847
L 856 1847
L 856 266
z
M 2263 3816
L 856 3816
L 856 2297
L 2263 2297
L 2263 3816
z
M 3406 2578
L 3788 2859
Q 4481 2041 4894 1441
L 4431 1116
Q 3988 1841 3406 2578
z
" transform="scale(0.015625)"/>
     <path id="MicrosoftYaHei-ff1b" d="M 1606 3531
Q 1772 3531 1890 3415
Q 2009 3300 2009 3138
Q 2009 2975 1893 2858
Q 1778 2741 1606 2741
Q 1434 2741 1318 2858
Q 1203 2975 1203 3138
Q 1203 3300 1322 3415
Q 1441 3531 1606 3531
z
M 1931 775
L 1403 -891
L 966 -891
L 1350 775
L 1931 775
z
" transform="scale(0.015625)"/>
     <path id="MicrosoftYaHei-8986" d="M 1706 191
Q 2394 572 2869 1028
L 2363 1028
L 2363 2247
Q 2231 2097 2094 1953
Q 1975 2122 1825 2259
Q 2319 2703 2619 3272
L 3050 3272
Q 2988 3153 2925 3041
L 5950 3041
L 5950 2753
L 2744 2753
Q 2644 2603 2525 2453
L 5638 2453
L 5638 922
L 5238 922
L 5238 1028
L 3344 1028
Q 3194 866 3038 722
L 5588 722
L 5588 447
Q 5094 72 4538 -184
Q 5288 -341 6306 -372
Q 6269 -447 6106 -766
Q 4856 -684 3981 -403
Q 3094 -709 1981 -866
Q 1906 -684 1750 -484
Q 2706 -384 3450 -184
Q 3000 47 2650 378
Q 2325 122 1981 -78
Q 1963 -59 1706 191
z
M 631 4353
L 2225 4353
L 2225 4722
L 300 4722
L 300 5059
L 6113 5059
L 6113 4722
L 4181 4722
L 4181 4353
L 5775 4353
L 5775 3234
L 5363 3234
L 5363 3347
L 1044 3347
L 1044 3234
L 631 3234
L 631 4353
z
M 1563 2084
L 1925 1884
Q 1656 1497 1375 1166
L 1375 -834
L 975 -834
L 975 734
Q 713 478 444 266
Q 281 453 150 566
Q 944 1166 1563 2084
z
M 2763 1309
L 5238 1309
L 5238 1609
L 2763 1609
L 2763 1309
z
M 5238 2172
L 2763 2172
L 2763 1872
L 5238 1872
L 5238 2172
z
M 1388 3191
L 1744 2991
Q 1156 2209 475 1641
Q 344 1778 156 1941
Q 844 2428 1388 3191
z
M 5363 4059
L 4181 4059
L 4181 3641
L 5363 3641
L 5363 4059
z
M 2613 3641
L 3794 3641
L 3794 4059
L 2613 4059
L 2613 3641
z
M 1044 3641
L 2225 3641
L 2225 4059
L 1044 4059
L 1044 3641
z
M 4981 447
L 3088 447
Q 3481 147 3969 -22
Q 4506 159 4981 447
z
M 2613 4353
L 3794 4353
L 3794 4722
L 2613 4722
L 2613 4353
z
" transform="scale(0.015625)"/>
     <path id="MicrosoftYaHei-76d6" d="M 138 -172
L 800 -172
L 800 1578
L 5569 1578
L 5569 -172
L 6269 -172
L 6269 -609
L 138 -609
L 138 -172
z
M 250 2534
L 2956 2534
L 2956 3103
L 600 3103
L 600 3509
L 2956 3509
L 2956 4072
L 325 4072
L 325 4491
L 2081 4491
Q 1866 4794 1631 5091
L 2013 5359
Q 2319 5016 2556 4722
L 2228 4491
L 3725 4491
Q 4053 4931 4306 5353
L 4794 5053
Q 4556 4775 4306 4491
L 6075 4491
L 6075 4072
L 3425 4072
L 3425 3509
L 5800 3509
L 5800 3103
L 3425 3103
L 3425 2534
L 6150 2534
L 6150 2116
L 250 2116
L 250 2534
z
M 5100 1172
L 4119 1172
L 4119 -172
L 5100 -172
L 5100 1172
z
M 1269 -172
L 2238 -172
L 2238 1172
L 1269 1172
L 1269 -172
z
M 2694 -172
L 3663 -172
L 3663 1172
L 2694 1172
L 2694 -172
z
" transform="scale(0.015625)"/>
     <path id="MicrosoftYaHei-6240" d="M 638 4853
Q 1675 4872 2806 5109
L 2969 4641
Q 2044 4503 1088 4434
L 1088 3466
L 2725 3466
L 2725 1159
L 2288 1159
L 2288 1434
L 1063 1434
Q 959 3 406 -834
Q 238 -628 63 -453
Q 638 334 638 2134
L 638 4853
z
M 3325 4816
Q 4813 4872 6031 5091
L 6200 4616
Q 4638 4441 3788 4391
L 3788 2997
L 6319 2997
L 6319 2566
L 5350 2566
L 5350 -809
L 4881 -809
L 4881 2566
L 3788 2566
L 3788 2216
Q 3788 247 2694 -878
Q 2513 -666 2338 -466
Q 3325 547 3325 2228
L 3325 4816
z
M 2288 1847
L 2288 3053
L 1088 3053
Q 1088 2122 1084 1847
L 2288 1847
z
" transform="scale(0.015625)"/>
     <path id="MicrosoftYaHei-6709" d="M 1856 -816
L 1363 -816
L 1363 2419
Q 909 1891 363 1403
Q 231 1622 63 1859
Q 1269 2869 1947 4097
L 238 4097
L 238 4559
L 2181 4559
Q 2359 4950 2488 5359
L 3006 5241
Q 2881 4894 2731 4559
L 6263 4559
L 6263 4097
L 2506 4097
Q 2313 3728 2081 3378
L 5506 3378
L 5506 41
Q 5506 -734 4750 -734
Q 4419 -741 3744 -741
Q 3713 -528 3650 -228
Q 4225 -272 4575 -272
Q 5006 -272 5006 153
L 5006 597
L 1856 597
L 1856 -816
z
M 1856 1022
L 5006 1022
L 5006 1772
L 1856 1772
L 1856 1022
z
M 5006 2941
L 1856 2941
L 1856 2197
L 5006 2197
L 5006 2941
z
" transform="scale(0.015625)"/>
     <path id="MicrosoftYaHei-76ee" d="M 944 5016
L 5469 5016
L 5469 -772
L 4938 -772
L 4938 -303
L 1475 -303
L 1475 -772
L 944 -772
L 944 5016
z
M 1475 1341
L 1475 159
L 4938 159
L 4938 1341
L 1475 1341
z
M 1475 2947
L 1475 1778
L 4938 1778
L 4938 2947
L 1475 2947
z
M 1475 4553
L 1475 3384
L 4938 3384
L 4938 4553
L 1475 4553
z
" transform="scale(0.015625)"/>
     <path id="MicrosoftYaHei-6807" d="M 75 1409
Q 769 2478 1025 3647
L 119 3647
L 119 4072
L 1069 4072
L 1069 5297
L 1506 5297
L 1506 4072
L 2356 4072
L 2356 3647
L 1506 3647
L 1506 2541
L 1775 2822
Q 2175 2478 2481 2159
L 2150 1816
Q 1850 2156 1506 2503
L 1506 -797
L 1069 -797
L 1069 2588
Q 738 1513 281 859
Q 194 1128 75 1409
z
M 2350 3097
L 6250 3097
L 6250 2659
L 4525 2659
L 4525 47
Q 4525 -734 3806 -734
Q 3469 -741 2975 -728
Q 2944 -503 2888 -209
Q 3319 -259 3675 -259
Q 4050 -259 4050 203
L 4050 2659
L 2350 2659
L 2350 3097
z
M 2638 4928
L 5963 4928
L 5963 4491
L 2638 4491
L 2638 4928
z
M 4938 1853
L 5381 2066
Q 5975 928 6369 72
L 5869 -147
Q 5463 822 4938 1853
z
M 2931 2066
L 3400 1878
Q 2888 734 2381 -153
Q 2188 -41 1925 66
Q 2425 872 2931 2066
z
" transform="scale(0.015625)"/>
     <path id="MicrosoftYaHei-3002" d="M 1219 863
Q 1525 863 1750 625
Q 1975 388 1975 72
Q 1975 -284 1747 -507
Q 1519 -731 1197 -731
Q 875 -731 642 -503
Q 409 -275 409 66
Q 409 413 656 638
Q 903 863 1219 863
z
M 1209 -275
Q 1328 -275 1431 -184
Q 1534 -94 1534 50
Q 1534 209 1434 304
Q 1334 400 1191 400
Q 1056 400 959 304
Q 863 209 863 53
Q 863 -100 977 -187
Q 1091 -275 1209 -275
z
" transform="scale(0.015625)"/>
    </defs>
    <use xlink:href="#MicrosoftYaHei-56fa"/>
    <use xlink:href="#MicrosoftYaHei-5b9a" transform="translate(100 0)"/>
    <use xlink:href="#MicrosoftYaHei-7403" transform="translate(200 0)"/>
    <use xlink:href="#MicrosoftYaHei-961f" transform="translate(300 0)"/>
    <use xlink:href="#MicrosoftYaHei-6570" transform="translate(400 0)"/>
    <use xlink:href="#MicrosoftYaHei-91cf" transform="translate(500 0)"/>
    <use xlink:href="#MicrosoftYaHei-ff0c" transform="translate(600 0)"/>
    <use xlink:href="#MicrosoftYaHei-6539" transform="translate(700 0)"/>
    <use xlink:href="#MicrosoftYaHei-53d8" transform="translate(800 0)"/>
    <use xlink:href="#MicrosoftYaHei-7403" transform="translate(900 0)"/>
    <use xlink:href="#MicrosoftYaHei-961f" transform="translate(1000 0)"/>
    <use xlink:href="#MicrosoftYaHei-5bf9" transform="translate(1100 0)"/>
    <use xlink:href="#MicrosoftYaHei-4e4b" transform="translate(1200 0)"/>
    <use xlink:href="#MicrosoftYaHei-95f4" transform="translate(1300 0)"/>
    <use xlink:href="#MicrosoftYaHei-5b58" transform="translate(1400 0)"/>
    <use xlink:href="#MicrosoftYaHei-5728" transform="translate(1500 0)"/>
    <use xlink:href="#MicrosoftYaHei-5269" transform="translate(1600 0)"/>
    <use xlink:href="#MicrosoftYaHei-4f59" transform="translate(1700 0)"/>
    <use xlink:href="#MicrosoftYaHei-6bd4" transform="translate(1800 0)"/>
    <use xlink:href="#MicrosoftYaHei-8d5b" transform="translate(1900 0)"/>
    <use xlink:href="#MicrosoftYaHei-7684" transform="translate(2000 0)"/>
    <use xlink:href="#MicrosoftYaHei-6bd4" transform="translate(2100 0)"/>
    <use xlink:href="#MicrosoftYaHei-4f8b" transform="translate(2200 0)"/>
    <use xlink:href="#MicrosoftYaHei-ff1b" transform="translate(2300 0)"/>
    <use xlink:href="#MicrosoftYaHei-4e2d" transform="translate(2400 0)"/>
    <use xlink:href="#MicrosoftYaHei-4f4d" transform="translate(2500 0)"/>
    <use xlink:href="#MicrosoftYaHei-6570" transform="translate(2600 0)"/>
    <use xlink:href="#MicrosoftYaHei-8986" transform="translate(2700 0)"/>
    <use xlink:href="#MicrosoftYaHei-76d6" transform="translate(2800 0)"/>
    <use xlink:href="#MicrosoftYaHei-6240" transform="translate(2900 0)"/>
    <use xlink:href="#MicrosoftYaHei-6709" transform="translate(3000 0)"/>
    <use xlink:href="#MicrosoftYaHei-76ee" transform="translate(3100 0)"/>
    <use xlink:href="#MicrosoftYaHei-6807" transform="translate(3200 0)"/>
    <use xlink:href="#MicrosoftYaHei-7403" transform="translate(3300 0)"/>
    <use xlink:href="#MicrosoftYaHei-961f" transform="translate(3400 0)"/>
    <use xlink:href="#MicrosoftYaHei-3002" transform="translate(3500 0)"/>
   </g>
  </g>
 </g>
 <defs>
  <clipPath id="p5e789d516d">
   <rect x="52.627031" y="85.32" width="665.28" height="299.088"/>
  </clipPath>
 </defs>
</svg>
