<?xml version="1.0" encoding="utf-8" standalone="no"?>
<!DOCTYPE svg PUBLIC "-//W3C//DTD SVG 1.1//EN"
  "http://www.w3.org/Graphics/SVG/1.1/DTD/svg11.dtd">
<svg xmlns:xlink="http://www.w3.org/1999/xlink" width="725.107031pt" height="429.211281pt" viewBox="0 0 725.107031 429.211281" xmlns="http://www.w3.org/2000/svg" version="1.1">
 <metadata>
  <rdf:RDF xmlns:dc="http://purl.org/dc/elements/1.1/" xmlns:cc="http://creativecommons.org/ns#" xmlns:rdf="http://www.w3.org/1999/02/22-rdf-syntax-ns#">
   <cc:Work>
    <dc:type rdf:resource="http://purl.org/dc/dcmitype/StillImage"/>
    <dc:date>2026-06-25T10:13:59.254131</dc:date>
    <dc:format>image/svg+xml</dc:format>
    <dc:creator>
     <cc:Agent>
      <dc:title>Matplotlib v3.10.0, https://matplotlib.org/</dc:title>
     </cc:Agent>
    </dc:creator>
   </cc:Work>
  </rdf:RDF>
 </metadata>
 <defs>
  <style type="text/css">*{stroke-linejoin: round; stroke-linecap: butt}</style>
 </defs>
 <g id="figure_1">
  <g id="patch_1">
   <path d="M 0 429.211281
L 725.107031 429.211281
L 725.107031 0
L 0 0
z
" style="fill: #fcfcfd"/>
  </g>
  <g id="axes_1">
   <g id="patch_2">
    <path d="M 52.627031 384.408
L 717.907031 384.408
L 717.907031 85.32
L 52.627031 85.32
z
" style="fill: #ffffff"/>
   </g>
   <g id="matplotlib.axis_1">
    <g id="xtick_1">
     <g id="text_1">
      <!-- 7.5 -->
      <g style="fill: #262626" transform="translate(59.972266 402.701125) scale(0.11 -0.11)">
       <defs>
        <path id="MicrosoftYaHei-37" d="M 3422 4463
Q 2659 3131 2223 1998
Q 1788 866 1684 0
L 1047 0
Q 1163 853 1594 1947
Q 2025 3041 2747 4300
L 347 4300
L 347 4841
L 3422 4841
L 3422 4463
z
" transform="scale(0.015625)"/>
        <path id="MicrosoftYaHei-2e" d="M 372 322
Q 372 491 487 606
Q 603 722 775 722
Q 950 722 1065 605
Q 1181 488 1181 322
Q 1181 159 1065 42
Q 950 -75 772 -75
Q 600 -75 486 42
Q 372 159 372 322
z
" transform="scale(0.015625)"/>
        <path id="MicrosoftYaHei-35" d="M 3294 1494
Q 3294 784 2823 350
Q 2353 -84 1559 -84
Q 878 -84 544 119
L 544 744
Q 1034 425 1544 425
Q 2050 425 2361 704
Q 2672 984 2672 1447
Q 2672 1909 2348 2167
Q 2025 2425 1434 2425
Q 978 2425 613 2384
L 791 4841
L 3053 4841
L 3053 4303
L 1306 4303
L 1206 2931
L 1647 2950
Q 2416 2950 2855 2567
Q 3294 2184 3294 1494
z
" transform="scale(0.015625)"/>
       </defs>
       <use xlink:href="#MicrosoftYaHei-37"/>
       <use xlink:href="#MicrosoftYaHei-2e" transform="translate(58.642578 0)"/>
       <use xlink:href="#MicrosoftYaHei-35" transform="translate(82.714844 0)"/>
      </g>
     </g>
    </g>
    <g id="xtick_2">
     <g id="text_2">
      <!-- 10.0 -->
      <g style="fill: #262626" transform="translate(132.347031 402.701125) scale(0.11 -0.11)">
       <defs>
        <path id="MicrosoftYaHei-31" d="M 1781 0
L 1781 4141
Q 1638 3997 1295 3819
Q 953 3641 663 3569
L 663 4169
Q 1047 4275 1484 4508
Q 1922 4741 2156 4947
L 2388 4947
L 2388 0
L 1781 0
z
" transform="scale(0.015625)"/>
        <path id="MicrosoftYaHei-30" d="M 284 2325
Q 284 3606 709 4264
Q 1134 4922 1941 4922
Q 3478 4922 3478 2441
Q 3478 1216 3045 567
Q 2613 -81 1831 -81
Q 1094 -81 689 534
Q 284 1150 284 2325
z
M 909 2353
Q 909 425 1888 425
Q 2850 425 2850 2384
Q 2850 4413 1906 4413
Q 909 4413 909 2353
z
" transform="scale(0.015625)"/>
       </defs>
       <use xlink:href="#MicrosoftYaHei-31"/>
       <use xlink:href="#MicrosoftYaHei-30" transform="translate(58.642578 0)"/>
       <use xlink:href="#MicrosoftYaHei-2e" transform="translate(117.285156 0)"/>
       <use xlink:href="#MicrosoftYaHei-30" transform="translate(141.357422 0)"/>
      </g>
     </g>
    </g>
    <g id="xtick_3">
     <g id="text_3">
      <!-- 12.5 -->
      <g style="fill: #262626" transform="translate(207.947031 402.701125) scale(0.11 -0.11)">
       <defs>
        <path id="MicrosoftYaHei-32" d="M 2666 3572
Q 2666 3963 2419 4186
Q 2172 4409 1747 4409
Q 1447 4409 1140 4256
Q 834 4103 569 3819
L 569 4413
Q 806 4659 1107 4790
Q 1409 4922 1816 4922
Q 2472 4922 2872 4570
Q 3272 4219 3272 3619
Q 3272 3084 3026 2693
Q 2781 2303 2188 1894
Q 1581 1475 1376 1294
Q 1172 1113 1090 947
Q 1009 781 1009 544
L 3416 544
L 3416 0
L 372 0
L 372 241
Q 372 659 486 951
Q 600 1244 862 1520
Q 1125 1797 1681 2184
Q 2250 2584 2458 2886
Q 2666 3188 2666 3572
z
" transform="scale(0.015625)"/>
       </defs>
       <use xlink:href="#MicrosoftYaHei-31"/>
       <use xlink:href="#MicrosoftYaHei-32" transform="translate(58.642578 0)"/>
       <use xlink:href="#MicrosoftYaHei-2e" transform="translate(117.285156 0)"/>
       <use xlink:href="#MicrosoftYaHei-35" transform="translate(141.357422 0)"/>
      </g>
     </g>
    </g>
    <g id="xtick_4">
     <g id="text_4">
      <!-- 15.0 -->
      <g style="fill: #262626" transform="translate(283.547031 402.701125) scale(0.11 -0.11)">
       <use xlink:href="#MicrosoftYaHei-31"/>
       <use xlink:href="#MicrosoftYaHei-35" transform="translate(58.642578 0)"/>
       <use xlink:href="#MicrosoftYaHei-2e" transform="translate(117.285156 0)"/>
       <use xlink:href="#MicrosoftYaHei-30" transform="translate(141.357422 0)"/>
      </g>
     </g>
    </g>
    <g id="xtick_5">
     <g id="text_5">
      <!-- 17.5 -->
      <g style="fill: #262626" transform="translate(359.147031 402.701125) scale(0.11 -0.11)">
       <use xlink:href="#MicrosoftYaHei-31"/>
       <use xlink:href="#MicrosoftYaHei-37" transform="translate(58.642578 0)"/>
       <use xlink:href="#MicrosoftYaHei-2e" transform="translate(117.285156 0)"/>
       <use xlink:href="#MicrosoftYaHei-35" transform="translate(141.357422 0)"/>
      </g>
     </g>
    </g>
    <g id="xtick_6">
     <g id="text_6">
      <!-- 20.0 -->
      <g style="fill: #262626" transform="translate(434.747031 402.701125) scale(0.11 -0.11)">
       <use xlink:href="#MicrosoftYaHei-32"/>
       <use xlink:href="#MicrosoftYaHei-30" transform="translate(58.642578 0)"/>
       <use xlink:href="#MicrosoftYaHei-2e" transform="translate(117.285156 0)"/>
       <use xlink:href="#MicrosoftYaHei-30" transform="translate(141.357422 0)"/>
      </g>
     </g>
    </g>
    <g id="xtick_7">
     <g id="text_7">
      <!-- 22.5 -->
      <g style="fill: #262626" transform="translate(510.347031 402.701125) scale(0.11 -0.11)">
       <use xlink:href="#MicrosoftYaHei-32"/>
       <use xlink:href="#MicrosoftYaHei-32" transform="translate(58.642578 0)"/>
       <use xlink:href="#MicrosoftYaHei-2e" transform="translate(117.285156 0)"/>
       <use xlink:href="#MicrosoftYaHei-35" transform="translate(141.357422 0)"/>
      </g>
     </g>
    </g>
    <g id="xtick_8">
     <g id="text_8">
      <!-- 25.0 -->
      <g style="fill: #262626" transform="translate(585.947031 402.701125) scale(0.11 -0.11)">
       <use xlink:href="#MicrosoftYaHei-32"/>
       <use xlink:href="#MicrosoftYaHei-35" transform="translate(58.642578 0)"/>
       <use xlink:href="#MicrosoftYaHei-2e" transform="translate(117.285156 0)"/>
       <use xlink:href="#MicrosoftYaHei-30" transform="translate(141.357422 0)"/>
      </g>
     </g>
    </g>
    <g id="xtick_9">
     <g id="text_9">
      <!-- 27.5 -->
      <g style="fill: #262626" transform="translate(661.547031 402.701125) scale(0.11 -0.11)">
       <use xlink:href="#MicrosoftYaHei-32"/>
       <use xlink:href="#MicrosoftYaHei-37" transform="translate(58.642578 0)"/>
       <use xlink:href="#MicrosoftYaHei-2e" transform="translate(117.285156 0)"/>
       <use xlink:href="#MicrosoftYaHei-35" transform="translate(141.357422 0)"/>
      </g>
     </g>
    </g>
    <g id="text_10">
     <!-- 球队数量 -->
     <g style="fill: #1f2430" transform="translate(361.267031 419.028156) scale(0.12 -0.12)">
      <defs>
       <path id="MicrosoftYaHei-7403" d="M 2244 766
Q 3059 1263 3950 1872
L 3950 3691
L 2350 3691
L 2350 4141
L 3950 4141
L 3950 5253
L 4425 5253
L 4425 4141
L 6200 4141
L 6200 3691
L 4425 3691
L 4425 3134
Q 4581 2622 4791 2184
Q 5331 2709 5694 3153
L 6100 2809
Q 5584 2300 5003 1778
Q 5547 838 6356 322
Q 6319 266 6194 128
Q 6056 -16 6000 -97
Q 4975 644 4425 2034
L 4425 16
Q 4425 -728 3650 -728
Q 3344 -728 2994 -722
Q 2956 -484 2894 -209
Q 3263 -253 3563 -253
Q 3950 -253 3950 128
L 3950 1319
Q 3303 869 2556 316
L 2244 766
z
M 94 359
Q 516 403 981 463
L 981 2353
L 213 2353
L 213 2803
L 981 2803
L 981 4272
L 131 4272
L 131 4722
L 2269 4722
L 2269 4272
L 1438 4272
L 1438 2803
L 2163 2803
L 2163 2353
L 1438 2353
L 1438 522
Q 1813 575 2213 634
Q 2188 384 2181 153
Q 1013 3 156 -128
L 94 359
z
M 2381 3022
L 2763 3253
Q 3169 2722 3569 2078
L 3169 1803
Q 2738 2534 2381 3022
z
M 4763 4884
L 5038 5197
Q 5481 4903 5850 4591
L 5550 4247
Q 5181 4591 4763 4884
z
" transform="scale(0.015625)"/>
       <path id="MicrosoftYaHei-961f" d="M 2456 1728
Q 2663 603 1831 466
Q 1575 422 1163 459
Q 1113 716 1019 997
Q 1369 916 1625 947
Q 2125 997 1931 1747
Q 1819 2266 1338 2866
Q 1688 3772 1931 4566
L 913 4566
L 913 -841
L 419 -841
L 419 5003
L 2469 5003
L 2469 4566
Q 2144 3609 1869 2947
Q 2381 2272 2456 1728
z
M 3738 5253
L 4250 5253
Q 4244 4366 4228 3656
Q 4584 794 6325 -228
Q 6094 -478 5913 -709
Q 4522 291 4056 2316
Q 3703 409 2094 -822
Q 1950 -647 1725 -422
Q 3688 972 3725 3697
Q 3738 4216 3738 5253
z
" transform="scale(0.015625)"/>
       <path id="MicrosoftYaHei-6570" d="M 4175 5303
L 4675 5228
Q 4544 4622 4369 4097
L 6281 4097
L 6281 3672
L 5888 3672
Q 5731 1834 5088 753
Q 5594 66 6375 -372
Q 6175 -647 6038 -866
Q 5275 -372 4769 309
Q 4194 -403 3400 -928
Q 3263 -747 3044 -534
Q 3919 41 4463 772
Q 3956 1647 3794 2791
Q 3663 2559 3519 2359
Q 3394 2541 3206 2759
Q 3931 3803 4175 5303
z
M 150 1697
L 1100 1697
Q 1238 1934 1369 2184
L 1819 2041
Q 1719 1866 1619 1697
L 3150 1697
L 3150 1291
Q 2913 678 2431 216
Q 2775 53 3131 -109
L 2856 -541
Q 2469 -322 2050 -103
Q 1344 -609 269 -903
Q 169 -703 56 -466
Q 969 -259 1600 128
Q 1063 403 475 691
Q 675 978 863 1284
L 150 1284
L 150 1697
z
M 219 3847
L 1656 3847
L 1656 5247
L 2119 5247
L 2119 3847
L 3319 3847
L 3319 3434
L 2119 3434
L 2119 3053
L 2306 3266
Q 2888 2841 3281 2516
L 2981 2166
Q 2638 2491 2119 2897
L 2119 2184
L 1656 2184
L 1656 3059
Q 1088 2466 331 2016
Q 213 2197 63 2397
Q 850 2822 1506 3434
L 219 3434
L 219 3847
z
M 5388 3672
L 4219 3672
Q 4188 3591 4150 3516
Q 4263 2191 4775 1247
Q 5275 2159 5388 3672
z
M 1088 834
Q 1531 634 2000 416
Q 2431 784 2675 1284
L 1375 1284
Q 1231 1053 1088 834
z
M 3038 5091
L 3425 4834
Q 3081 4384 2738 4003
Q 2594 4128 2400 4266
Q 2725 4647 3038 5091
z
M 381 4816
L 738 5059
Q 1019 4716 1319 4322
L 931 4047
Q 656 4453 381 4816
z
" transform="scale(0.015625)"/>
       <path id="MicrosoftYaHei-91cf" d="M 113 -278
L 2981 -278
L 2981 78
L 475 78
L 475 403
L 2981 403
L 2981 759
L 1494 759
L 1494 597
L 1069 597
L 1069 2516
L 5350 2516
L 5350 597
L 4925 597
L 4925 759
L 3419 759
L 3419 403
L 5931 403
L 5931 78
L 3419 78
L 3419 -278
L 6288 -278
L 6288 -616
L 113 -616
L 113 -278
z
M 1119 5072
L 5306 5072
L 5306 3284
L 4881 3284
L 4881 3453
L 1544 3453
L 1544 3284
L 1119 3284
L 1119 5072
z
M 163 3153
L 6263 3153
L 6263 2816
L 163 2816
L 163 3153
z
M 1544 3778
L 4881 3778
L 4881 4116
L 1544 4116
L 1544 3778
z
M 4881 4747
L 1544 4747
L 1544 4416
L 4881 4416
L 4881 4747
z
M 3419 1084
L 4925 1084
L 4925 1491
L 3419 1491
L 3419 1084
z
M 1494 1084
L 2981 1084
L 2981 1491
L 1494 1491
L 1494 1084
z
M 4925 2191
L 3419 2191
L 3419 1791
L 4925 1791
L 4925 2191
z
M 1494 1791
L 2981 1791
L 2981 2191
L 1494 2191
L 1494 1791
z
" transform="scale(0.015625)"/>
      </defs>
      <use xlink:href="#MicrosoftYaHei-7403"/>
      <use xlink:href="#MicrosoftYaHei-961f" transform="translate(100 0)"/>
      <use xlink:href="#MicrosoftYaHei-6570" transform="translate(200 0)"/>
      <use xlink:href="#MicrosoftYaHei-91cf" transform="translate(300 0)"/>
     </g>
    </g>
   </g>
   <g id="matplotlib.axis_2">
    <g id="ytick_1">
     <g id="line2d_1">
      <path d="M 52.627031 341.297923
L 717.907031 341.297923
" clip-path="url(#p900be684b9)" style="fill: none; stroke: #e6e8f0; stroke-width: 0.8; stroke-linecap: round"/>
     </g>
     <g id="text_11">
      <!-- 100 -->
      <g style="fill: #262626" transform="translate(23.775625 345.694485) scale(0.11 -0.11)">
       <use xlink:href="#MicrosoftYaHei-31"/>
       <use xlink:href="#MicrosoftYaHei-30" transform="translate(58.642578 0)"/>
       <use xlink:href="#MicrosoftYaHei-30" transform="translate(117.285156 0)"/>
      </g>
     </g>
    </g>
    <g id="ytick_2">
     <g id="line2d_2">
      <path d="M 52.627031 291.542915
L 717.907031 291.542915
" clip-path="url(#p900be684b9)" style="fill: none; stroke: #e6e8f0; stroke-width: 0.8; stroke-linecap: round"/>
     </g>
     <g id="text_12">
      <!-- 200 -->
      <g style="fill: #262626" transform="translate(23.775625 295.939477) scale(0.11 -0.11)">
       <use xlink:href="#MicrosoftYaHei-32"/>
       <use xlink:href="#MicrosoftYaHei-30" transform="translate(58.642578 0)"/>
       <use xlink:href="#MicrosoftYaHei-30" transform="translate(117.285156 0)"/>
      </g>
     </g>
    </g>
    <g id="ytick_3">
     <g id="line2d_3">
      <path d="M 52.627031 241.787907
L 717.907031 241.787907
" clip-path="url(#p900be684b9)" style="fill: none; stroke: #e6e8f0; stroke-width: 0.8; stroke-linecap: round"/>
     </g>
     <g id="text_13">
      <!-- 300 -->
      <g style="fill: #262626" transform="translate(23.775625 246.184469) scale(0.11 -0.11)">
       <defs>
        <path id="MicrosoftYaHei-33" d="M 447 809
Q 944 425 1569 425
Q 2069 425 2361 670
Q 2653 916 2653 1328
Q 2653 2247 1338 2247
L 934 2247
L 934 2753
L 1319 2753
Q 2484 2753 2484 3616
Q 2484 4413 1594 4413
Q 1084 4413 634 4069
L 634 4647
Q 1109 4922 1744 4922
Q 2363 4922 2738 4598
Q 3113 4275 3113 3759
Q 3113 2809 2144 2538
L 2144 2525
Q 2669 2469 2973 2155
Q 3278 1841 3278 1372
Q 3278 719 2808 319
Q 2338 -81 1556 -81
Q 869 -81 447 175
L 447 809
z
" transform="scale(0.015625)"/>
       </defs>
       <use xlink:href="#MicrosoftYaHei-33"/>
       <use xlink:href="#MicrosoftYaHei-30" transform="translate(58.642578 0)"/>
       <use xlink:href="#MicrosoftYaHei-30" transform="translate(117.285156 0)"/>
      </g>
     </g>
    </g>
    <g id="ytick_4">
     <g id="line2d_4">
      <path d="M 52.627031 192.032899
L 717.907031 192.032899
" clip-path="url(#p900be684b9)" style="fill: none; stroke: #e6e8f0; stroke-width: 0.8; stroke-linecap: round"/>
     </g>
     <g id="text_14">
      <!-- 400 -->
      <g style="fill: #262626" transform="translate(23.775625 196.429462) scale(0.11 -0.11)">
       <defs>
        <path id="MicrosoftYaHei-34" d="M 2906 4841
L 2906 1644
L 3631 1644
L 3631 1138
L 2906 1138
L 2906 0
L 2313 0
L 2313 1138
L 53 1138
L 53 1616
Q 656 2294 1265 3178
Q 1875 4063 2272 4841
L 2906 4841
z
M 741 1644
L 2313 1644
L 2313 3950
Q 1988 3366 1616 2817
Q 1244 2269 741 1644
z
" transform="scale(0.015625)"/>
       </defs>
       <use xlink:href="#MicrosoftYaHei-34"/>
       <use xlink:href="#MicrosoftYaHei-30" transform="translate(58.642578 0)"/>
       <use xlink:href="#MicrosoftYaHei-30" transform="translate(117.285156 0)"/>
      </g>
     </g>
    </g>
    <g id="ytick_5">
     <g id="line2d_5">
      <path d="M 52.627031 142.277891
L 717.907031 142.277891
" clip-path="url(#p900be684b9)" style="fill: none; stroke: #e6e8f0; stroke-width: 0.8; stroke-linecap: round"/>
     </g>
     <g id="text_15">
      <!-- 500 -->
      <g style="fill: #262626" transform="translate(23.775625 146.674454) scale(0.11 -0.11)">
       <use xlink:href="#MicrosoftYaHei-35"/>
       <use xlink:href="#MicrosoftYaHei-30" transform="translate(58.642578 0)"/>
       <use xlink:href="#MicrosoftYaHei-30" transform="translate(117.285156 0)"/>
      </g>
     </g>
    </g>
    <g id="ytick_6">
     <g id="line2d_6">
      <path d="M 52.627031 92.522883
L 717.907031 92.522883
" clip-path="url(#p900be684b9)" style="fill: none; stroke: #e6e8f0; stroke-width: 0.8; stroke-linecap: round"/>
     </g>
     <g id="text_16">
      <!-- 600 -->
      <g style="fill: #262626" transform="translate(23.775625 96.919446) scale(0.11 -0.11)">
       <defs>
        <path id="MicrosoftYaHei-36" d="M 3181 4219
Q 2803 4413 2391 4413
Q 1763 4413 1381 3866
Q 1000 3319 994 2372
L 1009 2372
Q 1353 3038 2106 3038
Q 2734 3038 3109 2628
Q 3484 2219 3484 1541
Q 3484 831 3051 375
Q 2619 -81 1947 -81
Q 1209 -81 789 495
Q 369 1072 369 2131
Q 369 3413 920 4167
Q 1472 4922 2372 4922
Q 2888 4922 3181 4781
L 3181 4219
z
M 1031 1584
Q 1031 1106 1286 765
Q 1541 425 1963 425
Q 2363 425 2613 719
Q 2863 1013 2863 1475
Q 2863 1975 2627 2253
Q 2391 2531 1956 2531
Q 1544 2531 1287 2250
Q 1031 1969 1031 1584
z
" transform="scale(0.015625)"/>
       </defs>
       <use xlink:href="#MicrosoftYaHei-36"/>
       <use xlink:href="#MicrosoftYaHei-30" transform="translate(58.642578 0)"/>
       <use xlink:href="#MicrosoftYaHei-30" transform="translate(117.285156 0)"/>
      </g>
     </g>
    </g>
    <g id="text_17">
     <!-- 峰值内存（KiB） -->
     <g style="fill: #1f2430" transform="translate(16.7925 280.034625) rotate(-90) scale(0.12 -0.12)">
      <defs>
       <path id="MicrosoftYaHei-5cf0" d="M 2369 4147
L 2369 -72
L 1950 -72
L 1950 244
L 319 141
L 319 4166
L 738 4166
L 738 566
L 1131 591
L 1131 5134
L 1556 5134
L 1556 619
L 1950 644
L 1950 4147
L 2369 4147
z
M 2450 3734
Q 3238 4472 3588 5341
L 4013 5216
Q 3909 4988 3784 4766
L 5725 4766
L 5725 4366
Q 5378 3809 4784 3384
Q 5431 3091 6306 2959
Q 6188 2759 6106 2509
Q 5100 2725 4381 3125
Q 3672 2719 2688 2459
Q 2588 2691 2450 2878
Q 3334 3069 3978 3381
Q 3584 3669 3297 4025
Q 3047 3700 2744 3397
Q 2613 3572 2450 3734
z
M 2613 459
L 4169 459
L 4169 953
L 2869 953
L 2869 1328
L 4169 1328
L 4169 1816
L 2781 1816
L 2781 2191
L 4169 2191
L 4169 2766
L 4613 2766
L 4613 2191
L 5981 2191
L 5981 1816
L 4613 1816
L 4613 1328
L 5900 1328
L 5900 953
L 4613 953
L 4613 459
L 6188 459
L 6188 84
L 4613 84
L 4613 -828
L 4169 -828
L 4169 84
L 2613 84
L 2613 459
z
M 5231 4378
L 3550 4378
L 3534 4356
Q 3863 3913 4375 3600
Q 4913 3934 5231 4378
z
" transform="scale(0.015625)"/>
       <path id="MicrosoftYaHei-503c" d="M 1619 -216
L 2250 -216
L 2250 3653
L 3725 3653
L 3725 4222
L 1913 4222
L 1913 4647
L 3725 4647
L 3725 5309
L 4200 5309
L 4200 4647
L 6169 4647
L 6169 4222
L 4200 4222
L 4200 3653
L 5713 3653
L 5713 -216
L 6306 -216
L 6306 -641
L 1619 -641
L 1619 -216
z
M 69 2247
Q 906 3497 1369 5278
L 1831 5141
Q 1581 4334 1288 3628
L 1288 -816
L 831 -816
L 831 2666
Q 563 2166 263 1734
Q 175 1997 69 2247
z
M 2713 -216
L 5250 -216
L 5250 353
L 2713 353
L 2713 -216
z
M 5250 3241
L 2713 3241
L 2713 2678
L 5250 2678
L 5250 3241
z
M 2713 1716
L 5250 1716
L 5250 2278
L 2713 2278
L 2713 1716
z
M 2713 753
L 5250 753
L 5250 1316
L 2713 1316
L 2713 753
z
" transform="scale(0.015625)"/>
       <path id="MicrosoftYaHei-5185" d="M 638 4184
L 2944 4184
L 2944 5259
L 3456 5259
L 3456 4184
L 5750 4184
L 5750 59
Q 5750 -734 4969 -728
Q 4556 -728 3956 -716
Q 3938 -503 3863 -172
Q 4456 -222 4850 -228
Q 5244 -241 5244 166
L 5244 3709
L 3444 3709
Q 3419 3141 3306 2697
Q 4413 1809 5094 1134
L 4713 728
Q 4044 1459 3156 2247
Q 2731 1328 1538 647
Q 1275 1009 1188 1097
Q 2206 1634 2581 2291
Q 2881 2772 2931 3709
L 1144 3709
L 1144 -784
L 638 -784
L 638 4184
z
" transform="scale(0.015625)"/>
       <path id="MicrosoftYaHei-5b58" d="M 169 4641
L 1925 4641
Q 2053 4991 2163 5359
L 2675 5228
Q 2578 4928 2472 4641
L 6275 4641
L 6275 4178
L 2291 4178
Q 1963 3384 1563 2709
L 1563 -797
L 1081 -797
L 1081 1984
Q 747 1528 369 1141
Q 244 1359 69 1591
Q 1113 2688 1744 4178
L 169 4178
L 169 4641
z
M 1838 1791
L 3994 1791
L 3994 2203
Q 4656 2628 5156 3047
L 2256 3047
L 2256 3503
L 5869 3503
L 5869 2997
Q 5231 2491 4475 1978
L 4475 1791
L 6319 1791
L 6319 1334
L 4475 1334
L 4475 -72
Q 4475 -784 3763 -784
Q 3425 -784 2856 -766
Q 2825 -528 2775 -259
Q 3375 -322 3663 -322
Q 3994 -322 3994 9
L 3994 1334
L 1838 1334
L 1838 1791
z
" transform="scale(0.015625)"/>
       <path id="MicrosoftYaHei-ff08" d="M 5288 -1100
Q 4172 119 4172 1850
Q 4172 3603 5288 4838
L 5825 4838
Q 4716 3572 4716 1856
Q 4716 166 5819 -1100
L 5288 -1100
z
" transform="scale(0.015625)"/>
       <path id="MicrosoftYaHei-4b" d="M 4069 0
L 3213 0
L 1394 2200
Q 1300 2316 1266 2381
L 1250 2381
L 1250 0
L 625 0
L 625 4841
L 1250 4841
L 1250 2563
L 1266 2563
Q 1319 2647 1394 2741
L 3150 4841
L 3922 4841
L 1891 2519
L 4069 0
z
" transform="scale(0.015625)"/>
       <path id="MicrosoftYaHei-69" d="M 472 4675
Q 472 4838 583 4948
Q 694 5059 856 5059
Q 1022 5059 1136 4950
Q 1250 4841 1250 4675
Q 1250 4513 1136 4405
Q 1022 4297 856 4297
Q 691 4297 581 4405
Q 472 4513 472 4675
z
M 544 0
L 544 3456
L 1156 3456
L 1156 0
L 544 0
z
" transform="scale(0.015625)"/>
       <path id="MicrosoftYaHei-42" d="M 625 0
L 625 4841
L 2047 4841
Q 2684 4841 3065 4536
Q 3447 4231 3447 3728
Q 3447 3328 3220 3022
Q 2994 2716 2597 2588
L 2597 2575
Q 3091 2519 3386 2201
Q 3681 1884 3681 1397
Q 3681 772 3232 386
Q 2784 0 2084 0
L 625 0
z
M 1250 4294
L 1250 2778
L 1819 2778
Q 2272 2778 2530 2998
Q 2788 3219 2788 3609
Q 2788 4294 1875 4294
L 1250 4294
z
M 1250 2234
L 1250 547
L 2000 547
Q 2491 547 2758 773
Q 3025 1000 3025 1403
Q 3025 2234 1897 2234
L 1250 2234
z
" transform="scale(0.015625)"/>
       <path id="MicrosoftYaHei-ff09" d="M 1113 -1100
L 575 -1100
Q 1684 163 1684 1888
Q 1684 3581 581 4838
L 1113 4838
Q 2222 3628 2222 1888
Q 2222 128 1113 -1100
z
" transform="scale(0.015625)"/>
      </defs>
      <use xlink:href="#MicrosoftYaHei-5cf0"/>
      <use xlink:href="#MicrosoftYaHei-503c" transform="translate(100 0)"/>
      <use xlink:href="#MicrosoftYaHei-5185" transform="translate(200 0)"/>
      <use xlink:href="#MicrosoftYaHei-5b58" transform="translate(300 0)"/>
      <use xlink:href="#MicrosoftYaHei-ff08" transform="translate(400 0)"/>
      <use xlink:href="#MicrosoftYaHei-4b" transform="translate(500 0)"/>
      <use xlink:href="#MicrosoftYaHei-69" transform="translate(563.476562 0)"/>
      <use xlink:href="#MicrosoftYaHei-42" transform="translate(590.087891 0)"/>
      <use xlink:href="#MicrosoftYaHei-ff09" transform="translate(652.832031 0)"/>
     </g>
    </g>
   </g>
   <g id="line2d_7">
    <path d="M 82.867031 370.813091
L 203.827031 344.471297
L 324.787031 306.776903
L 445.747031 255.013286
L 566.707031 191.804026
L 687.667031 109.724682
" clip-path="url(#p900be684b9)" style="fill: none; stroke-dasharray: 4.81,2.08; stroke-dashoffset: 0; stroke: #f0986e; stroke-width: 1.3"/>
    <defs>
     <path id="m35c41074bc" d="M 0 3
C 0.795609 3 1.55874 2.683901 2.12132 2.12132
C 2.683901 1.55874 3 0.795609 3 0
C 3 -0.795609 2.683901 -1.55874 2.12132 -2.12132
C 1.55874 -2.683901 0.795609 -3 0 -3
C -0.795609 -3 -1.55874 -2.683901 -2.12132 -2.12132
C -2.683901 -1.55874 -3 -0.795609 -3 0
C -3 0.795609 -2.683901 1.55874 -2.12132 2.12132
C -1.55874 2.683901 -0.795609 3 0 3
z
" style="stroke: #804126"/>
    </defs>
    <g clip-path="url(#p900be684b9)">
     <use xlink:href="#m35c41074bc" x="82.867031" y="370.813091" style="fill: #f0986e; stroke: #804126"/>
     <use xlink:href="#m35c41074bc" x="203.827031" y="344.471297" style="fill: #f0986e; stroke: #804126"/>
     <use xlink:href="#m35c41074bc" x="324.787031" y="306.776903" style="fill: #f0986e; stroke: #804126"/>
     <use xlink:href="#m35c41074bc" x="445.747031" y="255.013286" style="fill: #f0986e; stroke: #804126"/>
     <use xlink:href="#m35c41074bc" x="566.707031" y="191.804026" style="fill: #f0986e; stroke: #804126"/>
     <use xlink:href="#m35c41074bc" x="687.667031" y="109.724682" style="fill: #f0986e; stroke: #804126"/>
    </g>
   </g>
   <g id="line2d_8">
    <path d="M 82.867031 302.392492
L 203.827031 248.163016
L 324.787031 219.861372
L 445.747031 115.114145
L 566.707031 147.399672
L 687.667031 98.914909
" clip-path="url(#p900be684b9)" style="fill: none; stroke: #a3befa; stroke-width: 1.3; stroke-linecap: round"/>
    <defs>
     <path id="m5a12b9fdff" d="M -3 3
L 3 3
L 3 -3
L -3 -3
z
" style="stroke: #2e4780; stroke-linejoin: miter"/>
    </defs>
    <g clip-path="url(#p900be684b9)">
     <use xlink:href="#m5a12b9fdff" x="82.867031" y="302.392492" style="fill: #a3befa; stroke: #2e4780; stroke-linejoin: miter"/>
     <use xlink:href="#m5a12b9fdff" x="203.827031" y="248.163016" style="fill: #a3befa; stroke: #2e4780; stroke-linejoin: miter"/>
     <use xlink:href="#m5a12b9fdff" x="324.787031" y="219.861372" style="fill: #a3befa; stroke: #2e4780; stroke-linejoin: miter"/>
     <use xlink:href="#m5a12b9fdff" x="445.747031" y="115.114145" style="fill: #a3befa; stroke: #2e4780; stroke-linejoin: miter"/>
     <use xlink:href="#m5a12b9fdff" x="566.707031" y="147.399672" style="fill: #a3befa; stroke: #2e4780; stroke-linejoin: miter"/>
     <use xlink:href="#m5a12b9fdff" x="687.667031" y="98.914909" style="fill: #a3befa; stroke: #2e4780; stroke-linejoin: miter"/>
    </g>
   </g>
   <g id="patch_3">
    <path d="M 52.627031 384.408
L 52.627031 85.32
" style="fill: none; stroke: #d7dbe7; stroke-width: 1.25; stroke-linejoin: miter; stroke-linecap: square"/>
   </g>
   <g id="patch_4">
    <path d="M 52.627031 384.408
L 717.907031 384.408
" style="fill: none; stroke: #d7dbe7; stroke-width: 1.25; stroke-linejoin: miter; stroke-linecap: square"/>
   </g>
   <g id="legend_1">
    <g id="line2d_9">
     <path d="M 57.027031 68.353709
L 68.027031 68.353709
L 79.027031 68.353709
" style="fill: none; stroke-dasharray: 4.81,2.08; stroke-dashoffset: 0; stroke: #f0986e; stroke-width: 1.3"/>
     <g>
      <use xlink:href="#m35c41074bc" x="68.027031" y="68.353709" style="fill: #f0986e; stroke: #804126"/>
     </g>
    </g>
    <g id="text_18">
     <!-- 埃德蒙兹-卡普 -->
     <g style="fill: #262626" transform="translate(87.827031 72.203709) scale(0.11 -0.11)">
      <defs>
       <path id="MicrosoftYaHei-57c3" d="M 2219 1447
L 3909 1447
Q 3941 1775 3947 2222
L 2925 2222
Q 2681 1834 2413 1547
Q 2250 1678 2025 1847
Q 2625 2491 2925 3241
L 3381 3097
Q 3281 2866 3172 2659
L 5956 2659
L 5956 2222
L 4428 2222
Q 4422 1781 4394 1447
L 6213 1447
L 6213 1009
L 4463 1009
Q 5066 -94 6369 -341
Q 6169 -597 6000 -841
Q 4806 -438 4184 688
Q 3756 -306 1994 -916
Q 1863 -709 1675 -453
Q 3466 44 3819 1009
L 2219 1009
L 2219 1447
z
M 44 634
Q 466 734 938 859
L 938 3297
L 125 3297
L 125 3753
L 938 3753
L 938 5241
L 1406 5241
L 1406 3753
L 2100 3753
L 2100 3297
L 1406 3297
L 1406 988
Q 1728 1081 2075 1184
Q 2075 884 2088 691
Q 1119 422 138 103
L 44 634
z
M 5144 4709
Q 5794 3884 6275 3234
L 5844 2928
Q 5672 3191 5491 3450
Q 4188 3391 3069 3309
Q 2819 3291 2513 3197
L 2288 3691
Q 2538 3784 2756 3978
Q 3319 4522 3813 5372
L 4313 5147
Q 3694 4328 3175 3759
Q 4319 3806 5206 3856
Q 4991 4156 4769 4453
L 5144 4709
z
" transform="scale(0.015625)"/>
       <path id="MicrosoftYaHei-5fb7" d="M 2150 3853
L 3775 3853
L 3775 4353
L 1981 4353
L 1981 4747
L 3775 4747
L 3775 5328
L 4225 5328
L 4225 4747
L 6150 4747
L 6150 4353
L 4225 4353
L 4225 3853
L 5881 3853
L 5881 2097
L 5463 2097
L 5463 2291
L 2569 2291
L 2569 2097
L 2150 2097
L 2150 3853
z
M 75 1597
Q 875 2378 1544 3641
L 1963 3428
Q 1691 2925 1400 2484
L 1400 -828
L 950 -828
L 950 1863
Q 628 1453 281 1109
Q 188 1353 75 1597
z
M 2775 1034
L 3213 1034
L 3213 122
Q 3213 -247 3550 -247
L 4325 -247
Q 4744 -247 4800 41
Q 4856 334 4881 722
Q 5088 641 5350 547
Q 5269 134 5213 -122
Q 5106 -659 4519 -659
L 3450 -659
Q 2775 -659 2775 78
L 2775 1034
z
M 1825 1772
L 6244 1772
L 6244 1378
L 1825 1378
L 1825 1772
z
M 106 3584
Q 894 4272 1519 5322
L 1944 5066
Q 1163 3866 344 3134
Q 231 3359 106 3584
z
M 2138 1041
L 2550 891
Q 2281 159 1963 -409
Q 1806 -328 1569 -197
Q 1919 372 2138 1041
z
M 5463 3472
L 4756 3472
L 4756 2672
L 5463 2672
L 5463 3472
z
M 3663 2672
L 4363 2672
L 4363 3472
L 3663 3472
L 3663 2672
z
M 2569 2672
L 3269 2672
L 3269 3472
L 2569 3472
L 2569 2672
z
M 5325 922
L 5700 1128
Q 5969 747 6331 72
L 5913 -153
Q 5681 372 5325 922
z
M 3500 1097
L 3813 1328
Q 4163 953 4456 559
L 4094 291
Q 3844 666 3500 1097
z
" transform="scale(0.015625)"/>
       <path id="MicrosoftYaHei-8499" d="M 5444 1941
L 5681 1547
Q 5194 1347 4706 1166
Q 5200 216 6319 -147
Q 6113 -403 5981 -566
Q 4906 -97 4313 1022
Q 4088 941 3869 866
Q 3944 597 3944 316
Q 3944 -816 2931 -816
Q 2488 -816 2088 -803
Q 2063 -653 1981 -347
Q 2394 -391 2831 -391
Q 3506 -391 3506 328
Q 3506 434 3488 566
Q 2294 -128 350 -747
Q 250 -559 138 -372
Q 2056 122 3381 928
Q 3325 1084 3200 1266
Q 2019 622 450 103
Q 356 278 206 478
Q 1800 897 3000 1528
Q 2894 1659 2763 1766
Q 1925 1397 425 966
Q 338 1141 206 1347
Q 1500 1609 2744 2084
L 350 2084
L 350 2447
L 6075 2447
L 6075 2084
L 3525 2084
Q 3356 2009 3150 1928
Q 3475 1653 3738 1216
Q 4631 1534 5444 1941
z
M 131 4803
L 2000 4803
L 2000 5297
L 2438 5297
L 2438 4803
L 3956 4803
L 3956 5297
L 4394 5297
L 4394 4803
L 6306 4803
L 6306 4416
L 4394 4416
L 4394 4059
L 3956 4059
L 3956 4416
L 2438 4416
L 2438 4059
L 2000 4059
L 2000 4416
L 131 4416
L 131 4803
z
M 338 3909
L 6063 3909
L 6063 3009
L 5588 3009
L 5588 3547
L 813 3547
L 813 3009
L 338 3009
L 338 3909
z
M 1263 3172
L 5125 3172
L 5125 2822
L 1263 2822
L 1263 3172
z
" transform="scale(0.015625)"/>
       <path id="MicrosoftYaHei-5179" d="M 3713 2134
Q 4141 2144 4734 2181
Q 4991 2628 5225 3091
L 5706 2859
Q 4731 1203 3825 3
Q 4538 38 5347 91
Q 5134 516 4900 953
L 5306 1134
Q 5813 209 6225 -634
L 5794 -828
Q 5672 -569 5544 -303
Q 4316 -372 3250 -466
L 3100 -53
Q 3319 72 3450 241
Q 4006 978 4491 1769
Q 3850 1728 3225 1666
L 3119 2078
Q 3703 2788 4241 3822
L 2059 3822
Q 1453 2816 925 2091
Q 1384 2106 2006 2147
Q 2263 2588 2481 3028
L 2956 2797
Q 2025 1191 1038 -9
Q 1722 38 2444 88
Q 2275 478 2094 872
L 2494 1047
Q 2881 228 3188 -522
L 2769 -709
Q 2691 -509 2609 -306
Q 1172 -406 506 -491
L 369 -59
Q 569 53 744 278
Q 1303 1003 1756 1725
Q 953 1678 469 1628
L 363 2047
Q 856 2625 1494 3822
L 163 3822
L 163 4259
L 2150 4259
Q 1784 4663 1400 5016
L 1719 5316
Q 2188 4922 2575 4516
L 2309 4259
L 3800 4259
Q 4200 4766 4600 5322
L 5031 5053
Q 4681 4622 4381 4259
L 6263 4259
L 6263 3822
L 4791 3822
Q 4278 2931 3713 2134
z
" transform="scale(0.015625)"/>
       <path id="MicrosoftYaHei-2d" d="M 2328 1681
L 488 1681
L 488 2153
L 2328 2153
L 2328 1681
z
" transform="scale(0.015625)"/>
       <path id="MicrosoftYaHei-5361" d="M 194 2909
L 2688 2909
L 2688 5297
L 3213 5297
L 3213 4366
L 5838 4366
L 5838 3903
L 3213 3903
L 3213 2909
L 6231 2909
L 6231 2434
L 194 2434
L 194 2909
z
M 2681 2209
L 3206 2209
L 3206 1491
L 3463 1822
Q 4950 1141 5881 616
L 5556 153
Q 4706 672 3206 1397
L 3206 -859
L 2681 -859
L 2681 2209
z
" transform="scale(0.015625)"/>
       <path id="MicrosoftYaHei-666e" d="M 1025 1934
L 5375 1934
L 5375 -828
L 4900 -828
L 4900 -541
L 1500 -541
L 1500 -828
L 1025 -828
L 1025 1934
z
M 150 2872
L 2256 2872
L 2256 4159
L 350 4159
L 350 4584
L 2066 4584
Q 1881 4838 1638 5109
L 2000 5372
Q 2288 5078 2538 4772
L 2275 4584
L 3872 4584
Q 4116 4938 4369 5359
L 4825 5109
Q 4619 4822 4438 4584
L 6050 4584
L 6050 4159
L 4144 4159
L 4144 2872
L 6250 2872
L 6250 2447
L 150 2447
L 150 2872
z
M 1500 -116
L 4900 -116
L 4900 491
L 1500 491
L 1500 -116
z
M 4900 1509
L 1500 1509
L 1500 903
L 4900 903
L 4900 1509
z
M 2713 2872
L 3688 2872
L 3688 4159
L 2713 4159
L 2713 2872
z
M 4513 3259
Q 4850 3603 5175 4041
L 5575 3753
Q 5225 3334 4863 2966
L 4513 3259
z
M 788 3722
L 1125 4028
Q 1525 3647 1838 3309
L 1475 2984
Q 1194 3316 788 3722
z
" transform="scale(0.015625)"/>
      </defs>
      <use xlink:href="#MicrosoftYaHei-57c3"/>
      <use xlink:href="#MicrosoftYaHei-5fb7" transform="translate(100 0)"/>
      <use xlink:href="#MicrosoftYaHei-8499" transform="translate(200 0)"/>
      <use xlink:href="#MicrosoftYaHei-5179" transform="translate(300 0)"/>
      <use xlink:href="#MicrosoftYaHei-2d" transform="translate(400 0)"/>
      <use xlink:href="#MicrosoftYaHei-5361" transform="translate(443.261719 0)"/>
      <use xlink:href="#MicrosoftYaHei-666e" transform="translate(543.261719 0)"/>
     </g>
    </g>
    <g id="line2d_10">
     <path d="M 180.58625 68.353709
L 191.58625 68.353709
L 202.58625 68.353709
" style="fill: none; stroke: #a3befa; stroke-width: 1.3; stroke-linecap: round"/>
     <g>
      <use xlink:href="#m5a12b9fdff" x="191.58625" y="68.353709" style="fill: #a3befa; stroke: #2e4780; stroke-linejoin: miter"/>
     </g>
    </g>
    <g id="text_19">
     <!-- 迪尼茨算法 -->
     <g style="fill: #262626" transform="translate(211.38625 72.203709) scale(0.11 -0.11)">
      <defs>
       <path id="MicrosoftYaHei-8fea" d="M 2200 4322
L 3775 4322
L 3775 5328
L 4238 5328
L 4238 4322
L 5813 4322
L 5813 316
L 5363 316
L 5363 559
L 2650 559
L 2650 278
L 2200 278
L 2200 4322
z
M 2816 -219
L 4206 -241
L 6319 -191
Q 6213 -441 6113 -672
L 4463 -684
L 2844 -669
Q 1588 -653 1088 47
Q 906 -97 356 -753
L 88 -222
Q 478 131 863 459
L 863 2641
L 150 2641
L 150 3097
L 1350 3097
L 1350 366
Q 1809 -200 2816 -219
z
M 5363 3909
L 4238 3909
L 4238 2641
L 5363 2641
L 5363 3909
z
M 2650 2641
L 3775 2641
L 3775 3909
L 2650 3909
L 2650 2641
z
M 2650 972
L 3775 972
L 3775 2241
L 2650 2241
L 2650 972
z
M 4238 972
L 5363 972
L 5363 2241
L 4238 2241
L 4238 972
z
M 731 5266
Q 1194 4722 1694 4047
L 1244 3747
Q 838 4372 344 4984
L 731 5266
z
" transform="scale(0.015625)"/>
       <path id="MicrosoftYaHei-5c3c" d="M 1369 3059
Q 1375 316 488 -803
Q 338 -622 100 -384
Q 888 491 881 3172
L 881 4984
L 5831 4984
L 5831 2859
L 5344 2859
L 5344 3059
L 1369 3059
z
M 2256 2859
L 2763 2859
L 2763 1231
Q 4209 1766 5581 2609
L 5906 2203
Q 4572 1403 2763 725
L 2763 228
Q 2763 -197 3181 -197
L 5131 -197
Q 5600 -197 5669 191
Q 5738 584 5781 1128
Q 6044 1022 6313 941
Q 6263 516 6144 -65
Q 6025 -647 5231 -647
L 3063 -647
Q 2256 -647 2256 134
L 2256 2859
z
M 1369 4534
L 1369 3509
L 5344 3509
L 5344 4534
L 1369 4534
z
" transform="scale(0.015625)"/>
       <path id="MicrosoftYaHei-8328" d="M 238 4678
L 1863 4678
L 1863 5328
L 2350 5328
L 2350 4678
L 4125 4678
L 4125 5341
L 4625 5341
L 4625 4678
L 6225 4678
L 6225 4234
L 4625 4234
L 4625 3597
L 4125 3597
L 4125 4234
L 2350 4234
L 2350 3584
L 1863 3584
L 1863 4234
L 238 4234
L 238 4678
z
M 3556 2403
L 4044 2403
Q 4044 2150 4034 1950
Q 4500 281 6288 -328
Q 6056 -566 5863 -791
Q 4388 -141 3866 1153
Q 3450 -191 1656 -872
Q 1531 -678 1319 -397
Q 3106 141 3463 1422
Q 3563 1766 3556 2403
z
M 1706 1641
Q 2481 2784 2850 3959
L 3363 3797
Q 3234 3453 3100 3134
L 6006 3134
L 6006 2691
Q 5744 1978 5456 1422
Q 5256 1528 4988 1616
Q 5294 2172 5488 2691
L 2897 2691
Q 2544 1944 2131 1353
Q 1944 1497 1706 1641
z
M 1075 1741
Q 1325 1591 1556 1484
Q 1113 234 769 -797
L 238 -584
Q 631 328 1075 1741
z
M 556 3666
Q 988 3372 1650 2822
Q 1419 2566 1288 2422
Q 619 3028 244 3309
L 556 3666
z
" transform="scale(0.015625)"/>
       <path id="MicrosoftYaHei-7b97" d="M 969 3728
L 2006 3728
Q 1775 4016 1544 4266
L 1769 4428
L 1244 4428
Q 875 3963 400 3566
Q 263 3722 88 3884
Q 856 4484 1300 5347
L 1831 5347
Q 1684 5059 1506 4791
L 3325 4791
L 3325 4428
L 1919 4428
Q 2144 4200 2369 3953
L 2072 3728
L 4953 3728
Q 4716 4003 4425 4266
L 4641 4428
L 4019 4428
Q 3772 4050 3506 3753
Q 3344 3897 3125 4047
Q 3656 4603 4000 5347
L 4538 5347
Q 4394 5053 4244 4791
L 6225 4791
L 6225 4428
L 4800 4428
Q 5069 4206 5294 3972
L 4991 3728
L 5475 3728
L 5475 916
L 5038 916
L 5038 1122
L 1406 1122
L 1406 916
L 969 916
L 969 3728
z
M 150 609
L 1850 609
Q 1875 788 1875 1003
L 2331 1003
Q 2331 794 2309 609
L 4356 609
L 4356 997
L 4819 997
L 4819 609
L 6300 609
L 6300 222
L 4819 222
L 4819 -828
L 4356 -828
L 4356 222
L 2244 222
Q 2019 -619 763 -884
Q 644 -691 488 -472
Q 1525 -297 1756 222
L 150 222
L 150 609
z
M 5038 3378
L 1406 3378
L 1406 2959
L 5038 2959
L 5038 3378
z
M 1406 1472
L 5038 1472
L 5038 1891
L 1406 1891
L 1406 1472
z
M 1406 2216
L 5038 2216
L 5038 2634
L 1406 2634
L 1406 2216
z
" transform="scale(0.015625)"/>
       <path id="MicrosoftYaHei-6cd5" d="M 4888 1328
Q 5488 509 6181 -553
Q 5931 -697 5694 -841
Q 5519 -550 5350 -278
Q 3300 -447 2138 -559
L 1906 -16
Q 2300 159 2675 716
Q 3088 1303 3441 1953
L 1800 1953
L 1800 2403
L 3763 2403
L 3763 3728
L 2106 3728
L 2106 4178
L 3763 4178
L 3763 5322
L 4263 5322
L 4263 4178
L 5994 4178
L 5994 3728
L 4263 3728
L 4263 2403
L 6288 2403
L 6288 1953
L 4069 1953
Q 3372 806 2706 -28
Q 3897 28 5088 141
Q 4766 644 4475 1066
L 4888 1328
z
M 1013 1828
Q 1244 1728 1506 1622
Q 1063 291 731 -784
L 194 -603
Q 606 497 1013 1828
z
M 400 3622
Q 869 3291 1500 2772
Q 1269 2509 1138 2366
Q 431 2997 88 3259
L 400 3622
z
M 644 5241
Q 1144 4841 1719 4328
Q 1506 4109 1350 3941
Q 775 4509 325 4897
L 644 5241
z
" transform="scale(0.015625)"/>
      </defs>
      <use xlink:href="#MicrosoftYaHei-8fea"/>
      <use xlink:href="#MicrosoftYaHei-5c3c" transform="translate(100 0)"/>
      <use xlink:href="#MicrosoftYaHei-8328" transform="translate(200 0)"/>
      <use xlink:href="#MicrosoftYaHei-7b97" transform="translate(300 0)"/>
      <use xlink:href="#MicrosoftYaHei-6cd5" transform="translate(400 0)"/>
     </g>
    </g>
   </g>
  </g>
  <g id="text_20">
   <!-- 两种算法的主要内存增长都来自流网络规模 -->
   <g style="fill: #1f2430" transform="translate(52.627031 18.39125) scale(0.14 -0.14)">
    <defs>
     <path id="MicrosoftYaHei-Bold-4e24" d="M 1288 -772
L 438 -772
L 438 3491
L 1913 3491
L 1913 4166
L 163 4166
L 163 4991
L 6238 4991
L 6238 4166
L 4463 4166
L 4463 3491
L 5931 3491
L 5931 84
Q 5931 -256 5797 -461
Q 5663 -666 5414 -728
Q 5166 -791 4388 -791
Q 4338 -503 4219 41
Q 4563 16 4794 16
Q 5081 16 5081 359
L 5081 797
L 4725 459
Q 4413 838 4091 1191
Q 3806 513 3306 -34
Q 3013 216 2613 497
Q 3531 1491 3644 2691
L 2669 2691
Q 2653 2503 2625 2322
L 3338 1766
L 2825 1116
L 2425 1488
Q 2159 688 1644 59
Q 1475 238 1288 416
L 1288 -772
z
M 2700 3491
L 3663 3491
L 3663 4166
L 2700 4166
L 2700 3491
z
M 5081 1381
L 5081 2691
L 4441 2691
Q 4416 2366 4353 2063
Q 4744 1709 5081 1381
z
M 1288 997
Q 1759 1722 1875 2691
L 1288 2691
L 1288 997
z
" transform="scale(0.015625)"/>
     <path id="MicrosoftYaHei-Bold-79cd" d="M 4844 -834
L 4044 -834
L 4044 1216
L 3494 1216
L 3494 816
L 2725 816
L 2725 1609
L 2244 1134
L 1781 1663
L 1781 -834
L 1000 -834
L 1000 1222
Q 716 616 375 128
Q 269 541 88 1128
Q 659 1819 981 2709
L 144 2709
L 144 3516
L 1000 3516
L 1000 4219
L 294 4147
Q 231 4572 150 4891
Q 1206 4991 2363 5153
L 2550 4422
Q 2219 4369 1781 4309
L 1781 3516
L 2531 3516
L 2531 2709
L 1781 2709
L 1781 2147
L 1981 2353
Q 2416 1966 2725 1647
L 2725 4091
L 4044 4091
L 4044 5303
L 4844 5303
L 4844 4091
L 6163 4091
L 6163 816
L 5394 816
L 5394 1216
L 4844 1216
L 4844 -834
z
M 5394 3322
L 4844 3322
L 4844 1984
L 5394 1984
L 5394 3322
z
M 3494 1984
L 4044 1984
L 4044 3322
L 3494 3322
L 3494 1984
z
" transform="scale(0.015625)"/>
     <path id="MicrosoftYaHei-Bold-7b97" d="M 100 697
L 1575 697
Q 1603 844 1613 1003
L 706 1003
L 706 3694
Q 572 3581 431 3478
Q 325 3803 75 4228
Q 700 4634 1119 5341
L 2006 5341
Q 1888 5122 1759 4922
L 3113 4922
L 3113 4381
Q 3563 4788 3800 5347
L 4619 5347
Q 4541 5125 4450 4922
L 6213 4922
L 6213 4347
L 5338 4347
L 5513 3972
L 4738 3816
L 5719 3816
L 5719 1003
L 4906 1003
L 4906 697
L 6300 697
L 6300 97
L 4906 97
L 4906 -809
L 4081 -809
L 4081 97
L 2281 97
Q 2050 -534 1388 -897
Q 994 -616 581 -384
Q 1031 -209 1291 97
L 100 97
L 100 697
z
M 2575 3972
L 1800 3816
L 3519 3816
Q 3203 4013 2856 4178
Q 2969 4259 3069 4347
L 2403 4347
Q 2494 4156 2575 3972
z
M 3694 3816
L 4703 3816
Q 4603 4106 4484 4347
L 4131 4347
Q 3934 4056 3694 3816
z
M 841 3816
L 1766 3816
Q 1703 4031 1572 4347
L 1344 4347
Q 1106 4059 841 3816
z
M 4900 3303
L 1525 3303
L 1525 2991
L 4900 2991
L 4900 3303
z
M 1525 2253
L 4900 2253
L 4900 2566
L 1525 2566
L 1525 2253
z
M 4900 1516
L 4900 1828
L 1525 1828
L 1525 1516
L 4900 1516
z
M 2406 697
L 4081 697
L 4081 1003
L 2428 1003
Q 2425 856 2406 697
z
" transform="scale(0.015625)"/>
     <path id="MicrosoftYaHei-Bold-6cd5" d="M 5006 1441
Q 5763 478 6313 -453
L 5525 -897
L 5275 -472
Q 2816 -559 2088 -647
L 1769 72
Q 2419 616 3081 1747
L 1775 1747
L 1775 2491
L 3581 2491
L 3581 3603
L 2050 3603
L 2050 4347
L 3581 4347
L 3581 5347
L 4444 5347
L 4444 4347
L 6013 4347
L 6013 3603
L 4444 3603
L 4444 2491
L 6288 2491
L 6288 1747
L 4122 1747
Q 3622 928 3019 216
Q 3825 238 4806 288
Q 4541 697 4294 1041
L 5006 1441
z
M 844 5222
Q 1419 4828 1950 4403
L 1388 3766
Q 838 4259 306 4647
L 844 5222
z
M 631 3591
Q 1175 3216 1706 2753
L 1119 2103
Q 669 2553 88 3003
L 631 3591
z
M 994 1903
Q 1356 1722 1813 1578
Q 1406 409 1069 -803
Q 625 -634 219 -509
Q 619 572 994 1903
z
" transform="scale(0.015625)"/>
     <path id="MicrosoftYaHei-Bold-7684" d="M 1250 5303
L 2181 5159
L 1900 4309
L 2963 4309
L 2963 3091
Q 3466 3934 3925 5316
L 4788 5091
Q 4650 4675 4494 4278
L 6106 4278
L 6034 681
Q 6019 100 5937 -133
Q 5856 -366 5684 -512
Q 5513 -659 5205 -712
Q 4897 -766 3863 -766
Q 3769 -216 3625 178
Q 4088 141 4609 141
Q 4759 141 4868 175
Q 4978 209 5048 279
Q 5119 350 5144 437
Q 5169 525 5184 1206
L 5213 2484
Q 5225 3081 5225 3453
L 4138 3453
Q 3931 3016 3700 2603
Q 3403 2797 2963 2988
L 2963 -734
L 2094 -734
L 2094 -284
L 1206 -284
L 1206 -772
L 338 -772
L 338 4309
L 997 4309
Q 1178 4922 1250 5303
z
M 2094 3491
L 1206 3491
L 1206 2422
L 2094 2422
L 2094 3491
z
M 1206 534
L 2094 534
L 2094 1603
L 1206 1603
L 1206 534
z
M 3944 2703
Q 4394 2166 4913 1397
L 4125 872
Q 3650 1653 3219 2203
L 3944 2703
z
" transform="scale(0.015625)"/>
     <path id="MicrosoftYaHei-Bold-4e3b" d="M 138 241
L 2725 241
L 2725 1409
L 800 1409
L 800 2222
L 2725 2222
L 2725 3353
L 500 3353
L 500 4178
L 2922 4178
Q 2713 4591 2450 4991
L 3306 5378
Q 3588 4966 3869 4459
L 3266 4178
L 5925 4178
L 5925 3353
L 3669 3353
L 3669 2222
L 5638 2222
L 5638 1409
L 3669 1409
L 3669 241
L 6263 241
L 6263 -597
L 138 -597
L 138 241
z
" transform="scale(0.015625)"/>
     <path id="MicrosoftYaHei-Bold-8981" d="M 106 1741
L 1947 1741
Q 2088 1950 2203 2153
L 413 2153
L 413 3991
L 2031 3991
L 2031 4422
L 219 4422
L 219 5084
L 6181 5084
L 6181 4422
L 4363 4422
L 4363 3991
L 5981 3991
L 5981 2153
L 3113 2153
Q 2981 1938 2853 1741
L 6288 1741
L 6288 1078
L 5094 1078
Q 4769 650 4322 309
L 6000 -116
L 5619 -878
Q 4469 -475 3503 -181
Q 2322 -731 569 -878
Q 475 -522 281 -141
Q 1525 -84 2406 131
Q 1591 350 938 472
Q 1219 778 1459 1078
L 106 1078
L 106 1741
z
M 2781 3991
L 3613 3991
L 3613 4422
L 2781 4422
L 2781 3991
z
M 2781 2791
L 3613 2791
L 3613 3353
L 2781 3353
L 2781 2791
z
M 1200 2791
L 2031 2791
L 2031 3353
L 1200 3353
L 1200 2791
z
M 5194 2791
L 5194 3353
L 4363 3353
L 4363 2791
L 5194 2791
z
M 2169 784
Q 2678 694 3447 519
Q 3872 756 4147 1078
L 2397 1078
Q 2281 922 2169 784
z
" transform="scale(0.015625)"/>
     <path id="MicrosoftYaHei-Bold-5185" d="M 488 4347
L 2806 4347
Q 2822 4881 2825 5353
L 3644 5353
Q 3644 4803 3634 4347
L 5925 4347
L 5925 266
Q 5925 -203 5711 -451
Q 5497 -700 5084 -734
Q 4672 -769 3950 -753
Q 3881 -397 3763 66
Q 4181 34 4575 34
Q 4791 34 4878 62
Q 4966 91 5020 186
Q 5075 281 5075 434
L 5075 3528
L 3613 3528
Q 3575 3028 3503 2666
Q 4150 2197 5031 1478
L 4400 847
Q 3984 1275 3206 1963
Q 2806 1284 2013 759
Q 1694 1134 1369 1416
Q 2700 2216 2781 3528
L 1338 3528
L 1338 -803
L 488 -803
L 488 4347
z
" transform="scale(0.015625)"/>
     <path id="MicrosoftYaHei-Bold-5b58" d="M 1731 -847
L 888 -847
L 888 1703
Q 609 1406 306 1147
L 94 2109
Q 906 2959 1400 3978
L 125 3978
L 125 4759
L 1722 4759
Q 1822 5050 1900 5353
L 2819 5191
Q 2750 4972 2672 4759
L 6281 4759
L 6281 3978
L 2359 3978
Q 2078 3347 1731 2800
L 1731 -847
z
M 1913 1759
L 3888 1759
L 3888 2091
Q 4431 2434 4794 2691
L 2288 2691
L 2288 3434
L 6019 3434
L 6019 2678
Q 5394 2228 4775 1822
L 4775 1759
L 6319 1759
L 6319 1003
L 4775 1003
L 4775 9
Q 4775 -372 4567 -556
Q 4359 -741 3992 -759
Q 3625 -778 2850 -797
Q 2769 -284 2681 22
Q 2997 -6 3331 -6
Q 3659 -6 3771 58
Q 3884 122 3888 297
L 3888 1003
L 1913 1003
L 1913 1759
z
" transform="scale(0.015625)"/>
     <path id="MicrosoftYaHei-Bold-589e" d="M 3325 5341
Q 3553 4994 3763 4653
L 4397 4653
L 4794 5347
L 5575 5091
L 5241 4653
L 6069 4653
L 6069 2241
L 2056 2241
L 2056 4653
L 2900 4653
Q 2766 4856 2613 5078
L 3325 5341
z
M 5369 2891
L 5369 4016
L 4400 4016
L 4400 2891
L 5369 2891
z
M 4875 3934
L 5313 3703
Q 5100 3284 4894 2947
Q 4663 3091 4456 3191
Q 4706 3591 4875 3934
z
M 2756 2891
L 3725 2891
L 3725 4016
L 2756 4016
L 2756 2891
z
M 3238 3928
Q 3425 3609 3644 3191
Q 3369 3053 3181 2941
Q 2988 3359 2788 3691
L 3238 3928
z
M 263 -372
L 100 572
L 650 725
L 650 2859
L 200 2859
L 200 3716
L 650 3716
L 650 5266
L 1463 5266
L 1463 3716
L 1850 3716
L 1850 2859
L 1463 2859
L 1463 966
Q 1734 1047 2006 1134
Q 1994 913 1994 694
Q 1994 472 2006 253
Q 1238 -9 263 -372
z
M 2331 -847
L 2331 1959
L 5781 1959
L 5781 -847
L 5000 -847
L 5000 -597
L 3125 -597
L 3125 -847
L 2331 -847
z
M 5000 1341
L 3125 1341
L 3125 966
L 5000 966
L 5000 1341
z
M 3125 16
L 5000 16
L 5000 391
L 3125 391
L 3125 16
z
" transform="scale(0.015625)"/>
     <path id="MicrosoftYaHei-Bold-957f" d="M 175 2816
L 1031 2816
L 1031 5322
L 1900 5322
L 1900 2816
L 6194 2816
L 6194 2009
L 3825 2009
Q 4563 728 6313 216
Q 6031 -153 5681 -647
Q 3713 172 2969 2009
L 1900 2009
L 1900 266
L 3513 797
Q 3494 359 3506 -22
Q 1653 -588 1269 -903
L 794 -103
Q 1031 134 1031 628
L 1031 2009
L 175 2009
L 175 2816
z
M 5006 5272
L 5663 4491
Q 4338 3747 2863 3091
L 2350 3766
Q 4013 4547 5006 5272
z
" transform="scale(0.015625)"/>
     <path id="MicrosoftYaHei-Bold-90fd" d="M 125 3341
L 1350 3341
L 1350 3991
L 350 3991
L 350 4666
L 1350 4666
L 1350 5316
L 2163 5316
L 2163 4666
L 2800 4666
L 2800 4128
Q 3019 4431 3219 4759
L 3825 4397
L 3825 5016
L 6250 5016
L 6250 4416
Q 5925 3478 5625 2722
Q 6294 1984 6294 1022
Q 6294 509 6033 206
Q 5772 -97 4875 -84
Q 4831 359 4719 816
Q 4956 778 5081 778
Q 5463 778 5463 1128
Q 5463 1934 4756 2641
Q 5113 3466 5400 4291
L 4631 4291
L 4631 -847
L 3825 -847
L 3825 4331
Q 3459 3778 3106 3341
L 3625 3341
L 3625 2666
L 2491 2666
Q 2266 2444 2009 2228
L 3425 2228
L 3425 -797
L 2638 -797
L 2638 -566
L 1413 -566
L 1413 -809
L 625 -809
L 625 1234
Q 413 1100 188 972
Q 144 1466 75 1816
Q 822 2213 1400 2666
L 125 2666
L 125 3341
z
M 2697 3991
L 2163 3991
L 2163 3356
Q 2441 3656 2697 3991
z
M 2638 1603
L 1413 1603
L 1413 1128
L 2638 1128
L 2638 1603
z
M 1413 59
L 2638 59
L 2638 541
L 1413 541
L 1413 59
z
" transform="scale(0.015625)"/>
     <path id="MicrosoftYaHei-Bold-6765" d="M 513 4628
L 2731 4628
L 2731 5316
L 3638 5316
L 3638 4628
L 5888 4628
L 5888 3816
L 4872 3816
L 5494 3353
Q 5078 2844 4722 2516
L 6213 2516
L 6213 1709
L 4159 1709
Q 5028 816 6269 347
Q 5988 -22 5713 -441
Q 4388 281 3638 1263
L 3638 -809
L 2731 -809
L 2731 1256
Q 1959 253 656 -478
Q 369 -66 106 266
Q 1325 794 2175 1709
L 213 1709
L 213 2516
L 1609 2516
Q 1363 2856 906 3378
L 1488 3816
L 513 3816
L 513 4628
z
M 4847 3816
L 3638 3816
L 3638 2516
L 4638 2516
L 4081 2984
Q 4469 3347 4847 3816
z
M 2294 2966
L 1688 2516
L 2731 2516
L 2731 3816
L 1531 3816
Q 1897 3441 2294 2966
z
" transform="scale(0.015625)"/>
     <path id="MicrosoftYaHei-Bold-81ea" d="M 2588 5341
L 3619 5197
L 3372 4572
L 5750 4572
L 5750 -828
L 4850 -828
L 4850 -453
L 1569 -453
L 1569 -834
L 669 -834
L 669 4572
L 2403 4572
Q 2525 5016 2588 5341
z
M 4850 3753
L 1569 3753
L 1569 3147
L 4850 3147
L 4850 3753
z
M 1569 1759
L 4850 1759
L 4850 2366
L 1569 2366
L 1569 1759
z
M 1569 366
L 4850 366
L 4850 978
L 1569 978
L 1569 366
z
" transform="scale(0.015625)"/>
     <path id="MicrosoftYaHei-Bold-6d41" d="M 1775 4666
L 3359 4666
Q 3256 4906 3131 5172
L 4063 5341
Q 4228 5003 4375 4666
L 6038 4666
L 6038 3928
L 3925 3928
Q 3528 3463 3088 3016
L 4728 3088
Q 4572 3278 4419 3453
L 5094 3884
Q 5756 3153 6275 2528
L 5550 2022
L 5266 2403
Q 2725 2313 2006 2216
L 1744 2909
Q 2163 3056 2825 3928
L 1775 3928
L 1775 4666
z
M 700 5253
Q 1188 4909 1725 4447
L 1163 3809
Q 619 4347 181 4697
L 700 5253
z
M 631 3591
Q 1206 3178 1656 2784
L 1069 2134
Q 669 2528 88 3003
L 631 3591
z
M 5694 1253
Q 6000 1128 6306 1022
Q 6241 141 6189 -156
Q 6138 -453 5945 -618
Q 5753 -784 5419 -784
L 5194 -784
Q 4475 -784 4475 -3
L 4475 2103
L 5281 2103
L 5281 103
Q 5281 -84 5406 -84
L 5450 -84
Q 5578 -84 5614 100
Q 5650 284 5694 1253
z
M 3000 2084
L 3000 1422
Q 3000 -128 2000 -859
Q 1738 -591 1375 -284
Q 2194 322 2194 1597
L 2194 2084
L 3000 2084
z
M 3319 2084
L 4125 2084
L 4125 -709
L 3319 -709
L 3319 2084
z
M 813 1916
Q 1219 1728 1631 1591
L 969 -803
Q 519 -634 119 -509
Q 481 528 813 1916
z
" transform="scale(0.015625)"/>
     <path id="MicrosoftYaHei-Bold-7f51" d="M 1781 4059
L 2334 2925
Q 2581 3484 2800 4091
L 3222 3897
L 3556 4047
L 4063 2950
Q 4297 3509 4513 4116
L 5188 3828
Q 4872 2891 4488 2028
L 5144 566
L 4438 216
L 4059 1128
Q 3756 528 3425 -34
Q 3284 75 3147 175
L 2813 9
L 2328 1159
Q 1969 481 1575 -103
Q 1419 44 1194 228
L 1194 -809
L 356 -809
L 356 5078
L 6038 5078
L 6038 278
Q 6038 -206 5853 -467
Q 5669 -728 5336 -772
Q 5003 -816 4094 -816
Q 4006 -309 3900 59
Q 4344 16 4800 16
Q 5200 16 5200 409
L 5200 4297
L 1194 4297
L 1194 3753
L 1781 4059
z
M 1194 3628
L 1194 775
Q 1584 1381 1928 2066
Q 1559 2884 1194 3628
z
M 3216 3088
Q 2997 2534 2759 2025
L 3194 1091
Q 3438 1550 3669 2047
L 3216 3088
z
" transform="scale(0.015625)"/>
     <path id="MicrosoftYaHei-Bold-7edc" d="M 1025 3353
Q 1288 3366 1400 3366
Q 1644 3791 1900 4334
L 2638 3997
Q 2019 2922 1338 1784
Q 1806 1847 2313 1922
Q 2269 1503 2263 1147
Q 975 978 481 859
L 238 1559
Q 550 1878 988 2641
Q 631 2616 325 2578
L 88 3284
Q 531 3822 1163 5328
L 1938 5028
Q 1488 4172 1025 3353
z
M 2675 -859
L 2675 1666
L 5900 1666
L 5900 -859
L 5088 -859
L 5088 -572
L 3488 -572
L 3488 -859
L 2675 -859
z
M 238 -497
L 94 378
Q 875 459 2463 703
Q 2425 178 2431 -159
Q 1038 -353 238 -497
z
M 5088 884
L 3488 884
L 3488 209
L 5088 209
L 5088 884
z
M 2494 3609
Q 3225 4434 3694 5328
L 4538 5191
Q 4394 4934 4244 4703
L 6038 4703
L 6038 3953
Q 5681 3297 5056 2791
Q 5625 2584 6319 2478
Q 6188 2009 6131 1666
Q 5019 1909 4288 2297
Q 3513 1922 2463 1653
Q 2288 2134 2150 2397
Q 2975 2572 3569 2803
Q 3356 2997 3163 3241
Q 3006 3084 2894 2972
Q 2744 3247 2494 3609
z
M 3781 3972
Q 3725 3897 3656 3809
Q 3919 3441 4288 3172
Q 4800 3509 5063 3972
L 3781 3972
z
" transform="scale(0.015625)"/>
     <path id="MicrosoftYaHei-Bold-89c4" d="M 88 2766
L 894 2766
L 894 3516
L 188 3516
L 188 4291
L 894 4291
L 894 5284
L 1694 5284
L 1694 4291
L 2400 4291
L 2400 3516
L 1694 3516
L 1694 2766
L 2488 2766
L 2488 1984
L 1675 1984
Q 1666 1816 1647 1656
Q 2091 1247 2650 666
Q 2306 341 2088 91
Q 1869 369 1506 788
Q 1278 -194 769 -878
Q 369 -447 75 -178
Q 747 550 866 1984
L 88 1984
L 88 2766
z
M 2650 1128
L 2650 5066
L 5913 5066
L 5913 1197
L 5100 1197
L 5100 4259
L 3463 4259
L 3463 1128
L 2650 1128
z
M 5525 978
Q 6000 747 6306 628
Q 6184 -291 6031 -522
Q 5878 -753 5469 -753
L 4906 -753
Q 4188 -753 4188 -78
L 4188 644
Q 3728 -297 2613 -884
Q 2394 -572 2044 -172
Q 3225 394 3540 1169
Q 3856 1944 3856 3872
L 4688 3872
Q 4675 2513 4506 1641
L 4931 1641
L 4931 222
Q 4931 -28 5150 -28
L 5219 -28
Q 5369 -28 5417 112
Q 5466 253 5525 978
z
" transform="scale(0.015625)"/>
     <path id="MicrosoftYaHei-Bold-6a21" d="M 6250 534
L 4825 534
Q 5419 84 6325 -53
Q 6131 -403 5913 -859
Q 4769 -522 4169 334
Q 3694 -503 2406 -897
Q 2206 -509 1925 -159
Q 3013 66 3419 534
L 2088 534
L 2088 1141
L 3719 1141
Q 3756 1284 3769 1459
L 2425 1459
L 2425 2134
L 1944 1659
Q 1800 1878 1638 2109
L 1638 -841
L 863 -841
L 863 1803
Q 619 1141 275 547
Q 213 978 75 1691
Q 525 2453 788 3328
L 138 3328
L 138 4066
L 863 4066
L 863 5291
L 1638 5291
L 1638 4066
L 2219 4066
L 2219 3328
L 1638 3328
L 1638 2972
Q 2081 2559 2425 2209
L 2425 3703
L 6025 3703
L 6025 1459
L 4556 1459
Q 4544 1291 4519 1141
L 6250 1141
L 6250 534
z
M 5250 2009
L 5250 2353
L 3200 2353
L 3200 2009
L 5250 2009
z
M 5250 3147
L 3200 3147
L 3200 2816
L 5250 2816
L 5250 3147
z
M 5413 3853
L 4675 3853
L 4675 4203
L 3719 4203
L 3719 3853
L 2981 3853
L 2981 4203
L 2175 4203
L 2175 4822
L 2981 4822
L 2981 5291
L 3719 5291
L 3719 4822
L 4675 4822
L 4675 5291
L 5413 5291
L 5413 4822
L 6275 4822
L 6275 4203
L 5413 4203
L 5413 3853
z
" transform="scale(0.015625)"/>
    </defs>
    <use xlink:href="#MicrosoftYaHei-Bold-4e24"/>
    <use xlink:href="#MicrosoftYaHei-Bold-79cd" transform="translate(100 0)"/>
    <use xlink:href="#MicrosoftYaHei-Bold-7b97" transform="translate(200 0)"/>
    <use xlink:href="#MicrosoftYaHei-Bold-6cd5" transform="translate(300 0)"/>
    <use xlink:href="#MicrosoftYaHei-Bold-7684" transform="translate(400 0)"/>
    <use xlink:href="#MicrosoftYaHei-Bold-4e3b" transform="translate(500 0)"/>
    <use xlink:href="#MicrosoftYaHei-Bold-8981" transform="translate(600 0)"/>
    <use xlink:href="#MicrosoftYaHei-Bold-5185" transform="translate(700 0)"/>
    <use xlink:href="#MicrosoftYaHei-Bold-5b58" transform="translate(800 0)"/>
    <use xlink:href="#MicrosoftYaHei-Bold-589e" transform="translate(900 0)"/>
    <use xlink:href="#MicrosoftYaHei-Bold-957f" transform="translate(1000 0)"/>
    <use xlink:href="#MicrosoftYaHei-Bold-90fd" transform="translate(1100 0)"/>
    <use xlink:href="#MicrosoftYaHei-Bold-6765" transform="translate(1200 0)"/>
    <use xlink:href="#MicrosoftYaHei-Bold-81ea" transform="translate(1300 0)"/>
    <use xlink:href="#MicrosoftYaHei-Bold-6d41" transform="translate(1400 0)"/>
    <use xlink:href="#MicrosoftYaHei-Bold-7f51" transform="translate(1500 0)"/>
    <use xlink:href="#MicrosoftYaHei-Bold-7edc" transform="translate(1600 0)"/>
    <use xlink:href="#MicrosoftYaHei-Bold-89c4" transform="translate(1700 0)"/>
    <use xlink:href="#MicrosoftYaHei-Bold-6a21" transform="translate(1800 0)"/>
   </g>
  </g>
  <g id="text_21">
   <!-- 使用 tracemalloc 测量完整全球队分析期间的峰值 Python 分配；计时实验单独测量。 -->
   <g style="fill: #6f768a" transform="translate(52.627031 37.485156) scale(0.095 -0.095)">
    <defs>
     <path id="MicrosoftYaHei-4f7f" d="M 2269 1247
L 2688 1478
Q 2972 997 3409 644
Q 3634 969 3719 1684
L 2088 1684
L 2088 3403
L 3775 3403
L 3775 4022
L 1775 4022
L 1775 4447
L 3775 4447
L 3775 5291
L 4256 5291
L 4256 4447
L 6275 4447
L 6275 4022
L 4256 4022
L 4256 3403
L 5938 3403
L 5938 1416
L 5463 1416
L 5463 1684
L 4203 1684
Q 4106 813 3825 372
Q 3822 366 3819 363
Q 4788 -203 6325 -297
Q 6138 -566 5981 -816
Q 4472 -631 3488 -3
Q 2941 -488 1881 -866
Q 1738 -666 1556 -447
Q 2572 -128 3081 291
Q 2594 700 2269 1247
z
M 94 2284
Q 931 3553 1394 5316
L 1856 5178
Q 1600 4338 1294 3619
L 1294 -847
L 850 -847
L 850 2697
Q 581 2203 281 1784
Q 188 2047 94 2284
z
M 4238 2103
L 5463 2103
L 5463 2984
L 4256 2984
Q 4256 2741 4238 2103
z
M 3756 2103
Q 3775 2400 3775 2984
L 2563 2984
L 2563 2103
L 3756 2103
z
" transform="scale(0.015625)"/>
     <path id="MicrosoftYaHei-7528" d="M 3088 -734
L 3088 1253
L 1269 1253
Q 1163 -47 513 -903
Q 350 -697 144 -472
Q 550 103 694 803
Q 831 1478 831 2716
L 831 4947
L 5925 4947
L 5925 -22
Q 5925 -766 5219 -766
Q 4788 -766 4250 -747
Q 4219 -541 4156 -228
Q 4700 -266 5038 -266
Q 5425 -266 5425 103
L 5425 1253
L 3588 1253
L 3588 -734
L 3088 -734
z
M 3588 1703
L 5425 1703
L 5425 2872
L 3588 2872
L 3588 1703
z
M 5425 4484
L 3588 4484
L 3588 3322
L 5425 3322
L 5425 4484
z
M 1303 1703
L 3088 1703
L 3088 2872
L 1331 2872
Q 1350 2266 1303 1703
z
M 1331 4484
L 1331 3322
L 3088 3322
L 3088 4484
L 1331 4484
z
" transform="scale(0.015625)"/>
     <path id="MicrosoftYaHei-20" transform="scale(0.015625)"/>
     <path id="MicrosoftYaHei-74" d="M 2206 34
Q 2006 -75 1666 -75
Q 738 -75 738 953
L 738 2950
L 144 2950
L 144 3456
L 738 3456
L 738 4288
L 1347 4481
L 1347 3456
L 2206 3456
L 2206 2950
L 1347 2950
L 1347 1063
Q 1347 722 1462 575
Q 1578 428 1847 428
Q 2053 428 2206 544
L 2206 34
z
" transform="scale(0.015625)"/>
     <path id="MicrosoftYaHei-72" d="M 2400 2850
Q 2247 2959 1978 2959
Q 1622 2959 1390 2626
Q 1159 2294 1159 1750
L 1159 0
L 547 0
L 547 3456
L 1159 3456
L 1159 2753
L 1172 2753
Q 1434 3516 2078 3516
Q 2288 3516 2400 3469
L 2400 2850
z
" transform="scale(0.015625)"/>
     <path id="MicrosoftYaHei-61" d="M 628 3216
Q 1144 3538 1819 3538
Q 3069 3538 3069 2225
L 3069 0
L 2463 0
L 2463 534
L 2447 534
Q 2088 -81 1388 -81
Q 884 -81 587 191
Q 291 463 291 925
Q 291 1894 1438 2053
L 2463 2197
Q 2463 3044 1763 3044
Q 1141 3044 628 2625
L 628 3216
z
M 1653 1625
Q 1228 1569 1067 1412
Q 906 1256 906 975
Q 906 728 1081 572
Q 1256 416 1544 416
Q 1944 416 2203 697
Q 2463 978 2463 1403
L 2463 1734
L 1653 1625
z
" transform="scale(0.015625)"/>
     <path id="MicrosoftYaHei-63" d="M 2934 156
Q 2538 -81 1978 -81
Q 1228 -81 772 400
Q 316 881 316 1647
Q 316 2497 808 3017
Q 1300 3538 2125 3538
Q 2600 3538 2938 3369
L 2938 2763
Q 2572 3031 2125 3031
Q 1600 3031 1270 2667
Q 941 2303 941 1697
Q 941 1100 1252 762
Q 1563 425 2091 425
Q 2538 425 2934 719
L 2934 156
z
" transform="scale(0.015625)"/>
     <path id="MicrosoftYaHei-65" d="M 3363 1572
L 944 1572
Q 959 1019 1246 717
Q 1534 416 2050 416
Q 2631 416 3116 788
L 3116 241
Q 2659 -81 1906 -81
Q 1156 -81 736 394
Q 316 869 316 1713
Q 316 2506 777 3022
Q 1238 3538 1922 3538
Q 2600 3538 2981 3102
Q 3363 2666 3363 1881
L 3363 1572
z
M 2750 2063
Q 2747 2531 2528 2787
Q 2309 3044 1913 3044
Q 1547 3044 1280 2772
Q 1013 2500 944 2063
L 2750 2063
z
" transform="scale(0.015625)"/>
     <path id="MicrosoftYaHei-6d" d="M 5522 0
L 4909 0
L 4909 1984
Q 4909 2547 4734 2789
Q 4559 3031 4159 3031
Q 3822 3031 3581 2715
Q 3341 2400 3341 1969
L 3341 0
L 2728 0
L 2728 2047
Q 2728 3031 1969 3031
Q 1619 3031 1389 2731
Q 1159 2431 1159 1966
L 1159 0
L 547 0
L 547 3456
L 1159 3456
L 1159 2909
L 1172 2909
Q 1541 3538 2250 3538
Q 2597 3538 2862 3347
Q 3128 3156 3231 2831
Q 3616 3538 4381 3538
Q 5522 3538 5522 2131
L 5522 0
z
" transform="scale(0.015625)"/>
     <path id="MicrosoftYaHei-6c" d="M 544 0
L 544 5116
L 1156 5116
L 1156 0
L 544 0
z
" transform="scale(0.015625)"/>
     <path id="MicrosoftYaHei-6f" d="M 316 1691
Q 316 2547 794 3042
Q 1272 3538 2091 3538
Q 2869 3538 3311 3061
Q 3753 2584 3753 1744
Q 3753 925 3281 422
Q 2809 -81 2016 -81
Q 1241 -81 778 406
Q 316 894 316 1691
z
M 941 1709
Q 941 1113 1242 769
Q 1544 425 2053 425
Q 2578 425 2853 761
Q 3128 1097 3128 1725
Q 3128 2356 2853 2693
Q 2578 3031 2053 3031
Q 1538 3031 1239 2678
Q 941 2325 941 1709
z
" transform="scale(0.015625)"/>
     <path id="MicrosoftYaHei-6d4b" d="M 875 1753
Q 1175 1597 1369 1522
Q 950 -41 763 -784
L 250 -547
Q 619 497 875 1753
z
M 638 5166
Q 1019 4847 1588 4303
Q 1381 4103 1213 3928
Q 756 4434 313 4853
L 638 5166
z
M 356 3559
Q 881 3134 1350 2716
Q 1188 2547 988 2322
Q 425 2878 50 3216
L 356 3559
z
M 5575 5284
L 6031 5284
L 6031 -34
Q 6031 -753 5338 -753
Q 5038 -753 4625 -741
Q 4600 -509 4538 -228
Q 4938 -272 5219 -272
Q 5575 -272 5575 84
L 5575 5284
z
M 5038 634
L 4600 634
L 4600 4778
L 5038 4778
L 5038 634
z
M 1706 4941
L 4063 4941
L 4063 991
L 3613 991
L 3613 4503
L 2156 4503
L 2156 991
L 1706 991
L 1706 4941
z
M 2681 3966
L 3138 3966
L 3138 2416
Q 3138 1466 2963 891
Q 3775 266 4375 -234
L 4038 -616
Q 3538 -141 2800 472
Q 2413 -297 1406 -884
Q 1269 -684 1100 -484
Q 2031 53 2375 709
Q 2681 1278 2681 2403
L 2681 3966
z
" transform="scale(0.015625)"/>
     <path id="MicrosoftYaHei-5b8c" d="M 275 1959
L 6150 1959
L 6150 1516
L 4131 1516
L 4131 191
Q 4131 -222 4538 -222
L 5200 -222
Q 5625 -222 5675 65
Q 5725 353 5744 884
Q 5969 797 6294 697
Q 6250 184 6181 -141
Q 6094 -678 5425 -678
L 4406 -678
Q 3625 -678 3625 122
L 3625 1516
L 2503 1516
Q 2488 -247 438 -834
Q 313 -628 125 -372
Q 1975 78 2006 1516
L 275 1516
L 275 1959
z
M 325 4534
L 3000 4534
Q 2878 4788 2688 5128
L 3175 5353
Q 3422 4878 3575 4534
L 6075 4534
L 6075 3384
L 5563 3384
L 5563 4091
L 838 4091
L 838 3384
L 325 3384
L 325 4534
z
M 1050 3253
L 5450 3253
L 5450 2816
L 1050 2816
L 1050 3253
z
" transform="scale(0.015625)"/>
     <path id="MicrosoftYaHei-6574" d="M 138 -234
L 1263 -234
L 1263 891
L 1713 891
L 1713 -234
L 3025 -234
L 3025 1178
L 550 1178
L 550 1578
L 5800 1578
L 5800 1178
L 3475 1178
L 3475 697
L 5525 697
L 5525 297
L 3475 297
L 3475 -234
L 6256 -234
L 6256 -634
L 138 -634
L 138 -234
z
M 25 2003
Q 825 2334 1481 2916
L 913 2916
L 913 2759
L 506 2759
L 506 4109
L 1650 4109
L 1650 4491
L 250 4491
L 250 4866
L 1650 4866
L 1650 5291
L 2069 5291
L 2069 4866
L 3425 4866
L 3425 4491
L 2069 4491
L 2069 4109
L 3213 4109
L 3213 2759
L 2806 2759
L 2806 2916
L 2069 2916
L 2069 2541
L 2225 2747
Q 2781 2484 3288 2216
L 3075 1872
Q 2550 2184 2069 2397
L 2069 1722
L 1650 1722
L 1650 2647
Q 1075 2078 288 1647
Q 175 1803 25 2003
z
M 3363 2078
Q 4050 2341 4519 2716
Q 4144 3134 3938 3716
Q 3788 3447 3631 3197
L 3256 3459
Q 3850 4253 4163 5322
L 4600 5191
Q 4481 4872 4356 4572
L 6263 4572
L 6263 4172
L 5850 4172
Q 5644 3316 5181 2741
Q 5638 2428 6325 2247
Q 6169 2047 6013 1778
Q 5319 2034 4844 2403
Q 4363 1984 3650 1678
Q 3525 1859 3363 2078
z
M 5400 4172
L 4219 4172
Q 4394 3484 4838 3022
Q 5244 3503 5400 4172
z
M 2806 3266
L 2806 3759
L 2069 3759
L 2069 3266
L 2806 3266
z
M 913 3266
L 1650 3266
L 1650 3759
L 913 3759
L 913 3266
z
" transform="scale(0.015625)"/>
     <path id="MicrosoftYaHei-5168" d="M 369 -103
L 2950 -103
L 2950 984
L 925 984
L 925 1441
L 2950 1441
L 2950 2403
L 1156 2403
L 1156 2859
L 5269 2859
L 5269 2403
L 3469 2403
L 3469 1441
L 5500 1441
L 5500 984
L 3469 984
L 3469 -103
L 6044 -103
L 6044 -566
L 369 -566
L 369 -103
z
M 3656 5234
L 3531 5078
Q 4581 3703 6319 3009
Q 6125 2734 5988 2509
Q 4338 3322 3219 4691
Q 2263 3453 394 2428
Q 269 2641 81 2897
Q 2013 3866 3000 5234
L 3656 5234
z
" transform="scale(0.015625)"/>
     <path id="MicrosoftYaHei-5206" d="M 900 2559
L 5056 2559
Q 5025 1497 4963 484
Q 4888 -684 3856 -678
Q 3350 -684 2788 -647
Q 2750 -384 2700 -116
Q 3181 -184 3775 -191
Q 4400 -203 4463 541
Q 4513 1216 4538 2097
L 2616 2097
Q 2541 1053 2181 416
Q 1706 -422 588 -878
Q 425 -666 231 -459
Q 1269 -72 1725 666
Q 2053 1225 2103 2097
L 900 2097
L 900 2559
z
M 3488 5159
L 3938 5353
Q 4625 3678 6350 2847
Q 6069 2553 5944 2372
Q 4225 3366 3488 5159
z
M 50 2766
Q 1338 3678 2250 5253
L 2694 5009
Q 1744 3347 413 2341
Q 281 2534 50 2766
z
" transform="scale(0.015625)"/>
     <path id="MicrosoftYaHei-6790" d="M 2775 4797
Q 4319 4822 5863 5066
L 6031 4616
Q 4713 4422 3256 4359
L 3256 2966
L 6306 2966
L 6306 2509
L 5131 2509
L 5131 -816
L 4650 -816
L 4650 2509
L 3256 2509
L 3256 2272
Q 3256 241 2225 -853
Q 2069 -628 1900 -441
Q 2775 497 2775 2278
L 2775 4797
z
M 88 1391
Q 738 2341 1069 3584
L 175 3584
L 175 4016
L 1081 4016
L 1081 5259
L 1538 5259
L 1538 4016
L 2400 4016
L 2400 3584
L 1538 3584
L 1538 2872
L 1769 3053
Q 2338 2384 2594 1984
L 2206 1697
Q 1913 2159 1538 2659
L 1538 -816
L 1081 -816
L 1081 2397
Q 763 1459 306 834
Q 231 1053 88 1391
z
" transform="scale(0.015625)"/>
     <path id="MicrosoftYaHei-671f" d="M 3769 5066
L 5981 5066
L 5981 -3
Q 5981 -741 5281 -741
Q 4931 -741 4594 -722
Q 4569 -516 4519 -241
Q 4975 -284 5175 -284
Q 5519 -284 5519 59
L 5519 1372
L 4181 1372
Q 4113 3 3350 -903
Q 3181 -728 2975 -553
Q 3481 28 3619 653
Q 3769 1253 3769 2741
L 3769 5066
z
M 125 1141
L 713 1141
L 713 4028
L 200 4028
L 200 4453
L 713 4453
L 713 5216
L 1175 5216
L 1175 4453
L 2475 4453
L 2475 5241
L 2938 5241
L 2938 4453
L 3444 4453
L 3444 4028
L 2938 4028
L 2938 1141
L 3438 1141
L 3438 716
L 125 716
L 125 1141
z
M 4209 1784
L 5519 1784
L 5519 3009
L 4231 3009
Q 4238 2203 4209 1784
z
M 5519 4641
L 4231 4641
L 4231 3422
L 5519 3422
L 5519 4641
z
M 1175 1141
L 2475 1141
L 2475 1841
L 1175 1841
L 1175 1141
z
M 1175 2241
L 2475 2241
L 2475 2934
L 1175 2934
L 1175 2241
z
M 1175 3334
L 2475 3334
L 2475 4028
L 1175 4028
L 1175 3334
z
M 1175 597
L 1556 297
Q 925 -384 406 -847
Q 275 -697 75 -516
Q 669 -9 1175 597
z
M 1994 303
L 2294 609
Q 2731 284 3119 -47
L 2788 -403
Q 2438 -53 1994 303
z
" transform="scale(0.015625)"/>
     <path id="MicrosoftYaHei-95f4" d="M 1863 3647
L 4513 3647
L 4513 553
L 2313 553
L 2313 166
L 1863 166
L 1863 3647
z
M 2388 4453
L 2388 4922
L 6013 4922
L 6013 -28
Q 6013 -816 5119 -816
Q 4756 -816 4169 -803
Q 4144 -616 4069 -297
Q 4588 -334 5056 -334
Q 5525 -334 5525 122
L 5525 4453
L 2388 4453
z
M 419 4084
L 906 4084
L 906 -816
L 419 -816
L 419 4084
z
M 2313 997
L 4063 997
L 4063 1884
L 2313 1884
L 2313 997
z
M 4063 3203
L 2313 3203
L 2313 2328
L 4063 2328
L 4063 3203
z
M 744 5003
L 1100 5322
Q 1575 4872 1981 4447
L 1575 4091
Q 1194 4541 744 5003
z
" transform="scale(0.015625)"/>
     <path id="MicrosoftYaHei-7684" d="M 356 4284
L 988 4284
Q 1219 4853 1369 5322
L 1894 5172
Q 1697 4694 1513 4284
L 2763 4284
L 2763 -691
L 2263 -691
L 2263 -203
L 856 -203
L 856 -734
L 356 -734
L 356 4284
z
M 2856 3003
Q 3444 3934 3850 5322
L 4375 5191
Q 4216 4719 4050 4303
L 6063 4303
Q 5988 1091 5938 259
Q 5894 -722 4906 -722
Q 4338 -722 3750 -684
Q 3713 -372 3650 -128
L 3669 -128
Q 4294 -216 4813 -216
Q 5381 -216 5425 384
Q 5494 1316 5525 3834
L 3850 3834
Q 3578 3231 3288 2772
Q 3119 2891 2856 3003
z
M 856 266
L 2263 266
L 2263 1847
L 856 1847
L 856 266
z
M 2263 3816
L 856 3816
L 856 2297
L 2263 2297
L 2263 3816
z
M 3406 2578
L 3788 2859
Q 4481 2041 4894 1441
L 4431 1116
Q 3988 1841 3406 2578
z
" transform="scale(0.015625)"/>
     <path id="MicrosoftYaHei-50" d="M 1250 1809
L 1250 0
L 625 0
L 625 4841
L 2000 4841
Q 2784 4841 3217 4462
Q 3650 4084 3650 3381
Q 3650 2669 3144 2226
Q 2638 1784 1878 1809
L 1250 1809
z
M 1250 4291
L 1250 2359
L 1828 2359
Q 2400 2359 2697 2617
Q 2994 2875 2994 3356
Q 2994 4291 1888 4291
L 1250 4291
z
" transform="scale(0.015625)"/>
     <path id="MicrosoftYaHei-79" d="M 3359 3456
L 1791 -522
Q 1353 -1628 556 -1628
Q 328 -1628 166 -1578
L 166 -1041
Q 344 -1109 509 -1109
Q 925 -1109 1131 -622
L 1397 6
L 41 3456
L 719 3456
L 1622 859
L 1697 575
L 1713 575
Q 1731 672 1788 853
L 2731 3456
L 3359 3456
z
" transform="scale(0.015625)"/>
     <path id="MicrosoftYaHei-68" d="M 3466 0
L 2856 0
L 2856 1988
Q 2856 3031 2081 3031
Q 1684 3031 1421 2726
Q 1159 2422 1159 1959
L 1159 0
L 547 0
L 547 5116
L 1159 5116
L 1159 2888
L 1172 2888
Q 1569 3538 2300 3538
Q 3466 3538 3466 2128
L 3466 0
z
" transform="scale(0.015625)"/>
     <path id="MicrosoftYaHei-6e" d="M 3469 0
L 2859 0
L 2859 1966
Q 2859 3031 2081 3031
Q 1678 3031 1418 2731
Q 1159 2431 1159 1972
L 1159 0
L 547 0
L 547 3456
L 1159 3456
L 1159 2884
L 1172 2884
Q 1563 3538 2306 3538
Q 2875 3538 3172 3173
Q 3469 2809 3469 2113
L 3469 0
z
" transform="scale(0.015625)"/>
     <path id="MicrosoftYaHei-914d" d="M 388 3697
L 1244 3697
L 1244 4516
L 194 4516
L 194 4928
L 3506 4928
L 3506 4516
L 2469 4516
L 2469 3697
L 3375 3697
L 3375 -766
L 2956 -766
L 2956 -366
L 806 -366
L 806 -772
L 388 -772
L 388 3697
z
M 3831 2916
L 5488 2916
L 5488 4541
L 3725 4541
L 3725 4978
L 5938 4978
L 5938 2234
L 5488 2234
L 5488 2478
L 4281 2478
L 4281 316
Q 4281 -178 4706 -178
L 5300 -178
Q 5669 -178 5719 191
Q 5800 609 5831 1203
Q 6006 1116 6300 997
Q 6256 491 6169 34
Q 6063 -628 5381 -628
L 4575 -628
Q 3831 -628 3831 253
L 3831 2916
z
M 2069 2291
L 2069 3297
L 1644 3297
L 1644 3047
Q 1644 2047 1125 1391
Q 975 1538 806 1697
L 806 1178
L 2956 1178
L 2956 1778
L 2513 1778
Q 2069 1778 2069 2291
z
M 806 34
L 2956 34
L 2956 784
L 806 784
L 806 34
z
M 2956 3297
L 2469 3297
L 2469 2428
Q 2456 2147 2700 2166
L 2956 2166
L 2956 3297
z
M 806 1738
Q 1244 2234 1244 3078
L 1244 3297
L 806 3297
L 806 1738
z
M 1644 3697
L 2069 3697
L 2069 4516
L 1644 4516
L 1644 3697
z
" transform="scale(0.015625)"/>
     <path id="MicrosoftYaHei-ff1b" d="M 1606 3531
Q 1772 3531 1890 3415
Q 2009 3300 2009 3138
Q 2009 2975 1893 2858
Q 1778 2741 1606 2741
Q 1434 2741 1318 2858
Q 1203 2975 1203 3138
Q 1203 3300 1322 3415
Q 1441 3531 1606 3531
z
M 1931 775
L 1403 -891
L 966 -891
L 1350 775
L 1931 775
z
" transform="scale(0.015625)"/>
     <path id="MicrosoftYaHei-8ba1" d="M 2100 3153
L 3919 3153
L 3919 5303
L 4456 5303
L 4456 3153
L 6288 3153
L 6288 2703
L 4456 2703
L 4456 -822
L 3919 -822
L 3919 2703
L 2100 2703
L 2100 3153
z
M 2675 903
Q 2694 578 2719 359
Q 1719 -266 1069 -728
L 769 -303
Q 988 -116 988 266
L 988 2741
L 100 2741
L 100 3191
L 1488 3191
L 1488 153
Q 2031 484 2675 903
z
M 738 5222
Q 1419 4522 1725 4184
L 1288 3816
Q 894 4334 356 4891
L 738 5222
z
" transform="scale(0.015625)"/>
     <path id="MicrosoftYaHei-65f6" d="M 344 4728
L 2500 4728
L 2500 -366
L 2006 -366
L 2006 153
L 838 153
L 838 -441
L 344 -441
L 344 4728
z
M 2706 3941
L 4925 3941
L 4925 5322
L 5425 5322
L 5425 3941
L 6313 3941
L 6313 3478
L 5425 3478
L 5425 116
Q 5425 -722 4625 -722
Q 4263 -722 3563 -703
Q 3531 -478 3463 -178
Q 4119 -228 4488 -228
Q 4925 -228 4925 216
L 4925 3478
L 2706 3478
L 2706 3941
z
M 838 616
L 2006 616
L 2006 2234
L 838 2234
L 838 616
z
M 2006 4266
L 838 4266
L 838 2684
L 2006 2684
L 2006 4266
z
M 3406 2878
Q 3906 1966 4163 1422
Q 4000 1347 3663 1172
Q 3419 1766 2963 2653
L 3406 2878
z
" transform="scale(0.015625)"/>
     <path id="MicrosoftYaHei-5b9e" d="M 113 -397
Q 2419 34 3081 972
L 213 972
L 213 1434
L 3313 1434
Q 3525 2084 3506 3703
L 4031 3703
Q 4031 2097 3856 1434
L 6225 1434
L 6225 972
L 3681 972
Q 3631 872 3563 759
Q 4900 197 6181 -403
L 5906 -878
Q 4569 -197 3263 391
Q 2413 -441 413 -891
Q 269 -616 113 -397
z
M 331 4422
L 3194 4422
Q 3038 4703 2775 5078
L 3231 5334
Q 3438 5059 3731 4609
L 3388 4422
L 6063 4422
L 6063 3303
L 5563 3303
L 5563 3959
L 831 3959
L 831 3303
L 331 3303
L 331 4422
z
M 1100 2734
Q 1819 2409 2450 2053
L 2181 1622
Q 1556 2003 863 2334
L 1100 2734
z
M 1663 3691
Q 2388 3341 2981 2984
L 2700 2559
Q 2119 2934 1419 3322
L 1663 3691
z
" transform="scale(0.015625)"/>
     <path id="MicrosoftYaHei-9a8c" d="M 963 4116
L 819 2397
L 1450 2397
L 1613 4503
L 194 4503
L 194 4928
L 2088 4928
L 1894 2397
L 2288 2397
Q 2244 1078 2206 228
Q 2188 -722 1381 -722
Q 1044 -722 588 -703
Q 556 -472 506 -209
Q 956 -266 1306 -266
Q 1744 -266 1769 266
Q 1806 953 1831 1972
L 331 1972
L 531 4116
L 963 4116
z
M 2338 -103
L 4594 -103
Q 5044 1009 5394 2222
L 5869 2072
Q 5500 953 5088 -103
L 6188 -103
L 6188 -534
L 2338 -534
L 2338 -103
z
M 4606 5278
L 4488 5078
Q 5244 3734 6363 3122
Q 6163 2872 6031 2684
Q 4931 3497 4238 4641
Q 3600 3509 2456 2609
Q 2344 2772 2144 3003
Q 3388 3866 4050 5278
L 4606 5278
z
M 2975 2978
L 5550 2978
L 5550 2547
L 2975 2547
L 2975 2978
z
M 3731 2178
L 4175 2297
Q 4438 1359 4606 659
L 4150 528
Q 3969 1391 3731 2178
z
M 2656 1897
L 3094 2034
Q 3400 1147 3606 453
L 3144 297
Q 2938 1097 2656 1897
z
M 38 1034
Q 763 1178 1631 1384
Q 1625 1134 1638 941
Q 925 791 131 572
L 38 1034
z
" transform="scale(0.015625)"/>
     <path id="MicrosoftYaHei-5355" d="M 125 909
L 2956 909
L 2956 1616
L 1225 1616
L 1225 1322
L 750 1322
L 750 4353
L 2047 4353
Q 1747 4703 1400 5072
L 1756 5366
Q 2219 4922 2569 4547
L 2338 4353
L 3803 4353
Q 4147 4809 4500 5347
L 5000 5078
Q 4678 4688 4378 4353
L 5656 4353
L 5656 1322
L 5181 1322
L 5181 1616
L 3444 1616
L 3444 909
L 6275 909
L 6275 459
L 3444 459
L 3444 -859
L 2956 -859
L 2956 459
L 125 459
L 125 909
z
M 3444 2053
L 5181 2053
L 5181 2778
L 3444 2778
L 3444 2053
z
M 1225 2053
L 2956 2053
L 2956 2778
L 1225 2778
L 1225 2053
z
M 5181 3916
L 3444 3916
L 3444 3203
L 5181 3203
L 5181 3916
z
M 1225 3203
L 2956 3203
L 2956 3916
L 1225 3916
L 1225 3203
z
" transform="scale(0.015625)"/>
     <path id="MicrosoftYaHei-72ec" d="M 5050 1034
L 5463 1216
Q 5975 266 6319 -522
L 5844 -734
Q 5716 -425 5591 -131
Q 4169 -278 2206 -503
L 2113 -3
Q 3103 72 3938 144
L 3938 1666
L 2956 1666
L 2956 1397
L 2500 1397
L 2500 4116
L 3938 4116
L 3938 5284
L 4406 5284
L 4406 4116
L 5844 4116
L 5844 1666
L 4406 1666
L 4406 184
Q 4944 231 5409 275
Q 5231 669 5050 1034
z
M 100 1291
Q 888 1878 1394 2641
Q 1325 3128 1163 3478
Q 800 3125 431 2853
Q 325 3003 119 3197
Q 553 3509 953 3903
Q 669 4403 213 4859
L 563 5116
Q 997 4700 1284 4250
Q 1613 4622 1919 5053
L 2306 4803
Q 1916 4272 1513 3838
Q 1988 2866 1963 809
Q 1950 -622 994 -622
Q 694 -622 306 -597
Q 281 -334 225 -59
Q 619 -134 931 -134
Q 1506 -134 1513 872
Q 1525 1497 1475 2044
Q 1028 1438 425 941
Q 313 1091 100 1291
z
M 5388 2103
L 5388 3678
L 4406 3678
L 4406 2103
L 5388 2103
z
M 2956 2103
L 3938 2103
L 3938 3678
L 2956 3678
L 2956 2103
z
" transform="scale(0.015625)"/>
     <path id="MicrosoftYaHei-3002" d="M 1219 863
Q 1525 863 1750 625
Q 1975 388 1975 72
Q 1975 -284 1747 -507
Q 1519 -731 1197 -731
Q 875 -731 642 -503
Q 409 -275 409 66
Q 409 413 656 638
Q 903 863 1219 863
z
M 1209 -275
Q 1328 -275 1431 -184
Q 1534 -94 1534 50
Q 1534 209 1434 304
Q 1334 400 1191 400
Q 1056 400 959 304
Q 863 209 863 53
Q 863 -100 977 -187
Q 1091 -275 1209 -275
z
" transform="scale(0.015625)"/>
    </defs>
    <use xlink:href="#MicrosoftYaHei-4f7f"/>
    <use xlink:href="#MicrosoftYaHei-7528" transform="translate(100 0)"/>
    <use xlink:href="#MicrosoftYaHei-20" transform="translate(200 0)"/>
    <use xlink:href="#MicrosoftYaHei-74" transform="translate(229.589844 0)"/>
    <use xlink:href="#MicrosoftYaHei-72" transform="translate(266.845703 0)"/>
    <use xlink:href="#MicrosoftYaHei-61" transform="translate(305.029297 0)"/>
    <use xlink:href="#MicrosoftYaHei-63" transform="translate(360.302734 0)"/>
    <use xlink:href="#MicrosoftYaHei-65" transform="translate(410.449219 0)"/>
    <use xlink:href="#MicrosoftYaHei-6d" transform="translate(467.1875 0)"/>
    <use xlink:href="#MicrosoftYaHei-61" transform="translate(560.888672 0)"/>
    <use xlink:href="#MicrosoftYaHei-6c" transform="translate(616.162109 0)"/>
    <use xlink:href="#MicrosoftYaHei-6c" transform="translate(642.773438 0)"/>
    <use xlink:href="#MicrosoftYaHei-6f" transform="translate(669.384766 0)"/>
    <use xlink:href="#MicrosoftYaHei-63" transform="translate(732.958984 0)"/>
    <use xlink:href="#MicrosoftYaHei-20" transform="translate(783.105469 0)"/>
    <use xlink:href="#MicrosoftYaHei-6d4b" transform="translate(812.695312 0)"/>
    <use xlink:href="#MicrosoftYaHei-91cf" transform="translate(912.695312 0)"/>
    <use xlink:href="#MicrosoftYaHei-5b8c" transform="translate(1012.695312 0)"/>
    <use xlink:href="#MicrosoftYaHei-6574" transform="translate(1112.695312 0)"/>
    <use xlink:href="#MicrosoftYaHei-5168" transform="translate(1212.695312 0)"/>
    <use xlink:href="#MicrosoftYaHei-7403" transform="translate(1312.695312 0)"/>
    <use xlink:href="#MicrosoftYaHei-961f" transform="translate(1412.695312 0)"/>
    <use xlink:href="#MicrosoftYaHei-5206" transform="translate(1512.695312 0)"/>
    <use xlink:href="#MicrosoftYaHei-6790" transform="translate(1612.695312 0)"/>
    <use xlink:href="#MicrosoftYaHei-671f" transform="translate(1712.695312 0)"/>
    <use xlink:href="#MicrosoftYaHei-95f4" transform="translate(1812.695312 0)"/>
    <use xlink:href="#MicrosoftYaHei-7684" transform="translate(1912.695312 0)"/>
    <use xlink:href="#MicrosoftYaHei-5cf0" transform="translate(2012.695312 0)"/>
    <use xlink:href="#MicrosoftYaHei-503c" transform="translate(2112.695312 0)"/>
    <use xlink:href="#MicrosoftYaHei-20" transform="translate(2212.695312 0)"/>
    <use xlink:href="#MicrosoftYaHei-50" transform="translate(2242.285156 0)"/>
    <use xlink:href="#MicrosoftYaHei-79" transform="translate(2303.466797 0)"/>
    <use xlink:href="#MicrosoftYaHei-74" transform="translate(2356.646484 0)"/>
    <use xlink:href="#MicrosoftYaHei-68" transform="translate(2393.902344 0)"/>
    <use xlink:href="#MicrosoftYaHei-6f" transform="translate(2455.474609 0)"/>
    <use xlink:href="#MicrosoftYaHei-6e" transform="translate(2519.048828 0)"/>
    <use xlink:href="#MicrosoftYaHei-20" transform="translate(2580.669922 0)"/>
    <use xlink:href="#MicrosoftYaHei-5206" transform="translate(2610.259766 0)"/>
    <use xlink:href="#MicrosoftYaHei-914d" transform="translate(2710.259766 0)"/>
    <use xlink:href="#MicrosoftYaHei-ff1b" transform="translate(2810.259766 0)"/>
    <use xlink:href="#MicrosoftYaHei-8ba1" transform="translate(2910.259766 0)"/>
    <use xlink:href="#MicrosoftYaHei-65f6" transform="translate(3010.259766 0)"/>
    <use xlink:href="#MicrosoftYaHei-5b9e" transform="translate(3110.259766 0)"/>
    <use xlink:href="#MicrosoftYaHei-9a8c" transform="translate(3210.259766 0)"/>
    <use xlink:href="#MicrosoftYaHei-5355" transform="translate(3310.259766 0)"/>
    <use xlink:href="#MicrosoftYaHei-72ec" transform="translate(3410.259766 0)"/>
    <use xlink:href="#MicrosoftYaHei-6d4b" transform="translate(3510.259766 0)"/>
    <use xlink:href="#MicrosoftYaHei-91cf" transform="translate(3610.259766 0)"/>
    <use xlink:href="#MicrosoftYaHei-3002" transform="translate(3710.259766 0)"/>
   </g>
  </g>
 </g>
 <defs>
  <clipPath id="p900be684b9">
   <rect x="52.627031" y="85.32" width="665.28" height="299.088"/>
  </clipPath>
 </defs>
</svg>
