<?xml version="1.0" encoding="utf-8" standalone="no"?>
<!DOCTYPE svg PUBLIC "-//W3C//DTD SVG 1.1//EN"
  "http://www.w3.org/Graphics/SVG/1.1/DTD/svg11.dtd">
<svg xmlns:xlink="http://www.w3.org/1999/xlink" width="722.676562pt" height="427.425187pt" viewBox="0 0 722.676562 427.425187" xmlns="http://www.w3.org/2000/svg" version="1.1">
 <metadata>
  <rdf:RDF xmlns:dc="http://purl.org/dc/elements/1.1/" xmlns:cc="http://creativecommons.org/ns#" xmlns:rdf="http://www.w3.org/1999/02/22-rdf-syntax-ns#">
   <cc:Work>
    <dc:type rdf:resource="http://purl.org/dc/dcmitype/StillImage"/>
    <dc:date>2026-06-25T00:00:07.732251</dc:date>
    <dc:format>image/svg+xml</dc:format>
    <dc:creator>
     <cc:Agent>
      <dc:title>Matplotlib v3.10.0, https://matplotlib.org/</dc:title>
     </cc:Agent>
    </dc:creator>
   </cc:Work>
  </rdf:RDF>
 </metadata>
 <defs>
  <style type="text/css">*{stroke-linejoin: round; stroke-linecap: butt}</style>
 </defs>
 <g id="figure_1">
  <g id="patch_1">
   <path d="M 0 427.425187 
L 722.676562 427.425187 
L 722.676562 0 
L 0 0 
z
" style="fill: #fcfcfd"/>
  </g>
  <g id="axes_1">
   <g id="patch_2">
    <path d="M 50.196562 384.408 
L 715.476562 384.408 
L 715.476562 85.32 
L 50.196562 85.32 
z
" style="fill: #ffffff"/>
   </g>
   <g id="matplotlib.axis_1">
    <g id="xtick_1">
     <g id="text_1">
      <!-- 7.5 -->
      <g style="fill: #262626" transform="translate(58.194063 402.051438) scale(0.11 -0.11)">
       <defs>
        <path id="SegoeUI-37" d="M 3156 4184 
Q 3053 4006 2908 3740 
Q 2763 3475 2600 3144 
Q 2438 2813 2269 2431 
Q 2100 2050 1953 1644 
Q 1806 1238 1695 820 
Q 1584 403 1534 0 
L 984 0 
Q 1041 400 1158 817 
Q 1275 1234 1423 1636 
Q 1572 2038 1737 2409 
Q 1903 2781 2059 3093 
Q 2216 3406 2345 3645 
Q 2475 3884 2553 4019 
L 306 4019 
L 306 4481 
L 3156 4481 
L 3156 4184 
z
" transform="scale(0.015625)"/>
        <path id="SegoeUI-2e" d="M 697 -69 
Q 553 -69 451 34 
Q 350 138 350 281 
Q 350 425 451 529 
Q 553 634 697 634 
Q 844 634 947 529 
Q 1050 425 1050 281 
Q 1050 138 947 34 
Q 844 -69 697 -69 
z
" transform="scale(0.015625)"/>
        <path id="SegoeUI-35" d="M 3028 1369 
Q 3028 1041 2915 775 
Q 2803 509 2595 318 
Q 2388 128 2094 25 
Q 1800 -78 1441 -78 
Q 816 -78 513 109 
L 513 653 
Q 969 359 1447 359 
Q 1691 359 1886 431 
Q 2081 503 2218 631 
Q 2356 759 2429 940 
Q 2503 1122 2503 1338 
Q 2503 1775 2209 2023 
Q 1916 2272 1356 2272 
Q 1266 2272 1166 2269 
Q 1066 2266 966 2261 
Q 866 2256 770 2250 
Q 675 2244 597 2234 
L 750 4481 
L 2822 4481 
L 2822 4019 
L 1194 4019 
L 1103 2703 
Q 1203 2709 1315 2714 
Q 1428 2719 1516 2719 
Q 1872 2719 2153 2625 
Q 2434 2531 2629 2357 
Q 2825 2184 2926 1932 
Q 3028 1681 3028 1369 
z
" transform="scale(0.015625)"/>
       </defs>
       <use xlink:href="#SegoeUI-37"/>
       <use xlink:href="#SegoeUI-2e" transform="translate(53.90625 0)"/>
       <use xlink:href="#SegoeUI-35" transform="translate(75.585938 0)"/>
      </g>
     </g>
    </g>
    <g id="xtick_2">
     <g id="text_2">
      <!-- 10.0 -->
      <g style="fill: #262626" transform="translate(130.829219 402.051438) scale(0.11 -0.11)">
       <defs>
        <path id="SegoeUI-31" d="M 2263 0 
L 1750 0 
L 1750 3872 
Q 1691 3813 1577 3736 
Q 1463 3659 1320 3584 
Q 1178 3509 1020 3443 
Q 863 3378 713 3341 
L 713 3859 
Q 881 3906 1070 3986 
Q 1259 4066 1442 4164 
Q 1625 4263 1787 4370 
Q 1950 4478 2069 4581 
L 2263 4581 
L 2263 0 
z
" transform="scale(0.015625)"/>
        <path id="SegoeUI-30" d="M 3188 2259 
Q 3188 1697 3086 1262 
Q 2984 828 2792 529 
Q 2600 231 2320 76 
Q 2041 -78 1684 -78 
Q 1347 -78 1083 70 
Q 819 219 637 503 
Q 456 788 362 1202 
Q 269 1616 269 2150 
Q 269 2738 367 3188 
Q 466 3638 656 3942 
Q 847 4247 1130 4401 
Q 1413 4556 1778 4556 
Q 3188 4556 3188 2259 
z
M 2663 2209 
Q 2663 4122 1753 4122 
Q 794 4122 794 2175 
Q 794 359 1734 359 
Q 2663 359 2663 2209 
z
" transform="scale(0.015625)"/>
       </defs>
       <use xlink:href="#SegoeUI-31"/>
       <use xlink:href="#SegoeUI-30" transform="translate(53.90625 0)"/>
       <use xlink:href="#SegoeUI-2e" transform="translate(107.8125 0)"/>
       <use xlink:href="#SegoeUI-30" transform="translate(129.492188 0)"/>
      </g>
     </g>
    </g>
    <g id="xtick_3">
     <g id="text_3">
      <!-- 12.5 -->
      <g style="fill: #262626" transform="translate(206.429219 402.051438) scale(0.11 -0.11)">
       <defs>
        <path id="SegoeUI-32" d="M 2413 3306 
Q 2413 3513 2348 3666 
Q 2284 3819 2173 3920 
Q 2063 4022 1913 4072 
Q 1763 4122 1588 4122 
Q 1438 4122 1294 4081 
Q 1150 4041 1014 3969 
Q 878 3897 751 3797 
Q 625 3697 516 3575 
L 516 4125 
Q 731 4334 998 4445 
Q 1266 4556 1650 4556 
Q 1925 4556 2159 4476 
Q 2394 4397 2566 4244 
Q 2738 4091 2836 3866 
Q 2934 3641 2934 3350 
Q 2934 3084 2873 2868 
Q 2813 2653 2689 2462 
Q 2566 2272 2378 2097 
Q 2191 1922 1938 1741 
Q 1622 1516 1417 1356 
Q 1213 1197 1092 1058 
Q 972 919 923 780 
Q 875 641 875 459 
L 3106 459 
L 3106 0 
L 341 0 
L 341 222 
Q 341 509 403 728 
Q 466 947 609 1144 
Q 753 1341 986 1537 
Q 1219 1734 1556 1981 
Q 1800 2156 1964 2315 
Q 2128 2475 2228 2634 
Q 2328 2794 2370 2958 
Q 2413 3122 2413 3306 
z
" transform="scale(0.015625)"/>
       </defs>
       <use xlink:href="#SegoeUI-31"/>
       <use xlink:href="#SegoeUI-32" transform="translate(53.90625 0)"/>
       <use xlink:href="#SegoeUI-2e" transform="translate(107.8125 0)"/>
       <use xlink:href="#SegoeUI-35" transform="translate(129.492188 0)"/>
      </g>
     </g>
    </g>
    <g id="xtick_4">
     <g id="text_4">
      <!-- 15.0 -->
      <g style="fill: #262626" transform="translate(282.029219 402.051438) scale(0.11 -0.11)">
       <use xlink:href="#SegoeUI-31"/>
       <use xlink:href="#SegoeUI-35" transform="translate(53.90625 0)"/>
       <use xlink:href="#SegoeUI-2e" transform="translate(107.8125 0)"/>
       <use xlink:href="#SegoeUI-30" transform="translate(129.492188 0)"/>
      </g>
     </g>
    </g>
    <g id="xtick_5">
     <g id="text_5">
      <!-- 17.5 -->
      <g style="fill: #262626" transform="translate(357.629219 402.051438) scale(0.11 -0.11)">
       <use xlink:href="#SegoeUI-31"/>
       <use xlink:href="#SegoeUI-37" transform="translate(53.90625 0)"/>
       <use xlink:href="#SegoeUI-2e" transform="translate(107.8125 0)"/>
       <use xlink:href="#SegoeUI-35" transform="translate(129.492188 0)"/>
      </g>
     </g>
    </g>
    <g id="xtick_6">
     <g id="text_6">
      <!-- 20.0 -->
      <g style="fill: #262626" transform="translate(433.229219 402.051438) scale(0.11 -0.11)">
       <use xlink:href="#SegoeUI-32"/>
       <use xlink:href="#SegoeUI-30" transform="translate(53.90625 0)"/>
       <use xlink:href="#SegoeUI-2e" transform="translate(107.8125 0)"/>
       <use xlink:href="#SegoeUI-30" transform="translate(129.492188 0)"/>
      </g>
     </g>
    </g>
    <g id="xtick_7">
     <g id="text_7">
      <!-- 22.5 -->
      <g style="fill: #262626" transform="translate(508.829219 402.051438) scale(0.11 -0.11)">
       <use xlink:href="#SegoeUI-32"/>
       <use xlink:href="#SegoeUI-32" transform="translate(53.90625 0)"/>
       <use xlink:href="#SegoeUI-2e" transform="translate(107.8125 0)"/>
       <use xlink:href="#SegoeUI-35" transform="translate(129.492188 0)"/>
      </g>
     </g>
    </g>
    <g id="xtick_8">
     <g id="text_8">
      <!-- 25.0 -->
      <g style="fill: #262626" transform="translate(584.429219 402.051438) scale(0.11 -0.11)">
       <use xlink:href="#SegoeUI-32"/>
       <use xlink:href="#SegoeUI-35" transform="translate(53.90625 0)"/>
       <use xlink:href="#SegoeUI-2e" transform="translate(107.8125 0)"/>
       <use xlink:href="#SegoeUI-30" transform="translate(129.492188 0)"/>
      </g>
     </g>
    </g>
    <g id="xtick_9">
     <g id="text_9">
      <!-- 27.5 -->
      <g style="fill: #262626" transform="translate(660.029219 402.051438) scale(0.11 -0.11)">
       <use xlink:href="#SegoeUI-32"/>
       <use xlink:href="#SegoeUI-37" transform="translate(53.90625 0)"/>
       <use xlink:href="#SegoeUI-2e" transform="translate(107.8125 0)"/>
       <use xlink:href="#SegoeUI-35" transform="translate(129.492188 0)"/>
      </g>
     </g>
    </g>
    <g id="text_10">
     <!-- Number of teams -->
     <g style="fill: #1f2430" transform="translate(336.563438 417.465188) scale(0.12 -0.12)">
      <defs>
       <path id="SegoeUI-4e" d="M 4200 0 
L 3556 0 
L 1250 3572 
Q 1163 3706 1106 3853 
L 1088 3853 
Q 1113 3709 1113 3238 
L 1113 0 
L 588 0 
L 588 4481 
L 1269 4481 
L 3513 966 
Q 3653 747 3694 666 
L 3706 666 
Q 3675 859 3675 1325 
L 3675 4481 
L 4200 4481 
L 4200 0 
z
" transform="scale(0.015625)"/>
       <path id="SegoeUI-75" d="M 3106 0 
L 2594 0 
L 2594 506 
L 2581 506 
Q 2263 -75 1594 -75 
Q 450 -75 450 1288 
L 450 3200 
L 959 3200 
L 959 1369 
Q 959 356 1734 356 
Q 2109 356 2351 632 
Q 2594 909 2594 1356 
L 2594 3200 
L 3106 3200 
L 3106 0 
z
" transform="scale(0.015625)"/>
       <path id="SegoeUI-6d" d="M 5063 0 
L 4550 0 
L 4550 1838 
Q 4550 2369 4386 2606 
Q 4222 2844 3834 2844 
Q 3506 2844 3276 2544 
Q 3047 2244 3047 1825 
L 3047 0 
L 2534 0 
L 2534 1900 
Q 2534 2844 1806 2844 
Q 1469 2844 1250 2561 
Q 1031 2278 1031 1825 
L 1031 0 
L 519 0 
L 519 3200 
L 1031 3200 
L 1031 2694 
L 1044 2694 
Q 1384 3275 2038 3275 
Q 2366 3275 2609 3092 
Q 2853 2909 2944 2613 
Q 3300 3275 4006 3275 
Q 5063 3275 5063 1972 
L 5063 0 
z
" transform="scale(0.015625)"/>
       <path id="SegoeUI-62" d="M 1044 463 
L 1031 463 
L 1031 0 
L 519 0 
L 519 4738 
L 1031 4738 
L 1031 2638 
L 1044 2638 
Q 1422 3275 2150 3275 
Q 2766 3275 3114 2845 
Q 3463 2416 3463 1694 
Q 3463 891 3072 408 
Q 2681 -75 2003 -75 
Q 1369 -75 1044 463 
z
M 1031 1753 
L 1031 1306 
Q 1031 909 1289 632 
Q 1547 356 1944 356 
Q 2409 356 2673 712 
Q 2938 1069 2938 1703 
Q 2938 2238 2691 2541 
Q 2444 2844 2022 2844 
Q 1575 2844 1303 2533 
Q 1031 2222 1031 1753 
z
" transform="scale(0.015625)"/>
       <path id="SegoeUI-65" d="M 3091 1472 
L 831 1472 
Q 844 938 1119 647 
Q 1394 356 1875 356 
Q 2416 356 2869 713 
L 2869 231 
Q 2447 -75 1753 -75 
Q 1075 -75 687 361 
Q 300 797 300 1588 
Q 300 2334 723 2804 
Q 1147 3275 1775 3275 
Q 2403 3275 2747 2869 
Q 3091 2463 3091 1741 
L 3091 1472 
z
M 2566 1906 
Q 2563 2350 2352 2597 
Q 2141 2844 1766 2844 
Q 1403 2844 1150 2584 
Q 897 2325 838 1906 
L 2566 1906 
z
" transform="scale(0.015625)"/>
       <path id="SegoeUI-72" d="M 2188 2681 
Q 2053 2784 1800 2784 
Q 1472 2784 1251 2475 
Q 1031 2166 1031 1631 
L 1031 0 
L 519 0 
L 519 3200 
L 1031 3200 
L 1031 2541 
L 1044 2541 
Q 1153 2878 1378 3067 
Q 1603 3256 1881 3256 
Q 2081 3256 2188 3213 
L 2188 2681 
z
" transform="scale(0.015625)"/>
       <path id="SegoeUI-20" transform="scale(0.015625)"/>
       <path id="SegoeUI-6f" d="M 1856 -75 
Q 1147 -75 723 373 
Q 300 822 300 1563 
Q 300 2369 740 2822 
Q 1181 3275 1931 3275 
Q 2647 3275 3048 2834 
Q 3450 2394 3450 1613 
Q 3450 847 3017 386 
Q 2584 -75 1856 -75 
z
M 1894 2844 
Q 1400 2844 1112 2508 
Q 825 2172 825 1581 
Q 825 1013 1115 684 
Q 1406 356 1894 356 
Q 2391 356 2658 678 
Q 2925 1000 2925 1594 
Q 2925 2194 2658 2519 
Q 2391 2844 1894 2844 
z
" transform="scale(0.015625)"/>
       <path id="SegoeUI-66" d="M 2100 4288 
Q 1950 4372 1759 4372 
Q 1222 4372 1222 3694 
L 1222 3200 
L 1972 3200 
L 1972 2763 
L 1222 2763 
L 1222 0 
L 713 0 
L 713 2763 
L 166 2763 
L 166 3200 
L 713 3200 
L 713 3719 
Q 713 4222 1003 4514 
Q 1294 4806 1728 4806 
Q 1963 4806 2100 4750 
L 2100 4288 
z
" transform="scale(0.015625)"/>
       <path id="SegoeUI-74" d="M 2003 31 
Q 1822 -69 1525 -69 
Q 684 -69 684 869 
L 684 2763 
L 134 2763 
L 134 3200 
L 684 3200 
L 684 3981 
L 1197 4147 
L 1197 3200 
L 2003 3200 
L 2003 2763 
L 1197 2763 
L 1197 959 
Q 1197 638 1306 500 
Q 1416 363 1669 363 
Q 1863 363 2003 469 
L 2003 31 
z
" transform="scale(0.015625)"/>
       <path id="SegoeUI-61" d="M 2809 0 
L 2297 0 
L 2297 500 
L 2284 500 
Q 1950 -75 1300 -75 
Q 822 -75 551 178 
Q 281 431 281 850 
Q 281 1747 1338 1894 
L 2297 2028 
Q 2297 2844 1638 2844 
Q 1059 2844 594 2450 
L 594 2975 
Q 1066 3275 1681 3275 
Q 2809 3275 2809 2081 
L 2809 0 
z
M 2297 1619 
L 1525 1513 
Q 1169 1463 987 1336 
Q 806 1209 806 888 
Q 806 653 973 504 
Q 1141 356 1419 356 
Q 1800 356 2048 623 
Q 2297 891 2297 1300 
L 2297 1619 
z
" transform="scale(0.015625)"/>
       <path id="SegoeUI-73" d="M 325 116 
L 325 666 
Q 744 356 1247 356 
Q 1922 356 1922 806 
Q 1922 934 1864 1023 
Q 1806 1113 1707 1181 
Q 1609 1250 1476 1304 
Q 1344 1359 1191 1419 
Q 978 1503 817 1589 
Q 656 1675 548 1783 
Q 441 1891 386 2028 
Q 331 2166 331 2350 
Q 331 2575 434 2748 
Q 538 2922 709 3039 
Q 881 3156 1101 3215 
Q 1322 3275 1556 3275 
Q 1972 3275 2300 3131 
L 2300 2613 
Q 1947 2844 1488 2844 
Q 1344 2844 1228 2811 
Q 1113 2778 1030 2718 
Q 947 2659 901 2576 
Q 856 2494 856 2394 
Q 856 2269 901 2184 
Q 947 2100 1034 2034 
Q 1122 1969 1247 1916 
Q 1372 1863 1531 1800 
Q 1744 1719 1912 1633 
Q 2081 1547 2200 1439 
Q 2319 1331 2383 1190 
Q 2447 1050 2447 856 
Q 2447 619 2342 444 
Q 2238 269 2063 153 
Q 1888 38 1659 -18 
Q 1431 -75 1181 -75 
Q 688 -75 325 116 
z
" transform="scale(0.015625)"/>
      </defs>
      <use xlink:href="#SegoeUI-4e"/>
      <use xlink:href="#SegoeUI-75" transform="translate(74.804688 0)"/>
      <use xlink:href="#SegoeUI-6d" transform="translate(131.396484 0)"/>
      <use xlink:href="#SegoeUI-62" transform="translate(217.529297 0)"/>
      <use xlink:href="#SegoeUI-65" transform="translate(276.318359 0)"/>
      <use xlink:href="#SegoeUI-72" transform="translate(328.613281 0)"/>
      <use xlink:href="#SegoeUI-20" transform="translate(363.378906 0)"/>
      <use xlink:href="#SegoeUI-6f" transform="translate(390.771484 0)"/>
      <use xlink:href="#SegoeUI-66" transform="translate(447.615234 0)"/>
      <use xlink:href="#SegoeUI-20" transform="translate(478.914062 0)"/>
      <use xlink:href="#SegoeUI-74" transform="translate(506.306641 0)"/>
      <use xlink:href="#SegoeUI-65" transform="translate(539.443359 0)"/>
      <use xlink:href="#SegoeUI-61" transform="translate(591.738281 0)"/>
      <use xlink:href="#SegoeUI-6d" transform="translate(642.617188 0)"/>
      <use xlink:href="#SegoeUI-73" transform="translate(728.75 0)"/>
     </g>
    </g>
   </g>
   <g id="matplotlib.axis_2">
    <g id="ytick_1">
     <g id="line2d_1">
      <path d="M 50.196562 341.297923 
L 715.476562 341.297923 
" clip-path="url(#p7694e7b40b)" style="fill: none; stroke: #e6e8f0; stroke-width: 0.8; stroke-linecap: round"/>
     </g>
     <g id="text_11">
      <!-- 100 -->
      <g style="fill: #262626" transform="translate(22.9075 345.369641) scale(0.11 -0.11)">
       <use xlink:href="#SegoeUI-31"/>
       <use xlink:href="#SegoeUI-30" transform="translate(53.90625 0)"/>
       <use xlink:href="#SegoeUI-30" transform="translate(107.8125 0)"/>
      </g>
     </g>
    </g>
    <g id="ytick_2">
     <g id="line2d_2">
      <path d="M 50.196562 291.542915 
L 715.476562 291.542915 
" clip-path="url(#p7694e7b40b)" style="fill: none; stroke: #e6e8f0; stroke-width: 0.8; stroke-linecap: round"/>
     </g>
     <g id="text_12">
      <!-- 200 -->
      <g style="fill: #262626" transform="translate(22.9075 295.614634) scale(0.11 -0.11)">
       <use xlink:href="#SegoeUI-32"/>
       <use xlink:href="#SegoeUI-30" transform="translate(53.90625 0)"/>
       <use xlink:href="#SegoeUI-30" transform="translate(107.8125 0)"/>
      </g>
     </g>
    </g>
    <g id="ytick_3">
     <g id="line2d_3">
      <path d="M 50.196562 241.787907 
L 715.476562 241.787907 
" clip-path="url(#p7694e7b40b)" style="fill: none; stroke: #e6e8f0; stroke-width: 0.8; stroke-linecap: round"/>
     </g>
     <g id="text_13">
      <!-- 300 -->
      <g style="fill: #262626" transform="translate(22.9075 245.859626) scale(0.11 -0.11)">
       <defs>
        <path id="SegoeUI-33" d="M 2978 1269 
Q 2978 966 2864 717 
Q 2750 469 2542 292 
Q 2334 116 2043 19 
Q 1753 -78 1403 -78 
Q 763 -78 384 166 
L 384 716 
Q 838 359 1422 359 
Q 1656 359 1845 418 
Q 2034 478 2170 590 
Q 2306 703 2379 862 
Q 2453 1022 2453 1222 
Q 2453 2100 1203 2100 
L 831 2100 
L 831 2534 
L 1184 2534 
Q 2291 2534 2291 3359 
Q 2291 4122 1447 4122 
Q 972 4122 556 3803 
L 556 4300 
Q 984 4556 1575 4556 
Q 1856 4556 2084 4478 
Q 2313 4400 2475 4259 
Q 2638 4119 2727 3922 
Q 2816 3725 2816 3488 
Q 2816 2603 1922 2350 
L 1922 2338 
Q 2150 2313 2344 2227 
Q 2538 2141 2678 2003 
Q 2819 1866 2898 1680 
Q 2978 1494 2978 1269 
z
" transform="scale(0.015625)"/>
       </defs>
       <use xlink:href="#SegoeUI-33"/>
       <use xlink:href="#SegoeUI-30" transform="translate(53.90625 0)"/>
       <use xlink:href="#SegoeUI-30" transform="translate(107.8125 0)"/>
      </g>
     </g>
    </g>
    <g id="ytick_4">
     <g id="line2d_4">
      <path d="M 50.196562 192.032899 
L 715.476562 192.032899 
" clip-path="url(#p7694e7b40b)" style="fill: none; stroke: #e6e8f0; stroke-width: 0.8; stroke-linecap: round"/>
     </g>
     <g id="text_14">
      <!-- 400 -->
      <g style="fill: #262626" transform="translate(22.9075 196.104618) scale(0.11 -0.11)">
       <defs>
        <path id="SegoeUI-34" d="M 2656 4481 
L 2656 1522 
L 3231 1522 
L 3231 1053 
L 2656 1053 
L 2656 0 
L 2150 0 
L 2150 1053 
L 44 1053 
L 44 1497 
Q 338 1828 638 2204 
Q 938 2581 1211 2968 
Q 1484 3356 1717 3742 
Q 1950 4128 2109 4481 
L 2656 4481 
z
M 622 1522 
L 2150 1522 
L 2150 3716 
Q 1916 3306 1706 2984 
Q 1497 2663 1308 2400 
Q 1119 2138 947 1925 
Q 775 1713 622 1522 
z
" transform="scale(0.015625)"/>
       </defs>
       <use xlink:href="#SegoeUI-34"/>
       <use xlink:href="#SegoeUI-30" transform="translate(53.90625 0)"/>
       <use xlink:href="#SegoeUI-30" transform="translate(107.8125 0)"/>
      </g>
     </g>
    </g>
    <g id="ytick_5">
     <g id="line2d_5">
      <path d="M 50.196562 142.277891 
L 715.476562 142.277891 
" clip-path="url(#p7694e7b40b)" style="fill: none; stroke: #e6e8f0; stroke-width: 0.8; stroke-linecap: round"/>
     </g>
     <g id="text_15">
      <!-- 500 -->
      <g style="fill: #262626" transform="translate(22.9075 146.34961) scale(0.11 -0.11)">
       <use xlink:href="#SegoeUI-35"/>
       <use xlink:href="#SegoeUI-30" transform="translate(53.90625 0)"/>
       <use xlink:href="#SegoeUI-30" transform="translate(107.8125 0)"/>
      </g>
     </g>
    </g>
    <g id="ytick_6">
     <g id="line2d_6">
      <path d="M 50.196562 92.522883 
L 715.476562 92.522883 
" clip-path="url(#p7694e7b40b)" style="fill: none; stroke: #e6e8f0; stroke-width: 0.8; stroke-linecap: round"/>
     </g>
     <g id="text_16">
      <!-- 600 -->
      <g style="fill: #262626" transform="translate(22.9075 96.594602) scale(0.11 -0.11)">
       <defs>
        <path id="SegoeUI-36" d="M 3194 1422 
Q 3194 1094 3087 819 
Q 2981 544 2793 344 
Q 2606 144 2347 33 
Q 2088 -78 1784 -78 
Q 1447 -78 1180 62 
Q 913 203 727 467 
Q 541 731 444 1112 
Q 347 1494 347 1972 
Q 347 2556 476 3032 
Q 606 3509 845 3848 
Q 1084 4188 1421 4372 
Q 1759 4556 2175 4556 
Q 2638 4556 2919 4428 
L 2919 3944 
Q 2572 4122 2188 4122 
Q 1888 4122 1647 3987 
Q 1406 3853 1234 3608 
Q 1063 3363 970 3016 
Q 878 2669 878 2244 
L 891 2244 
Q 1200 2803 1913 2803 
Q 2206 2803 2442 2703 
Q 2678 2603 2845 2420 
Q 3013 2238 3103 1984 
Q 3194 1731 3194 1422 
z
M 2669 1356 
Q 2669 1591 2609 1778 
Q 2550 1966 2439 2097 
Q 2328 2228 2165 2298 
Q 2003 2369 1797 2369 
Q 1606 2369 1443 2297 
Q 1281 2225 1162 2101 
Q 1044 1978 976 1814 
Q 909 1650 909 1466 
Q 909 1234 975 1032 
Q 1041 831 1159 681 
Q 1278 531 1442 445 
Q 1606 359 1806 359 
Q 2000 359 2159 432 
Q 2319 506 2431 637 
Q 2544 769 2606 951 
Q 2669 1134 2669 1356 
z
" transform="scale(0.015625)"/>
       </defs>
       <use xlink:href="#SegoeUI-36"/>
       <use xlink:href="#SegoeUI-30" transform="translate(53.90625 0)"/>
       <use xlink:href="#SegoeUI-30" transform="translate(107.8125 0)"/>
      </g>
     </g>
    </g>
    <g id="text_17">
     <!-- Peak traced memory (KiB) -->
     <g style="fill: #1f2430" transform="translate(16.08375 302.93025) rotate(-90) scale(0.12 -0.12)">
      <defs>
       <path id="SegoeUI-50" d="M 1113 1694 
L 1113 0 
L 588 0 
L 588 4481 
L 1819 4481 
Q 2538 4481 2933 4131 
Q 3328 3781 3328 3144 
Q 3328 2506 2889 2100 
Q 2450 1694 1703 1694 
L 1113 1694 
z
M 1113 4006 
L 1113 2169 
L 1663 2169 
Q 2206 2169 2492 2417 
Q 2778 2666 2778 3119 
Q 2778 4006 1728 4006 
L 1113 4006 
z
" transform="scale(0.015625)"/>
       <path id="SegoeUI-6b" d="M 3175 0 
L 2456 0 
L 1044 1538 
L 1031 1538 
L 1031 0 
L 519 0 
L 519 4738 
L 1031 4738 
L 1031 1734 
L 1044 1734 
L 2388 3200 
L 3059 3200 
L 1575 1656 
L 3175 0 
z
" transform="scale(0.015625)"/>
       <path id="SegoeUI-63" d="M 2700 147 
Q 2331 -75 1825 -75 
Q 1141 -75 720 370 
Q 300 816 300 1525 
Q 300 2316 753 2795 
Q 1206 3275 1963 3275 
Q 2384 3275 2706 3119 
L 2706 2594 
Q 2350 2844 1944 2844 
Q 1453 2844 1139 2492 
Q 825 2141 825 1569 
Q 825 1006 1120 681 
Q 1416 356 1913 356 
Q 2331 356 2700 634 
L 2700 147 
z
" transform="scale(0.015625)"/>
       <path id="SegoeUI-64" d="M 3250 0 
L 2738 0 
L 2738 544 
L 2725 544 
Q 2369 -75 1625 -75 
Q 1022 -75 661 354 
Q 300 784 300 1525 
Q 300 2319 700 2797 
Q 1100 3275 1766 3275 
Q 2425 3275 2725 2756 
L 2738 2756 
L 2738 4738 
L 3250 4738 
L 3250 0 
z
M 2738 1447 
L 2738 1919 
Q 2738 2306 2481 2575 
Q 2225 2844 1831 2844 
Q 1363 2844 1094 2500 
Q 825 2156 825 1550 
Q 825 997 1083 676 
Q 1341 356 1775 356 
Q 2203 356 2470 665 
Q 2738 975 2738 1447 
z
" transform="scale(0.015625)"/>
       <path id="SegoeUI-79" d="M 3066 3200 
L 1594 -513 
Q 1200 -1506 488 -1506 
Q 288 -1506 153 -1466 
L 153 -1006 
Q 319 -1063 456 -1063 
Q 844 -1063 1038 -600 
L 1294 6 
L 44 3200 
L 613 3200 
L 1478 738 
Q 1494 691 1544 494 
L 1563 494 
Q 1578 569 1625 731 
L 2534 3200 
L 3066 3200 
z
" transform="scale(0.015625)"/>
       <path id="SegoeUI-28" d="M 1863 -1019 
L 1406 -1019 
Q 438 88 438 1709 
Q 438 3338 1406 4481 
L 1869 4481 
Q 888 3294 888 1716 
Q 888 150 1863 -1019 
z
" transform="scale(0.015625)"/>
       <path id="SegoeUI-4b" d="M 3706 0 
L 2975 0 
L 1244 2050 
Q 1147 2166 1125 2206 
L 1113 2206 
L 1113 0 
L 588 0 
L 588 4481 
L 1113 4481 
L 1113 2375 
L 1125 2375 
Q 1169 2444 1244 2528 
L 2919 4481 
L 3572 4481 
L 1650 2331 
L 3706 0 
z
" transform="scale(0.015625)"/>
       <path id="SegoeUI-69" d="M 781 4013 
Q 644 4013 547 4106 
Q 450 4200 450 4344 
Q 450 4488 547 4583 
Q 644 4678 781 4678 
Q 922 4678 1020 4583 
Q 1119 4488 1119 4344 
Q 1119 4206 1020 4109 
Q 922 4013 781 4013 
z
M 1031 0 
L 519 0 
L 519 3200 
L 1031 3200 
L 1031 0 
z
" transform="scale(0.015625)"/>
       <path id="SegoeUI-42" d="M 588 0 
L 588 4481 
L 1863 4481 
Q 2444 4481 2784 4197 
Q 3125 3913 3125 3456 
Q 3125 3075 2919 2794 
Q 2713 2513 2350 2394 
L 2350 2381 
Q 2803 2328 3075 2039 
Q 3347 1750 3347 1288 
Q 3347 713 2934 356 
Q 2522 0 1894 0 
L 588 0 
z
M 1113 4006 
L 1113 2559 
L 1650 2559 
Q 2081 2559 2328 2767 
Q 2575 2975 2575 3353 
Q 2575 4006 1716 4006 
L 1113 4006 
z
M 1113 2088 
L 1113 475 
L 1825 475 
Q 2288 475 2542 694 
Q 2797 913 2797 1294 
Q 2797 2088 1716 2088 
L 1113 2088 
z
" transform="scale(0.015625)"/>
       <path id="SegoeUI-29" d="M 531 -1019 
L 75 -1019 
Q 1050 150 1050 1716 
Q 1050 3294 69 4481 
L 531 4481 
Q 1506 3338 1506 1709 
Q 1506 88 531 -1019 
z
" transform="scale(0.015625)"/>
      </defs>
      <use xlink:href="#SegoeUI-50"/>
      <use xlink:href="#SegoeUI-65" transform="translate(52.255859 0)"/>
      <use xlink:href="#SegoeUI-61" transform="translate(104.550781 0)"/>
      <use xlink:href="#SegoeUI-6b" transform="translate(155.429688 0)"/>
      <use xlink:href="#SegoeUI-20" transform="translate(205.136719 0)"/>
      <use xlink:href="#SegoeUI-74" transform="translate(232.529297 0)"/>
      <use xlink:href="#SegoeUI-72" transform="translate(266.416016 0)"/>
      <use xlink:href="#SegoeUI-61" transform="translate(301.181641 0)"/>
      <use xlink:href="#SegoeUI-63" transform="translate(352.060547 0)"/>
      <use xlink:href="#SegoeUI-65" transform="translate(398.251953 0)"/>
      <use xlink:href="#SegoeUI-64" transform="translate(450.546875 0)"/>
      <use xlink:href="#SegoeUI-20" transform="translate(509.433594 0)"/>
      <use xlink:href="#SegoeUI-6d" transform="translate(536.826172 0)"/>
      <use xlink:href="#SegoeUI-65" transform="translate(622.958984 0)"/>
      <use xlink:href="#SegoeUI-6d" transform="translate(675.253906 0)"/>
      <use xlink:href="#SegoeUI-6f" transform="translate(761.386719 0)"/>
      <use xlink:href="#SegoeUI-72" transform="translate(819.980469 0)"/>
      <use xlink:href="#SegoeUI-79" transform="translate(858.746094 0)"/>
      <use xlink:href="#SegoeUI-20" transform="translate(907.134766 0)"/>
      <use xlink:href="#SegoeUI-28" transform="translate(934.527344 0)"/>
      <use xlink:href="#SegoeUI-4b" transform="translate(964.703125 0)"/>
      <use xlink:href="#SegoeUI-69" transform="translate(1022.710938 0)"/>
      <use xlink:href="#SegoeUI-42" transform="translate(1046.929688 0)"/>
      <use xlink:href="#SegoeUI-29" transform="translate(1104.253906 0)"/>
     </g>
    </g>
   </g>
   <g id="line2d_7">
    <path d="M 80.436563 370.813091 
L 201.396563 344.471297 
L 322.356562 306.776903 
L 443.316562 255.013286 
L 564.276562 191.804026 
L 685.236562 109.724682 
" clip-path="url(#p7694e7b40b)" style="fill: none; stroke-dasharray: 4.81,2.08; stroke-dashoffset: 0; stroke: #f0986e; stroke-width: 1.3"/>
    <defs>
     <path id="m90add659c6" d="M 0 3 
C 0.795609 3 1.55874 2.683901 2.12132 2.12132 
C 2.683901 1.55874 3 0.795609 3 0 
C 3 -0.795609 2.683901 -1.55874 2.12132 -2.12132 
C 1.55874 -2.683901 0.795609 -3 0 -3 
C -0.795609 -3 -1.55874 -2.683901 -2.12132 -2.12132 
C -2.683901 -1.55874 -3 -0.795609 -3 0 
C -3 0.795609 -2.683901 1.55874 -2.12132 2.12132 
C -1.55874 2.683901 -0.795609 3 0 3 
z
" style="stroke: #804126"/>
    </defs>
    <g clip-path="url(#p7694e7b40b)">
     <use xlink:href="#m90add659c6" x="80.436563" y="370.813091" style="fill: #f0986e; stroke: #804126"/>
     <use xlink:href="#m90add659c6" x="201.396563" y="344.471297" style="fill: #f0986e; stroke: #804126"/>
     <use xlink:href="#m90add659c6" x="322.356562" y="306.776903" style="fill: #f0986e; stroke: #804126"/>
     <use xlink:href="#m90add659c6" x="443.316562" y="255.013286" style="fill: #f0986e; stroke: #804126"/>
     <use xlink:href="#m90add659c6" x="564.276562" y="191.804026" style="fill: #f0986e; stroke: #804126"/>
     <use xlink:href="#m90add659c6" x="685.236562" y="109.724682" style="fill: #f0986e; stroke: #804126"/>
    </g>
   </g>
   <g id="line2d_8">
    <path d="M 80.436563 302.392492 
L 201.396563 248.163016 
L 322.356562 219.861372 
L 443.316562 115.114145 
L 564.276562 147.399672 
L 685.236562 98.914909 
" clip-path="url(#p7694e7b40b)" style="fill: none; stroke: #a3befa; stroke-width: 1.3; stroke-linecap: round"/>
    <defs>
     <path id="mb2646135da" d="M -3 3 
L 3 3 
L 3 -3 
L -3 -3 
z
" style="stroke: #2e4780; stroke-linejoin: miter"/>
    </defs>
    <g clip-path="url(#p7694e7b40b)">
     <use xlink:href="#mb2646135da" x="80.436563" y="302.392492" style="fill: #a3befa; stroke: #2e4780; stroke-linejoin: miter"/>
     <use xlink:href="#mb2646135da" x="201.396563" y="248.163016" style="fill: #a3befa; stroke: #2e4780; stroke-linejoin: miter"/>
     <use xlink:href="#mb2646135da" x="322.356562" y="219.861372" style="fill: #a3befa; stroke: #2e4780; stroke-linejoin: miter"/>
     <use xlink:href="#mb2646135da" x="443.316562" y="115.114145" style="fill: #a3befa; stroke: #2e4780; stroke-linejoin: miter"/>
     <use xlink:href="#mb2646135da" x="564.276562" y="147.399672" style="fill: #a3befa; stroke: #2e4780; stroke-linejoin: miter"/>
     <use xlink:href="#mb2646135da" x="685.236562" y="98.914909" style="fill: #a3befa; stroke: #2e4780; stroke-linejoin: miter"/>
    </g>
   </g>
   <g id="patch_3">
    <path d="M 50.196562 384.408 
L 50.196562 85.32 
" style="fill: none; stroke: #d7dbe7; stroke-width: 1.25; stroke-linejoin: miter; stroke-linecap: square"/>
   </g>
   <g id="patch_4">
    <path d="M 50.196562 384.408 
L 715.476562 384.408 
" style="fill: none; stroke: #d7dbe7; stroke-width: 1.25; stroke-linejoin: miter; stroke-linecap: square"/>
   </g>
   <g id="legend_1">
    <g id="line2d_9">
     <path d="M 54.596562 68.55824 
L 65.596563 68.55824 
L 76.596563 68.55824 
" style="fill: none; stroke-dasharray: 4.81,2.08; stroke-dashoffset: 0; stroke: #f0986e; stroke-width: 1.3"/>
     <g>
      <use xlink:href="#m90add659c6" x="65.596563" y="68.55824" style="fill: #f0986e; stroke: #804126"/>
     </g>
    </g>
    <g id="text_18">
     <!-- Edmonds–Karp -->
     <g style="fill: #262626" transform="translate(85.396563 72.40824) scale(0.11 -0.11)">
      <defs>
       <path id="SegoeUI-45" d="M 2963 0 
L 588 0 
L 588 4481 
L 2863 4481 
L 2863 4006 
L 1113 4006 
L 1113 2516 
L 2731 2516 
L 2731 2044 
L 1113 2044 
L 1113 475 
L 2963 475 
L 2963 0 
z
" transform="scale(0.015625)"/>
       <path id="SegoeUI-6e" d="M 3175 0 
L 2663 0 
L 2663 1825 
Q 2663 2844 1919 2844 
Q 1534 2844 1282 2555 
Q 1031 2266 1031 1825 
L 1031 0 
L 519 0 
L 519 3200 
L 1031 3200 
L 1031 2669 
L 1044 2669 
Q 1406 3275 2094 3275 
Q 2619 3275 2897 2936 
Q 3175 2597 3175 1956 
L 3175 0 
z
" transform="scale(0.015625)"/>
       <path id="SegoeUI-2013" d="M 3200 1581 
L 0 1581 
L 0 1984 
L 3200 1984 
L 3200 1581 
z
" transform="scale(0.015625)"/>
       <path id="SegoeUI-70" d="M 1044 463 
L 1031 463 
L 1031 -1472 
L 519 -1472 
L 519 3200 
L 1031 3200 
L 1031 2638 
L 1044 2638 
Q 1422 3275 2150 3275 
Q 2769 3275 3116 2845 
Q 3463 2416 3463 1694 
Q 3463 891 3072 408 
Q 2681 -75 2003 -75 
Q 1381 -75 1044 463 
z
M 1031 1753 
L 1031 1306 
Q 1031 909 1289 632 
Q 1547 356 1944 356 
Q 2409 356 2673 712 
Q 2938 1069 2938 1703 
Q 2938 2238 2691 2541 
Q 2444 2844 2022 2844 
Q 1575 2844 1303 2533 
Q 1031 2222 1031 1753 
z
" transform="scale(0.015625)"/>
      </defs>
      <use xlink:href="#SegoeUI-45"/>
      <use xlink:href="#SegoeUI-64" transform="translate(50.585938 0)"/>
      <use xlink:href="#SegoeUI-6d" transform="translate(109.472656 0)"/>
      <use xlink:href="#SegoeUI-6f" transform="translate(195.605469 0)"/>
      <use xlink:href="#SegoeUI-6e" transform="translate(254.199219 0)"/>
      <use xlink:href="#SegoeUI-64" transform="translate(310.791016 0)"/>
      <use xlink:href="#SegoeUI-73" transform="translate(369.677734 0)"/>
      <use xlink:href="#SegoeUI-2013" transform="translate(412.109375 0)"/>
      <use xlink:href="#SegoeUI-4b" transform="translate(462.109375 0)"/>
      <use xlink:href="#SegoeUI-61" transform="translate(520.117188 0)"/>
      <use xlink:href="#SegoeUI-72" transform="translate(570.996094 0)"/>
      <use xlink:href="#SegoeUI-70" transform="translate(605.761719 0)"/>
     </g>
    </g>
    <g id="line2d_10">
     <path d="M 180.501875 68.55824 
L 191.501875 68.55824 
L 202.501875 68.55824 
" style="fill: none; stroke: #a3befa; stroke-width: 1.3; stroke-linecap: round"/>
     <g>
      <use xlink:href="#mb2646135da" x="191.501875" y="68.55824" style="fill: #a3befa; stroke: #2e4780; stroke-linejoin: miter"/>
     </g>
    </g>
    <g id="text_19">
     <!-- Dinic -->
     <g style="fill: #262626" transform="translate(211.301875 72.40824) scale(0.11 -0.11)">
      <defs>
       <path id="SegoeUI-44" d="M 588 0 
L 588 4481 
L 1825 4481 
Q 4194 4481 4194 2297 
Q 4194 1259 3536 629 
Q 2878 0 1775 0 
L 588 0 
z
M 1113 4006 
L 1113 475 
L 1781 475 
Q 2663 475 3153 947 
Q 3644 1419 3644 2284 
Q 3644 4006 1813 4006 
L 1113 4006 
z
" transform="scale(0.015625)"/>
      </defs>
      <use xlink:href="#SegoeUI-44"/>
      <use xlink:href="#SegoeUI-69" transform="translate(70.117188 0)"/>
      <use xlink:href="#SegoeUI-6e" transform="translate(94.335938 0)"/>
      <use xlink:href="#SegoeUI-69" transform="translate(150.927734 0)"/>
      <use xlink:href="#SegoeUI-63" transform="translate(175.146484 0)"/>
     </g>
    </g>
   </g>
  </g>
  <g id="text_20">
   <!-- Both solvers share the same dominant network-memory growth -->
   <g style="fill: #1f2430" transform="translate(50.196562 17.564375) scale(0.14 -0.14)">
    <defs>
     <path id="SegoeUI-Semibold-42" d="M 553 0 
L 553 4481 
L 1975 4481 
Q 2625 4481 3004 4197 
Q 3384 3913 3384 3456 
Q 3384 3075 3168 2794 
Q 2953 2513 2572 2394 
L 2572 2381 
Q 3034 2328 3311 2039 
Q 3588 1750 3588 1288 
Q 3588 713 3134 356 
Q 2681 0 1991 0 
L 553 0 
z
M 1294 3884 
L 1294 2609 
L 1775 2609 
Q 2163 2609 2383 2792 
Q 2603 2975 2603 3309 
Q 2603 3884 1834 3884 
L 1294 3884 
z
M 1294 2013 
L 1294 594 
L 1928 594 
Q 2344 594 2570 786 
Q 2797 978 2797 1316 
Q 2797 2013 1831 2013 
L 1294 2013 
z
" transform="scale(0.015625)"/>
     <path id="SegoeUI-Semibold-6f" d="M 1891 -75 
Q 1150 -75 708 373 
Q 266 822 266 1563 
Q 266 2369 727 2822 
Q 1188 3275 1969 3275 
Q 2719 3275 3137 2834 
Q 3556 2394 3556 1613 
Q 3556 847 3104 386 
Q 2653 -75 1891 -75 
z
M 1925 2697 
Q 1500 2697 1253 2400 
Q 1006 2103 1006 1581 
Q 1006 1078 1256 789 
Q 1506 500 1925 500 
Q 2353 500 2583 784 
Q 2813 1069 2813 1594 
Q 2813 2122 2583 2409 
Q 2353 2697 1925 2697 
z
" transform="scale(0.015625)"/>
     <path id="SegoeUI-Semibold-74" d="M 2159 34 
Q 1947 -72 1600 -72 
Q 669 -72 669 822 
L 669 2631 
L 134 2631 
L 134 3200 
L 669 3200 
L 669 3941 
L 1394 4147 
L 1394 3200 
L 2159 3200 
L 2159 2631 
L 1394 2631 
L 1394 1031 
Q 1394 747 1497 625 
Q 1600 503 1841 503 
Q 2025 503 2159 609 
L 2159 34 
z
" transform="scale(0.015625)"/>
     <path id="SegoeUI-Semibold-68" d="M 3316 0 
L 2591 0 
L 2591 1750 
Q 2591 2700 1956 2700 
Q 1638 2700 1419 2425 
Q 1200 2150 1200 1722 
L 1200 0 
L 472 0 
L 472 4738 
L 1200 4738 
L 1200 2669 
L 1213 2669 
Q 1575 3275 2250 3275 
Q 3316 3275 3316 1972 
L 3316 0 
z
" transform="scale(0.015625)"/>
     <path id="SegoeUI-Semibold-20" transform="scale(0.015625)"/>
     <path id="SegoeUI-Semibold-73" d="M 272 100 
L 272 772 
Q 678 463 1169 463 
Q 1825 463 1825 850 
Q 1825 959 1769 1036 
Q 1713 1113 1617 1172 
Q 1522 1231 1392 1278 
Q 1263 1325 1103 1384 
Q 906 1463 748 1550 
Q 591 1638 486 1748 
Q 381 1859 328 2000 
Q 275 2141 275 2328 
Q 275 2559 384 2736 
Q 494 2913 678 3033 
Q 863 3153 1097 3214 
Q 1331 3275 1581 3275 
Q 2025 3275 2375 3141 
L 2375 2506 
Q 2038 2738 1600 2738 
Q 1463 2738 1352 2709 
Q 1241 2681 1162 2631 
Q 1084 2581 1040 2511 
Q 997 2441 997 2356 
Q 997 2253 1040 2181 
Q 1084 2109 1170 2054 
Q 1256 2000 1376 1954 
Q 1497 1909 1653 1856 
Q 1859 1772 2023 1684 
Q 2188 1597 2303 1486 
Q 2419 1375 2481 1229 
Q 2544 1084 2544 884 
Q 2544 641 2431 459 
Q 2319 278 2131 159 
Q 1944 41 1698 -17 
Q 1453 -75 1181 -75 
Q 656 -75 272 100 
z
" transform="scale(0.015625)"/>
     <path id="SegoeUI-Semibold-6c" d="M 1200 0 
L 472 0 
L 472 4738 
L 1200 4738 
L 1200 0 
z
" transform="scale(0.015625)"/>
     <path id="SegoeUI-Semibold-76" d="M 3228 3200 
L 1991 0 
L 1206 0 
L 28 3200 
L 816 3200 
L 1525 963 
Q 1606 716 1625 531 
L 1634 531 
Q 1663 763 1722 950 
L 2466 3200 
L 3228 3200 
z
" transform="scale(0.015625)"/>
     <path id="SegoeUI-Semibold-65" d="M 3181 1403 
L 1000 1403 
Q 1013 959 1273 718 
Q 1534 478 1991 478 
Q 2503 478 2931 784 
L 2931 200 
Q 2494 -75 1775 -75 
Q 1069 -75 667 361 
Q 266 797 266 1588 
Q 266 2334 708 2804 
Q 1150 3275 1806 3275 
Q 2463 3275 2822 2853 
Q 3181 2431 3181 1681 
L 3181 1403 
z
M 2481 1916 
Q 2478 2306 2297 2523 
Q 2116 2741 1797 2741 
Q 1484 2741 1267 2512 
Q 1050 2284 1000 1916 
L 2481 1916 
z
" transform="scale(0.015625)"/>
     <path id="SegoeUI-Semibold-72" d="M 2328 2509 
Q 2197 2613 1950 2613 
Q 1628 2613 1412 2322 
Q 1197 2031 1197 1531 
L 1197 0 
L 472 0 
L 472 3200 
L 1197 3200 
L 1197 2541 
L 1209 2541 
Q 1316 2878 1536 3067 
Q 1756 3256 2028 3256 
Q 2225 3256 2328 3197 
L 2328 2509 
z
" transform="scale(0.015625)"/>
     <path id="SegoeUI-Semibold-61" d="M 2928 0 
L 2225 0 
L 2225 500 
L 2213 500 
Q 1881 -75 1241 -75 
Q 769 -75 501 181 
Q 234 438 234 859 
Q 234 1766 1278 1916 
L 2228 2050 
Q 2228 2734 1578 2734 
Q 1006 2734 547 2341 
L 547 2975 
Q 1053 3275 1716 3275 
Q 2928 3275 2928 2081 
L 2928 0 
z
M 2228 1572 
L 1556 1478 
Q 1244 1438 1086 1327 
Q 928 1216 928 938 
Q 928 734 1073 604 
Q 1219 475 1463 475 
Q 1794 475 2011 708 
Q 2228 941 2228 1294 
L 2228 1572 
z
" transform="scale(0.015625)"/>
     <path id="SegoeUI-Semibold-6d" d="M 5256 0 
L 4531 0 
L 4531 1744 
Q 4531 2247 4389 2472 
Q 4247 2697 3909 2697 
Q 3625 2697 3426 2412 
Q 3228 2128 3228 1731 
L 3228 0 
L 2500 0 
L 2500 1803 
Q 2500 2697 1869 2697 
Q 1575 2697 1386 2428 
Q 1197 2159 1197 1731 
L 1197 0 
L 472 0 
L 472 3200 
L 1197 3200 
L 1197 2694 
L 1209 2694 
Q 1556 3275 2219 3275 
Q 2550 3275 2798 3092 
Q 3047 2909 3138 2613 
Q 3494 3275 4200 3275 
Q 5256 3275 5256 1972 
L 5256 0 
z
" transform="scale(0.015625)"/>
     <path id="SegoeUI-Semibold-64" d="M 3381 0 
L 2656 0 
L 2656 544 
L 2644 544 
Q 2294 -75 1566 -75 
Q 975 -75 620 354 
Q 266 784 266 1525 
Q 266 2319 658 2797 
Q 1050 3275 1703 3275 
Q 2350 3275 2644 2756 
L 2656 2756 
L 2656 4738 
L 3381 4738 
L 3381 0 
z
M 2666 1463 
L 2666 1881 
Q 2666 2222 2444 2459 
Q 2222 2697 1878 2697 
Q 1472 2697 1239 2394 
Q 1006 2091 1006 1553 
Q 1006 1066 1229 783 
Q 1453 500 1831 500 
Q 2203 500 2434 773 
Q 2666 1047 2666 1463 
z
" transform="scale(0.015625)"/>
     <path id="SegoeUI-Semibold-69" d="M 838 3872 
Q 659 3872 532 3987 
Q 406 4103 406 4281 
Q 406 4459 532 4578 
Q 659 4697 838 4697 
Q 1022 4697 1150 4578 
Q 1278 4459 1278 4281 
Q 1278 4113 1150 3992 
Q 1022 3872 838 3872 
z
M 1197 0 
L 472 0 
L 472 3200 
L 1197 3200 
L 1197 0 
z
" transform="scale(0.015625)"/>
     <path id="SegoeUI-Semibold-6e" d="M 3322 0 
L 2597 0 
L 2597 1803 
Q 2597 2700 1963 2700 
Q 1631 2700 1415 2451 
Q 1200 2203 1200 1825 
L 1200 0 
L 472 0 
L 472 3200 
L 1200 3200 
L 1200 2669 
L 1213 2669 
Q 1572 3275 2250 3275 
Q 2772 3275 3047 2936 
Q 3322 2597 3322 1956 
L 3322 0 
z
" transform="scale(0.015625)"/>
     <path id="SegoeUI-Semibold-77" d="M 4775 3200 
L 3831 0 
L 3072 0 
L 2491 2169 
Q 2456 2294 2447 2450 
L 2434 2450 
Q 2428 2344 2378 2175 
L 1747 0 
L 1003 0 
L 63 3200 
L 813 3200 
L 1394 894 
Q 1422 791 1431 619 
L 1453 619 
Q 1463 750 1503 900 
L 2150 3200 
L 2831 3200 
L 3406 884 
Q 3434 775 3447 609 
L 3469 609 
Q 3475 725 3516 884 
L 4084 3200 
L 4775 3200 
z
" transform="scale(0.015625)"/>
     <path id="SegoeUI-Semibold-6b" d="M 3375 0 
L 2456 0 
L 1213 1538 
L 1200 1538 
L 1200 0 
L 472 0 
L 472 4738 
L 1200 4738 
L 1200 1734 
L 1213 1734 
L 2388 3200 
L 3259 3200 
L 1938 1656 
L 3375 0 
z
" transform="scale(0.015625)"/>
     <path id="SegoeUI-Semibold-2d" d="M 2156 1481 
L 450 1481 
L 450 2016 
L 2156 2016 
L 2156 1481 
z
" transform="scale(0.015625)"/>
     <path id="SegoeUI-Semibold-79" d="M 3244 3200 
L 1800 -513 
Q 1350 -1506 538 -1506 
Q 309 -1506 156 -1466 
L 156 -863 
Q 328 -919 469 -919 
Q 875 -919 1075 -519 
L 1291 6 
L 19 3200 
L 822 3200 
L 1584 875 
Q 1597 831 1641 644 
L 1656 644 
Q 1672 716 1713 869 
L 2513 3200 
L 3244 3200 
z
" transform="scale(0.015625)"/>
     <path id="SegoeUI-Semibold-67" d="M 3384 256 
Q 3384 -1506 1613 -1506 
Q 988 -1506 522 -1297 
L 522 -634 
Q 1047 -934 1519 -934 
Q 2659 -934 2659 188 
L 2659 538 
L 2647 538 
Q 2288 -75 1566 -75 
Q 981 -75 623 351 
Q 266 778 266 1497 
Q 266 2313 650 2794 
Q 1034 3275 1706 3275 
Q 2341 3275 2647 2756 
L 2659 2756 
L 2659 3200 
L 3384 3200 
L 3384 256 
z
M 2666 1466 
L 2666 1881 
Q 2666 2219 2442 2458 
Q 2219 2697 1884 2697 
Q 1472 2697 1239 2392 
Q 1006 2088 1006 1541 
Q 1006 1069 1229 786 
Q 1453 503 1822 503 
Q 2197 503 2431 773 
Q 2666 1044 2666 1466 
z
" transform="scale(0.015625)"/>
    </defs>
    <use xlink:href="#SegoeUI-Semibold-42"/>
    <use xlink:href="#SegoeUI-Semibold-6f" transform="translate(60.400391 0)"/>
    <use xlink:href="#SegoeUI-Semibold-74" transform="translate(120.117188 0)"/>
    <use xlink:href="#SegoeUI-Semibold-68" transform="translate(156.25 0)"/>
    <use xlink:href="#SegoeUI-Semibold-20" transform="translate(214.453125 0)"/>
    <use xlink:href="#SegoeUI-Semibold-73" transform="translate(241.943359 0)"/>
    <use xlink:href="#SegoeUI-Semibold-6f" transform="translate(285.058594 0)"/>
    <use xlink:href="#SegoeUI-Semibold-6c" transform="translate(344.775391 0)"/>
    <use xlink:href="#SegoeUI-Semibold-76" transform="translate(370.898438 0)"/>
    <use xlink:href="#SegoeUI-Semibold-65" transform="translate(420.880859 0)"/>
    <use xlink:href="#SegoeUI-Semibold-72" transform="translate(474.005859 0)"/>
    <use xlink:href="#SegoeUI-Semibold-73" transform="translate(511.642578 0)"/>
    <use xlink:href="#SegoeUI-Semibold-20" transform="translate(554.757812 0)"/>
    <use xlink:href="#SegoeUI-Semibold-73" transform="translate(582.248047 0)"/>
    <use xlink:href="#SegoeUI-Semibold-68" transform="translate(625.363281 0)"/>
    <use xlink:href="#SegoeUI-Semibold-61" transform="translate(683.566406 0)"/>
    <use xlink:href="#SegoeUI-Semibold-72" transform="translate(735.763672 0)"/>
    <use xlink:href="#SegoeUI-Semibold-65" transform="translate(771.900391 0)"/>
    <use xlink:href="#SegoeUI-Semibold-20" transform="translate(825.025391 0)"/>
    <use xlink:href="#SegoeUI-Semibold-74" transform="translate(852.515625 0)"/>
    <use xlink:href="#SegoeUI-Semibold-68" transform="translate(888.648438 0)"/>
    <use xlink:href="#SegoeUI-Semibold-65" transform="translate(946.851562 0)"/>
    <use xlink:href="#SegoeUI-Semibold-20" transform="translate(999.976562 0)"/>
    <use xlink:href="#SegoeUI-Semibold-73" transform="translate(1027.466797 0)"/>
    <use xlink:href="#SegoeUI-Semibold-61" transform="translate(1070.582031 0)"/>
    <use xlink:href="#SegoeUI-Semibold-6d" transform="translate(1122.779297 0)"/>
    <use xlink:href="#SegoeUI-Semibold-65" transform="translate(1211.353516 0)"/>
    <use xlink:href="#SegoeUI-Semibold-20" transform="translate(1264.478516 0)"/>
    <use xlink:href="#SegoeUI-Semibold-64" transform="translate(1291.96875 0)"/>
    <use xlink:href="#SegoeUI-Semibold-6f" transform="translate(1352.222656 0)"/>
    <use xlink:href="#SegoeUI-Semibold-6d" transform="translate(1411.939453 0)"/>
    <use xlink:href="#SegoeUI-Semibold-69" transform="translate(1500.513672 0)"/>
    <use xlink:href="#SegoeUI-Semibold-6e" transform="translate(1526.636719 0)"/>
    <use xlink:href="#SegoeUI-Semibold-61" transform="translate(1584.986328 0)"/>
    <use xlink:href="#SegoeUI-Semibold-6e" transform="translate(1637.183594 0)"/>
    <use xlink:href="#SegoeUI-Semibold-74" transform="translate(1695.533203 0)"/>
    <use xlink:href="#SegoeUI-Semibold-20" transform="translate(1731.666016 0)"/>
    <use xlink:href="#SegoeUI-Semibold-6e" transform="translate(1759.15625 0)"/>
    <use xlink:href="#SegoeUI-Semibold-65" transform="translate(1817.505859 0)"/>
    <use xlink:href="#SegoeUI-Semibold-74" transform="translate(1870.630859 0)"/>
    <use xlink:href="#SegoeUI-Semibold-77" transform="translate(1906.763672 0)"/>
    <use xlink:href="#SegoeUI-Semibold-6f" transform="translate(1982.023438 0)"/>
    <use xlink:href="#SegoeUI-Semibold-72" transform="translate(2041.740234 0)"/>
    <use xlink:href="#SegoeUI-Semibold-6b" transform="translate(2078.751953 0)"/>
    <use xlink:href="#SegoeUI-Semibold-2d" transform="translate(2124.992188 0)"/>
    <use xlink:href="#SegoeUI-Semibold-6d" transform="translate(2165.177734 0)"/>
    <use xlink:href="#SegoeUI-Semibold-65" transform="translate(2253.751953 0)"/>
    <use xlink:href="#SegoeUI-Semibold-6d" transform="translate(2306.876953 0)"/>
    <use xlink:href="#SegoeUI-Semibold-6f" transform="translate(2395.451172 0)"/>
    <use xlink:href="#SegoeUI-Semibold-72" transform="translate(2455.167969 0)"/>
    <use xlink:href="#SegoeUI-Semibold-79" transform="translate(2496.179688 0)"/>
    <use xlink:href="#SegoeUI-Semibold-20" transform="translate(2547.009766 0)"/>
    <use xlink:href="#SegoeUI-Semibold-67" transform="translate(2574.5 0)"/>
    <use xlink:href="#SegoeUI-Semibold-72" transform="translate(2634.753906 0)"/>
    <use xlink:href="#SegoeUI-Semibold-6f" transform="translate(2670.890625 0)"/>
    <use xlink:href="#SegoeUI-Semibold-77" transform="translate(2730.607422 0)"/>
    <use xlink:href="#SegoeUI-Semibold-74" transform="translate(2806.242188 0)"/>
    <use xlink:href="#SegoeUI-Semibold-68" transform="translate(2842.375 0)"/>
   </g>
  </g>
  <g id="text_21">
   <!-- Peak Python allocations are measured with tracemalloc during complete all-team analysis; timing runs are -->
   <g style="fill: #6f768a" transform="translate(50.196562 36.552969) scale(0.095 -0.095)">
    <defs>
     <path id="SegoeUI-68" d="M 3175 0 
L 2663 0 
L 2663 1844 
Q 2663 2844 1919 2844 
Q 1544 2844 1287 2555 
Q 1031 2266 1031 1813 
L 1031 0 
L 519 0 
L 519 4738 
L 1031 4738 
L 1031 2669 
L 1044 2669 
Q 1413 3275 2094 3275 
Q 3175 3275 3175 1972 
L 3175 0 
z
" transform="scale(0.015625)"/>
     <path id="SegoeUI-6c" d="M 1031 0 
L 519 0 
L 519 4738 
L 1031 4738 
L 1031 0 
z
" transform="scale(0.015625)"/>
     <path id="SegoeUI-77" d="M 4550 3200 
L 3591 0 
L 3059 0 
L 2400 2291 
Q 2363 2422 2350 2588 
L 2338 2588 
Q 2328 2475 2272 2297 
L 1556 0 
L 1044 0 
L 75 3200 
L 613 3200 
L 1275 794 
Q 1306 684 1319 506 
L 1344 506 
Q 1353 644 1400 800 
L 2138 3200 
L 2606 3200 
L 3269 788 
Q 3300 672 3316 500 
L 3341 500 
Q 3347 622 3394 788 
L 4044 3200 
L 4550 3200 
z
" transform="scale(0.015625)"/>
     <path id="SegoeUI-67" d="M 3250 256 
Q 3250 -1506 1563 -1506 
Q 969 -1506 525 -1281 
L 525 -769 
Q 1066 -1069 1556 -1069 
Q 2738 -1069 2738 188 
L 2738 538 
L 2725 538 
Q 2359 -75 1625 -75 
Q 1028 -75 664 351 
Q 300 778 300 1497 
Q 300 2313 692 2794 
Q 1084 3275 1766 3275 
Q 2413 3275 2725 2756 
L 2738 2756 
L 2738 3200 
L 3250 3200 
L 3250 256 
z
M 2738 1447 
L 2738 1919 
Q 2738 2300 2480 2572 
Q 2222 2844 1838 2844 
Q 1363 2844 1094 2498 
Q 825 2153 825 1531 
Q 825 997 1083 676 
Q 1341 356 1766 356 
Q 2197 356 2467 662 
Q 2738 969 2738 1447 
z
" transform="scale(0.015625)"/>
     <path id="SegoeUI-2d" d="M 2156 1581 
L 450 1581 
L 450 1984 
L 2156 1984 
L 2156 1581 
z
" transform="scale(0.015625)"/>
     <path id="SegoeUI-3b" d="M 706 2575 
Q 559 2575 457 2678 
Q 356 2781 356 2925 
Q 356 3069 457 3169 
Q 559 3269 706 3269 
Q 850 3269 953 3169 
Q 1056 3069 1056 2925 
Q 1056 2781 953 2678 
Q 850 2575 706 2575 
z
M 988 713 
L 488 -825 
L 122 -825 
L 488 713 
L 988 713 
z
" transform="scale(0.015625)"/>
    </defs>
    <use xlink:href="#SegoeUI-50"/>
    <use xlink:href="#SegoeUI-65" transform="translate(52.255859 0)"/>
    <use xlink:href="#SegoeUI-61" transform="translate(104.550781 0)"/>
    <use xlink:href="#SegoeUI-6b" transform="translate(155.429688 0)"/>
    <use xlink:href="#SegoeUI-20" transform="translate(205.136719 0)"/>
    <use xlink:href="#SegoeUI-50" transform="translate(232.529297 0)"/>
    <use xlink:href="#SegoeUI-79" transform="translate(288.535156 0)"/>
    <use xlink:href="#SegoeUI-74" transform="translate(337.173828 0)"/>
    <use xlink:href="#SegoeUI-68" transform="translate(371.060547 0)"/>
    <use xlink:href="#SegoeUI-6f" transform="translate(427.652344 0)"/>
    <use xlink:href="#SegoeUI-6e" transform="translate(486.246094 0)"/>
    <use xlink:href="#SegoeUI-20" transform="translate(542.837891 0)"/>
    <use xlink:href="#SegoeUI-61" transform="translate(570.230469 0)"/>
    <use xlink:href="#SegoeUI-6c" transform="translate(621.109375 0)"/>
    <use xlink:href="#SegoeUI-6c" transform="translate(645.328125 0)"/>
    <use xlink:href="#SegoeUI-6f" transform="translate(669.546875 0)"/>
    <use xlink:href="#SegoeUI-63" transform="translate(728.140625 0)"/>
    <use xlink:href="#SegoeUI-61" transform="translate(774.332031 0)"/>
    <use xlink:href="#SegoeUI-74" transform="translate(825.210938 0)"/>
    <use xlink:href="#SegoeUI-69" transform="translate(859.097656 0)"/>
    <use xlink:href="#SegoeUI-6f" transform="translate(883.316406 0)"/>
    <use xlink:href="#SegoeUI-6e" transform="translate(941.910156 0)"/>
    <use xlink:href="#SegoeUI-73" transform="translate(998.501953 0)"/>
    <use xlink:href="#SegoeUI-20" transform="translate(1040.933594 0)"/>
    <use xlink:href="#SegoeUI-61" transform="translate(1068.326172 0)"/>
    <use xlink:href="#SegoeUI-72" transform="translate(1119.205078 0)"/>
    <use xlink:href="#SegoeUI-65" transform="translate(1152.595703 0)"/>
    <use xlink:href="#SegoeUI-20" transform="translate(1204.890625 0)"/>
    <use xlink:href="#SegoeUI-6d" transform="translate(1232.283203 0)"/>
    <use xlink:href="#SegoeUI-65" transform="translate(1318.416016 0)"/>
    <use xlink:href="#SegoeUI-61" transform="translate(1370.710938 0)"/>
    <use xlink:href="#SegoeUI-73" transform="translate(1421.589844 0)"/>
    <use xlink:href="#SegoeUI-75" transform="translate(1464.021484 0)"/>
    <use xlink:href="#SegoeUI-72" transform="translate(1520.613281 0)"/>
    <use xlink:href="#SegoeUI-65" transform="translate(1554.003906 0)"/>
    <use xlink:href="#SegoeUI-64" transform="translate(1606.298828 0)"/>
    <use xlink:href="#SegoeUI-20" transform="translate(1665.185547 0)"/>
    <use xlink:href="#SegoeUI-77" transform="translate(1692.578125 0)"/>
    <use xlink:href="#SegoeUI-69" transform="translate(1764.84375 0)"/>
    <use xlink:href="#SegoeUI-74" transform="translate(1789.0625 0)"/>
    <use xlink:href="#SegoeUI-68" transform="translate(1822.949219 0)"/>
    <use xlink:href="#SegoeUI-20" transform="translate(1879.541016 0)"/>
    <use xlink:href="#SegoeUI-74" transform="translate(1906.933594 0)"/>
    <use xlink:href="#SegoeUI-72" transform="translate(1940.820312 0)"/>
    <use xlink:href="#SegoeUI-61" transform="translate(1975.585938 0)"/>
    <use xlink:href="#SegoeUI-63" transform="translate(2026.464844 0)"/>
    <use xlink:href="#SegoeUI-65" transform="translate(2072.65625 0)"/>
    <use xlink:href="#SegoeUI-6d" transform="translate(2124.951172 0)"/>
    <use xlink:href="#SegoeUI-61" transform="translate(2211.083984 0)"/>
    <use xlink:href="#SegoeUI-6c" transform="translate(2261.962891 0)"/>
    <use xlink:href="#SegoeUI-6c" transform="translate(2286.181641 0)"/>
    <use xlink:href="#SegoeUI-6f" transform="translate(2310.400391 0)"/>
    <use xlink:href="#SegoeUI-63" transform="translate(2368.994141 0)"/>
    <use xlink:href="#SegoeUI-20" transform="translate(2415.185547 0)"/>
    <use xlink:href="#SegoeUI-64" transform="translate(2442.578125 0)"/>
    <use xlink:href="#SegoeUI-75" transform="translate(2501.464844 0)"/>
    <use xlink:href="#SegoeUI-72" transform="translate(2558.056641 0)"/>
    <use xlink:href="#SegoeUI-69" transform="translate(2592.822266 0)"/>
    <use xlink:href="#SegoeUI-6e" transform="translate(2617.041016 0)"/>
    <use xlink:href="#SegoeUI-67" transform="translate(2673.632812 0)"/>
    <use xlink:href="#SegoeUI-20" transform="translate(2732.519531 0)"/>
    <use xlink:href="#SegoeUI-63" transform="translate(2759.912109 0)"/>
    <use xlink:href="#SegoeUI-6f" transform="translate(2806.103516 0)"/>
    <use xlink:href="#SegoeUI-6d" transform="translate(2864.697266 0)"/>
    <use xlink:href="#SegoeUI-70" transform="translate(2950.830078 0)"/>
    <use xlink:href="#SegoeUI-6c" transform="translate(3009.619141 0)"/>
    <use xlink:href="#SegoeUI-65" transform="translate(3033.837891 0)"/>
    <use xlink:href="#SegoeUI-74" transform="translate(3086.132812 0)"/>
    <use xlink:href="#SegoeUI-65" transform="translate(3119.269531 0)"/>
    <use xlink:href="#SegoeUI-20" transform="translate(3171.564453 0)"/>
    <use xlink:href="#SegoeUI-61" transform="translate(3198.957031 0)"/>
    <use xlink:href="#SegoeUI-6c" transform="translate(3249.835938 0)"/>
    <use xlink:href="#SegoeUI-6c" transform="translate(3274.054688 0)"/>
    <use xlink:href="#SegoeUI-2d" transform="translate(3298.273438 0)"/>
    <use xlink:href="#SegoeUI-74" transform="translate(3338.263672 0)"/>
    <use xlink:href="#SegoeUI-65" transform="translate(3371.400391 0)"/>
    <use xlink:href="#SegoeUI-61" transform="translate(3423.695312 0)"/>
    <use xlink:href="#SegoeUI-6d" transform="translate(3474.574219 0)"/>
    <use xlink:href="#SegoeUI-20" transform="translate(3560.707031 0)"/>
    <use xlink:href="#SegoeUI-61" transform="translate(3588.099609 0)"/>
    <use xlink:href="#SegoeUI-6e" transform="translate(3638.978516 0)"/>
    <use xlink:href="#SegoeUI-61" transform="translate(3695.570312 0)"/>
    <use xlink:href="#SegoeUI-6c" transform="translate(3746.449219 0)"/>
    <use xlink:href="#SegoeUI-79" transform="translate(3770.667969 0)"/>
    <use xlink:href="#SegoeUI-73" transform="translate(3819.056641 0)"/>
    <use xlink:href="#SegoeUI-69" transform="translate(3861.488281 0)"/>
    <use xlink:href="#SegoeUI-73" transform="translate(3885.707031 0)"/>
    <use xlink:href="#SegoeUI-3b" transform="translate(3928.138672 0)"/>
    <use xlink:href="#SegoeUI-20" transform="translate(3949.818359 0)"/>
    <use xlink:href="#SegoeUI-74" transform="translate(3977.210938 0)"/>
    <use xlink:href="#SegoeUI-69" transform="translate(4011.097656 0)"/>
    <use xlink:href="#SegoeUI-6d" transform="translate(4035.316406 0)"/>
    <use xlink:href="#SegoeUI-69" transform="translate(4121.449219 0)"/>
    <use xlink:href="#SegoeUI-6e" transform="translate(4145.667969 0)"/>
    <use xlink:href="#SegoeUI-67" transform="translate(4202.259766 0)"/>
    <use xlink:href="#SegoeUI-20" transform="translate(4261.146484 0)"/>
    <use xlink:href="#SegoeUI-72" transform="translate(4288.539062 0)"/>
    <use xlink:href="#SegoeUI-75" transform="translate(4323.304688 0)"/>
    <use xlink:href="#SegoeUI-6e" transform="translate(4379.896484 0)"/>
    <use xlink:href="#SegoeUI-73" transform="translate(4436.488281 0)"/>
    <use xlink:href="#SegoeUI-20" transform="translate(4478.919922 0)"/>
    <use xlink:href="#SegoeUI-61" transform="translate(4506.3125 0)"/>
    <use xlink:href="#SegoeUI-72" transform="translate(4557.191406 0)"/>
    <use xlink:href="#SegoeUI-65" transform="translate(4590.582031 0)"/>
   </g>
   <!-- measured separately. -->
   <g style="fill: #6f768a" transform="translate(50.196562 47.228) scale(0.095 -0.095)">
    <use xlink:href="#SegoeUI-6d"/>
    <use xlink:href="#SegoeUI-65" transform="translate(86.132812 0)"/>
    <use xlink:href="#SegoeUI-61" transform="translate(138.427734 0)"/>
    <use xlink:href="#SegoeUI-73" transform="translate(189.306641 0)"/>
    <use xlink:href="#SegoeUI-75" transform="translate(231.738281 0)"/>
    <use xlink:href="#SegoeUI-72" transform="translate(288.330078 0)"/>
    <use xlink:href="#SegoeUI-65" transform="translate(321.720703 0)"/>
    <use xlink:href="#SegoeUI-64" transform="translate(374.015625 0)"/>
    <use xlink:href="#SegoeUI-20" transform="translate(432.902344 0)"/>
    <use xlink:href="#SegoeUI-73" transform="translate(460.294922 0)"/>
    <use xlink:href="#SegoeUI-65" transform="translate(502.726562 0)"/>
    <use xlink:href="#SegoeUI-70" transform="translate(555.021484 0)"/>
    <use xlink:href="#SegoeUI-61" transform="translate(612.435547 0)"/>
    <use xlink:href="#SegoeUI-72" transform="translate(663.314453 0)"/>
    <use xlink:href="#SegoeUI-61" transform="translate(698.080078 0)"/>
    <use xlink:href="#SegoeUI-74" transform="translate(748.958984 0)"/>
    <use xlink:href="#SegoeUI-65" transform="translate(782.095703 0)"/>
    <use xlink:href="#SegoeUI-6c" transform="translate(834.390625 0)"/>
    <use xlink:href="#SegoeUI-79" transform="translate(858.609375 0)"/>
    <use xlink:href="#SegoeUI-2e" transform="translate(900.748047 0)"/>
   </g>
  </g>
 </g>
 <defs>
  <clipPath id="p7694e7b40b">
   <rect x="50.196562" y="85.32" width="665.28" height="299.088"/>
  </clipPath>
 </defs>
</svg>
