<?xml version="1.0" encoding="utf-8" standalone="no"?>
<!DOCTYPE svg PUBLIC "-//W3C//DTD SVG 1.1//EN"
  "http://www.w3.org/Graphics/SVG/1.1/DTD/svg11.dtd">
<svg xmlns:xlink="http://www.w3.org/1999/xlink" width="718.656562pt" height="429.211281pt" viewBox="0 0 718.656562 429.211281" xmlns="http://www.w3.org/2000/svg" version="1.1">
 <metadata>
  <rdf:RDF xmlns:dc="http://purl.org/dc/elements/1.1/" xmlns:cc="http://creativecommons.org/ns#" xmlns:rdf="http://www.w3.org/1999/02/22-rdf-syntax-ns#">
   <cc:Work>
    <dc:type rdf:resource="http://purl.org/dc/dcmitype/StillImage"/>
    <dc:date>2026-06-25T10:13:58.409970</dc:date>
    <dc:format>image/svg+xml</dc:format>
    <dc:creator>
     <cc:Agent>
      <dc:title>Matplotlib v3.10.0, https://matplotlib.org/</dc:title>
     </cc:Agent>
    </dc:creator>
   </cc:Work>
  </rdf:RDF>
 </metadata>
 <defs>
  <style type="text/css">*{stroke-linejoin: round; stroke-linecap: butt}</style>
 </defs>
 <g id="figure_1">
  <g id="patch_1">
   <path d="M 0 429.211281
L 718.656562 429.211281
L 718.656562 0
L 0 0
z
" style="fill: #fcfcfd"/>
  </g>
  <g id="axes_1">
   <g id="patch_2">
    <path d="M 46.176563 384.408
L 711.456563 384.408
L 711.456563 85.32
L 46.176563 85.32
z
" style="fill: #ffffff"/>
   </g>
   <g id="matplotlib.axis_1">
    <g id="xtick_1">
     <g id="text_1">
      <!-- 8 -->
      <g style="fill: #262626" transform="translate(114.901673 402.701125) scale(0.11 -0.11)">
       <defs>
        <path id="MicrosoftYaHei-38" d="M 306 1350
Q 306 1769 556 2122
Q 806 2475 1200 2625
Q 884 2803 700 3081
Q 516 3359 516 3684
Q 516 4028 692 4312
Q 869 4597 1183 4759
Q 1497 4922 1875 4922
Q 2256 4922 2572 4761
Q 2888 4600 3063 4315
Q 3238 4031 3238 3684
Q 3238 3366 3058 3086
Q 2878 2806 2559 2625
Q 2953 2472 3200 2119
Q 3447 1766 3447 1350
Q 3447 938 3250 611
Q 3053 284 2690 103
Q 2328 -78 1875 -78
Q 1425 -78 1065 103
Q 706 284 506 612
Q 306 941 306 1350
z
M 906 1378
Q 906 947 1172 687
Q 1438 428 1878 428
Q 2309 428 2582 692
Q 2856 956 2856 1378
Q 2856 1778 2579 2051
Q 2303 2325 1878 2325
Q 1456 2325 1181 2058
Q 906 1791 906 1378
z
M 1081 3634
Q 1081 3309 1312 3076
Q 1544 2844 1878 2844
Q 2206 2844 2445 3078
Q 2684 3313 2684 3634
Q 2684 3963 2454 4191
Q 2225 4419 1878 4419
Q 1534 4419 1307 4195
Q 1081 3972 1081 3634
z
" transform="scale(0.015625)"/>
       </defs>
       <use xlink:href="#MicrosoftYaHei-38"/>
      </g>
     </g>
    </g>
    <g id="xtick_2">
     <g id="text_2">
      <!-- 12 -->
      <g style="fill: #262626" transform="translate(215.952301 402.701125) scale(0.11 -0.11)">
       <defs>
        <path id="MicrosoftYaHei-31" d="M 1781 0
L 1781 4141
Q 1638 3997 1295 3819
Q 953 3641 663 3569
L 663 4169
Q 1047 4275 1484 4508
Q 1922 4741 2156 4947
L 2388 4947
L 2388 0
L 1781 0
z
" transform="scale(0.015625)"/>
        <path id="MicrosoftYaHei-32" d="M 2666 3572
Q 2666 3963 2419 4186
Q 2172 4409 1747 4409
Q 1447 4409 1140 4256
Q 834 4103 569 3819
L 569 4413
Q 806 4659 1107 4790
Q 1409 4922 1816 4922
Q 2472 4922 2872 4570
Q 3272 4219 3272 3619
Q 3272 3084 3026 2693
Q 2781 2303 2188 1894
Q 1581 1475 1376 1294
Q 1172 1113 1090 947
Q 1009 781 1009 544
L 3416 544
L 3416 0
L 372 0
L 372 241
Q 372 659 486 951
Q 600 1244 862 1520
Q 1125 1797 1681 2184
Q 2250 2584 2458 2886
Q 2666 3188 2666 3572
z
" transform="scale(0.015625)"/>
       </defs>
       <use xlink:href="#MicrosoftYaHei-31"/>
       <use xlink:href="#MicrosoftYaHei-32" transform="translate(58.642578 0)"/>
      </g>
     </g>
    </g>
    <g id="xtick_3">
     <g id="text_3">
      <!-- 16 -->
      <g style="fill: #262626" transform="translate(320.228163 402.701125) scale(0.11 -0.11)">
       <defs>
        <path id="MicrosoftYaHei-36" d="M 3181 4219
Q 2803 4413 2391 4413
Q 1763 4413 1381 3866
Q 1000 3319 994 2372
L 1009 2372
Q 1353 3038 2106 3038
Q 2734 3038 3109 2628
Q 3484 2219 3484 1541
Q 3484 831 3051 375
Q 2619 -81 1947 -81
Q 1209 -81 789 495
Q 369 1072 369 2131
Q 369 3413 920 4167
Q 1472 4922 2372 4922
Q 2888 4922 3181 4781
L 3181 4219
z
M 1031 1584
Q 1031 1106 1286 765
Q 1541 425 1963 425
Q 2363 425 2613 719
Q 2863 1013 2863 1475
Q 2863 1975 2627 2253
Q 2391 2531 1956 2531
Q 1544 2531 1287 2250
Q 1031 1969 1031 1584
z
" transform="scale(0.015625)"/>
       </defs>
       <use xlink:href="#MicrosoftYaHei-31"/>
       <use xlink:href="#MicrosoftYaHei-36" transform="translate(58.642578 0)"/>
      </g>
     </g>
    </g>
    <g id="xtick_4">
     <g id="text_4">
      <!-- 20 -->
      <g style="fill: #262626" transform="translate(424.504025 402.701125) scale(0.11 -0.11)">
       <defs>
        <path id="MicrosoftYaHei-30" d="M 284 2325
Q 284 3606 709 4264
Q 1134 4922 1941 4922
Q 3478 4922 3478 2441
Q 3478 1216 3045 567
Q 2613 -81 1831 -81
Q 1094 -81 689 534
Q 284 1150 284 2325
z
M 909 2353
Q 909 425 1888 425
Q 2850 425 2850 2384
Q 2850 4413 1906 4413
Q 909 4413 909 2353
z
" transform="scale(0.015625)"/>
       </defs>
       <use xlink:href="#MicrosoftYaHei-32"/>
       <use xlink:href="#MicrosoftYaHei-30" transform="translate(58.642578 0)"/>
      </g>
     </g>
    </g>
    <g id="xtick_5">
     <g id="text_5">
      <!-- 24 -->
      <g style="fill: #262626" transform="translate(528.779887 402.701125) scale(0.11 -0.11)">
       <defs>
        <path id="MicrosoftYaHei-34" d="M 2906 4841
L 2906 1644
L 3631 1644
L 3631 1138
L 2906 1138
L 2906 0
L 2313 0
L 2313 1138
L 53 1138
L 53 1616
Q 656 2294 1265 3178
Q 1875 4063 2272 4841
L 2906 4841
z
M 741 1644
L 2313 1644
L 2313 3950
Q 1988 3366 1616 2817
Q 1244 2269 741 1644
z
" transform="scale(0.015625)"/>
       </defs>
       <use xlink:href="#MicrosoftYaHei-32"/>
       <use xlink:href="#MicrosoftYaHei-34" transform="translate(58.642578 0)"/>
      </g>
     </g>
    </g>
    <g id="xtick_6">
     <g id="text_6">
      <!-- 28 -->
      <g style="fill: #262626" transform="translate(633.055749 402.701125) scale(0.11 -0.11)">
       <use xlink:href="#MicrosoftYaHei-32"/>
       <use xlink:href="#MicrosoftYaHei-38" transform="translate(58.642578 0)"/>
      </g>
     </g>
    </g>
    <g id="text_7">
     <!-- 球队数量 -->
     <g style="fill: #1f2430" transform="translate(354.816562 419.028156) scale(0.12 -0.12)">
      <defs>
       <path id="MicrosoftYaHei-7403" d="M 2244 766
Q 3059 1263 3950 1872
L 3950 3691
L 2350 3691
L 2350 4141
L 3950 4141
L 3950 5253
L 4425 5253
L 4425 4141
L 6200 4141
L 6200 3691
L 4425 3691
L 4425 3134
Q 4581 2622 4791 2184
Q 5331 2709 5694 3153
L 6100 2809
Q 5584 2300 5003 1778
Q 5547 838 6356 322
Q 6319 266 6194 128
Q 6056 -16 6000 -97
Q 4975 644 4425 2034
L 4425 16
Q 4425 -728 3650 -728
Q 3344 -728 2994 -722
Q 2956 -484 2894 -209
Q 3263 -253 3563 -253
Q 3950 -253 3950 128
L 3950 1319
Q 3303 869 2556 316
L 2244 766
z
M 94 359
Q 516 403 981 463
L 981 2353
L 213 2353
L 213 2803
L 981 2803
L 981 4272
L 131 4272
L 131 4722
L 2269 4722
L 2269 4272
L 1438 4272
L 1438 2803
L 2163 2803
L 2163 2353
L 1438 2353
L 1438 522
Q 1813 575 2213 634
Q 2188 384 2181 153
Q 1013 3 156 -128
L 94 359
z
M 2381 3022
L 2763 3253
Q 3169 2722 3569 2078
L 3169 1803
Q 2738 2534 2381 3022
z
M 4763 4884
L 5038 5197
Q 5481 4903 5850 4591
L 5550 4247
Q 5181 4591 4763 4884
z
" transform="scale(0.015625)"/>
       <path id="MicrosoftYaHei-961f" d="M 2456 1728
Q 2663 603 1831 466
Q 1575 422 1163 459
Q 1113 716 1019 997
Q 1369 916 1625 947
Q 2125 997 1931 1747
Q 1819 2266 1338 2866
Q 1688 3772 1931 4566
L 913 4566
L 913 -841
L 419 -841
L 419 5003
L 2469 5003
L 2469 4566
Q 2144 3609 1869 2947
Q 2381 2272 2456 1728
z
M 3738 5253
L 4250 5253
Q 4244 4366 4228 3656
Q 4584 794 6325 -228
Q 6094 -478 5913 -709
Q 4522 291 4056 2316
Q 3703 409 2094 -822
Q 1950 -647 1725 -422
Q 3688 972 3725 3697
Q 3738 4216 3738 5253
z
" transform="scale(0.015625)"/>
       <path id="MicrosoftYaHei-6570" d="M 4175 5303
L 4675 5228
Q 4544 4622 4369 4097
L 6281 4097
L 6281 3672
L 5888 3672
Q 5731 1834 5088 753
Q 5594 66 6375 -372
Q 6175 -647 6038 -866
Q 5275 -372 4769 309
Q 4194 -403 3400 -928
Q 3263 -747 3044 -534
Q 3919 41 4463 772
Q 3956 1647 3794 2791
Q 3663 2559 3519 2359
Q 3394 2541 3206 2759
Q 3931 3803 4175 5303
z
M 150 1697
L 1100 1697
Q 1238 1934 1369 2184
L 1819 2041
Q 1719 1866 1619 1697
L 3150 1697
L 3150 1291
Q 2913 678 2431 216
Q 2775 53 3131 -109
L 2856 -541
Q 2469 -322 2050 -103
Q 1344 -609 269 -903
Q 169 -703 56 -466
Q 969 -259 1600 128
Q 1063 403 475 691
Q 675 978 863 1284
L 150 1284
L 150 1697
z
M 219 3847
L 1656 3847
L 1656 5247
L 2119 5247
L 2119 3847
L 3319 3847
L 3319 3434
L 2119 3434
L 2119 3053
L 2306 3266
Q 2888 2841 3281 2516
L 2981 2166
Q 2638 2491 2119 2897
L 2119 2184
L 1656 2184
L 1656 3059
Q 1088 2466 331 2016
Q 213 2197 63 2397
Q 850 2822 1506 3434
L 219 3434
L 219 3847
z
M 5388 3672
L 4219 3672
Q 4188 3591 4150 3516
Q 4263 2191 4775 1247
Q 5275 2159 5388 3672
z
M 1088 834
Q 1531 634 2000 416
Q 2431 784 2675 1284
L 1375 1284
Q 1231 1053 1088 834
z
M 3038 5091
L 3425 4834
Q 3081 4384 2738 4003
Q 2594 4128 2400 4266
Q 2725 4647 3038 5091
z
M 381 4816
L 738 5059
Q 1019 4716 1319 4322
L 931 4047
Q 656 4453 381 4816
z
" transform="scale(0.015625)"/>
       <path id="MicrosoftYaHei-91cf" d="M 113 -278
L 2981 -278
L 2981 78
L 475 78
L 475 403
L 2981 403
L 2981 759
L 1494 759
L 1494 597
L 1069 597
L 1069 2516
L 5350 2516
L 5350 597
L 4925 597
L 4925 759
L 3419 759
L 3419 403
L 5931 403
L 5931 78
L 3419 78
L 3419 -278
L 6288 -278
L 6288 -616
L 113 -616
L 113 -278
z
M 1119 5072
L 5306 5072
L 5306 3284
L 4881 3284
L 4881 3453
L 1544 3453
L 1544 3284
L 1119 3284
L 1119 5072
z
M 163 3153
L 6263 3153
L 6263 2816
L 163 2816
L 163 3153
z
M 1544 3778
L 4881 3778
L 4881 4116
L 1544 4116
L 1544 3778
z
M 4881 4747
L 1544 4747
L 1544 4416
L 4881 4416
L 4881 4747
z
M 3419 1084
L 4925 1084
L 4925 1491
L 3419 1491
L 3419 1084
z
M 1494 1084
L 2981 1084
L 2981 1491
L 1494 1491
L 1494 1084
z
M 4925 2191
L 3419 2191
L 3419 1791
L 4925 1791
L 4925 2191
z
M 1494 1791
L 2981 1791
L 2981 2191
L 1494 2191
L 1494 1791
z
" transform="scale(0.015625)"/>
      </defs>
      <use xlink:href="#MicrosoftYaHei-7403"/>
      <use xlink:href="#MicrosoftYaHei-961f" transform="translate(100 0)"/>
      <use xlink:href="#MicrosoftYaHei-6570" transform="translate(200 0)"/>
      <use xlink:href="#MicrosoftYaHei-91cf" transform="translate(300 0)"/>
     </g>
    </g>
   </g>
   <g id="matplotlib.axis_2">
    <g id="ytick_1">
     <g id="line2d_1">
      <path d="M 46.176563 384.408
L 711.456563 384.408
" clip-path="url(#p3fa0541dde)" style="fill: none; stroke: #e6e8f0; stroke-width: 0.8; stroke-linecap: round"/>
     </g>
     <g id="text_8">
      <!-- 0 -->
      <g style="fill: #262626" transform="translate(30.226094 388.804562) scale(0.11 -0.11)">
       <use xlink:href="#MicrosoftYaHei-30"/>
      </g>
     </g>
    </g>
    <g id="ytick_2">
     <g id="line2d_2">
      <path d="M 46.176563 350.027567
L 711.456563 350.027567
" clip-path="url(#p3fa0541dde)" style="fill: none; stroke: #e6e8f0; stroke-width: 0.8; stroke-linecap: round"/>
     </g>
     <g id="text_9">
      <!-- 2 -->
      <g style="fill: #262626" transform="translate(30.226094 354.424129) scale(0.11 -0.11)">
       <use xlink:href="#MicrosoftYaHei-32"/>
      </g>
     </g>
    </g>
    <g id="ytick_3">
     <g id="line2d_3">
      <path d="M 46.176563 315.647133
L 711.456563 315.647133
" clip-path="url(#p3fa0541dde)" style="fill: none; stroke: #e6e8f0; stroke-width: 0.8; stroke-linecap: round"/>
     </g>
     <g id="text_10">
      <!-- 4 -->
      <g style="fill: #262626" transform="translate(30.226094 320.043696) scale(0.11 -0.11)">
       <use xlink:href="#MicrosoftYaHei-34"/>
      </g>
     </g>
    </g>
    <g id="ytick_4">
     <g id="line2d_4">
      <path d="M 46.176563 281.2667
L 711.456563 281.2667
" clip-path="url(#p3fa0541dde)" style="fill: none; stroke: #e6e8f0; stroke-width: 0.8; stroke-linecap: round"/>
     </g>
     <g id="text_11">
      <!-- 6 -->
      <g style="fill: #262626" transform="translate(30.226094 285.663263) scale(0.11 -0.11)">
       <use xlink:href="#MicrosoftYaHei-36"/>
      </g>
     </g>
    </g>
    <g id="ytick_5">
     <g id="line2d_5">
      <path d="M 46.176563 246.886267
L 711.456563 246.886267
" clip-path="url(#p3fa0541dde)" style="fill: none; stroke: #e6e8f0; stroke-width: 0.8; stroke-linecap: round"/>
     </g>
     <g id="text_12">
      <!-- 8 -->
      <g style="fill: #262626" transform="translate(30.226094 251.282829) scale(0.11 -0.11)">
       <use xlink:href="#MicrosoftYaHei-38"/>
      </g>
     </g>
    </g>
    <g id="ytick_6">
     <g id="line2d_6">
      <path d="M 46.176563 212.505833
L 711.456563 212.505833
" clip-path="url(#p3fa0541dde)" style="fill: none; stroke: #e6e8f0; stroke-width: 0.8; stroke-linecap: round"/>
     </g>
     <g id="text_13">
      <!-- 10 -->
      <g style="fill: #262626" transform="translate(23.775625 216.902396) scale(0.11 -0.11)">
       <use xlink:href="#MicrosoftYaHei-31"/>
       <use xlink:href="#MicrosoftYaHei-30" transform="translate(58.642578 0)"/>
      </g>
     </g>
    </g>
    <g id="ytick_7">
     <g id="line2d_7">
      <path d="M 46.176563 178.1254
L 711.456563 178.1254
" clip-path="url(#p3fa0541dde)" style="fill: none; stroke: #e6e8f0; stroke-width: 0.8; stroke-linecap: round"/>
     </g>
     <g id="text_14">
      <!-- 12 -->
      <g style="fill: #262626" transform="translate(23.775625 182.521963) scale(0.11 -0.11)">
       <use xlink:href="#MicrosoftYaHei-31"/>
       <use xlink:href="#MicrosoftYaHei-32" transform="translate(58.642578 0)"/>
      </g>
     </g>
    </g>
    <g id="ytick_8">
     <g id="line2d_8">
      <path d="M 46.176563 143.744967
L 711.456563 143.744967
" clip-path="url(#p3fa0541dde)" style="fill: none; stroke: #e6e8f0; stroke-width: 0.8; stroke-linecap: round"/>
     </g>
     <g id="text_15">
      <!-- 14 -->
      <g style="fill: #262626" transform="translate(23.775625 148.141529) scale(0.11 -0.11)">
       <use xlink:href="#MicrosoftYaHei-31"/>
       <use xlink:href="#MicrosoftYaHei-34" transform="translate(58.642578 0)"/>
      </g>
     </g>
    </g>
    <g id="ytick_9">
     <g id="line2d_9">
      <path d="M 46.176563 109.364533
L 711.456563 109.364533
" clip-path="url(#p3fa0541dde)" style="fill: none; stroke: #e6e8f0; stroke-width: 0.8; stroke-linecap: round"/>
     </g>
     <g id="text_16">
      <!-- 16 -->
      <g style="fill: #262626" transform="translate(23.775625 113.761096) scale(0.11 -0.11)">
       <use xlink:href="#MicrosoftYaHei-31"/>
       <use xlink:href="#MicrosoftYaHei-36" transform="translate(58.642578 0)"/>
      </g>
     </g>
    </g>
    <g id="text_17">
     <!-- 基准算法耗时 / 优化算法耗时 -->
     <g style="fill: #1f2430" transform="translate(16.7925 312.978375) rotate(-90) scale(0.12 -0.12)">
      <defs>
       <path id="MicrosoftYaHei-57fa" d="M 6319 697
Q 6113 441 5981 247
Q 5406 519 4925 897
L 4925 553
L 3431 553
L 3431 -97
L 5875 -97
L 5875 -503
L 519 -503
L 519 -97
L 2963 -97
L 2963 553
L 1450 553
L 1450 894
Q 953 478 413 172
Q 294 341 88 566
Q 1050 1034 1753 1753
L 156 1753
L 156 2159
L 1400 2159
L 1400 4253
L 350 4253
L 350 4659
L 1400 4659
L 1400 5334
L 1869 5334
L 1869 4659
L 4550 4659
L 4550 5334
L 5019 5334
L 5019 4659
L 6069 4659
L 6069 4253
L 5019 4253
L 5019 2159
L 6244 2159
L 6244 1753
L 4600 1753
Q 5303 1053 6319 697
z
M 2963 1553
L 3431 1553
L 3431 947
L 4863 947
Q 4416 1306 4047 1753
L 2325 1753
Q 1934 1309 1513 947
L 2963 947
L 2963 1553
z
M 1869 2159
L 4550 2159
L 4550 2603
L 1869 2603
L 1869 2159
z
M 1869 2991
L 4550 2991
L 4550 3428
L 1869 3428
L 1869 2991
z
M 1869 3816
L 4550 3816
L 4550 4253
L 1869 4253
L 1869 3816
z
" transform="scale(0.015625)"/>
       <path id="MicrosoftYaHei-51c6" d="M 1413 2766
Q 2313 3866 2869 5334
L 3331 5172
Q 3128 4694 2906 4253
L 6194 4253
L 6194 3822
L 4675 3822
L 4675 2891
L 6025 2891
L 6025 2459
L 4675 2459
L 4675 1528
L 6038 1528
L 6038 1097
L 4675 1097
L 4675 78
L 6275 78
L 6275 -341
L 2769 -341
L 2769 -841
L 2281 -841
L 2281 3131
Q 2034 2738 1769 2384
Q 1631 2578 1413 2766
z
M 2769 78
L 4188 78
L 4188 1097
L 2769 1097
L 2769 78
z
M 1081 2422
Q 1325 2291 1556 2209
Q 1113 916 681 -372
L 169 -141
Q 650 1003 1081 2422
z
M 2769 1528
L 4188 1528
L 4188 2459
L 2769 2459
L 2769 1528
z
M 2769 2891
L 4188 2891
L 4188 3822
L 2769 3822
L 2769 2891
z
M 531 4991
Q 1050 4384 1581 3709
Q 1538 3678 1150 3341
Q 681 3997 138 4672
L 531 4991
z
M 3919 5116
L 4325 5372
Q 4569 5072 4881 4622
L 4450 4334
Q 4156 4784 3919 5116
z
" transform="scale(0.015625)"/>
       <path id="MicrosoftYaHei-7b97" d="M 969 3728
L 2006 3728
Q 1775 4016 1544 4266
L 1769 4428
L 1244 4428
Q 875 3963 400 3566
Q 263 3722 88 3884
Q 856 4484 1300 5347
L 1831 5347
Q 1684 5059 1506 4791
L 3325 4791
L 3325 4428
L 1919 4428
Q 2144 4200 2369 3953
L 2072 3728
L 4953 3728
Q 4716 4003 4425 4266
L 4641 4428
L 4019 4428
Q 3772 4050 3506 3753
Q 3344 3897 3125 4047
Q 3656 4603 4000 5347
L 4538 5347
Q 4394 5053 4244 4791
L 6225 4791
L 6225 4428
L 4800 4428
Q 5069 4206 5294 3972
L 4991 3728
L 5475 3728
L 5475 916
L 5038 916
L 5038 1122
L 1406 1122
L 1406 916
L 969 916
L 969 3728
z
M 150 609
L 1850 609
Q 1875 788 1875 1003
L 2331 1003
Q 2331 794 2309 609
L 4356 609
L 4356 997
L 4819 997
L 4819 609
L 6300 609
L 6300 222
L 4819 222
L 4819 -828
L 4356 -828
L 4356 222
L 2244 222
Q 2019 -619 763 -884
Q 644 -691 488 -472
Q 1525 -297 1756 222
L 150 222
L 150 609
z
M 5038 3378
L 1406 3378
L 1406 2959
L 5038 2959
L 5038 3378
z
M 1406 1472
L 5038 1472
L 5038 1891
L 1406 1891
L 1406 1472
z
M 1406 2216
L 5038 2216
L 5038 2634
L 1406 2634
L 1406 2216
z
" transform="scale(0.015625)"/>
       <path id="MicrosoftYaHei-6cd5" d="M 4888 1328
Q 5488 509 6181 -553
Q 5931 -697 5694 -841
Q 5519 -550 5350 -278
Q 3300 -447 2138 -559
L 1906 -16
Q 2300 159 2675 716
Q 3088 1303 3441 1953
L 1800 1953
L 1800 2403
L 3763 2403
L 3763 3728
L 2106 3728
L 2106 4178
L 3763 4178
L 3763 5322
L 4263 5322
L 4263 4178
L 5994 4178
L 5994 3728
L 4263 3728
L 4263 2403
L 6288 2403
L 6288 1953
L 4069 1953
Q 3372 806 2706 -28
Q 3897 28 5088 141
Q 4766 644 4475 1066
L 4888 1328
z
M 1013 1828
Q 1244 1728 1506 1622
Q 1063 291 731 -784
L 194 -603
Q 606 497 1013 1828
z
M 400 3622
Q 869 3291 1500 2772
Q 1269 2509 1138 2366
Q 431 2997 88 3259
L 400 3622
z
M 644 5241
Q 1144 4841 1719 4328
Q 1506 4109 1350 3941
Q 775 4509 325 4897
L 644 5241
z
" transform="scale(0.015625)"/>
       <path id="MicrosoftYaHei-8017" d="M 2506 1622
L 3913 1753
L 3913 2878
L 2738 2772
L 2706 3197
L 3913 3303
L 3913 4459
Q 3381 4403 2794 4353
Q 2769 4584 2700 4809
Q 4225 4916 5706 5172
L 5819 4697
Q 5188 4603 4381 4509
L 4381 3347
L 5825 3478
L 5850 3053
L 4381 2916
L 4381 1797
L 6150 1966
L 6175 1541
L 4381 1366
L 4381 128
Q 4381 -241 4706 -241
L 5400 -241
Q 5688 -241 5750 147
Q 5813 566 5844 991
Q 6094 866 6319 791
Q 6250 291 6194 -28
Q 6094 -691 5456 -691
L 4588 -691
Q 3913 -691 3913 72
L 3913 1322
L 2538 1197
L 2506 1622
z
M 88 191
Q 769 1072 1088 2022
L 138 2022
L 138 2422
L 1250 2422
L 1250 3028
L 363 3028
L 363 3428
L 1250 3428
L 1250 4016
L 231 4016
L 231 4416
L 1250 4416
L 1250 5303
L 1675 5303
L 1675 4416
L 2631 4416
L 2631 4016
L 1675 4016
L 1675 3428
L 2519 3428
L 2519 3028
L 1675 3028
L 1675 2422
L 2700 2422
L 2700 2022
L 1675 2022
L 1675 1334
L 1894 1547
Q 2381 1078 2806 622
L 2463 316
Q 2125 747 1675 1203
L 1675 -841
L 1250 -841
L 1250 1491
Q 869 434 281 -297
Q 188 -16 88 191
z
" transform="scale(0.015625)"/>
       <path id="MicrosoftYaHei-65f6" d="M 344 4728
L 2500 4728
L 2500 -366
L 2006 -366
L 2006 153
L 838 153
L 838 -441
L 344 -441
L 344 4728
z
M 2706 3941
L 4925 3941
L 4925 5322
L 5425 5322
L 5425 3941
L 6313 3941
L 6313 3478
L 5425 3478
L 5425 116
Q 5425 -722 4625 -722
Q 4263 -722 3563 -703
Q 3531 -478 3463 -178
Q 4119 -228 4488 -228
Q 4925 -228 4925 216
L 4925 3478
L 2706 3478
L 2706 3941
z
M 838 616
L 2006 616
L 2006 2234
L 838 2234
L 838 616
z
M 2006 4266
L 838 4266
L 838 2684
L 2006 2684
L 2006 4266
z
M 3406 2878
Q 3906 1966 4163 1422
Q 4000 1347 3663 1172
Q 3419 1766 2963 2653
L 3406 2878
z
" transform="scale(0.015625)"/>
       <path id="MicrosoftYaHei-20" transform="scale(0.015625)"/>
       <path id="MicrosoftYaHei-2f" d="M 2791 4841
L 469 -803
L -103 -803
L 2219 4841
L 2791 4841
z
" transform="scale(0.015625)"/>
       <path id="MicrosoftYaHei-4f18" d="M 1825 3609
L 3184 3609
Q 3216 4322 3213 5272
L 3713 5272
Q 3719 4338 3688 3609
L 6188 3609
L 6188 3153
L 4475 3153
L 4475 228
Q 4475 -122 4838 -122
L 5244 -122
Q 5656 -122 5700 303
Q 5750 659 5781 1266
Q 6031 1166 6294 1066
Q 6244 528 6175 109
Q 6100 -291 5900 -447
Q 5713 -603 5275 -597
L 4763 -597
Q 4325 -597 4150 -422
Q 3969 -259 3969 184
L 3969 3153
L 3663 3153
Q 3600 791 1950 -803
Q 1775 -597 1575 -397
Q 3100 1028 3159 3153
L 1825 3153
L 1825 3609
z
M 88 2334
Q 1056 3641 1556 5291
L 2063 5122
Q 1753 4253 1388 3522
L 1388 -809
L 913 -809
L 913 2666
Q 616 2184 288 1778
Q 194 2047 88 2334
z
M 4600 5184
Q 5269 4759 5713 4391
Q 5538 4197 5388 3991
Q 4875 4447 4325 4841
L 4600 5184
z
" transform="scale(0.015625)"/>
       <path id="MicrosoftYaHei-5316" d="M 1844 1453
Q 2663 1834 3375 2331
L 3375 5197
L 3913 5197
L 3913 2734
Q 4869 3506 5613 4516
L 6069 4184
Q 5159 2975 3913 2069
L 3913 303
Q 3913 -122 4363 -122
L 5156 -122
Q 5581 -122 5650 284
Q 5738 709 5763 1266
Q 6025 1166 6313 1084
Q 6263 559 6181 122
Q 6063 -597 5281 -597
L 4225 -597
Q 3375 -597 3375 241
L 3375 1703
Q 2791 1328 2144 1016
Q 2013 1222 1844 1453
z
M 88 2222
Q 1175 3666 1688 5291
L 2231 5134
Q 1934 4359 1588 3675
L 1588 -797
L 1063 -797
L 1063 2734
Q 716 2172 325 1678
Q 219 1947 88 2222
z
" transform="scale(0.015625)"/>
      </defs>
      <use xlink:href="#MicrosoftYaHei-57fa"/>
      <use xlink:href="#MicrosoftYaHei-51c6" transform="translate(100 0)"/>
      <use xlink:href="#MicrosoftYaHei-7b97" transform="translate(200 0)"/>
      <use xlink:href="#MicrosoftYaHei-6cd5" transform="translate(300 0)"/>
      <use xlink:href="#MicrosoftYaHei-8017" transform="translate(400 0)"/>
      <use xlink:href="#MicrosoftYaHei-65f6" transform="translate(500 0)"/>
      <use xlink:href="#MicrosoftYaHei-20" transform="translate(600 0)"/>
      <use xlink:href="#MicrosoftYaHei-2f" transform="translate(629.589844 0)"/>
      <use xlink:href="#MicrosoftYaHei-20" transform="translate(672.314453 0)"/>
      <use xlink:href="#MicrosoftYaHei-4f18" transform="translate(701.904297 0)"/>
      <use xlink:href="#MicrosoftYaHei-5316" transform="translate(801.904297 0)"/>
      <use xlink:href="#MicrosoftYaHei-7b97" transform="translate(901.904297 0)"/>
      <use xlink:href="#MicrosoftYaHei-6cd5" transform="translate(1001.904297 0)"/>
      <use xlink:href="#MicrosoftYaHei-8017" transform="translate(1101.904297 0)"/>
      <use xlink:href="#MicrosoftYaHei-65f6" transform="translate(1201.904297 0)"/>
     </g>
    </g>
   </g>
   <g id="patch_3">
    <path d="M 76.416562 384.408
L 159.837252 384.408
L 159.837252 352.873346
L 76.416562 352.873346
z
" clip-path="url(#p3fa0541dde)" style="fill: #a3befa; stroke: #2e4780; stroke-linejoin: miter"/>
   </g>
   <g id="patch_4">
    <path d="M 180.692425 384.408
L 264.113114 384.408
L 264.113114 327.553348
L 180.692425 327.553348
z
" clip-path="url(#p3fa0541dde)" style="fill: #a3befa; stroke: #2e4780; stroke-linejoin: miter"/>
   </g>
   <g id="patch_5">
    <path d="M 284.968287 384.408
L 368.388976 384.408
L 368.388976 288.202971
L 284.968287 288.202971
z
" clip-path="url(#p3fa0541dde)" style="fill: #a3befa; stroke: #2e4780; stroke-linejoin: miter"/>
   </g>
   <g id="patch_6">
    <path d="M 389.244149 384.408
L 472.664838 384.408
L 472.664838 239.062657
L 389.244149 239.062657
z
" clip-path="url(#p3fa0541dde)" style="fill: #a3befa; stroke: #2e4780; stroke-linejoin: miter"/>
   </g>
   <g id="patch_7">
    <path d="M 493.520011 384.408
L 576.9407 384.408
L 576.9407 174.846801
L 493.520011 174.846801
z
" clip-path="url(#p3fa0541dde)" style="fill: #a3befa; stroke: #2e4780; stroke-linejoin: miter"/>
   </g>
   <g id="patch_8">
    <path d="M 597.795873 384.408
L 681.216563 384.408
L 681.216563 99.562286
L 597.795873 99.562286
z
" clip-path="url(#p3fa0541dde)" style="fill: #a3befa; stroke: #2e4780; stroke-linejoin: miter"/>
   </g>
   <g id="line2d_10">
    <path d="M 46.176563 367.217783
L 711.456563 367.217783
" clip-path="url(#p3fa0541dde)" style="fill: none; stroke-dasharray: 1,1.65; stroke-dashoffset: 0; stroke: #1f2430"/>
   </g>
   <g id="patch_9">
    <path d="M 46.176563 384.408
L 46.176563 85.32
" style="fill: none; stroke: #d7dbe7; stroke-width: 1.25; stroke-linejoin: miter; stroke-linecap: square"/>
   </g>
   <g id="patch_10">
    <path d="M 46.176563 384.408
L 711.456563 384.408
" style="fill: none; stroke: #d7dbe7; stroke-width: 1.25; stroke-linejoin: miter; stroke-linecap: square"/>
   </g>
   <g id="text_18">
    <!-- 1.83× -->
    <g style="fill: #1f2430" transform="translate(106.474603 347.760299) scale(0.085 -0.085)">
     <defs>
      <path id="MicrosoftYaHei-2e" d="M 372 322
Q 372 491 487 606
Q 603 722 775 722
Q 950 722 1065 605
Q 1181 488 1181 322
Q 1181 159 1065 42
Q 950 -75 772 -75
Q 600 -75 486 42
Q 372 159 372 322
z
" transform="scale(0.015625)"/>
      <path id="MicrosoftYaHei-33" d="M 447 809
Q 944 425 1569 425
Q 2069 425 2361 670
Q 2653 916 2653 1328
Q 2653 2247 1338 2247
L 934 2247
L 934 2753
L 1319 2753
Q 2484 2753 2484 3616
Q 2484 4413 1594 4413
Q 1084 4413 634 4069
L 634 4647
Q 1109 4922 1744 4922
Q 2363 4922 2738 4598
Q 3113 4275 3113 3759
Q 3113 2809 2144 2538
L 2144 2525
Q 2669 2469 2973 2155
Q 3278 1841 3278 1372
Q 3278 719 2808 319
Q 2338 -81 1556 -81
Q 869 -81 447 175
L 447 809
z
" transform="scale(0.015625)"/>
      <path id="MicrosoftYaHei-d7" d="M 3856 869
L 3519 531
L 2372 1678
L 1231 531
L 894 869
L 2044 2009
L 894 3156
L 1231 3491
L 2372 2344
L 3522 3491
L 3856 3153
L 2709 2009
L 3856 869
z
" transform="scale(0.015625)"/>
     </defs>
     <use xlink:href="#MicrosoftYaHei-31"/>
     <use xlink:href="#MicrosoftYaHei-2e" transform="translate(58.642578 0)"/>
     <use xlink:href="#MicrosoftYaHei-38" transform="translate(82.714844 0)"/>
     <use xlink:href="#MicrosoftYaHei-33" transform="translate(141.357422 0)"/>
     <use xlink:href="#MicrosoftYaHei-d7" transform="translate(200 0)"/>
    </g>
   </g>
   <g id="text_19">
    <!-- 3.31× -->
    <g style="fill: #1f2430" transform="translate(210.750465 322.440301) scale(0.085 -0.085)">
     <use xlink:href="#MicrosoftYaHei-33"/>
     <use xlink:href="#MicrosoftYaHei-2e" transform="translate(58.642578 0)"/>
     <use xlink:href="#MicrosoftYaHei-33" transform="translate(82.714844 0)"/>
     <use xlink:href="#MicrosoftYaHei-31" transform="translate(141.357422 0)"/>
     <use xlink:href="#MicrosoftYaHei-d7" transform="translate(200 0)"/>
    </g>
   </g>
   <g id="text_20">
    <!-- 5.60× -->
    <g style="fill: #1f2430" transform="translate(315.026327 283.089924) scale(0.085 -0.085)">
     <defs>
      <path id="MicrosoftYaHei-35" d="M 3294 1494
Q 3294 784 2823 350
Q 2353 -84 1559 -84
Q 878 -84 544 119
L 544 744
Q 1034 425 1544 425
Q 2050 425 2361 704
Q 2672 984 2672 1447
Q 2672 1909 2348 2167
Q 2025 2425 1434 2425
Q 978 2425 613 2384
L 791 4841
L 3053 4841
L 3053 4303
L 1306 4303
L 1206 2931
L 1647 2950
Q 2416 2950 2855 2567
Q 3294 2184 3294 1494
z
" transform="scale(0.015625)"/>
     </defs>
     <use xlink:href="#MicrosoftYaHei-35"/>
     <use xlink:href="#MicrosoftYaHei-2e" transform="translate(58.642578 0)"/>
     <use xlink:href="#MicrosoftYaHei-36" transform="translate(82.714844 0)"/>
     <use xlink:href="#MicrosoftYaHei-30" transform="translate(141.357422 0)"/>
     <use xlink:href="#MicrosoftYaHei-d7" transform="translate(200 0)"/>
    </g>
   </g>
   <g id="text_21">
    <!-- 8.46× -->
    <g style="fill: #1f2430" transform="translate(419.302189 233.94961) scale(0.085 -0.085)">
     <use xlink:href="#MicrosoftYaHei-38"/>
     <use xlink:href="#MicrosoftYaHei-2e" transform="translate(58.642578 0)"/>
     <use xlink:href="#MicrosoftYaHei-34" transform="translate(82.714844 0)"/>
     <use xlink:href="#MicrosoftYaHei-36" transform="translate(141.357422 0)"/>
     <use xlink:href="#MicrosoftYaHei-d7" transform="translate(200 0)"/>
    </g>
   </g>
   <g id="text_22">
    <!-- 12.19× -->
    <g style="fill: #1f2430" transform="translate(521.085824 169.733754) scale(0.085 -0.085)">
     <defs>
      <path id="MicrosoftYaHei-39" d="M 578 656
Q 978 425 1441 425
Q 2091 425 2448 937
Q 2806 1450 2806 2394
Q 2800 2388 2794 2394
Q 2475 1788 1722 1788
Q 1113 1788 713 2206
Q 313 2625 313 3294
Q 313 4006 750 4464
Q 1188 4922 1884 4922
Q 2606 4922 3012 4355
Q 3419 3788 3419 2703
Q 3419 1363 2894 641
Q 2369 -81 1441 -81
Q 931 -81 578 84
L 578 656
z
M 931 3372
Q 931 2884 1181 2598
Q 1431 2313 1872 2313
Q 2253 2313 2512 2573
Q 2772 2834 2772 3206
Q 2772 3728 2514 4070
Q 2256 4413 1834 4413
Q 1444 4413 1187 4116
Q 931 3819 931 3372
z
" transform="scale(0.015625)"/>
     </defs>
     <use xlink:href="#MicrosoftYaHei-31"/>
     <use xlink:href="#MicrosoftYaHei-32" transform="translate(58.642578 0)"/>
     <use xlink:href="#MicrosoftYaHei-2e" transform="translate(117.285156 0)"/>
     <use xlink:href="#MicrosoftYaHei-31" transform="translate(141.357422 0)"/>
     <use xlink:href="#MicrosoftYaHei-39" transform="translate(200 0)"/>
     <use xlink:href="#MicrosoftYaHei-d7" transform="translate(258.642578 0)"/>
    </g>
   </g>
   <g id="text_23">
    <!-- 16.57× -->
    <g style="fill: #1f2430" transform="translate(625.361686 94.449239) scale(0.085 -0.085)">
     <defs>
      <path id="MicrosoftYaHei-37" d="M 3422 4463
Q 2659 3131 2223 1998
Q 1788 866 1684 0
L 1047 0
Q 1163 853 1594 1947
Q 2025 3041 2747 4300
L 347 4300
L 347 4841
L 3422 4841
L 3422 4463
z
" transform="scale(0.015625)"/>
     </defs>
     <use xlink:href="#MicrosoftYaHei-31"/>
     <use xlink:href="#MicrosoftYaHei-36" transform="translate(58.642578 0)"/>
     <use xlink:href="#MicrosoftYaHei-2e" transform="translate(117.285156 0)"/>
     <use xlink:href="#MicrosoftYaHei-35" transform="translate(141.357422 0)"/>
     <use xlink:href="#MicrosoftYaHei-37" transform="translate(200 0)"/>
     <use xlink:href="#MicrosoftYaHei-d7" transform="translate(258.642578 0)"/>
    </g>
   </g>
  </g>
  <g id="text_24">
   <!-- 规模越大，迪尼茨算法加速越明显 -->
   <g style="fill: #1f2430" transform="translate(46.176563 18.39125) scale(0.14 -0.14)">
    <defs>
     <path id="MicrosoftYaHei-Bold-89c4" d="M 88 2766
L 894 2766
L 894 3516
L 188 3516
L 188 4291
L 894 4291
L 894 5284
L 1694 5284
L 1694 4291
L 2400 4291
L 2400 3516
L 1694 3516
L 1694 2766
L 2488 2766
L 2488 1984
L 1675 1984
Q 1666 1816 1647 1656
Q 2091 1247 2650 666
Q 2306 341 2088 91
Q 1869 369 1506 788
Q 1278 -194 769 -878
Q 369 -447 75 -178
Q 747 550 866 1984
L 88 1984
L 88 2766
z
M 2650 1128
L 2650 5066
L 5913 5066
L 5913 1197
L 5100 1197
L 5100 4259
L 3463 4259
L 3463 1128
L 2650 1128
z
M 5525 978
Q 6000 747 6306 628
Q 6184 -291 6031 -522
Q 5878 -753 5469 -753
L 4906 -753
Q 4188 -753 4188 -78
L 4188 644
Q 3728 -297 2613 -884
Q 2394 -572 2044 -172
Q 3225 394 3540 1169
Q 3856 1944 3856 3872
L 4688 3872
Q 4675 2513 4506 1641
L 4931 1641
L 4931 222
Q 4931 -28 5150 -28
L 5219 -28
Q 5369 -28 5417 112
Q 5466 253 5525 978
z
" transform="scale(0.015625)"/>
     <path id="MicrosoftYaHei-Bold-6a21" d="M 6250 534
L 4825 534
Q 5419 84 6325 -53
Q 6131 -403 5913 -859
Q 4769 -522 4169 334
Q 3694 -503 2406 -897
Q 2206 -509 1925 -159
Q 3013 66 3419 534
L 2088 534
L 2088 1141
L 3719 1141
Q 3756 1284 3769 1459
L 2425 1459
L 2425 2134
L 1944 1659
Q 1800 1878 1638 2109
L 1638 -841
L 863 -841
L 863 1803
Q 619 1141 275 547
Q 213 978 75 1691
Q 525 2453 788 3328
L 138 3328
L 138 4066
L 863 4066
L 863 5291
L 1638 5291
L 1638 4066
L 2219 4066
L 2219 3328
L 1638 3328
L 1638 2972
Q 2081 2559 2425 2209
L 2425 3703
L 6025 3703
L 6025 1459
L 4556 1459
Q 4544 1291 4519 1141
L 6250 1141
L 6250 534
z
M 5250 2009
L 5250 2353
L 3200 2353
L 3200 2009
L 5250 2009
z
M 5250 3147
L 3200 3147
L 3200 2816
L 5250 2816
L 5250 3147
z
M 5413 3853
L 4675 3853
L 4675 4203
L 3719 4203
L 3719 3853
L 2981 3853
L 2981 4203
L 2175 4203
L 2175 4822
L 2981 4822
L 2981 5291
L 3719 5291
L 3719 4822
L 4675 4822
L 4675 5291
L 5413 5291
L 5413 4822
L 6275 4822
L 6275 4203
L 5413 4203
L 5413 3853
z
" transform="scale(0.015625)"/>
     <path id="MicrosoftYaHei-Bold-8d8a" d="M 2850 2447
L 2269 2447
L 2269 1747
L 2825 1747
L 2825 984
L 2269 984
L 2269 166
Q 2472 97 3978 97
Q 4897 97 6306 122
Q 6144 -359 6050 -716
Q 3172 -734 2278 -665
Q 1384 -597 963 69
Q 853 -509 675 -847
Q 400 -566 75 -253
Q 400 509 400 2184
L 1131 2184
Q 1125 1641 1094 1178
Q 1213 778 1488 531
L 1488 2447
L 125 2447
L 125 3209
L 1175 3209
L 1175 3822
L 306 3822
L 306 4584
L 1175 4584
L 1175 5322
L 1981 5322
L 1981 4584
L 2769 4584
L 2769 3822
L 1981 3822
L 1981 3209
L 2850 3209
L 2850 2447
z
M 5544 5309
Q 5794 5034 6119 4584
L 5697 4334
L 6200 4334
L 6200 3616
L 4984 3616
Q 5019 3013 5081 2547
Q 5278 2953 5438 3409
L 6069 3184
Q 5728 2288 5306 1563
Q 5466 1153 5581 1153
Q 5675 1153 5715 1395
Q 5756 1638 5775 2066
Q 6056 1916 6363 1772
Q 6309 1294 6231 939
Q 6153 584 5993 428
Q 5834 272 5606 272
Q 5128 272 4828 828
Q 4547 450 4238 134
Q 3956 397 3644 647
Q 4138 1066 4534 1619
Q 4347 2353 4275 3616
L 3794 3616
L 3794 2141
Q 4000 2309 4231 2491
Q 4244 2072 4306 1666
Q 3681 1197 3313 809
L 2888 1303
Q 3050 1491 3050 1803
L 3050 4334
L 4247 4334
Q 4234 4797 4238 5316
L 4956 5316
Q 4950 4794 4959 4334
L 5497 4334
Q 5300 4659 5038 5003
L 5544 5309
z
" transform="scale(0.015625)"/>
     <path id="MicrosoftYaHei-Bold-5927" d="M 213 3728
L 2681 3728
Q 2725 4409 2719 5303
L 3669 5303
Q 3650 4375 3619 3728
L 6200 3728
L 6200 2866
L 3691 2866
Q 4228 778 6288 59
Q 5844 -447 5575 -803
Q 3872 -3 3203 1775
Q 2684 147 806 -847
Q 556 -528 100 -47
Q 2375 984 2591 2866
L 213 2866
L 213 3728
z
" transform="scale(0.015625)"/>
     <path id="MicrosoftYaHei-Bold-ff0c" d="M 2075 831
L 1569 -863
L 831 -863
L 1191 831
L 2075 831
z
" transform="scale(0.015625)"/>
     <path id="MicrosoftYaHei-Bold-8fea" d="M 2138 4453
L 3669 4453
L 3669 5316
L 4494 5316
L 4494 4453
L 6025 4453
L 6025 559
L 2138 559
L 2138 4453
z
M 5238 3703
L 4494 3703
L 4494 2878
L 5238 2878
L 5238 3703
z
M 2925 2878
L 3669 2878
L 3669 3703
L 2925 3703
L 2925 2878
z
M 5238 1309
L 5238 2166
L 4494 2166
L 4494 1309
L 5238 1309
z
M 2925 1309
L 3669 1309
L 3669 2166
L 2925 2166
L 2925 1309
z
M 1025 5228
Q 1494 4616 1869 4078
L 1138 3584
Q 763 4234 356 4816
L 1025 5228
z
M 6306 97
L 6056 -716
Q 3447 -716 2915 -697
Q 2384 -678 1946 -528
Q 1509 -378 1238 -97
L 513 -847
L 138 84
Q 481 372 781 634
L 781 2222
L 200 2222
L 200 3016
L 1600 3016
L 1600 594
Q 2088 72 3106 72
L 4297 66
Q 5006 66 6306 97
z
" transform="scale(0.015625)"/>
     <path id="MicrosoftYaHei-Bold-5c3c" d="M 831 5028
L 5781 5028
L 5781 2772
L 1728 2772
Q 1722 1275 1484 528
Q 1247 -219 875 -784
Q 413 -328 100 -72
Q 456 381 640 992
Q 825 1603 831 3022
L 831 5028
z
M 4881 3553
L 4881 4247
L 1731 4247
L 1731 3553
L 4881 3553
z
M 5319 1247
Q 5838 1041 6200 916
Q 6041 84 5920 -175
Q 5800 -434 5554 -553
Q 5309 -672 4931 -672
L 3250 -672
Q 2250 -672 2250 341
L 2250 2541
L 3156 2541
L 3156 1647
Q 4494 2056 5438 2466
L 5956 1641
Q 4534 1144 3156 803
L 3156 591
Q 3156 116 3631 116
L 4569 116
Q 4947 116 5087 264
Q 5228 413 5319 1247
z
" transform="scale(0.015625)"/>
     <path id="MicrosoftYaHei-Bold-8328" d="M 125 4791
L 1625 4791
L 1625 5309
L 2488 5309
L 2488 4791
L 3906 4791
L 3906 5309
L 4769 5309
L 4769 4791
L 6275 4791
L 6275 4041
L 4769 4041
L 4769 3566
L 3906 3566
L 3906 4041
L 2488 4041
L 2488 3566
L 1625 3566
L 1625 4041
L 125 4041
L 125 4791
z
M 6150 3216
L 6150 2472
L 5713 1459
L 4925 1691
L 5275 2466
L 3081 2466
Q 2859 1903 2581 1384
Q 2356 1509 1750 1791
Q 2275 2703 2650 3772
L 3469 3603
Q 3413 3406 3350 3216
L 6150 3216
z
M 856 3659
Q 1406 3153 1831 2703
L 1100 2134
Q 719 2641 200 3172
L 856 3659
z
M 3525 2253
L 4350 2253
Q 4341 1984 4297 1731
Q 4888 534 6325 -53
Q 5956 -497 5750 -803
Q 4578 -128 4003 816
Q 3466 -228 2081 -878
Q 1850 -597 1406 -153
Q 2559 263 3042 833
Q 3525 1403 3525 2253
z
M 1113 1741
Q 1463 1534 1875 1328
L 869 -628
L 94 -166
Q 650 772 1113 1741
z
" transform="scale(0.015625)"/>
     <path id="MicrosoftYaHei-Bold-7b97" d="M 100 697
L 1575 697
Q 1603 844 1613 1003
L 706 1003
L 706 3694
Q 572 3581 431 3478
Q 325 3803 75 4228
Q 700 4634 1119 5341
L 2006 5341
Q 1888 5122 1759 4922
L 3113 4922
L 3113 4381
Q 3563 4788 3800 5347
L 4619 5347
Q 4541 5125 4450 4922
L 6213 4922
L 6213 4347
L 5338 4347
L 5513 3972
L 4738 3816
L 5719 3816
L 5719 1003
L 4906 1003
L 4906 697
L 6300 697
L 6300 97
L 4906 97
L 4906 -809
L 4081 -809
L 4081 97
L 2281 97
Q 2050 -534 1388 -897
Q 994 -616 581 -384
Q 1031 -209 1291 97
L 100 97
L 100 697
z
M 2575 3972
L 1800 3816
L 3519 3816
Q 3203 4013 2856 4178
Q 2969 4259 3069 4347
L 2403 4347
Q 2494 4156 2575 3972
z
M 3694 3816
L 4703 3816
Q 4603 4106 4484 4347
L 4131 4347
Q 3934 4056 3694 3816
z
M 841 3816
L 1766 3816
Q 1703 4031 1572 4347
L 1344 4347
Q 1106 4059 841 3816
z
M 4900 3303
L 1525 3303
L 1525 2991
L 4900 2991
L 4900 3303
z
M 1525 2253
L 4900 2253
L 4900 2566
L 1525 2566
L 1525 2253
z
M 4900 1516
L 4900 1828
L 1525 1828
L 1525 1516
L 4900 1516
z
M 2406 697
L 4081 697
L 4081 1003
L 2428 1003
Q 2425 856 2406 697
z
" transform="scale(0.015625)"/>
     <path id="MicrosoftYaHei-Bold-6cd5" d="M 5006 1441
Q 5763 478 6313 -453
L 5525 -897
L 5275 -472
Q 2816 -559 2088 -647
L 1769 72
Q 2419 616 3081 1747
L 1775 1747
L 1775 2491
L 3581 2491
L 3581 3603
L 2050 3603
L 2050 4347
L 3581 4347
L 3581 5347
L 4444 5347
L 4444 4347
L 6013 4347
L 6013 3603
L 4444 3603
L 4444 2491
L 6288 2491
L 6288 1747
L 4122 1747
Q 3622 928 3019 216
Q 3825 238 4806 288
Q 4541 697 4294 1041
L 5006 1441
z
M 844 5222
Q 1419 4828 1950 4403
L 1388 3766
Q 838 4259 306 4647
L 844 5222
z
M 631 3591
Q 1175 3216 1706 2753
L 1119 2103
Q 669 2553 88 3003
L 631 3591
z
M 994 1903
Q 1356 1722 1813 1578
Q 1406 409 1069 -803
Q 625 -634 219 -509
Q 619 572 994 1903
z
" transform="scale(0.015625)"/>
     <path id="MicrosoftYaHei-Bold-52a0" d="M 1475 -716
Q 1381 -278 1256 222
Q 1644 197 1894 197
Q 2044 197 2126 261
Q 2209 325 2228 437
Q 2247 550 2272 1386
Q 2297 2222 2306 3472
L 1700 3472
Q 1666 503 575 -878
Q 356 -453 81 16
Q 863 1125 891 3472
L 175 3472
L 175 4291
L 909 4291
Q 919 4828 919 5322
L 1731 5322
L 1716 4291
L 3131 4291
L 3091 1766
L 3050 300
Q 3034 -147 2861 -378
Q 2688 -609 2448 -662
Q 2209 -716 1475 -716
z
M 3500 -716
L 3500 4797
L 6025 4797
L 6025 -678
L 5188 -678
L 5188 -166
L 4338 -166
L 4338 -716
L 3500 -716
z
M 5188 3978
L 4338 3978
L 4338 653
L 5188 653
L 5188 3978
z
" transform="scale(0.015625)"/>
     <path id="MicrosoftYaHei-Bold-901f" d="M 4650 1772
Q 5488 1366 6250 941
L 5850 284
Q 5063 766 4388 1128
L 4388 153
L 3594 153
L 3594 1191
Q 3031 603 2319 247
Q 2119 578 1806 959
Q 2669 1216 3356 1828
L 2113 1828
L 2113 3628
L 3594 3628
L 3594 4016
L 1900 4016
L 1900 4766
L 3594 4766
L 3594 5303
L 4388 5303
L 4388 4766
L 6100 4766
L 6100 4016
L 4388 4016
L 4388 3628
L 5875 3628
L 5875 1828
L 4388 1828
L 4388 1347
L 4650 1772
z
M 2825 22
Q 4075 -16 6306 34
Q 6125 -428 6006 -753
Q 4181 -753 2644 -722
Q 1694 -722 1138 -116
Q 888 -403 456 -891
L 106 41
Q 356 266 694 553
L 694 2297
L 138 2297
L 138 3122
L 1475 3122
L 1475 547
Q 1844 22 2825 22
z
M 969 5309
Q 1406 4647 1725 4084
Q 1250 3841 956 3678
Q 650 4316 275 4941
L 969 5309
z
M 5175 2978
L 4388 2978
L 4388 2478
L 5175 2478
L 5175 2978
z
M 2813 2478
L 3594 2478
L 3594 2978
L 2813 2978
L 2813 2478
z
" transform="scale(0.015625)"/>
     <path id="MicrosoftYaHei-Bold-660e" d="M 3000 -928
Q 2694 -609 2319 -284
Q 2797 278 2939 817
Q 3081 1356 3075 2547
L 3075 5028
L 6000 5028
L 6000 391
Q 6000 88 5936 -137
Q 5872 -363 5714 -534
Q 5556 -706 5057 -736
Q 4559 -766 4138 -766
Q 4025 -234 3931 72
L 4713 59
Q 5188 59 5188 653
L 5188 1034
L 3800 1034
Q 3609 -163 3000 -928
z
M 5188 4216
L 3888 4216
L 3888 3428
L 5188 3428
L 5188 4216
z
M 3878 1834
L 5188 1834
L 5188 2628
L 3888 2628
Q 3894 2228 3878 1834
z
M 400 4916
L 2588 4916
L 2588 416
L 1213 416
L 1213 -9
L 400 -9
L 400 4916
z
M 1800 4166
L 1213 4166
L 1213 3041
L 1800 3041
L 1800 4166
z
M 1800 1166
L 1800 2291
L 1213 2291
L 1213 1166
L 1800 1166
z
" transform="scale(0.015625)"/>
     <path id="MicrosoftYaHei-Bold-663e" d="M 731 5103
L 5675 5103
L 5675 2272
L 731 2272
L 731 5103
z
M 4813 4391
L 1594 4391
L 1594 4016
L 4813 4016
L 4813 4391
z
M 4813 2984
L 4813 3359
L 1594 3359
L 1594 2984
L 4813 2984
z
M 175 141
L 2044 141
L 2044 2097
L 2919 2097
L 2919 141
L 3488 141
L 3488 2097
L 4363 2097
L 4363 141
L 6231 141
L 6231 -634
L 175 -634
L 175 141
z
M 5344 2034
L 6044 1609
Q 5663 1066 5075 322
Q 4894 478 4450 797
Q 4950 1403 5344 2034
z
M 1000 2009
Q 1500 1416 1956 803
L 1269 334
Q 788 1072 375 1603
L 1000 2009
z
" transform="scale(0.015625)"/>
    </defs>
    <use xlink:href="#MicrosoftYaHei-Bold-89c4"/>
    <use xlink:href="#MicrosoftYaHei-Bold-6a21" transform="translate(100 0)"/>
    <use xlink:href="#MicrosoftYaHei-Bold-8d8a" transform="translate(200 0)"/>
    <use xlink:href="#MicrosoftYaHei-Bold-5927" transform="translate(300 0)"/>
    <use xlink:href="#MicrosoftYaHei-Bold-ff0c" transform="translate(400 0)"/>
    <use xlink:href="#MicrosoftYaHei-Bold-8fea" transform="translate(500 0)"/>
    <use xlink:href="#MicrosoftYaHei-Bold-5c3c" transform="translate(600 0)"/>
    <use xlink:href="#MicrosoftYaHei-Bold-8328" transform="translate(700 0)"/>
    <use xlink:href="#MicrosoftYaHei-Bold-7b97" transform="translate(800 0)"/>
    <use xlink:href="#MicrosoftYaHei-Bold-6cd5" transform="translate(900 0)"/>
    <use xlink:href="#MicrosoftYaHei-Bold-52a0" transform="translate(1000 0)"/>
    <use xlink:href="#MicrosoftYaHei-Bold-901f" transform="translate(1100 0)"/>
    <use xlink:href="#MicrosoftYaHei-Bold-8d8a" transform="translate(1200 0)"/>
    <use xlink:href="#MicrosoftYaHei-Bold-660e" transform="translate(1300 0)"/>
    <use xlink:href="#MicrosoftYaHei-Bold-663e" transform="translate(1400 0)"/>
   </g>
  </g>
  <g id="text_25">
   <!-- 使用稠密规模实验的配对中位耗时计算；虚线表示两种算法耗时相同。 -->
   <g style="fill: #6f768a" transform="translate(46.176563 37.114062) scale(0.095 -0.095)">
    <defs>
     <path id="MicrosoftYaHei-4f7f" d="M 2269 1247
L 2688 1478
Q 2972 997 3409 644
Q 3634 969 3719 1684
L 2088 1684
L 2088 3403
L 3775 3403
L 3775 4022
L 1775 4022
L 1775 4447
L 3775 4447
L 3775 5291
L 4256 5291
L 4256 4447
L 6275 4447
L 6275 4022
L 4256 4022
L 4256 3403
L 5938 3403
L 5938 1416
L 5463 1416
L 5463 1684
L 4203 1684
Q 4106 813 3825 372
Q 3822 366 3819 363
Q 4788 -203 6325 -297
Q 6138 -566 5981 -816
Q 4472 -631 3488 -3
Q 2941 -488 1881 -866
Q 1738 -666 1556 -447
Q 2572 -128 3081 291
Q 2594 700 2269 1247
z
M 94 2284
Q 931 3553 1394 5316
L 1856 5178
Q 1600 4338 1294 3619
L 1294 -847
L 850 -847
L 850 2697
Q 581 2203 281 1784
Q 188 2047 94 2284
z
M 4238 2103
L 5463 2103
L 5463 2984
L 4256 2984
Q 4256 2741 4238 2103
z
M 3756 2103
Q 3775 2400 3775 2984
L 2563 2984
L 2563 2103
L 3756 2103
z
" transform="scale(0.015625)"/>
     <path id="MicrosoftYaHei-7528" d="M 3088 -734
L 3088 1253
L 1269 1253
Q 1163 -47 513 -903
Q 350 -697 144 -472
Q 550 103 694 803
Q 831 1478 831 2716
L 831 4947
L 5925 4947
L 5925 -22
Q 5925 -766 5219 -766
Q 4788 -766 4250 -747
Q 4219 -541 4156 -228
Q 4700 -266 5038 -266
Q 5425 -266 5425 103
L 5425 1253
L 3588 1253
L 3588 -734
L 3088 -734
z
M 3588 1703
L 5425 1703
L 5425 2872
L 3588 2872
L 3588 1703
z
M 5425 4484
L 3588 4484
L 3588 3322
L 5425 3322
L 5425 4484
z
M 1303 1703
L 3088 1703
L 3088 2872
L 1331 2872
Q 1350 2266 1303 1703
z
M 1331 4484
L 1331 3322
L 3088 3322
L 3088 4484
L 1331 4484
z
" transform="scale(0.015625)"/>
     <path id="MicrosoftYaHei-7a20" d="M 2869 4509
L 2869 1872
Q 2869 159 2125 -853
Q 1969 -622 1800 -453
Q 2438 491 2438 1841
L 2438 4934
L 5994 4934
L 5994 3
Q 5994 -766 5231 -766
Q 4856 -766 4469 -747
Q 4444 -509 4381 -266
Q 4913 -309 5175 -309
Q 5563 -309 5563 97
L 5563 4509
L 2869 4509
z
M 56 966
Q 631 1816 956 3097
L 156 3097
L 156 3522
L 1025 3522
L 1025 4434
Q 669 4397 263 4366
Q 231 4578 175 4809
Q 1269 4859 2138 5022
L 2250 4597
Q 1888 4534 1456 4478
L 1456 3522
L 2263 3522
L 2263 3097
L 1456 3097
L 1456 2391
L 1700 2559
Q 1969 2197 2244 1797
L 1894 1553
Q 1706 1866 1456 2222
L 1456 -866
L 1025 -866
L 1025 2128
Q 706 1084 269 428
Q 169 747 56 966
z
M 3331 1891
L 5075 1891
L 5075 253
L 3750 253
L 3750 -116
L 3331 -116
L 3331 1891
z
M 3038 2791
L 4000 2791
L 4000 3366
L 3206 3366
L 3206 3766
L 4000 3766
L 4000 4359
L 4431 4359
L 4431 3766
L 5206 3766
L 5206 3366
L 4431 3366
L 4431 2791
L 5381 2791
L 5381 2391
L 3038 2391
L 3038 2791
z
M 4650 1491
L 3750 1491
L 3750 653
L 4650 653
L 4650 1491
z
" transform="scale(0.015625)"/>
     <path id="MicrosoftYaHei-5bc6" d="M 63 1622
Q 947 1872 1800 2228
L 1800 3659
L 2244 3659
L 2244 2419
Q 3594 3034 4850 3909
L 5144 3534
Q 3834 2656 2391 1997
Q 2522 1872 2775 1872
L 3975 1872
Q 4350 1872 4425 2084
Q 4506 2291 4550 2753
Q 4756 2666 5025 2572
Q 4931 2091 4888 1953
Q 4756 1441 4094 1441
L 2669 1441
Q 2128 1441 1925 1794
Q 1131 1459 300 1191
Q 197 1419 63 1622
z
M 5063 -809
L 5063 -566
L 850 -566
L 850 1078
L 1325 1078
L 1325 -116
L 2944 -116
L 2944 1322
L 3444 1322
L 3444 -116
L 5063 -116
L 5063 1078
L 5538 1078
L 5538 -809
L 5063 -809
z
M 331 4672
L 3009 4672
Q 2894 4897 2750 5141
L 3213 5359
Q 3406 5041 3569 4672
L 6075 4672
L 6075 3559
L 5569 3559
L 5569 4222
L 838 4222
L 838 3559
L 331 3559
L 331 4672
z
M 1063 3534
L 1500 3366
Q 1206 2684 863 2116
Q 663 2216 406 2316
Q 750 2809 1063 3534
z
M 5075 3053
L 5438 3322
Q 5925 2791 6275 2322
L 5863 2016
Q 5531 2503 5075 3053
z
M 2588 3847
L 2913 4128
Q 3331 3797 3656 3478
L 3294 3141
Q 2938 3528 2588 3847
z
" transform="scale(0.015625)"/>
     <path id="MicrosoftYaHei-89c4" d="M 4006 4047
L 4469 4047
L 4469 3116
Q 4469 2272 4344 1653
L 4756 1653
L 4756 109
Q 4756 -253 5100 -253
L 5406 -253
Q 5719 -253 5756 66
Q 5800 428 5819 903
Q 6113 778 6313 709
Q 6269 266 6219 -84
Q 6119 -691 5494 -691
L 4975 -691
Q 4300 -691 4300 34
L 4300 1459
Q 4019 234 2581 -878
Q 2331 -597 2200 -478
Q 3313 334 3669 1109
Q 4006 1778 4006 3122
L 4006 4047
z
M 138 2559
L 1100 2559
Q 1113 2859 1113 3678
L 219 3678
L 219 4103
L 1113 4103
L 1113 5266
L 1581 5266
L 1581 4103
L 2481 4103
L 2481 3678
L 1581 3678
Q 1581 3216 1569 2559
L 2581 2559
L 2581 2134
L 1544 2134
Q 1538 1934 1513 1728
Q 2106 1178 2788 491
L 2400 128
Q 1938 709 1431 1241
Q 1144 59 394 -822
Q 281 -653 94 -384
Q 1038 791 1075 2134
L 138 2134
L 138 2559
z
M 2763 5003
L 5794 5003
L 5794 1259
L 5331 1259
L 5331 4559
L 3225 4559
L 3225 1172
L 2763 1172
L 2763 5003
z
" transform="scale(0.015625)"/>
     <path id="MicrosoftYaHei-6a21" d="M 2050 984
L 3859 984
Q 3900 1213 3913 1547
L 2950 1547
L 2950 1372
L 2500 1372
L 2500 3634
L 5844 3634
L 5844 1372
L 5394 1372
L 5394 1547
L 4344 1547
Q 4325 1203 4288 984
L 6250 984
L 6250 584
L 4525 584
Q 5203 -175 6319 -341
Q 6144 -572 6013 -809
Q 4803 -456 4128 466
Q 3681 -431 2075 -847
Q 1969 -628 1831 -416
Q 3303 -106 3713 584
L 2050 584
L 2050 984
z
M 63 1409
Q 603 2316 922 3509
L 138 3509
L 138 3922
L 1006 3922
L 1006 5309
L 1444 5309
L 1444 3922
L 2256 3922
L 2256 3509
L 1444 3509
L 1444 2684
L 1688 2884
Q 2044 2503 2350 2116
L 2006 1828
Q 1719 2244 1444 2563
L 1444 -822
L 1006 -822
L 1006 2581
Q 672 1438 275 859
Q 188 1128 63 1409
z
M 4713 5303
L 5150 5303
L 5150 4703
L 6225 4703
L 6225 4303
L 5150 4303
L 5150 3797
L 4713 3797
L 4713 4303
L 3600 4303
L 3600 3797
L 3163 3797
L 3163 4303
L 2175 4303
L 2175 4703
L 3163 4703
L 3163 5309
L 3600 5309
L 3600 4703
L 4713 4703
L 4713 5303
z
M 5394 3247
L 2950 3247
L 2950 2778
L 5394 2778
L 5394 3247
z
M 2950 1934
L 5394 1934
L 5394 2403
L 2950 2403
L 2950 1934
z
" transform="scale(0.015625)"/>
     <path id="MicrosoftYaHei-5b9e" d="M 113 -397
Q 2419 34 3081 972
L 213 972
L 213 1434
L 3313 1434
Q 3525 2084 3506 3703
L 4031 3703
Q 4031 2097 3856 1434
L 6225 1434
L 6225 972
L 3681 972
Q 3631 872 3563 759
Q 4900 197 6181 -403
L 5906 -878
Q 4569 -197 3263 391
Q 2413 -441 413 -891
Q 269 -616 113 -397
z
M 331 4422
L 3194 4422
Q 3038 4703 2775 5078
L 3231 5334
Q 3438 5059 3731 4609
L 3388 4422
L 6063 4422
L 6063 3303
L 5563 3303
L 5563 3959
L 831 3959
L 831 3303
L 331 3303
L 331 4422
z
M 1100 2734
Q 1819 2409 2450 2053
L 2181 1622
Q 1556 2003 863 2334
L 1100 2734
z
M 1663 3691
Q 2388 3341 2981 2984
L 2700 2559
Q 2119 2934 1419 3322
L 1663 3691
z
" transform="scale(0.015625)"/>
     <path id="MicrosoftYaHei-9a8c" d="M 963 4116
L 819 2397
L 1450 2397
L 1613 4503
L 194 4503
L 194 4928
L 2088 4928
L 1894 2397
L 2288 2397
Q 2244 1078 2206 228
Q 2188 -722 1381 -722
Q 1044 -722 588 -703
Q 556 -472 506 -209
Q 956 -266 1306 -266
Q 1744 -266 1769 266
Q 1806 953 1831 1972
L 331 1972
L 531 4116
L 963 4116
z
M 2338 -103
L 4594 -103
Q 5044 1009 5394 2222
L 5869 2072
Q 5500 953 5088 -103
L 6188 -103
L 6188 -534
L 2338 -534
L 2338 -103
z
M 4606 5278
L 4488 5078
Q 5244 3734 6363 3122
Q 6163 2872 6031 2684
Q 4931 3497 4238 4641
Q 3600 3509 2456 2609
Q 2344 2772 2144 3003
Q 3388 3866 4050 5278
L 4606 5278
z
M 2975 2978
L 5550 2978
L 5550 2547
L 2975 2547
L 2975 2978
z
M 3731 2178
L 4175 2297
Q 4438 1359 4606 659
L 4150 528
Q 3969 1391 3731 2178
z
M 2656 1897
L 3094 2034
Q 3400 1147 3606 453
L 3144 297
Q 2938 1097 2656 1897
z
M 38 1034
Q 763 1178 1631 1384
Q 1625 1134 1638 941
Q 925 791 131 572
L 38 1034
z
" transform="scale(0.015625)"/>
     <path id="MicrosoftYaHei-7684" d="M 356 4284
L 988 4284
Q 1219 4853 1369 5322
L 1894 5172
Q 1697 4694 1513 4284
L 2763 4284
L 2763 -691
L 2263 -691
L 2263 -203
L 856 -203
L 856 -734
L 356 -734
L 356 4284
z
M 2856 3003
Q 3444 3934 3850 5322
L 4375 5191
Q 4216 4719 4050 4303
L 6063 4303
Q 5988 1091 5938 259
Q 5894 -722 4906 -722
Q 4338 -722 3750 -684
Q 3713 -372 3650 -128
L 3669 -128
Q 4294 -216 4813 -216
Q 5381 -216 5425 384
Q 5494 1316 5525 3834
L 3850 3834
Q 3578 3231 3288 2772
Q 3119 2891 2856 3003
z
M 856 266
L 2263 266
L 2263 1847
L 856 1847
L 856 266
z
M 2263 3816
L 856 3816
L 856 2297
L 2263 2297
L 2263 3816
z
M 3406 2578
L 3788 2859
Q 4481 2041 4894 1441
L 4431 1116
Q 3988 1841 3406 2578
z
" transform="scale(0.015625)"/>
     <path id="MicrosoftYaHei-914d" d="M 388 3697
L 1244 3697
L 1244 4516
L 194 4516
L 194 4928
L 3506 4928
L 3506 4516
L 2469 4516
L 2469 3697
L 3375 3697
L 3375 -766
L 2956 -766
L 2956 -366
L 806 -366
L 806 -772
L 388 -772
L 388 3697
z
M 3831 2916
L 5488 2916
L 5488 4541
L 3725 4541
L 3725 4978
L 5938 4978
L 5938 2234
L 5488 2234
L 5488 2478
L 4281 2478
L 4281 316
Q 4281 -178 4706 -178
L 5300 -178
Q 5669 -178 5719 191
Q 5800 609 5831 1203
Q 6006 1116 6300 997
Q 6256 491 6169 34
Q 6063 -628 5381 -628
L 4575 -628
Q 3831 -628 3831 253
L 3831 2916
z
M 2069 2291
L 2069 3297
L 1644 3297
L 1644 3047
Q 1644 2047 1125 1391
Q 975 1538 806 1697
L 806 1178
L 2956 1178
L 2956 1778
L 2513 1778
Q 2069 1778 2069 2291
z
M 806 34
L 2956 34
L 2956 784
L 806 784
L 806 34
z
M 2956 3297
L 2469 3297
L 2469 2428
Q 2456 2147 2700 2166
L 2956 2166
L 2956 3297
z
M 806 1738
Q 1244 2234 1244 3078
L 1244 3297
L 806 3297
L 806 1738
z
M 1644 3697
L 2069 3697
L 2069 4516
L 1644 4516
L 1644 3697
z
" transform="scale(0.015625)"/>
     <path id="MicrosoftYaHei-5bf9" d="M 694 3691
Q 1234 2909 1741 2166
Q 2113 3081 2213 4147
L 250 4147
L 250 4622
L 2725 4622
L 2725 4166
Q 2553 2809 2059 1700
Q 2569 953 3044 247
L 2594 -53
Q 2203 563 1803 1181
Q 1247 163 388 -622
Q 263 -428 81 -166
Q 975 638 1500 1647
Q 919 2538 319 3434
L 694 3691
z
M 2975 3941
L 5056 3941
L 5056 5278
L 5563 5278
L 5563 3941
L 6325 3941
L 6325 3466
L 5563 3466
L 5563 191
Q 5563 -716 4669 -716
Q 4388 -716 3744 -709
Q 3713 -478 3644 -147
Q 4263 -197 4588 -197
Q 5056 -197 5056 278
L 5056 3466
L 2975 3466
L 2975 3941
z
M 3088 2684
L 3494 2928
Q 4000 2184 4388 1484
L 3919 1216
Q 3550 1922 3088 2684
z
" transform="scale(0.015625)"/>
     <path id="MicrosoftYaHei-4e2d" d="M 525 3972
L 2931 3972
L 2931 5334
L 3469 5334
L 3469 3972
L 5900 3972
L 5900 1122
L 5388 1122
L 5388 1459
L 3469 1459
L 3469 -866
L 2931 -866
L 2931 1459
L 1038 1459
L 1038 1122
L 525 1122
L 525 3972
z
M 5388 3509
L 3469 3509
L 3469 1922
L 5388 1922
L 5388 3509
z
M 1038 1922
L 2931 1922
L 2931 3509
L 1038 3509
L 1038 1922
z
" transform="scale(0.015625)"/>
     <path id="MicrosoftYaHei-4f4d" d="M 1788 -59
L 4228 -59
Q 4678 1144 5269 3372
L 5831 3203
Q 5453 2044 4756 -59
L 6319 -59
L 6319 -522
L 1788 -522
L 1788 -59
z
M 81 2291
Q 975 3641 1431 5322
L 1963 5191
Q 1703 4397 1406 3709
L 1406 -853
L 938 -853
L 938 2731
Q 644 2181 319 1716
Q 231 1953 81 2291
z
M 1919 4191
L 4122 4191
Q 3844 4659 3506 5059
L 3931 5353
Q 4206 5034 4613 4497
L 4150 4191
L 6206 4191
L 6206 3728
L 1919 3728
L 1919 4191
z
M 2769 3309
Q 3181 2184 3669 584
L 3150 434
Q 2725 1966 2294 3147
L 2769 3309
z
" transform="scale(0.015625)"/>
     <path id="MicrosoftYaHei-8ba1" d="M 2100 3153
L 3919 3153
L 3919 5303
L 4456 5303
L 4456 3153
L 6288 3153
L 6288 2703
L 4456 2703
L 4456 -822
L 3919 -822
L 3919 2703
L 2100 2703
L 2100 3153
z
M 2675 903
Q 2694 578 2719 359
Q 1719 -266 1069 -728
L 769 -303
Q 988 -116 988 266
L 988 2741
L 100 2741
L 100 3191
L 1488 3191
L 1488 153
Q 2031 484 2675 903
z
M 738 5222
Q 1419 4522 1725 4184
L 1288 3816
Q 894 4334 356 4891
L 738 5222
z
" transform="scale(0.015625)"/>
     <path id="MicrosoftYaHei-ff1b" d="M 1606 3531
Q 1772 3531 1890 3415
Q 2009 3300 2009 3138
Q 2009 2975 1893 2858
Q 1778 2741 1606 2741
Q 1434 2741 1318 2858
Q 1203 2975 1203 3138
Q 1203 3300 1322 3415
Q 1441 3531 1606 3531
z
M 1931 775
L 1403 -891
L 966 -891
L 1350 775
L 1931 775
z
" transform="scale(0.015625)"/>
     <path id="MicrosoftYaHei-865a" d="M 1194 3622
L 1194 2128
Q 1194 128 381 -822
Q 219 -628 25 -422
Q 706 409 706 2047
L 706 4047
L 2806 4047
L 2806 5341
L 3306 5341
L 3306 4853
L 5831 4853
L 5831 4441
L 3306 4441
L 3306 4047
L 6156 4047
L 6113 3034
Q 5869 3053 5638 3053
L 5681 3622
L 1194 3622
z
M 1075 -197
L 2681 -197
L 2681 1641
L 3169 1641
L 3169 -197
L 3956 -197
L 3956 1653
L 4444 1653
L 4444 -197
L 6200 -197
L 6200 -622
L 1075 -622
L 1075 -197
z
M 1356 3022
L 2725 3103
L 2725 3522
L 3188 3522
L 3188 3128
L 5063 3241
L 5088 2834
L 3188 2725
L 3188 2566
Q 3188 2284 3563 2284
L 4819 2284
Q 5244 2284 5306 2578
Q 5350 2753 5381 3022
Q 5588 2934 5831 2853
Q 5775 2572 5719 2391
Q 5588 1872 4888 1872
L 3475 1872
Q 2725 1872 2725 2528
L 2725 2697
L 1381 2622
L 1356 3022
z
M 4638 484
Q 5038 953 5388 1528
L 5813 1278
Q 5406 691 5006 203
L 4638 484
z
M 1363 1253
L 1738 1491
Q 2113 1009 2469 453
L 2050 184
Q 1700 772 1363 1253
z
" transform="scale(0.015625)"/>
     <path id="MicrosoftYaHei-7ebf" d="M 1969 -347
Q 3144 75 4003 631
Q 3781 1197 3653 1972
L 2319 1784
L 2244 2234
L 3591 2422
Q 3538 2859 3513 3356
L 2381 3228
L 2306 3678
L 3488 3809
Q 3453 4459 3425 5303
L 3938 5303
Q 3953 4497 3978 3866
L 6069 4103
L 6125 3659
L 3997 3413
Q 4019 2919 4069 2488
L 6225 2791
L 6281 2347
L 4128 2041
Q 4234 1394 4416 916
Q 5078 1416 5519 2009
L 5925 1703
Q 5363 1025 4619 475
Q 4859 44 5194 -184
Q 5606 -428 5725 66
Q 5806 466 5856 953
Q 6144 828 6338 772
Q 6231 97 6125 -247
Q 5944 -778 5506 -778
Q 5050 -778 4663 -403
Q 4409 -163 4209 194
Q 3350 -363 2281 -772
Q 2169 -597 1969 -347
z
M 900 1541
Q 1456 1622 2213 1753
Q 2175 1522 2156 1272
Q 1113 1109 325 978
L 225 1447
Q 659 1913 1178 2775
Q 672 2747 225 2703
L 106 3128
Q 688 3922 1300 5353
L 1775 5166
Q 1131 3897 669 3166
Q 1041 3178 1422 3194
Q 1638 3578 1869 4028
L 2331 3797
Q 1569 2478 900 1541
z
M 106 97
Q 1206 334 2331 616
Q 2313 366 2313 141
Q 1269 -103 244 -378
L 106 97
z
M 4463 4972
L 4731 5284
Q 5175 5003 5681 4609
L 5381 4247
Q 4863 4691 4463 4972
z
" transform="scale(0.015625)"/>
     <path id="MicrosoftYaHei-8868" d="M 5519 1891
L 5863 1459
L 4466 759
Q 5200 159 6306 -34
Q 6094 -309 5956 -534
Q 3941 -53 3066 1944
Q 2747 1538 2338 1172
L 2338 -166
Q 3163 103 3869 397
Q 3863 122 3875 -147
Q 3125 -403 2325 -709
Q 2156 -778 1994 -872
L 1700 -416
Q 1875 -291 1875 -66
L 1875 794
Q 1228 309 406 -84
Q 269 134 88 347
Q 1703 1009 2625 2122
L 156 2122
L 156 2553
L 2956 2553
L 2956 3191
L 600 3191
L 600 3622
L 2956 3622
L 2956 4234
L 350 4234
L 350 4666
L 2956 4666
L 2956 5366
L 3450 5366
L 3450 4666
L 6069 4666
L 6069 4234
L 3450 4234
L 3450 3622
L 5800 3622
L 5800 3191
L 3450 3191
L 3450 2553
L 6244 2553
L 6244 2122
L 3466 2122
Q 3728 1513 4141 1066
Q 4769 1378 5519 1891
z
" transform="scale(0.015625)"/>
     <path id="MicrosoftYaHei-793a" d="M 100 3072
L 6300 3072
L 6300 2603
L 3619 2603
L 3619 78
Q 3619 -703 2800 -709
Q 2366 -709 1825 -703
Q 1788 -447 1731 -128
Q 2225 -178 2663 -178
Q 3088 -178 3088 241
L 3088 2603
L 100 2603
L 100 3072
z
M 675 4916
L 5744 4916
L 5744 4447
L 675 4447
L 675 4916
z
M 4413 1847
L 4831 2128
Q 5600 1184 6319 159
L 5863 -141
Q 5088 991 4413 1847
z
M 1481 2141
L 1938 1884
Q 1281 747 538 -278
Q 344 -134 125 16
Q 825 922 1481 2141
z
" transform="scale(0.015625)"/>
     <path id="MicrosoftYaHei-4e24" d="M 163 4991
L 6238 4991
L 6238 4534
L 4325 4534
Q 4328 4084 4316 3697
L 5856 3697
L 5856 3
Q 5856 -716 5138 -716
Q 4800 -716 4181 -703
Q 4150 -484 4094 -216
Q 4688 -259 4994 -259
Q 5388 -259 5388 122
L 5388 3247
L 4297 3247
Q 4269 2634 4172 2138
Q 4859 1500 5325 966
L 5000 616
Q 4519 1194 4038 1678
Q 3734 834 3050 147
Q 2913 303 2663 484
Q 3844 1559 3844 3247
L 2538 3247
Q 2506 2591 2444 2316
Q 2956 1897 3288 1603
L 3013 1191
Q 2675 1541 2325 1869
Q 2044 1025 1381 334
Q 1231 503 1019 691
Q 2056 1653 2084 3247
L 1000 3247
L 1000 -747
L 531 -747
L 531 3697
L 2103 3697
Q 2116 4091 2113 4534
L 163 4534
L 163 4991
z
M 2556 3697
L 3863 3697
Q 3875 4094 3872 4534
L 2569 4534
Q 2569 4084 2556 3697
z
" transform="scale(0.015625)"/>
     <path id="MicrosoftYaHei-79cd" d="M 2700 4066
L 4113 4066
L 4113 5316
L 4588 5316
L 4588 4066
L 6006 4066
L 6006 1053
L 5556 1053
L 5556 1353
L 4588 1353
L 4588 -841
L 4113 -841
L 4113 1353
L 3150 1353
L 3150 1053
L 2700 1053
L 2700 4066
z
M 88 878
Q 669 1691 1063 2972
L 119 2972
L 119 3416
L 1119 3416
L 1119 4434
Q 738 4403 294 4372
Q 263 4584 200 4828
Q 1475 4897 2425 5034
L 2538 4559
Q 2141 4519 1581 4472
L 1581 3416
L 2475 3416
L 2475 2972
L 1581 2972
L 1581 2159
L 1850 2378
Q 2188 2028 2606 1516
L 2225 1203
Q 1888 1669 1581 2025
L 1581 -828
L 1119 -828
L 1119 1894
Q 791 972 306 341
Q 206 603 88 878
z
M 5556 3634
L 4588 3634
L 4588 1784
L 5556 1784
L 5556 3634
z
M 3150 1784
L 4113 1784
L 4113 3634
L 3150 3634
L 3150 1784
z
" transform="scale(0.015625)"/>
     <path id="MicrosoftYaHei-76f8" d="M 2738 4891
L 6025 4891
L 6025 -822
L 5550 -822
L 5550 -397
L 3213 -397
L 3213 -822
L 2738 -822
L 2738 4891
z
M 94 1409
Q 784 2372 1128 3622
L 169 3622
L 169 4041
L 1138 4041
L 1138 5284
L 1594 5284
L 1594 4041
L 2506 4041
L 2506 3622
L 1594 3622
L 1594 2534
L 1844 2791
Q 2275 2372 2638 1984
L 2300 1653
Q 1956 2059 1594 2444
L 1594 -809
L 1138 -809
L 1138 2444
Q 800 1516 319 866
Q 225 1134 94 1409
z
M 3213 28
L 5550 28
L 5550 1241
L 3213 1241
L 3213 28
z
M 5550 4466
L 3213 4466
L 3213 3266
L 5550 3266
L 5550 4466
z
M 3213 1653
L 5550 1653
L 5550 2853
L 3213 2853
L 3213 1653
z
" transform="scale(0.015625)"/>
     <path id="MicrosoftYaHei-540c" d="M 1013 -772
L 531 -772
L 531 4959
L 5856 4959
L 5856 -47
Q 5856 -741 5125 -741
Q 4669 -741 4088 -716
Q 4056 -497 4000 -216
Q 4619 -272 5025 -272
Q 5375 -272 5375 78
L 5375 4497
L 1013 4497
L 1013 -772
z
M 1875 2566
L 4506 2566
L 4506 597
L 2338 597
L 2338 272
L 1875 272
L 1875 2566
z
M 4044 2116
L 2338 2116
L 2338 1047
L 4044 1047
L 4044 2116
z
M 1363 3734
L 5025 3734
L 5025 3284
L 1363 3284
L 1363 3734
z
" transform="scale(0.015625)"/>
     <path id="MicrosoftYaHei-3002" d="M 1219 863
Q 1525 863 1750 625
Q 1975 388 1975 72
Q 1975 -284 1747 -507
Q 1519 -731 1197 -731
Q 875 -731 642 -503
Q 409 -275 409 66
Q 409 413 656 638
Q 903 863 1219 863
z
M 1209 -275
Q 1328 -275 1431 -184
Q 1534 -94 1534 50
Q 1534 209 1434 304
Q 1334 400 1191 400
Q 1056 400 959 304
Q 863 209 863 53
Q 863 -100 977 -187
Q 1091 -275 1209 -275
z
" transform="scale(0.015625)"/>
    </defs>
    <use xlink:href="#MicrosoftYaHei-4f7f"/>
    <use xlink:href="#MicrosoftYaHei-7528" transform="translate(100 0)"/>
    <use xlink:href="#MicrosoftYaHei-7a20" transform="translate(200 0)"/>
    <use xlink:href="#MicrosoftYaHei-5bc6" transform="translate(300 0)"/>
    <use xlink:href="#MicrosoftYaHei-89c4" transform="translate(400 0)"/>
    <use xlink:href="#MicrosoftYaHei-6a21" transform="translate(500 0)"/>
    <use xlink:href="#MicrosoftYaHei-5b9e" transform="translate(600 0)"/>
    <use xlink:href="#MicrosoftYaHei-9a8c" transform="translate(700 0)"/>
    <use xlink:href="#MicrosoftYaHei-7684" transform="translate(800 0)"/>
    <use xlink:href="#MicrosoftYaHei-914d" transform="translate(900 0)"/>
    <use xlink:href="#MicrosoftYaHei-5bf9" transform="translate(1000 0)"/>
    <use xlink:href="#MicrosoftYaHei-4e2d" transform="translate(1100 0)"/>
    <use xlink:href="#MicrosoftYaHei-4f4d" transform="translate(1200 0)"/>
    <use xlink:href="#MicrosoftYaHei-8017" transform="translate(1300 0)"/>
    <use xlink:href="#MicrosoftYaHei-65f6" transform="translate(1400 0)"/>
    <use xlink:href="#MicrosoftYaHei-8ba1" transform="translate(1500 0)"/>
    <use xlink:href="#MicrosoftYaHei-7b97" transform="translate(1600 0)"/>
    <use xlink:href="#MicrosoftYaHei-ff1b" transform="translate(1700 0)"/>
    <use xlink:href="#MicrosoftYaHei-865a" transform="translate(1800 0)"/>
    <use xlink:href="#MicrosoftYaHei-7ebf" transform="translate(1900 0)"/>
    <use xlink:href="#MicrosoftYaHei-8868" transform="translate(2000 0)"/>
    <use xlink:href="#MicrosoftYaHei-793a" transform="translate(2100 0)"/>
    <use xlink:href="#MicrosoftYaHei-4e24" transform="translate(2200 0)"/>
    <use xlink:href="#MicrosoftYaHei-79cd" transform="translate(2300 0)"/>
    <use xlink:href="#MicrosoftYaHei-7b97" transform="translate(2400 0)"/>
    <use xlink:href="#MicrosoftYaHei-6cd5" transform="translate(2500 0)"/>
    <use xlink:href="#MicrosoftYaHei-8017" transform="translate(2600 0)"/>
    <use xlink:href="#MicrosoftYaHei-65f6" transform="translate(2700 0)"/>
    <use xlink:href="#MicrosoftYaHei-76f8" transform="translate(2800 0)"/>
    <use xlink:href="#MicrosoftYaHei-540c" transform="translate(2900 0)"/>
    <use xlink:href="#MicrosoftYaHei-3002" transform="translate(3000 0)"/>
   </g>
  </g>
 </g>
 <defs>
  <clipPath id="p3fa0541dde">
   <rect x="46.176563" y="85.32" width="665.28" height="299.088"/>
  </clipPath>
 </defs>
</svg>
