<?xml version="1.0" encoding="utf-8" standalone="no"?>
<!DOCTYPE svg PUBLIC "-//W3C//DTD SVG 1.1//EN"
  "http://www.w3.org/Graphics/SVG/1.1/DTD/svg11.dtd">
<svg xmlns:xlink="http://www.w3.org/1999/xlink" width="725.732656pt" height="429.211281pt" viewBox="0 0 725.732656 429.211281" xmlns="http://www.w3.org/2000/svg" version="1.1">
 <metadata>
  <rdf:RDF xmlns:dc="http://purl.org/dc/elements/1.1/" xmlns:cc="http://creativecommons.org/ns#" xmlns:rdf="http://www.w3.org/1999/02/22-rdf-syntax-ns#">
   <cc:Work>
    <dc:type rdf:resource="http://purl.org/dc/dcmitype/StillImage"/>
    <dc:date>2026-06-25T10:19:54.830672</dc:date>
    <dc:format>image/svg+xml</dc:format>
    <dc:creator>
     <cc:Agent>
      <dc:title>Matplotlib v3.10.0, https://matplotlib.org/</dc:title>
     </cc:Agent>
    </dc:creator>
   </cc:Work>
  </rdf:RDF>
 </metadata>
 <defs>
  <style type="text/css">*{stroke-linejoin: round; stroke-linecap: butt}</style>
 </defs>
 <g id="figure_1">
  <g id="patch_1">
   <path d="M 0 429.211281
L 725.732656 429.211281
L 725.732656 0
L 0 0
z
" style="fill: #fcfcfd"/>
  </g>
  <g id="axes_1">
   <g id="patch_2">
    <path d="M 51.095625 384.408
L 716.375625 384.408
L 716.375625 85.32
L 51.095625 85.32
z
" style="fill: #ffffff"/>
   </g>
   <g id="matplotlib.axis_1">
    <g id="xtick_1">
     <g id="line2d_1">
      <path d="M 163.959308 384.408
L 163.959308 85.32
" clip-path="url(#p79052f9564)" style="fill: none; stroke: #e6e8f0; stroke-width: 0.8; stroke-linecap: round"/>
     </g>
     <g id="text_1">
      <!-- $\mathdefault{10^{2}}$ -->
      <g style="fill: #262626" transform="translate(155.049308 402.701125) scale(0.11 -0.11)">
       <defs>
        <path id="MicrosoftYaHei-31" d="M 1781 0
L 1781 4141
Q 1638 3997 1295 3819
Q 953 3641 663 3569
L 663 4169
Q 1047 4275 1484 4508
Q 1922 4741 2156 4947
L 2388 4947
L 2388 0
L 1781 0
z
" transform="scale(0.015625)"/>
        <path id="MicrosoftYaHei-30" d="M 284 2325
Q 284 3606 709 4264
Q 1134 4922 1941 4922
Q 3478 4922 3478 2441
Q 3478 1216 3045 567
Q 2613 -81 1831 -81
Q 1094 -81 689 534
Q 284 1150 284 2325
z
M 909 2353
Q 909 425 1888 425
Q 2850 425 2850 2384
Q 2850 4413 1906 4413
Q 909 4413 909 2353
z
" transform="scale(0.015625)"/>
        <path id="MicrosoftYaHei-32" d="M 2666 3572
Q 2666 3963 2419 4186
Q 2172 4409 1747 4409
Q 1447 4409 1140 4256
Q 834 4103 569 3819
L 569 4413
Q 806 4659 1107 4790
Q 1409 4922 1816 4922
Q 2472 4922 2872 4570
Q 3272 4219 3272 3619
Q 3272 3084 3026 2693
Q 2781 2303 2188 1894
Q 1581 1475 1376 1294
Q 1172 1113 1090 947
Q 1009 781 1009 544
L 3416 544
L 3416 0
L 372 0
L 372 241
Q 372 659 486 951
Q 600 1244 862 1520
Q 1125 1797 1681 2184
Q 2250 2584 2458 2886
Q 2666 3188 2666 3572
z
" transform="scale(0.015625)"/>
       </defs>
       <use xlink:href="#MicrosoftYaHei-31" transform="translate(0 0.365625)"/>
       <use xlink:href="#MicrosoftYaHei-30" transform="translate(58.642578 0.365625)"/>
       <use xlink:href="#MicrosoftYaHei-32" transform="translate(118.230156 38.165625) scale(0.7)"/>
      </g>
     </g>
    </g>
    <g id="xtick_2">
     <g id="line2d_2">
      <path d="M 350.175553 384.408
L 350.175553 85.32
" clip-path="url(#p79052f9564)" style="fill: none; stroke: #e6e8f0; stroke-width: 0.8; stroke-linecap: round"/>
     </g>
     <g id="text_2">
      <!-- $\mathdefault{10^{3}}$ -->
      <g style="fill: #262626" transform="translate(341.265553 402.701125) scale(0.11 -0.11)">
       <defs>
        <path id="MicrosoftYaHei-33" d="M 447 809
Q 944 425 1569 425
Q 2069 425 2361 670
Q 2653 916 2653 1328
Q 2653 2247 1338 2247
L 934 2247
L 934 2753
L 1319 2753
Q 2484 2753 2484 3616
Q 2484 4413 1594 4413
Q 1084 4413 634 4069
L 634 4647
Q 1109 4922 1744 4922
Q 2363 4922 2738 4598
Q 3113 4275 3113 3759
Q 3113 2809 2144 2538
L 2144 2525
Q 2669 2469 2973 2155
Q 3278 1841 3278 1372
Q 3278 719 2808 319
Q 2338 -81 1556 -81
Q 869 -81 447 175
L 447 809
z
" transform="scale(0.015625)"/>
       </defs>
       <use xlink:href="#MicrosoftYaHei-31" transform="translate(0 0.365625)"/>
       <use xlink:href="#MicrosoftYaHei-30" transform="translate(58.642578 0.365625)"/>
       <use xlink:href="#MicrosoftYaHei-33" transform="translate(118.230156 38.165625) scale(0.7)"/>
      </g>
     </g>
    </g>
    <g id="xtick_3">
     <g id="line2d_3">
      <path d="M 536.391799 384.408
L 536.391799 85.32
" clip-path="url(#p79052f9564)" style="fill: none; stroke: #e6e8f0; stroke-width: 0.8; stroke-linecap: round"/>
     </g>
     <g id="text_3">
      <!-- $\mathdefault{10^{4}}$ -->
      <g style="fill: #262626" transform="translate(527.481799 402.701125) scale(0.11 -0.11)">
       <defs>
        <path id="MicrosoftYaHei-34" d="M 2906 4841
L 2906 1644
L 3631 1644
L 3631 1138
L 2906 1138
L 2906 0
L 2313 0
L 2313 1138
L 53 1138
L 53 1616
Q 656 2294 1265 3178
Q 1875 4063 2272 4841
L 2906 4841
z
M 741 1644
L 2313 1644
L 2313 3950
Q 1988 3366 1616 2817
Q 1244 2269 741 1644
z
" transform="scale(0.015625)"/>
       </defs>
       <use xlink:href="#MicrosoftYaHei-31" transform="translate(0 0.251563)"/>
       <use xlink:href="#MicrosoftYaHei-30" transform="translate(58.642578 0.251563)"/>
       <use xlink:href="#MicrosoftYaHei-34" transform="translate(118.230156 38.051563) scale(0.7)"/>
      </g>
     </g>
    </g>
    <g id="xtick_4"/>
    <g id="xtick_5"/>
    <g id="xtick_6"/>
    <g id="xtick_7"/>
    <g id="xtick_8"/>
    <g id="xtick_9"/>
    <g id="xtick_10"/>
    <g id="xtick_11"/>
    <g id="xtick_12"/>
    <g id="xtick_13"/>
    <g id="xtick_14"/>
    <g id="xtick_15"/>
    <g id="xtick_16"/>
    <g id="xtick_17"/>
    <g id="xtick_18"/>
    <g id="xtick_19"/>
    <g id="xtick_20"/>
    <g id="xtick_21"/>
    <g id="xtick_22"/>
    <g id="xtick_23"/>
    <g id="xtick_24"/>
    <g id="xtick_25"/>
    <g id="xtick_26"/>
    <g id="xtick_27"/>
    <g id="xtick_28"/>
    <g id="xtick_29"/>
    <g id="xtick_30"/>
    <g id="xtick_31"/>
    <g id="xtick_32"/>
    <g id="xtick_33"/>
    <g id="xtick_34"/>
    <g id="text_4">
     <!-- 所有目标球队流网络逻辑边总数 -->
     <g style="fill: #1f2430" transform="translate(299.735625 419.028156) scale(0.12 -0.12)">
      <defs>
       <path id="MicrosoftYaHei-6240" d="M 638 4853
Q 1675 4872 2806 5109
L 2969 4641
Q 2044 4503 1088 4434
L 1088 3466
L 2725 3466
L 2725 1159
L 2288 1159
L 2288 1434
L 1063 1434
Q 959 3 406 -834
Q 238 -628 63 -453
Q 638 334 638 2134
L 638 4853
z
M 3325 4816
Q 4813 4872 6031 5091
L 6200 4616
Q 4638 4441 3788 4391
L 3788 2997
L 6319 2997
L 6319 2566
L 5350 2566
L 5350 -809
L 4881 -809
L 4881 2566
L 3788 2566
L 3788 2216
Q 3788 247 2694 -878
Q 2513 -666 2338 -466
Q 3325 547 3325 2228
L 3325 4816
z
M 2288 1847
L 2288 3053
L 1088 3053
Q 1088 2122 1084 1847
L 2288 1847
z
" transform="scale(0.015625)"/>
       <path id="MicrosoftYaHei-6709" d="M 1856 -816
L 1363 -816
L 1363 2419
Q 909 1891 363 1403
Q 231 1622 63 1859
Q 1269 2869 1947 4097
L 238 4097
L 238 4559
L 2181 4559
Q 2359 4950 2488 5359
L 3006 5241
Q 2881 4894 2731 4559
L 6263 4559
L 6263 4097
L 2506 4097
Q 2313 3728 2081 3378
L 5506 3378
L 5506 41
Q 5506 -734 4750 -734
Q 4419 -741 3744 -741
Q 3713 -528 3650 -228
Q 4225 -272 4575 -272
Q 5006 -272 5006 153
L 5006 597
L 1856 597
L 1856 -816
z
M 1856 1022
L 5006 1022
L 5006 1772
L 1856 1772
L 1856 1022
z
M 5006 2941
L 1856 2941
L 1856 2197
L 5006 2197
L 5006 2941
z
" transform="scale(0.015625)"/>
       <path id="MicrosoftYaHei-76ee" d="M 944 5016
L 5469 5016
L 5469 -772
L 4938 -772
L 4938 -303
L 1475 -303
L 1475 -772
L 944 -772
L 944 5016
z
M 1475 1341
L 1475 159
L 4938 159
L 4938 1341
L 1475 1341
z
M 1475 2947
L 1475 1778
L 4938 1778
L 4938 2947
L 1475 2947
z
M 1475 4553
L 1475 3384
L 4938 3384
L 4938 4553
L 1475 4553
z
" transform="scale(0.015625)"/>
       <path id="MicrosoftYaHei-6807" d="M 75 1409
Q 769 2478 1025 3647
L 119 3647
L 119 4072
L 1069 4072
L 1069 5297
L 1506 5297
L 1506 4072
L 2356 4072
L 2356 3647
L 1506 3647
L 1506 2541
L 1775 2822
Q 2175 2478 2481 2159
L 2150 1816
Q 1850 2156 1506 2503
L 1506 -797
L 1069 -797
L 1069 2588
Q 738 1513 281 859
Q 194 1128 75 1409
z
M 2350 3097
L 6250 3097
L 6250 2659
L 4525 2659
L 4525 47
Q 4525 -734 3806 -734
Q 3469 -741 2975 -728
Q 2944 -503 2888 -209
Q 3319 -259 3675 -259
Q 4050 -259 4050 203
L 4050 2659
L 2350 2659
L 2350 3097
z
M 2638 4928
L 5963 4928
L 5963 4491
L 2638 4491
L 2638 4928
z
M 4938 1853
L 5381 2066
Q 5975 928 6369 72
L 5869 -147
Q 5463 822 4938 1853
z
M 2931 2066
L 3400 1878
Q 2888 734 2381 -153
Q 2188 -41 1925 66
Q 2425 872 2931 2066
z
" transform="scale(0.015625)"/>
       <path id="MicrosoftYaHei-7403" d="M 2244 766
Q 3059 1263 3950 1872
L 3950 3691
L 2350 3691
L 2350 4141
L 3950 4141
L 3950 5253
L 4425 5253
L 4425 4141
L 6200 4141
L 6200 3691
L 4425 3691
L 4425 3134
Q 4581 2622 4791 2184
Q 5331 2709 5694 3153
L 6100 2809
Q 5584 2300 5003 1778
Q 5547 838 6356 322
Q 6319 266 6194 128
Q 6056 -16 6000 -97
Q 4975 644 4425 2034
L 4425 16
Q 4425 -728 3650 -728
Q 3344 -728 2994 -722
Q 2956 -484 2894 -209
Q 3263 -253 3563 -253
Q 3950 -253 3950 128
L 3950 1319
Q 3303 869 2556 316
L 2244 766
z
M 94 359
Q 516 403 981 463
L 981 2353
L 213 2353
L 213 2803
L 981 2803
L 981 4272
L 131 4272
L 131 4722
L 2269 4722
L 2269 4272
L 1438 4272
L 1438 2803
L 2163 2803
L 2163 2353
L 1438 2353
L 1438 522
Q 1813 575 2213 634
Q 2188 384 2181 153
Q 1013 3 156 -128
L 94 359
z
M 2381 3022
L 2763 3253
Q 3169 2722 3569 2078
L 3169 1803
Q 2738 2534 2381 3022
z
M 4763 4884
L 5038 5197
Q 5481 4903 5850 4591
L 5550 4247
Q 5181 4591 4763 4884
z
" transform="scale(0.015625)"/>
       <path id="MicrosoftYaHei-961f" d="M 2456 1728
Q 2663 603 1831 466
Q 1575 422 1163 459
Q 1113 716 1019 997
Q 1369 916 1625 947
Q 2125 997 1931 1747
Q 1819 2266 1338 2866
Q 1688 3772 1931 4566
L 913 4566
L 913 -841
L 419 -841
L 419 5003
L 2469 5003
L 2469 4566
Q 2144 3609 1869 2947
Q 2381 2272 2456 1728
z
M 3738 5253
L 4250 5253
Q 4244 4366 4228 3656
Q 4584 794 6325 -228
Q 6094 -478 5913 -709
Q 4522 291 4056 2316
Q 3703 409 2094 -822
Q 1950 -647 1725 -422
Q 3688 972 3725 3697
Q 3738 4216 3738 5253
z
" transform="scale(0.015625)"/>
       <path id="MicrosoftYaHei-6d41" d="M 5013 3741
Q 5500 3178 6094 2372
Q 5863 2228 5644 2078
Q 5488 2306 5341 2516
Q 3806 2447 2519 2378
Q 2319 2372 2019 2303
L 1806 2772
Q 2038 2891 2244 3059
Q 2728 3472 3206 4078
L 1819 4078
L 1819 4522
L 3803 4522
Q 3566 4891 3350 5166
L 3763 5422
Q 3994 5128 4288 4734
L 3963 4522
L 6088 4522
L 6088 4078
L 3325 4078
L 3738 3903
Q 3156 3278 2650 2853
Q 3659 2884 5041 2934
Q 4822 3228 4625 3478
L 5013 3741
z
M 4681 2109
L 5150 2109
L 5150 16
Q 5150 -272 5375 -272
L 5594 -272
Q 5788 -272 5838 47
Q 5881 384 5894 834
Q 6113 734 6363 653
Q 6319 128 6269 -153
Q 6194 -709 5675 -709
L 5288 -709
Q 4681 -709 4681 22
L 4681 2109
z
M 2306 2084
L 2781 2084
Q 2781 716 2525 166
Q 2269 -441 1488 -866
Q 1344 -634 1169 -453
Q 1881 -78 2075 409
Q 2306 884 2306 2084
z
M 275 -616
Q 650 484 925 1809
Q 1200 1691 1431 1616
Q 1150 534 825 -784
L 275 -616
z
M 3538 2084
L 4006 2084
L 4006 -703
L 3538 -703
L 3538 2084
z
M 81 3247
L 394 3609
Q 900 3259 1456 2803
Q 1231 2541 1094 2397
Q 444 2978 81 3247
z
M 325 4878
L 644 5209
Q 1100 4847 1663 4347
L 1294 3978
Q 775 4503 325 4878
z
" transform="scale(0.015625)"/>
       <path id="MicrosoftYaHei-7f51" d="M 1075 3641
L 1444 3834
Q 1816 3244 2184 2628
Q 2488 3281 2706 3928
L 3131 3772
Q 2822 2931 2450 2175
Q 2809 1563 3163 922
L 2738 697
Q 2478 1191 2203 1691
Q 1819 969 1375 328
L 1000 544
L 1000 -759
L 531 -759
L 531 4953
L 5856 4953
L 5856 -59
Q 5856 -728 5138 -728
Q 4738 -728 4181 -716
Q 4150 -516 4094 -228
Q 4619 -272 4988 -272
Q 5388 -272 5388 72
L 5388 4503
L 1000 4503
L 1000 572
Q 1538 1363 1947 2150
Q 1531 2891 1075 3641
z
M 3156 3341
L 3519 3553
Q 3831 3047 4166 2481
Q 4525 3197 4775 3891
L 5200 3728
Q 4847 2838 4428 2028
Q 4822 1353 5244 597
L 4825 359
Q 4513 953 4175 1559
Q 3788 866 3350 241
L 2969 484
Q 3506 1263 3919 2016
Q 3553 2672 3156 3341
z
" transform="scale(0.015625)"/>
       <path id="MicrosoftYaHei-7edc" d="M 2244 3241
Q 3013 4303 3394 5366
L 3863 5209
Q 3741 4922 3609 4653
L 5844 4653
L 5844 4209
Q 5391 3431 4694 2831
Q 5297 2463 6313 2166
Q 6188 1947 6063 1628
Q 5028 1988 4294 2528
Q 3453 1941 2431 1553
Q 2300 1766 2131 1991
Q 3091 2316 3906 2853
Q 3441 3291 3166 3813
Q 2881 3328 2569 2909
Q 2450 3047 2244 3241
z
M 2725 1584
L 5813 1584
L 5813 -847
L 5331 -847
L 5331 -534
L 3206 -534
L 3206 -847
L 2725 -847
L 2725 1584
z
M 900 1616
Q 1550 1678 2131 1759
Q 2106 1478 2088 1334
Q 981 1197 350 1103
L 250 1559
Q 609 1822 1256 2941
Q 659 2900 288 2866
L 163 3278
Q 763 4197 1181 5297
L 1669 5122
Q 1250 4228 694 3316
Q 941 3316 1475 3328
Q 1703 3741 1963 4247
L 2425 4047
Q 1675 2716 900 1616
z
M 5331 1134
L 3206 1134
L 3206 -84
L 5331 -84
L 5331 1134
z
M 5275 4228
L 3419 4228
Q 3756 3584 4284 3125
Q 4888 3609 5275 4228
z
M 163 153
Q 1200 353 2325 616
Q 2300 316 2300 141
Q 1300 -84 300 -341
L 163 153
z
" transform="scale(0.015625)"/>
       <path id="MicrosoftYaHei-903b" d="M 3050 1728
Q 3622 1375 4053 1072
Q 4688 1503 5138 2116
L 3016 2116
Q 2488 1469 1850 972
Q 1725 1147 1563 1353
Q 2606 2153 3150 3128
L 3606 2934
Q 3478 2731 3341 2541
L 5713 2541
L 5713 2097
Q 4703 469 2334 -169
Q 2484 -191 2656 -191
L 4094 -222
L 6300 -166
Q 6231 -372 6125 -659
L 3844 -672
L 2606 -634
Q 1506 -647 1081 91
Q 825 -147 331 -747
L 75 -228
Q 628 306 875 538
L 875 2641
L 131 2641
L 131 3103
L 1356 3103
L 1356 434
Q 1641 -22 2206 -144
Q 2125 28 2006 241
Q 2909 431 3616 809
Q 3191 1131 2769 1416
L 3050 1728
z
M 1925 5053
L 5950 5053
L 5950 2966
L 5513 2966
L 5513 3153
L 2363 3153
L 2363 2966
L 1925 2966
L 1925 5053
z
M 5513 4647
L 4744 4647
L 4744 3559
L 5513 3559
L 5513 4647
z
M 3550 3559
L 4319 3559
L 4319 4647
L 3550 4647
L 3550 3559
z
M 2363 3559
L 3125 3559
L 3125 4647
L 2363 4647
L 2363 3559
z
M 813 5197
Q 1244 4666 1625 4128
L 1181 3816
Q 825 4391 413 4928
L 813 5197
z
" transform="scale(0.015625)"/>
       <path id="MicrosoftYaHei-8f91" d="M 2281 228
Q 2559 241 2850 250
L 2850 2759
L 2469 2759
L 2469 3147
L 6231 3147
L 6231 2759
L 5819 2759
L 5819 400
Q 6066 413 6319 428
Q 6288 184 6275 16
Q 6050 6 5819 0
L 5819 -841
L 5381 -841
L 5381 -19
Q 3991 -81 2313 -184
L 2281 228
z
M 681 2241
L 1350 2241
L 1350 3622
L 1763 3622
L 1763 2241
L 2494 2241
L 2494 1828
L 1763 1828
L 1763 969
Q 2188 1019 2606 1078
Q 2575 841 2563 647
Q 2181 603 1763 550
L 1763 -841
L 1350 -841
L 1350 497
Q 772 422 131 334
L 81 791
Q 722 850 1350 919
L 1350 1828
L 225 1828
L 225 2222
Q 572 3181 809 3941
L 156 3941
L 156 4347
L 934 4347
Q 1100 4913 1194 5347
L 1675 5247
Q 1572 4891 1394 4347
L 2544 4347
L 2544 3941
L 1263 3941
Q 1025 3222 681 2241
z
M 2794 5041
L 5875 5041
L 5875 3422
L 5444 3422
L 5444 3647
L 3231 3647
L 3231 3422
L 2794 3422
L 2794 5041
z
M 5444 4672
L 3231 4672
L 3231 4016
L 5444 4016
L 5444 4672
z
M 5381 375
L 5381 903
L 3288 903
L 3288 272
Q 4266 319 5381 375
z
M 3288 1266
L 5381 1266
L 5381 1834
L 3288 1834
L 3288 1266
z
M 3288 2197
L 5381 2197
L 5381 2759
L 3288 2759
L 3288 2197
z
" transform="scale(0.015625)"/>
       <path id="MicrosoftYaHei-8fb9" d="M 2050 4172
L 3291 4172
Q 3306 4772 3306 5291
L 3831 5291
Q 3825 4788 3806 4172
L 5925 4172
Q 5850 2334 5781 1441
Q 5694 372 4819 372
Q 4363 372 3831 397
Q 3794 653 3738 959
Q 4344 897 4681 897
Q 5219 897 5275 1503
Q 5350 2372 5394 3697
L 3791 3697
Q 3744 1225 2044 259
Q 1894 447 1681 672
Q 3219 1528 3278 3697
L 2050 3697
L 2050 4172
z
M 2909 -153
L 4425 -172
L 6313 -109
Q 6206 -366 6113 -609
L 4356 -634
L 2897 -619
Q 1644 -597 1156 122
Q 775 -209 369 -697
L 100 -166
Q 609 275 931 550
L 931 2678
L 131 2678
L 131 3134
L 1431 3134
L 1431 456
Q 1894 -125 2909 -153
z
M 794 5266
Q 1175 4803 1656 4147
Q 1431 4016 1206 3853
Q 819 4453 406 4997
L 794 5266
z
" transform="scale(0.015625)"/>
       <path id="MicrosoftYaHei-603b" d="M 900 4253
L 3631 4253
Q 4022 4822 4331 5353
L 4813 5103
Q 4500 4675 4175 4253
L 5500 4253
L 5500 1703
L 5000 1703
L 5000 1978
L 1400 1978
L 1400 1703
L 900 1703
L 900 4253
z
M 5000 3803
L 1400 3803
L 1400 2428
L 5000 2428
L 5000 3803
z
M 1694 1378
L 2181 1378
L 2181 284
Q 2181 -203 2619 -203
L 3875 -203
Q 4244 -203 4338 172
Q 4394 366 4450 872
Q 4631 791 4931 684
Q 4850 209 4750 -97
Q 4556 -641 3900 -641
L 2519 -641
Q 1694 -641 1694 197
L 1694 1378
z
M 719 1422
L 1188 1272
Q 931 491 538 -334
Q 338 -247 81 -134
Q 444 597 719 1422
z
M 4881 1203
L 5238 1478
Q 5813 841 6319 197
L 5900 -134
Q 5456 491 4881 1203
z
M 2663 1591
L 3044 1841
Q 3488 1372 3863 841
L 3444 547
Q 3069 1109 2663 1591
z
M 1594 5109
L 1975 5353
Q 2350 4959 2650 4541
L 2225 4266
Q 1956 4653 1594 5109
z
" transform="scale(0.015625)"/>
       <path id="MicrosoftYaHei-6570" d="M 4175 5303
L 4675 5228
Q 4544 4622 4369 4097
L 6281 4097
L 6281 3672
L 5888 3672
Q 5731 1834 5088 753
Q 5594 66 6375 -372
Q 6175 -647 6038 -866
Q 5275 -372 4769 309
Q 4194 -403 3400 -928
Q 3263 -747 3044 -534
Q 3919 41 4463 772
Q 3956 1647 3794 2791
Q 3663 2559 3519 2359
Q 3394 2541 3206 2759
Q 3931 3803 4175 5303
z
M 150 1697
L 1100 1697
Q 1238 1934 1369 2184
L 1819 2041
Q 1719 1866 1619 1697
L 3150 1697
L 3150 1291
Q 2913 678 2431 216
Q 2775 53 3131 -109
L 2856 -541
Q 2469 -322 2050 -103
Q 1344 -609 269 -903
Q 169 -703 56 -466
Q 969 -259 1600 128
Q 1063 403 475 691
Q 675 978 863 1284
L 150 1284
L 150 1697
z
M 219 3847
L 1656 3847
L 1656 5247
L 2119 5247
L 2119 3847
L 3319 3847
L 3319 3434
L 2119 3434
L 2119 3053
L 2306 3266
Q 2888 2841 3281 2516
L 2981 2166
Q 2638 2491 2119 2897
L 2119 2184
L 1656 2184
L 1656 3059
Q 1088 2466 331 2016
Q 213 2197 63 2397
Q 850 2822 1506 3434
L 219 3434
L 219 3847
z
M 5388 3672
L 4219 3672
Q 4188 3591 4150 3516
Q 4263 2191 4775 1247
Q 5275 2159 5388 3672
z
M 1088 834
Q 1531 634 2000 416
Q 2431 784 2675 1284
L 1375 1284
Q 1231 1053 1088 834
z
M 3038 5091
L 3425 4834
Q 3081 4384 2738 4003
Q 2594 4128 2400 4266
Q 2725 4647 3038 5091
z
M 381 4816
L 738 5059
Q 1019 4716 1319 4322
L 931 4047
Q 656 4453 381 4816
z
" transform="scale(0.015625)"/>
      </defs>
      <use xlink:href="#MicrosoftYaHei-6240"/>
      <use xlink:href="#MicrosoftYaHei-6709" transform="translate(100 0)"/>
      <use xlink:href="#MicrosoftYaHei-76ee" transform="translate(200 0)"/>
      <use xlink:href="#MicrosoftYaHei-6807" transform="translate(300 0)"/>
      <use xlink:href="#MicrosoftYaHei-7403" transform="translate(400 0)"/>
      <use xlink:href="#MicrosoftYaHei-961f" transform="translate(500 0)"/>
      <use xlink:href="#MicrosoftYaHei-6d41" transform="translate(600 0)"/>
      <use xlink:href="#MicrosoftYaHei-7f51" transform="translate(700 0)"/>
      <use xlink:href="#MicrosoftYaHei-7edc" transform="translate(800 0)"/>
      <use xlink:href="#MicrosoftYaHei-903b" transform="translate(900 0)"/>
      <use xlink:href="#MicrosoftYaHei-8f91" transform="translate(1000 0)"/>
      <use xlink:href="#MicrosoftYaHei-8fb9" transform="translate(1100 0)"/>
      <use xlink:href="#MicrosoftYaHei-603b" transform="translate(1200 0)"/>
      <use xlink:href="#MicrosoftYaHei-6570" transform="translate(1300 0)"/>
     </g>
    </g>
   </g>
   <g id="matplotlib.axis_2">
    <g id="ytick_1">
     <g id="line2d_4">
      <path d="M 51.095625 331.643476
L 716.375625 331.643476
" clip-path="url(#p79052f9564)" style="fill: none; stroke: #e6e8f0; stroke-width: 0.8; stroke-linecap: round"/>
     </g>
     <g id="text_5">
      <!-- $\mathdefault{10^{0}}$ -->
      <g style="fill: #262626" transform="translate(23.775625 336.040039) scale(0.11 -0.11)">
       <use xlink:href="#MicrosoftYaHei-31" transform="translate(0 0.365625)"/>
       <use xlink:href="#MicrosoftYaHei-30" transform="translate(58.642578 0.365625)"/>
       <use xlink:href="#MicrosoftYaHei-30" transform="translate(118.230156 38.165625) scale(0.7)"/>
      </g>
     </g>
    </g>
    <g id="ytick_2">
     <g id="line2d_5">
      <path d="M 51.095625 262.134563
L 716.375625 262.134563
" clip-path="url(#p79052f9564)" style="fill: none; stroke: #e6e8f0; stroke-width: 0.8; stroke-linecap: round"/>
     </g>
     <g id="text_6">
      <!-- $\mathdefault{10^{1}}$ -->
      <g style="fill: #262626" transform="translate(23.775625 266.531126) scale(0.11 -0.11)">
       <use xlink:href="#MicrosoftYaHei-31" transform="translate(0 0.092188)"/>
       <use xlink:href="#MicrosoftYaHei-30" transform="translate(58.642578 0.092188)"/>
       <use xlink:href="#MicrosoftYaHei-31" transform="translate(118.230156 37.892188) scale(0.7)"/>
      </g>
     </g>
    </g>
    <g id="ytick_3">
     <g id="line2d_6">
      <path d="M 51.095625 192.62565
L 716.375625 192.62565
" clip-path="url(#p79052f9564)" style="fill: none; stroke: #e6e8f0; stroke-width: 0.8; stroke-linecap: round"/>
     </g>
     <g id="text_7">
      <!-- $\mathdefault{10^{2}}$ -->
      <g style="fill: #262626" transform="translate(23.775625 197.022213) scale(0.11 -0.11)">
       <use xlink:href="#MicrosoftYaHei-31" transform="translate(0 0.365625)"/>
       <use xlink:href="#MicrosoftYaHei-30" transform="translate(58.642578 0.365625)"/>
       <use xlink:href="#MicrosoftYaHei-32" transform="translate(118.230156 38.165625) scale(0.7)"/>
      </g>
     </g>
    </g>
    <g id="ytick_4">
     <g id="line2d_7">
      <path d="M 51.095625 123.116737
L 716.375625 123.116737
" clip-path="url(#p79052f9564)" style="fill: none; stroke: #e6e8f0; stroke-width: 0.8; stroke-linecap: round"/>
     </g>
     <g id="text_8">
      <!-- $\mathdefault{10^{3}}$ -->
      <g style="fill: #262626" transform="translate(23.775625 127.5133) scale(0.11 -0.11)">
       <use xlink:href="#MicrosoftYaHei-31" transform="translate(0 0.365625)"/>
       <use xlink:href="#MicrosoftYaHei-30" transform="translate(58.642578 0.365625)"/>
       <use xlink:href="#MicrosoftYaHei-33" transform="translate(118.230156 38.165625) scale(0.7)"/>
      </g>
     </g>
    </g>
    <g id="ytick_5"/>
    <g id="ytick_6"/>
    <g id="ytick_7"/>
    <g id="ytick_8"/>
    <g id="ytick_9"/>
    <g id="ytick_10"/>
    <g id="ytick_11"/>
    <g id="ytick_12"/>
    <g id="ytick_13"/>
    <g id="ytick_14"/>
    <g id="ytick_15"/>
    <g id="ytick_16"/>
    <g id="ytick_17"/>
    <g id="ytick_18"/>
    <g id="ytick_19"/>
    <g id="ytick_20"/>
    <g id="ytick_21"/>
    <g id="ytick_22"/>
    <g id="ytick_23"/>
    <g id="ytick_24"/>
    <g id="ytick_25"/>
    <g id="ytick_26"/>
    <g id="ytick_27"/>
    <g id="ytick_28"/>
    <g id="ytick_29"/>
    <g id="ytick_30"/>
    <g id="ytick_31"/>
    <g id="ytick_32"/>
    <g id="ytick_33"/>
    <g id="ytick_34"/>
    <g id="ytick_35"/>
    <g id="ytick_36"/>
    <g id="ytick_37"/>
    <g id="ytick_38"/>
    <g id="text_9">
     <!-- 中位运行时间（毫秒） -->
     <g style="fill: #1f2430" transform="translate(16.7925 294.864) rotate(-90) scale(0.12 -0.12)">
      <defs>
       <path id="MicrosoftYaHei-4e2d" d="M 525 3972
L 2931 3972
L 2931 5334
L 3469 5334
L 3469 3972
L 5900 3972
L 5900 1122
L 5388 1122
L 5388 1459
L 3469 1459
L 3469 -866
L 2931 -866
L 2931 1459
L 1038 1459
L 1038 1122
L 525 1122
L 525 3972
z
M 5388 3509
L 3469 3509
L 3469 1922
L 5388 1922
L 5388 3509
z
M 1038 1922
L 2931 1922
L 2931 3509
L 1038 3509
L 1038 1922
z
" transform="scale(0.015625)"/>
       <path id="MicrosoftYaHei-4f4d" d="M 1788 -59
L 4228 -59
Q 4678 1144 5269 3372
L 5831 3203
Q 5453 2044 4756 -59
L 6319 -59
L 6319 -522
L 1788 -522
L 1788 -59
z
M 81 2291
Q 975 3641 1431 5322
L 1963 5191
Q 1703 4397 1406 3709
L 1406 -853
L 938 -853
L 938 2731
Q 644 2181 319 1716
Q 231 1953 81 2291
z
M 1919 4191
L 4122 4191
Q 3844 4659 3506 5059
L 3931 5353
Q 4206 5034 4613 4497
L 4150 4191
L 6206 4191
L 6206 3728
L 1919 3728
L 1919 4191
z
M 2769 3309
Q 3181 2184 3669 584
L 3150 434
Q 2725 1966 2294 3147
L 2769 3309
z
" transform="scale(0.015625)"/>
       <path id="MicrosoftYaHei-8fd0" d="M 4319 2197
L 4713 2447
Q 5419 1522 5963 666
L 5513 359
Q 5372 597 5225 834
Q 3450 722 2681 622
Q 2469 591 2238 516
L 2006 966
Q 2250 1134 2413 1366
Q 2838 2009 3250 2859
L 1919 2859
L 1919 3334
L 6200 3334
L 6200 2859
L 3844 2859
Q 3303 1866 2800 1116
Q 3750 1172 4959 1253
Q 4650 1731 4319 2197
z
M 2756 -141
L 4588 -178
L 6313 -109
Q 6206 -366 6113 -609
L 4250 -622
L 2650 -603
Q 1656 -578 1156 122
Q 769 -209 369 -697
L 100 -166
Q 116 -147 931 547
L 931 2678
L 131 2678
L 131 3141
L 1431 3141
L 1431 459
Q 1903 -125 2756 -141
z
M 2338 4947
L 5838 4947
L 5838 4472
L 2338 4472
L 2338 4947
z
M 794 5278
Q 1275 4697 1744 4078
L 1300 3778
Q 881 4403 413 5003
L 794 5278
z
" transform="scale(0.015625)"/>
       <path id="MicrosoftYaHei-884c" d="M 2363 2978
L 6319 2978
L 6319 2509
L 5106 2509
L 5106 66
Q 5106 -709 4325 -709
Q 3800 -709 3256 -703
Q 3219 -453 3163 -141
Q 3650 -191 4144 -191
Q 4575 -191 4575 234
L 4575 2509
L 2363 2509
L 2363 2978
z
M 100 1578
Q 1069 2372 1863 3809
L 2300 3541
Q 1978 2984 1619 2500
L 1619 -809
L 1100 -809
L 1100 1856
Q 725 1431 319 1072
Q 219 1334 100 1578
z
M 2725 4866
L 5969 4866
L 5969 4397
L 2725 4397
L 2725 4866
z
M 131 3559
Q 1125 4328 1731 5347
L 2181 5072
Q 1456 3959 381 3078
Q 269 3316 131 3559
z
" transform="scale(0.015625)"/>
       <path id="MicrosoftYaHei-65f6" d="M 344 4728
L 2500 4728
L 2500 -366
L 2006 -366
L 2006 153
L 838 153
L 838 -441
L 344 -441
L 344 4728
z
M 2706 3941
L 4925 3941
L 4925 5322
L 5425 5322
L 5425 3941
L 6313 3941
L 6313 3478
L 5425 3478
L 5425 116
Q 5425 -722 4625 -722
Q 4263 -722 3563 -703
Q 3531 -478 3463 -178
Q 4119 -228 4488 -228
Q 4925 -228 4925 216
L 4925 3478
L 2706 3478
L 2706 3941
z
M 838 616
L 2006 616
L 2006 2234
L 838 2234
L 838 616
z
M 2006 4266
L 838 4266
L 838 2684
L 2006 2684
L 2006 4266
z
M 3406 2878
Q 3906 1966 4163 1422
Q 4000 1347 3663 1172
Q 3419 1766 2963 2653
L 3406 2878
z
" transform="scale(0.015625)"/>
       <path id="MicrosoftYaHei-95f4" d="M 1863 3647
L 4513 3647
L 4513 553
L 2313 553
L 2313 166
L 1863 166
L 1863 3647
z
M 2388 4453
L 2388 4922
L 6013 4922
L 6013 -28
Q 6013 -816 5119 -816
Q 4756 -816 4169 -803
Q 4144 -616 4069 -297
Q 4588 -334 5056 -334
Q 5525 -334 5525 122
L 5525 4453
L 2388 4453
z
M 419 4084
L 906 4084
L 906 -816
L 419 -816
L 419 4084
z
M 2313 997
L 4063 997
L 4063 1884
L 2313 1884
L 2313 997
z
M 4063 3203
L 2313 3203
L 2313 2328
L 4063 2328
L 4063 3203
z
M 744 5003
L 1100 5322
Q 1575 4872 1981 4447
L 1575 4091
Q 1194 4541 744 5003
z
" transform="scale(0.015625)"/>
       <path id="MicrosoftYaHei-ff08" d="M 5288 -1100
Q 4172 119 4172 1850
Q 4172 3603 5288 4838
L 5825 4838
Q 4716 3572 4716 1856
Q 4716 166 5819 -1100
L 5288 -1100
z
" transform="scale(0.015625)"/>
       <path id="MicrosoftYaHei-6beb" d="M 238 -47
L 194 297
L 2763 469
L 2763 847
L 781 709
L 738 1066
L 2763 1200
L 2763 1559
Q 1875 1506 1056 1472
Q 1031 1591 975 1822
Q 3006 1909 5106 2078
L 5231 1734
Q 4181 1650 3213 1588
L 3213 1228
L 5425 1378
L 5456 1034
L 3213 878
L 3213 497
L 6188 697
L 6225 347
L 3213 147
L 3213 53
Q 3213 -309 3575 -309
L 5200 -309
Q 5463 -309 5525 -153
Q 5575 -22 5619 247
Q 5850 134 6056 84
Q 5950 -428 5788 -559
Q 5631 -703 5163 -703
L 3394 -703
Q 2763 -703 2763 -47
L 2763 119
L 238 -47
z
M 1131 4047
L 5269 4047
L 5269 2853
L 4819 2853
L 4819 2972
L 1581 2972
L 1581 2853
L 1131 2853
L 1131 4047
z
M 350 2628
L 6063 2628
L 6063 1666
L 5606 1666
L 5606 2253
L 806 2253
L 806 1666
L 350 1666
L 350 2628
z
M 213 4747
L 3016 4747
Q 2894 4972 2794 5153
L 3244 5366
Q 3381 5113 3563 4747
L 6200 4747
L 6200 4372
L 213 4372
L 213 4747
z
M 4819 3709
L 1581 3709
L 1581 3309
L 4819 3309
L 4819 3709
z
" transform="scale(0.015625)"/>
       <path id="MicrosoftYaHei-79d2" d="M 44 903
Q 616 1744 978 3059
L 113 3059
L 113 3484
L 1100 3484
L 1100 4456
Q 703 4400 281 4353
Q 231 4566 150 4784
Q 1244 4878 2344 5128
L 2481 4691
Q 2041 4603 1563 4525
L 1563 3484
L 2438 3484
L 2438 3059
L 1563 3059
L 1563 2178
L 1844 2422
Q 2094 2166 2575 1603
L 2200 1297
Q 1809 1794 1563 2088
L 1563 -822
L 1100 -822
L 1100 2175
Q 766 1059 256 359
Q 156 628 44 903
z
M 1944 -316
Q 4481 253 5594 2284
L 6025 2003
Q 4756 -141 2206 -766
Q 2088 -534 1944 -316
z
M 4025 5278
L 4513 5278
L 4513 1328
L 4025 1328
L 4025 5278
z
M 3075 4266
L 3544 4141
Q 3275 3078 2906 1997
Q 2681 2097 2425 2172
Q 2850 3247 3075 4266
z
M 4950 4141
L 5375 4341
Q 5856 3566 6281 2722
L 5831 2484
Q 5444 3328 4950 4141
z
" transform="scale(0.015625)"/>
       <path id="MicrosoftYaHei-ff09" d="M 1113 -1100
L 575 -1100
Q 1684 163 1684 1888
Q 1684 3581 581 4838
L 1113 4838
Q 2222 3628 2222 1888
Q 2222 128 1113 -1100
z
" transform="scale(0.015625)"/>
      </defs>
      <use xlink:href="#MicrosoftYaHei-4e2d"/>
      <use xlink:href="#MicrosoftYaHei-4f4d" transform="translate(100 0)"/>
      <use xlink:href="#MicrosoftYaHei-8fd0" transform="translate(200 0)"/>
      <use xlink:href="#MicrosoftYaHei-884c" transform="translate(300 0)"/>
      <use xlink:href="#MicrosoftYaHei-65f6" transform="translate(400 0)"/>
      <use xlink:href="#MicrosoftYaHei-95f4" transform="translate(500 0)"/>
      <use xlink:href="#MicrosoftYaHei-ff08" transform="translate(600 0)"/>
      <use xlink:href="#MicrosoftYaHei-6beb" transform="translate(700 0)"/>
      <use xlink:href="#MicrosoftYaHei-79d2" transform="translate(800 0)"/>
      <use xlink:href="#MicrosoftYaHei-ff09" transform="translate(900 0)"/>
     </g>
    </g>
   </g>
   <g id="PathCollection_1">
    <defs>
     <path id="m5de4061338" d="M 0 3.708099
C 0.983399 3.708099 1.926654 3.317391 2.622022 2.622022
C 3.317391 1.926654 3.708099 0.983399 3.708099 0
C 3.708099 -0.983399 3.317391 -1.926654 2.622022 -2.622022
C 1.926654 -3.317391 0.983399 -3.708099 0 -3.708099
C -0.983399 -3.708099 -1.926654 -3.317391 -2.622022 -2.622022
C -3.317391 -1.926654 -3.708099 -0.983399 -3.708099 0
C -3.708099 0.983399 -3.317391 1.926654 -2.622022 2.622022
C -1.926654 3.317391 -0.983399 3.708099 0 3.708099
z
" style="stroke: #804126; stroke-opacity: 0.82; stroke-width: 0.9"/>
    </defs>
    <g clip-path="url(#p79052f9564)">
     <use xlink:href="#m5de4061338" x="81.335625" y="366.011676" style="fill: #f0986e; fill-opacity: 0.82; stroke: #804126; stroke-opacity: 0.82; stroke-width: 0.9"/>
     <use xlink:href="#m5de4061338" x="171.667298" y="341.884715" style="fill: #f0986e; fill-opacity: 0.82; stroke: #804126; stroke-opacity: 0.82; stroke-width: 0.9"/>
     <use xlink:href="#m5de4061338" x="254.408528" y="305.330084" style="fill: #f0986e; fill-opacity: 0.82; stroke: #804126; stroke-opacity: 0.82; stroke-width: 0.9"/>
     <use xlink:href="#m5de4061338" x="303.284073" y="306.011952" style="fill: #f0986e; fill-opacity: 0.82; stroke: #804126; stroke-opacity: 0.82; stroke-width: 0.9"/>
     <use xlink:href="#m5de4061338" x="354.35208" y="267.994862" style="fill: #f0986e; fill-opacity: 0.82; stroke: #804126; stroke-opacity: 0.82; stroke-width: 0.9"/>
     <use xlink:href="#m5de4061338" x="395.894" y="254.472174" style="fill: #f0986e; fill-opacity: 0.82; stroke: #804126; stroke-opacity: 0.82; stroke-width: 0.9"/>
     <use xlink:href="#m5de4061338" x="549.296215" y="170.028256" style="fill: #f0986e; fill-opacity: 0.82; stroke: #804126; stroke-opacity: 0.82; stroke-width: 0.9"/>
     <use xlink:href="#m5de4061338" x="686.135625" y="98.914909" style="fill: #f0986e; fill-opacity: 0.82; stroke: #804126; stroke-opacity: 0.82; stroke-width: 0.9"/>
    </g>
   </g>
   <g id="PathCollection_2">
    <defs>
     <path id="m60e20066d6" d="M -3.708099 3.708099
L 3.708099 3.708099
L 3.708099 -3.708099
L -3.708099 -3.708099
z
" style="stroke: #2e4780; stroke-opacity: 0.82; stroke-width: 0.9"/>
    </defs>
    <g clip-path="url(#p79052f9564)">
     <use xlink:href="#m60e20066d6" x="81.335625" y="370.813091" style="fill: #a3befa; fill-opacity: 0.82; stroke: #2e4780; stroke-opacity: 0.82; stroke-width: 0.9"/>
     <use xlink:href="#m60e20066d6" x="171.667298" y="345.333451" style="fill: #a3befa; fill-opacity: 0.82; stroke: #2e4780; stroke-opacity: 0.82; stroke-width: 0.9"/>
     <use xlink:href="#m60e20066d6" x="254.408528" y="318.882822" style="fill: #a3befa; fill-opacity: 0.82; stroke: #2e4780; stroke-opacity: 0.82; stroke-width: 0.9"/>
     <use xlink:href="#m60e20066d6" x="303.284073" y="300.336447" style="fill: #a3befa; fill-opacity: 0.82; stroke: #2e4780; stroke-opacity: 0.82; stroke-width: 0.9"/>
     <use xlink:href="#m60e20066d6" x="354.35208" y="277.698255" style="fill: #a3befa; fill-opacity: 0.82; stroke: #2e4780; stroke-opacity: 0.82; stroke-width: 0.9"/>
     <use xlink:href="#m60e20066d6" x="395.894" y="265.912322" style="fill: #a3befa; fill-opacity: 0.82; stroke: #2e4780; stroke-opacity: 0.82; stroke-width: 0.9"/>
     <use xlink:href="#m60e20066d6" x="549.296215" y="208.351033" style="fill: #a3befa; fill-opacity: 0.82; stroke: #2e4780; stroke-opacity: 0.82; stroke-width: 0.9"/>
     <use xlink:href="#m60e20066d6" x="686.135625" y="154.837799" style="fill: #a3befa; fill-opacity: 0.82; stroke: #2e4780; stroke-opacity: 0.82; stroke-width: 0.9"/>
    </g>
   </g>
   <g id="patch_3">
    <path d="M 51.095625 384.408
L 51.095625 85.32
" style="fill: none; stroke: #d7dbe7; stroke-width: 1.25; stroke-linejoin: miter; stroke-linecap: square"/>
   </g>
   <g id="patch_4">
    <path d="M 51.095625 384.408
L 716.375625 384.408
" style="fill: none; stroke: #d7dbe7; stroke-width: 1.25; stroke-linejoin: miter; stroke-linecap: square"/>
   </g>
   <g id="text_10">
    <!-- teams4 -->
    <g style="fill: #6f768a" transform="translate(85.335625 366.813091) scale(0.07 -0.07)">
     <defs>
      <path id="MicrosoftYaHei-74" d="M 2206 34
Q 2006 -75 1666 -75
Q 738 -75 738 953
L 738 2950
L 144 2950
L 144 3456
L 738 3456
L 738 4288
L 1347 4481
L 1347 3456
L 2206 3456
L 2206 2950
L 1347 2950
L 1347 1063
Q 1347 722 1462 575
Q 1578 428 1847 428
Q 2053 428 2206 544
L 2206 34
z
" transform="scale(0.015625)"/>
      <path id="MicrosoftYaHei-65" d="M 3363 1572
L 944 1572
Q 959 1019 1246 717
Q 1534 416 2050 416
Q 2631 416 3116 788
L 3116 241
Q 2659 -81 1906 -81
Q 1156 -81 736 394
Q 316 869 316 1713
Q 316 2506 777 3022
Q 1238 3538 1922 3538
Q 2600 3538 2981 3102
Q 3363 2666 3363 1881
L 3363 1572
z
M 2750 2063
Q 2747 2531 2528 2787
Q 2309 3044 1913 3044
Q 1547 3044 1280 2772
Q 1013 2500 944 2063
L 2750 2063
z
" transform="scale(0.015625)"/>
      <path id="MicrosoftYaHei-61" d="M 628 3216
Q 1144 3538 1819 3538
Q 3069 3538 3069 2225
L 3069 0
L 2463 0
L 2463 534
L 2447 534
Q 2088 -81 1388 -81
Q 884 -81 587 191
Q 291 463 291 925
Q 291 1894 1438 2053
L 2463 2197
Q 2463 3044 1763 3044
Q 1141 3044 628 2625
L 628 3216
z
M 1653 1625
Q 1228 1569 1067 1412
Q 906 1256 906 975
Q 906 728 1081 572
Q 1256 416 1544 416
Q 1944 416 2203 697
Q 2463 978 2463 1403
L 2463 1734
L 1653 1625
z
" transform="scale(0.015625)"/>
      <path id="MicrosoftYaHei-6d" d="M 5522 0
L 4909 0
L 4909 1984
Q 4909 2547 4734 2789
Q 4559 3031 4159 3031
Q 3822 3031 3581 2715
Q 3341 2400 3341 1969
L 3341 0
L 2728 0
L 2728 2047
Q 2728 3031 1969 3031
Q 1619 3031 1389 2731
Q 1159 2431 1159 1966
L 1159 0
L 547 0
L 547 3456
L 1159 3456
L 1159 2909
L 1172 2909
Q 1541 3538 2250 3538
Q 2597 3538 2862 3347
Q 3128 3156 3231 2831
Q 3616 3538 4381 3538
Q 5522 3538 5522 2131
L 5522 0
z
" transform="scale(0.015625)"/>
      <path id="MicrosoftYaHei-73" d="M 353 747
Q 816 413 1350 413
Q 2066 413 2066 881
Q 2066 1081 1909 1211
Q 1753 1341 1275 1519
Q 700 1750 528 1976
Q 356 2203 356 2525
Q 356 2984 745 3261
Q 1134 3538 1703 3538
Q 2144 3538 2522 3384
L 2522 2794
Q 2134 3044 1644 3044
Q 1350 3044 1165 2916
Q 981 2788 981 2578
Q 981 2372 1114 2256
Q 1247 2141 1703 1959
Q 2281 1744 2484 1512
Q 2688 1281 2688 941
Q 2688 466 2298 192
Q 1909 -81 1291 -81
Q 753 -81 353 122
L 353 747
z
" transform="scale(0.015625)"/>
     </defs>
     <use xlink:href="#MicrosoftYaHei-74"/>
     <use xlink:href="#MicrosoftYaHei-65" transform="translate(36.380859 0)"/>
     <use xlink:href="#MicrosoftYaHei-61" transform="translate(93.119141 0)"/>
     <use xlink:href="#MicrosoftYaHei-6d" transform="translate(148.392578 0)"/>
     <use xlink:href="#MicrosoftYaHei-73" transform="translate(242.09375 0)"/>
     <use xlink:href="#MicrosoftYaHei-34" transform="translate(288.382812 0)"/>
    </g>
   </g>
   <g id="text_11">
    <!-- teams5 -->
    <g style="fill: #6f768a" transform="translate(175.667298 341.333451) scale(0.07 -0.07)">
     <defs>
      <path id="MicrosoftYaHei-35" d="M 3294 1494
Q 3294 784 2823 350
Q 2353 -84 1559 -84
Q 878 -84 544 119
L 544 744
Q 1034 425 1544 425
Q 2050 425 2361 704
Q 2672 984 2672 1447
Q 2672 1909 2348 2167
Q 2025 2425 1434 2425
Q 978 2425 613 2384
L 791 4841
L 3053 4841
L 3053 4303
L 1306 4303
L 1206 2931
L 1647 2950
Q 2416 2950 2855 2567
Q 3294 2184 3294 1494
z
" transform="scale(0.015625)"/>
     </defs>
     <use xlink:href="#MicrosoftYaHei-74"/>
     <use xlink:href="#MicrosoftYaHei-65" transform="translate(36.380859 0)"/>
     <use xlink:href="#MicrosoftYaHei-61" transform="translate(93.119141 0)"/>
     <use xlink:href="#MicrosoftYaHei-6d" transform="translate(148.392578 0)"/>
     <use xlink:href="#MicrosoftYaHei-73" transform="translate(242.09375 0)"/>
     <use xlink:href="#MicrosoftYaHei-35" transform="translate(288.382812 0)"/>
    </g>
   </g>
   <g id="text_12">
    <!-- teams7 -->
    <g style="fill: #6f768a" transform="translate(258.408528 314.882822) scale(0.07 -0.07)">
     <defs>
      <path id="MicrosoftYaHei-37" d="M 3422 4463
Q 2659 3131 2223 1998
Q 1788 866 1684 0
L 1047 0
Q 1163 853 1594 1947
Q 2025 3041 2747 4300
L 347 4300
L 347 4841
L 3422 4841
L 3422 4463
z
" transform="scale(0.015625)"/>
     </defs>
     <use xlink:href="#MicrosoftYaHei-74"/>
     <use xlink:href="#MicrosoftYaHei-65" transform="translate(36.380859 0)"/>
     <use xlink:href="#MicrosoftYaHei-61" transform="translate(93.119141 0)"/>
     <use xlink:href="#MicrosoftYaHei-6d" transform="translate(148.392578 0)"/>
     <use xlink:href="#MicrosoftYaHei-73" transform="translate(242.09375 0)"/>
     <use xlink:href="#MicrosoftYaHei-37" transform="translate(288.382812 0)"/>
    </g>
   </g>
   <g id="text_13">
    <!-- teams8 -->
    <g style="fill: #6f768a" transform="translate(307.284073 296.336447) scale(0.07 -0.07)">
     <defs>
      <path id="MicrosoftYaHei-38" d="M 306 1350
Q 306 1769 556 2122
Q 806 2475 1200 2625
Q 884 2803 700 3081
Q 516 3359 516 3684
Q 516 4028 692 4312
Q 869 4597 1183 4759
Q 1497 4922 1875 4922
Q 2256 4922 2572 4761
Q 2888 4600 3063 4315
Q 3238 4031 3238 3684
Q 3238 3366 3058 3086
Q 2878 2806 2559 2625
Q 2953 2472 3200 2119
Q 3447 1766 3447 1350
Q 3447 938 3250 611
Q 3053 284 2690 103
Q 2328 -78 1875 -78
Q 1425 -78 1065 103
Q 706 284 506 612
Q 306 941 306 1350
z
M 906 1378
Q 906 947 1172 687
Q 1438 428 1878 428
Q 2309 428 2582 692
Q 2856 956 2856 1378
Q 2856 1778 2579 2051
Q 2303 2325 1878 2325
Q 1456 2325 1181 2058
Q 906 1791 906 1378
z
M 1081 3634
Q 1081 3309 1312 3076
Q 1544 2844 1878 2844
Q 2206 2844 2445 3078
Q 2684 3313 2684 3634
Q 2684 3963 2454 4191
Q 2225 4419 1878 4419
Q 1534 4419 1307 4195
Q 1081 3972 1081 3634
z
" transform="scale(0.015625)"/>
     </defs>
     <use xlink:href="#MicrosoftYaHei-74"/>
     <use xlink:href="#MicrosoftYaHei-65" transform="translate(36.380859 0)"/>
     <use xlink:href="#MicrosoftYaHei-61" transform="translate(93.119141 0)"/>
     <use xlink:href="#MicrosoftYaHei-6d" transform="translate(148.392578 0)"/>
     <use xlink:href="#MicrosoftYaHei-73" transform="translate(242.09375 0)"/>
     <use xlink:href="#MicrosoftYaHei-38" transform="translate(288.382812 0)"/>
    </g>
   </g>
   <g id="text_14">
    <!-- teams10 -->
    <g style="fill: #6f768a" transform="translate(358.35208 273.698255) scale(0.07 -0.07)">
     <use xlink:href="#MicrosoftYaHei-74"/>
     <use xlink:href="#MicrosoftYaHei-65" transform="translate(36.380859 0)"/>
     <use xlink:href="#MicrosoftYaHei-61" transform="translate(93.119141 0)"/>
     <use xlink:href="#MicrosoftYaHei-6d" transform="translate(148.392578 0)"/>
     <use xlink:href="#MicrosoftYaHei-73" transform="translate(242.09375 0)"/>
     <use xlink:href="#MicrosoftYaHei-31" transform="translate(288.382812 0)"/>
     <use xlink:href="#MicrosoftYaHei-30" transform="translate(347.025391 0)"/>
    </g>
   </g>
   <g id="text_15">
    <!-- teams12 -->
    <g style="fill: #6f768a" transform="translate(399.894 261.912322) scale(0.07 -0.07)">
     <use xlink:href="#MicrosoftYaHei-74"/>
     <use xlink:href="#MicrosoftYaHei-65" transform="translate(36.380859 0)"/>
     <use xlink:href="#MicrosoftYaHei-61" transform="translate(93.119141 0)"/>
     <use xlink:href="#MicrosoftYaHei-6d" transform="translate(148.392578 0)"/>
     <use xlink:href="#MicrosoftYaHei-73" transform="translate(242.09375 0)"/>
     <use xlink:href="#MicrosoftYaHei-31" transform="translate(288.382812 0)"/>
     <use xlink:href="#MicrosoftYaHei-32" transform="translate(347.025391 0)"/>
    </g>
   </g>
   <g id="text_16">
    <!-- teams24 -->
    <g style="fill: #6f768a" transform="translate(553.296215 204.351033) scale(0.07 -0.07)">
     <use xlink:href="#MicrosoftYaHei-74"/>
     <use xlink:href="#MicrosoftYaHei-65" transform="translate(36.380859 0)"/>
     <use xlink:href="#MicrosoftYaHei-61" transform="translate(93.119141 0)"/>
     <use xlink:href="#MicrosoftYaHei-6d" transform="translate(148.392578 0)"/>
     <use xlink:href="#MicrosoftYaHei-73" transform="translate(242.09375 0)"/>
     <use xlink:href="#MicrosoftYaHei-32" transform="translate(288.382812 0)"/>
     <use xlink:href="#MicrosoftYaHei-34" transform="translate(347.025391 0)"/>
    </g>
   </g>
   <g id="text_17">
    <!-- teams36 -->
    <g style="fill: #6f768a" transform="translate(690.135625 150.837799) scale(0.07 -0.07)">
     <defs>
      <path id="MicrosoftYaHei-36" d="M 3181 4219
Q 2803 4413 2391 4413
Q 1763 4413 1381 3866
Q 1000 3319 994 2372
L 1009 2372
Q 1353 3038 2106 3038
Q 2734 3038 3109 2628
Q 3484 2219 3484 1541
Q 3484 831 3051 375
Q 2619 -81 1947 -81
Q 1209 -81 789 495
Q 369 1072 369 2131
Q 369 3413 920 4167
Q 1472 4922 2372 4922
Q 2888 4922 3181 4781
L 3181 4219
z
M 1031 1584
Q 1031 1106 1286 765
Q 1541 425 1963 425
Q 2363 425 2613 719
Q 2863 1013 2863 1475
Q 2863 1975 2627 2253
Q 2391 2531 1956 2531
Q 1544 2531 1287 2250
Q 1031 1969 1031 1584
z
" transform="scale(0.015625)"/>
     </defs>
     <use xlink:href="#MicrosoftYaHei-74"/>
     <use xlink:href="#MicrosoftYaHei-65" transform="translate(36.380859 0)"/>
     <use xlink:href="#MicrosoftYaHei-61" transform="translate(93.119141 0)"/>
     <use xlink:href="#MicrosoftYaHei-6d" transform="translate(148.392578 0)"/>
     <use xlink:href="#MicrosoftYaHei-73" transform="translate(242.09375 0)"/>
     <use xlink:href="#MicrosoftYaHei-33" transform="translate(288.382812 0)"/>
     <use xlink:href="#MicrosoftYaHei-36" transform="translate(347.025391 0)"/>
    </g>
   </g>
   <g id="legend_1">
    <g id="PathCollection_3">
     <g>
      <use xlink:href="#m5de4061338" x="66.495625" y="69.316209" style="fill: #f0986e; fill-opacity: 0.82; stroke: #804126; stroke-opacity: 0.82; stroke-width: 0.9"/>
     </g>
    </g>
    <g id="text_18">
     <!-- Edmonds-Karp -->
     <g style="fill: #262626" transform="translate(86.295625 72.203709) scale(0.11 -0.11)">
      <defs>
       <path id="MicrosoftYaHei-45" d="M 3228 0
L 625 0
L 625 4841
L 3119 4841
L 3119 4284
L 1250 4284
L 1250 2734
L 2981 2734
L 2981 2181
L 1250 2181
L 1250 553
L 3228 553
L 3228 0
z
" transform="scale(0.015625)"/>
       <path id="MicrosoftYaHei-64" d="M 3547 0
L 2934 0
L 2934 575
L 2922 575
Q 2544 -81 1747 -81
Q 1091 -81 703 386
Q 316 853 316 1647
Q 316 2503 753 3020
Q 1191 3538 1897 3538
Q 2603 3538 2922 2988
L 2934 2988
L 2934 5116
L 3547 5116
L 3547 0
z
M 2938 2056
Q 2938 2472 2664 2751
Q 2391 3031 1991 3031
Q 1503 3031 1222 2667
Q 941 2303 941 1675
Q 941 1097 1211 761
Q 1481 425 1931 425
Q 2375 425 2656 754
Q 2938 1084 2938 1575
L 2938 2056
z
" transform="scale(0.015625)"/>
       <path id="MicrosoftYaHei-6f" d="M 316 1691
Q 316 2547 794 3042
Q 1272 3538 2091 3538
Q 2869 3538 3311 3061
Q 3753 2584 3753 1744
Q 3753 925 3281 422
Q 2809 -81 2016 -81
Q 1241 -81 778 406
Q 316 894 316 1691
z
M 941 1709
Q 941 1113 1242 769
Q 1544 425 2053 425
Q 2578 425 2853 761
Q 3128 1097 3128 1725
Q 3128 2356 2853 2693
Q 2578 3031 2053 3031
Q 1538 3031 1239 2678
Q 941 2325 941 1709
z
" transform="scale(0.015625)"/>
       <path id="MicrosoftYaHei-6e" d="M 3469 0
L 2859 0
L 2859 1966
Q 2859 3031 2081 3031
Q 1678 3031 1418 2731
Q 1159 2431 1159 1972
L 1159 0
L 547 0
L 547 3456
L 1159 3456
L 1159 2884
L 1172 2884
Q 1563 3538 2306 3538
Q 2875 3538 3172 3173
Q 3469 2809 3469 2113
L 3469 0
z
" transform="scale(0.015625)"/>
       <path id="MicrosoftYaHei-2d" d="M 2328 1681
L 488 1681
L 488 2153
L 2328 2153
L 2328 1681
z
" transform="scale(0.015625)"/>
       <path id="MicrosoftYaHei-4b" d="M 4069 0
L 3213 0
L 1394 2200
Q 1300 2316 1266 2381
L 1250 2381
L 1250 0
L 625 0
L 625 4841
L 1250 4841
L 1250 2563
L 1266 2563
Q 1319 2647 1394 2741
L 3150 4841
L 3922 4841
L 1891 2519
L 4069 0
z
" transform="scale(0.015625)"/>
       <path id="MicrosoftYaHei-72" d="M 2400 2850
Q 2247 2959 1978 2959
Q 1622 2959 1390 2626
Q 1159 2294 1159 1750
L 1159 0
L 547 0
L 547 3456
L 1159 3456
L 1159 2753
L 1172 2753
Q 1434 3516 2078 3516
Q 2288 3516 2400 3469
L 2400 2850
z
" transform="scale(0.015625)"/>
       <path id="MicrosoftYaHei-70" d="M 1159 488
L 1159 -1591
L 547 -1591
L 547 3456
L 1159 3456
L 1159 2859
L 1172 2859
Q 1578 3538 2359 3538
Q 3022 3538 3398 3073
Q 3775 2609 3775 1828
Q 3775 966 3348 442
Q 2922 -81 2200 -81
Q 1534 -81 1172 488
L 1159 488
z
M 1156 1425
Q 1156 1003 1428 714
Q 1700 425 2109 425
Q 2597 425 2872 800
Q 3147 1175 3147 1838
Q 3147 2397 2890 2714
Q 2634 3031 2191 3031
Q 1738 3031 1447 2709
Q 1156 2388 1156 1884
L 1156 1425
z
" transform="scale(0.015625)"/>
      </defs>
      <use xlink:href="#MicrosoftYaHei-45"/>
      <use xlink:href="#MicrosoftYaHei-64" transform="translate(54.980469 0)"/>
      <use xlink:href="#MicrosoftYaHei-6d" transform="translate(118.945312 0)"/>
      <use xlink:href="#MicrosoftYaHei-6f" transform="translate(212.646484 0)"/>
      <use xlink:href="#MicrosoftYaHei-6e" transform="translate(276.220703 0)"/>
      <use xlink:href="#MicrosoftYaHei-64" transform="translate(337.841797 0)"/>
      <use xlink:href="#MicrosoftYaHei-73" transform="translate(401.806641 0)"/>
      <use xlink:href="#MicrosoftYaHei-2d" transform="translate(448.095703 0)"/>
      <use xlink:href="#MicrosoftYaHei-4b" transform="translate(491.357422 0)"/>
      <use xlink:href="#MicrosoftYaHei-61" transform="translate(554.833984 0)"/>
      <use xlink:href="#MicrosoftYaHei-72" transform="translate(610.107422 0)"/>
      <use xlink:href="#MicrosoftYaHei-70" transform="translate(648.291016 0)"/>
     </g>
    </g>
    <g id="PathCollection_4">
     <g>
      <use xlink:href="#m60e20066d6" x="197.639688" y="69.316209" style="fill: #a3befa; fill-opacity: 0.82; stroke: #2e4780; stroke-opacity: 0.82; stroke-width: 0.9"/>
     </g>
    </g>
    <g id="text_19">
     <!-- Dinic -->
     <g style="fill: #262626" transform="translate(217.439688 72.203709) scale(0.11 -0.11)">
      <defs>
       <path id="MicrosoftYaHei-44" d="M 625 0
L 625 4841
L 2006 4841
Q 3106 4841 3836 4200
Q 4566 3559 4566 2481
Q 4566 1356 3836 678
Q 3106 0 1956 0
L 625 0
z
M 1250 4284
L 1250 553
L 1953 553
Q 2875 553 3392 1056
Q 3909 1559 3909 2466
Q 3909 3372 3378 3828
Q 2847 4284 1981 4284
L 1250 4284
z
" transform="scale(0.015625)"/>
       <path id="MicrosoftYaHei-69" d="M 472 4675
Q 472 4838 583 4948
Q 694 5059 856 5059
Q 1022 5059 1136 4950
Q 1250 4841 1250 4675
Q 1250 4513 1136 4405
Q 1022 4297 856 4297
Q 691 4297 581 4405
Q 472 4513 472 4675
z
M 544 0
L 544 3456
L 1156 3456
L 1156 0
L 544 0
z
" transform="scale(0.015625)"/>
       <path id="MicrosoftYaHei-63" d="M 2934 156
Q 2538 -81 1978 -81
Q 1228 -81 772 400
Q 316 881 316 1647
Q 316 2497 808 3017
Q 1300 3538 2125 3538
Q 2600 3538 2938 3369
L 2938 2763
Q 2572 3031 2125 3031
Q 1600 3031 1270 2667
Q 941 2303 941 1697
Q 941 1100 1252 762
Q 1563 425 2091 425
Q 2538 425 2934 719
L 2934 156
z
" transform="scale(0.015625)"/>
      </defs>
      <use xlink:href="#MicrosoftYaHei-44"/>
      <use xlink:href="#MicrosoftYaHei-69" transform="translate(76.171875 0)"/>
      <use xlink:href="#MicrosoftYaHei-6e" transform="translate(102.783203 0)"/>
      <use xlink:href="#MicrosoftYaHei-69" transform="translate(164.404297 0)"/>
      <use xlink:href="#MicrosoftYaHei-63" transform="translate(191.015625 0)"/>
     </g>
    </g>
   </g>
  </g>
  <g id="text_20">
   <!-- 官方数据集显示网络规模决定运行时间 -->
   <g style="fill: #1f2430" transform="translate(51.095625 18.39125) scale(0.14 -0.14)">
    <defs>
     <path id="MicrosoftYaHei-Bold-5b98" d="M 313 3641
L 313 4747
L 2769 4747
Q 2656 5028 2575 5234
L 3644 5341
Q 3725 5103 3838 4747
L 6088 4747
L 6088 3641
L 5225 3641
L 5225 4016
L 1175 4016
L 1175 3641
L 313 3641
z
M 4694 634
L 1788 634
L 1788 159
L 4694 159
L 4694 634
z
M 4431 2372
L 4431 2828
L 1788 2828
L 1788 2372
L 4431 2372
z
M 5300 3491
L 5300 1709
L 1788 1709
L 1788 1309
L 5594 1309
L 5594 -853
L 4694 -853
L 4694 -516
L 1788 -516
L 1788 -866
L 888 -866
L 888 3491
L 5300 3491
z
" transform="scale(0.015625)"/>
     <path id="MicrosoftYaHei-Bold-65b9" d="M 2975 -747
Q 2863 -184 2750 209
Q 3528 178 3822 178
Q 4031 178 4142 214
Q 4253 250 4325 329
Q 4397 409 4422 509
Q 4447 609 4476 1196
Q 4506 1784 4506 2003
L 2531 2003
Q 2341 213 769 -878
Q 613 -653 94 -53
Q 784 397 1142 962
Q 1500 1528 1562 2073
Q 1625 2619 1641 3628
L 231 3628
L 231 4453
L 2828 4453
L 2581 5084
L 3575 5316
Q 3781 4800 3888 4453
L 6175 4453
L 6175 3628
L 2594 3628
Q 2588 3241 2572 2828
L 5494 2828
Q 5466 2006 5419 1132
Q 5372 259 5330 46
Q 5288 -166 5152 -352
Q 5016 -538 4825 -617
Q 4634 -697 4232 -722
Q 3831 -747 2975 -747
z
" transform="scale(0.015625)"/>
     <path id="MicrosoftYaHei-Bold-6570" d="M 238 4091
L 725 4091
Q 559 4425 281 4803
L 844 5153
Q 1038 4922 1369 4428
L 806 4091
L 1506 4091
L 1506 5316
L 2300 5316
L 2300 4091
L 2956 4091
L 2438 4428
Q 2750 4809 2963 5172
L 3550 4822
Q 3341 4466 3031 4091
L 3394 4091
L 3394 3453
L 2300 3453
L 2300 3016
L 2513 3303
Q 2903 3094 3253 2891
Q 3766 3841 4138 5347
L 4994 5266
Q 4869 4781 4728 4341
L 6294 4341
L 6294 3578
L 6041 3578
Q 5906 1922 5338 856
Q 5738 391 6319 53
Q 6094 -203 5775 -778
Q 5228 -413 4828 109
Q 4313 -497 3631 -872
Q 3378 -513 3072 -197
L 2850 -566
Q 2475 -350 2031 -128
Q 1347 -584 394 -778
Q 281 -434 63 -9
Q 716 59 1213 253
Q 781 444 300 641
Q 513 950 681 1259
L 169 1259
L 169 1897
L 991 1897
Q 1094 2144 1169 2391
L 1506 2359
L 1506 2959
Q 1044 2472 344 2053
Q 213 2472 50 2803
Q 672 3044 1172 3453
L 238 3453
L 238 4091
z
M 4394 3400
Q 4519 2359 4831 1659
Q 5203 2478 5275 3578
L 4463 3578
Q 4431 3488 4394 3400
z
M 2300 2216
L 1984 2216
Q 1913 2063 1825 1897
L 3281 1897
L 3281 1316
Q 3038 806 2672 413
L 3294 166
L 3169 -38
Q 3859 322 4347 894
Q 4041 1522 3878 2300
Q 3769 2103 3656 1922
Q 3513 2172 3322 2438
L 3138 2159
Q 2750 2422 2300 2691
L 2300 2216
z
M 1300 934
L 1950 691
Q 2231 934 2413 1259
L 1484 1259
L 1300 934
z
" transform="scale(0.015625)"/>
     <path id="MicrosoftYaHei-Bold-636e" d="M 6294 1916
L 4869 1916
L 4869 1391
L 5919 1391
L 5919 -853
L 5181 -853
L 5181 -541
L 3788 -541
L 3788 -853
L 3050 -853
L 3050 1391
L 4081 1391
L 4081 1916
L 2988 1916
Q 2875 203 2188 -803
Q 1925 -459 1625 -166
Q 2250 928 2250 2803
L 2250 5084
L 6031 5084
L 6031 3128
L 4869 3128
L 4869 2572
L 6294 2572
L 6294 1916
z
M 169 4147
L 763 4147
L 763 5253
L 1519 5253
L 1519 4147
L 2056 4147
L 2056 3347
L 1519 3347
L 1519 2472
Q 1788 2528 2088 2603
Q 2056 2103 2063 1791
Q 1788 1722 1519 1653
L 1519 -59
Q 1519 -753 950 -772
Q 619 -803 313 -791
Q 250 -422 131 22
Q 338 16 550 9
Q 763 3 763 309
L 763 1459
Q 463 1378 163 1303
L 94 2166
Q 375 2222 763 2303
L 763 3347
L 169 3347
L 169 4147
z
M 5263 3784
L 5263 4428
L 3013 4428
L 3013 3784
L 5263 3784
z
M 5181 734
L 3788 734
L 3788 116
L 5181 116
L 5181 734
z
M 4081 2572
L 4081 3128
L 3013 3128
L 3013 2572
L 4081 2572
z
" transform="scale(0.015625)"/>
     <path id="MicrosoftYaHei-Bold-96c6" d="M 3613 5359
Q 3778 5066 3931 4734
L 5963 4734
L 5963 4197
L 3875 4197
L 3875 3866
L 5738 3866
L 5738 3366
L 3875 3366
L 3875 3034
L 5738 3034
L 5738 2534
L 3875 2534
L 3875 2203
L 6050 2203
L 6050 1653
L 1613 1653
L 1613 1428
L 788 1428
L 788 3238
Q 619 3075 438 2922
Q 275 3428 88 3834
Q 844 4422 1325 5322
L 2194 5134
Q 2088 4928 1972 4734
L 3044 4734
Q 2928 4994 2806 5216
L 3613 5359
z
M 1613 4184
L 1613 3866
L 3050 3866
L 3050 4197
L 1619 4197
L 1613 4184
z
M 1613 3034
L 3050 3034
L 3050 3366
L 1613 3366
L 1613 3034
z
M 1613 2203
L 3050 2203
L 3050 2534
L 1613 2534
L 1613 2203
z
M 2781 1516
L 3606 1516
L 3606 1228
L 6225 1228
L 6225 628
L 4394 628
Q 5159 197 6313 -3
Q 6044 -428 5875 -747
Q 4388 -338 3606 447
L 3606 -834
L 2781 -834
L 2781 394
Q 1956 -331 519 -809
Q 363 -484 88 -84
Q 1284 213 2006 628
L 225 628
L 225 1228
L 2781 1228
L 2781 1516
z
" transform="scale(0.015625)"/>
     <path id="MicrosoftYaHei-Bold-663e" d="M 731 5103
L 5675 5103
L 5675 2272
L 731 2272
L 731 5103
z
M 4813 4391
L 1594 4391
L 1594 4016
L 4813 4016
L 4813 4391
z
M 4813 2984
L 4813 3359
L 1594 3359
L 1594 2984
L 4813 2984
z
M 175 141
L 2044 141
L 2044 2097
L 2919 2097
L 2919 141
L 3488 141
L 3488 2097
L 4363 2097
L 4363 141
L 6231 141
L 6231 -634
L 175 -634
L 175 141
z
M 5344 2034
L 6044 1609
Q 5663 1066 5075 322
Q 4894 478 4450 797
Q 4950 1403 5344 2034
z
M 1000 2009
Q 1500 1416 1956 803
L 1269 334
Q 788 1072 375 1603
L 1000 2009
z
" transform="scale(0.015625)"/>
     <path id="MicrosoftYaHei-Bold-793a" d="M 769 4966
L 5669 4966
L 5669 4078
L 769 4078
L 769 4966
z
M 206 3259
L 6206 3259
L 6206 2372
L 3794 2372
L 3794 303
Q 3794 -216 3612 -430
Q 3431 -644 3173 -711
Q 2916 -778 1850 -778
Q 1744 -241 1638 159
Q 2116 109 2431 109
Q 2850 109 2850 447
L 2850 2372
L 206 2372
L 206 3259
z
M 1438 2103
L 2244 1678
Q 1488 459 825 -353
Q 513 -97 88 197
Q 850 1097 1438 2103
z
M 4869 2072
Q 5606 1178 6319 203
Q 5981 -16 5506 -341
Q 4944 578 4175 1609
L 4869 2072
z
" transform="scale(0.015625)"/>
     <path id="MicrosoftYaHei-Bold-7f51" d="M 1781 4059
L 2334 2925
Q 2581 3484 2800 4091
L 3222 3897
L 3556 4047
L 4063 2950
Q 4297 3509 4513 4116
L 5188 3828
Q 4872 2891 4488 2028
L 5144 566
L 4438 216
L 4059 1128
Q 3756 528 3425 -34
Q 3284 75 3147 175
L 2813 9
L 2328 1159
Q 1969 481 1575 -103
Q 1419 44 1194 228
L 1194 -809
L 356 -809
L 356 5078
L 6038 5078
L 6038 278
Q 6038 -206 5853 -467
Q 5669 -728 5336 -772
Q 5003 -816 4094 -816
Q 4006 -309 3900 59
Q 4344 16 4800 16
Q 5200 16 5200 409
L 5200 4297
L 1194 4297
L 1194 3753
L 1781 4059
z
M 1194 3628
L 1194 775
Q 1584 1381 1928 2066
Q 1559 2884 1194 3628
z
M 3216 3088
Q 2997 2534 2759 2025
L 3194 1091
Q 3438 1550 3669 2047
L 3216 3088
z
" transform="scale(0.015625)"/>
     <path id="MicrosoftYaHei-Bold-7edc" d="M 1025 3353
Q 1288 3366 1400 3366
Q 1644 3791 1900 4334
L 2638 3997
Q 2019 2922 1338 1784
Q 1806 1847 2313 1922
Q 2269 1503 2263 1147
Q 975 978 481 859
L 238 1559
Q 550 1878 988 2641
Q 631 2616 325 2578
L 88 3284
Q 531 3822 1163 5328
L 1938 5028
Q 1488 4172 1025 3353
z
M 2675 -859
L 2675 1666
L 5900 1666
L 5900 -859
L 5088 -859
L 5088 -572
L 3488 -572
L 3488 -859
L 2675 -859
z
M 238 -497
L 94 378
Q 875 459 2463 703
Q 2425 178 2431 -159
Q 1038 -353 238 -497
z
M 5088 884
L 3488 884
L 3488 209
L 5088 209
L 5088 884
z
M 2494 3609
Q 3225 4434 3694 5328
L 4538 5191
Q 4394 4934 4244 4703
L 6038 4703
L 6038 3953
Q 5681 3297 5056 2791
Q 5625 2584 6319 2478
Q 6188 2009 6131 1666
Q 5019 1909 4288 2297
Q 3513 1922 2463 1653
Q 2288 2134 2150 2397
Q 2975 2572 3569 2803
Q 3356 2997 3163 3241
Q 3006 3084 2894 2972
Q 2744 3247 2494 3609
z
M 3781 3972
Q 3725 3897 3656 3809
Q 3919 3441 4288 3172
Q 4800 3509 5063 3972
L 3781 3972
z
" transform="scale(0.015625)"/>
     <path id="MicrosoftYaHei-Bold-89c4" d="M 88 2766
L 894 2766
L 894 3516
L 188 3516
L 188 4291
L 894 4291
L 894 5284
L 1694 5284
L 1694 4291
L 2400 4291
L 2400 3516
L 1694 3516
L 1694 2766
L 2488 2766
L 2488 1984
L 1675 1984
Q 1666 1816 1647 1656
Q 2091 1247 2650 666
Q 2306 341 2088 91
Q 1869 369 1506 788
Q 1278 -194 769 -878
Q 369 -447 75 -178
Q 747 550 866 1984
L 88 1984
L 88 2766
z
M 2650 1128
L 2650 5066
L 5913 5066
L 5913 1197
L 5100 1197
L 5100 4259
L 3463 4259
L 3463 1128
L 2650 1128
z
M 5525 978
Q 6000 747 6306 628
Q 6184 -291 6031 -522
Q 5878 -753 5469 -753
L 4906 -753
Q 4188 -753 4188 -78
L 4188 644
Q 3728 -297 2613 -884
Q 2394 -572 2044 -172
Q 3225 394 3540 1169
Q 3856 1944 3856 3872
L 4688 3872
Q 4675 2513 4506 1641
L 4931 1641
L 4931 222
Q 4931 -28 5150 -28
L 5219 -28
Q 5369 -28 5417 112
Q 5466 253 5525 978
z
" transform="scale(0.015625)"/>
     <path id="MicrosoftYaHei-Bold-6a21" d="M 6250 534
L 4825 534
Q 5419 84 6325 -53
Q 6131 -403 5913 -859
Q 4769 -522 4169 334
Q 3694 -503 2406 -897
Q 2206 -509 1925 -159
Q 3013 66 3419 534
L 2088 534
L 2088 1141
L 3719 1141
Q 3756 1284 3769 1459
L 2425 1459
L 2425 2134
L 1944 1659
Q 1800 1878 1638 2109
L 1638 -841
L 863 -841
L 863 1803
Q 619 1141 275 547
Q 213 978 75 1691
Q 525 2453 788 3328
L 138 3328
L 138 4066
L 863 4066
L 863 5291
L 1638 5291
L 1638 4066
L 2219 4066
L 2219 3328
L 1638 3328
L 1638 2972
Q 2081 2559 2425 2209
L 2425 3703
L 6025 3703
L 6025 1459
L 4556 1459
Q 4544 1291 4519 1141
L 6250 1141
L 6250 534
z
M 5250 2009
L 5250 2353
L 3200 2353
L 3200 2009
L 5250 2009
z
M 5250 3147
L 3200 3147
L 3200 2816
L 5250 2816
L 5250 3147
z
M 5413 3853
L 4675 3853
L 4675 4203
L 3719 4203
L 3719 3853
L 2981 3853
L 2981 4203
L 2175 4203
L 2175 4822
L 2981 4822
L 2981 5291
L 3719 5291
L 3719 4822
L 4675 4822
L 4675 5291
L 5413 5291
L 5413 4822
L 6275 4822
L 6275 4203
L 5413 4203
L 5413 3853
z
" transform="scale(0.015625)"/>
     <path id="MicrosoftYaHei-Bold-51b3" d="M 1775 2341
L 2981 2341
Q 3019 2878 3047 3541
L 1950 3541
L 1950 4366
L 3072 4366
L 3088 5309
L 3944 5309
Q 3941 4828 3928 4366
L 5738 4366
L 5738 2341
L 6238 2341
L 6238 1516
L 4078 1516
Q 4703 356 6163 -16
Q 5900 -434 5669 -853
Q 4175 -353 3472 1066
Q 3084 19 1725 -884
Q 1488 -491 1156 -91
Q 2356 466 2778 1516
L 1775 1516
L 1775 2341
z
M 4913 3541
L 3900 3541
Q 3875 2928 3838 2341
L 4913 2341
L 4913 3541
z
M 681 5028
Q 1275 4434 1775 3834
L 1075 3234
Q 569 3922 69 4491
L 681 5028
z
M 931 2572
Q 1244 2403 1688 2197
L 806 -509
Q 469 -303 69 -78
Q 506 1103 931 2572
z
" transform="scale(0.015625)"/>
     <path id="MicrosoftYaHei-Bold-5b9a" d="M 2581 5128
L 3538 5353
Q 3666 5028 3806 4634
L 6063 4634
L 6063 3403
L 5200 3403
L 5200 3872
L 1225 3872
L 1225 3403
L 363 3403
L 363 4634
L 2772 4634
L 2581 5128
z
M 5831 1741
L 5831 972
L 3744 972
L 3744 125
Q 4766 103 6313 147
Q 6138 -372 6044 -697
Q 3819 -697 2809 -630
Q 1800 -563 1388 219
Q 1069 -425 613 -859
Q 331 -441 94 -134
Q 875 659 1094 2122
L 1931 2022
Q 1850 1541 1728 1122
Q 2047 300 2850 175
L 2850 2416
L 263 2416
L 263 3184
L 6156 3184
L 6156 2416
L 3744 2416
L 3744 1741
L 5831 1741
z
" transform="scale(0.015625)"/>
     <path id="MicrosoftYaHei-Bold-8fd0" d="M 1000 5353
Q 1469 4778 1906 4153
L 1138 3647
Q 744 4303 288 4897
L 1000 5353
z
M 5838 4209
L 2344 4209
L 2344 5022
L 5838 5022
L 5838 4209
z
M 5031 2591
Q 5631 1759 6194 772
L 5438 372
Q 5319 597 5197 816
Q 3209 700 2294 578
L 1956 1278
Q 2522 1750 2978 2647
L 1950 2647
L 1950 3459
L 6200 3459
L 6200 2647
L 3997 2647
Q 3638 2022 3194 1453
Q 3813 1475 4784 1538
Q 4572 1884 4356 2209
L 5031 2591
z
M 6313 134
L 6031 -684
Q 2466 -709 1978 -592
Q 1491 -475 1188 -78
Q 800 -447 431 -847
L 81 128
Q 372 394 700 650
L 700 2378
L 131 2378
L 131 3203
L 1563 3203
L 1563 659
Q 1763 419 2014 287
Q 2266 156 2536 125
Q 2806 94 3691 97
Q 4666 97 6313 134
z
" transform="scale(0.015625)"/>
     <path id="MicrosoftYaHei-Bold-884c" d="M 1663 5347
Q 2063 5072 2413 4809
Q 1756 4047 669 3178
Q 438 3528 113 3916
Q 1163 4716 1663 5347
z
M 2788 4903
L 6038 4903
L 6038 4091
L 2788 4091
L 2788 4903
z
M 1763 3722
L 2494 3253
Q 2219 2850 1894 2463
L 1894 -778
L 1025 -778
L 1025 1525
Q 738 1247 425 978
Q 300 1328 81 1847
Q 1044 2678 1763 3722
z
M 2581 3116
L 6313 3116
L 6313 2303
L 5338 2303
L 5338 291
Q 5338 -209 5105 -473
Q 4872 -738 4445 -766
Q 4019 -794 3181 -803
Q 3094 -391 2950 72
Q 3600 28 3975 28
Q 4431 28 4431 509
L 4431 2303
L 2581 2303
L 2581 3116
z
" transform="scale(0.015625)"/>
     <path id="MicrosoftYaHei-Bold-65f6" d="M 3038 4241
L 4888 4241
L 4888 5291
L 5781 5291
L 5781 4241
L 6306 4241
L 6306 3409
L 5781 3409
L 5781 316
Q 5781 -209 5547 -478
Q 5313 -747 4898 -762
Q 4484 -778 3669 -778
Q 3569 -209 3456 134
Q 4344 109 4431 109
Q 4888 109 4888 584
L 4888 3409
L 3038 3409
L 3038 4241
z
M 394 -497
L 394 4897
L 2856 4897
L 2856 -459
L 2031 -459
L 2031 -28
L 1219 -28
L 1219 -497
L 394 -497
z
M 2031 4072
L 1219 4072
L 1219 2834
L 2031 2834
L 2031 4072
z
M 1219 797
L 2031 797
L 2031 2034
L 1219 2034
L 1219 797
z
M 3588 3072
Q 4013 2541 4713 1559
L 3956 1066
Q 3388 2009 2938 2641
L 3588 3072
z
" transform="scale(0.015625)"/>
     <path id="MicrosoftYaHei-Bold-95f4" d="M 1088 5059
L 1906 5347
Q 2200 4884 2506 4334
L 1638 4003
Q 1356 4597 1088 5059
z
M 6056 347
Q 6056 -106 5904 -378
Q 5753 -650 5422 -736
Q 5091 -822 3950 -822
Q 3875 -359 3750 53
Q 4150 28 4769 28
Q 5188 28 5188 397
L 5188 4278
L 2719 4278
L 2719 5047
L 6056 5047
L 6056 347
z
M 344 4522
L 1213 4522
L 1213 -803
L 344 -803
L 344 4522
z
M 1788 3772
L 4581 3772
L 4581 484
L 2575 484
L 2575 141
L 1788 141
L 1788 3772
z
M 3794 3072
L 2575 3072
L 2575 2478
L 3794 2478
L 3794 3072
z
M 3794 1184
L 3794 1778
L 2575 1778
L 2575 1184
L 3794 1184
z
" transform="scale(0.015625)"/>
    </defs>
    <use xlink:href="#MicrosoftYaHei-Bold-5b98"/>
    <use xlink:href="#MicrosoftYaHei-Bold-65b9" transform="translate(100 0)"/>
    <use xlink:href="#MicrosoftYaHei-Bold-6570" transform="translate(200 0)"/>
    <use xlink:href="#MicrosoftYaHei-Bold-636e" transform="translate(300 0)"/>
    <use xlink:href="#MicrosoftYaHei-Bold-96c6" transform="translate(400 0)"/>
    <use xlink:href="#MicrosoftYaHei-Bold-663e" transform="translate(500 0)"/>
    <use xlink:href="#MicrosoftYaHei-Bold-793a" transform="translate(600 0)"/>
    <use xlink:href="#MicrosoftYaHei-Bold-7f51" transform="translate(700 0)"/>
    <use xlink:href="#MicrosoftYaHei-Bold-7edc" transform="translate(800 0)"/>
    <use xlink:href="#MicrosoftYaHei-Bold-89c4" transform="translate(900 0)"/>
    <use xlink:href="#MicrosoftYaHei-Bold-6a21" transform="translate(1000 0)"/>
    <use xlink:href="#MicrosoftYaHei-Bold-51b3" transform="translate(1100 0)"/>
    <use xlink:href="#MicrosoftYaHei-Bold-5b9a" transform="translate(1200 0)"/>
    <use xlink:href="#MicrosoftYaHei-Bold-8fd0" transform="translate(1300 0)"/>
    <use xlink:href="#MicrosoftYaHei-Bold-884c" transform="translate(1400 0)"/>
    <use xlink:href="#MicrosoftYaHei-Bold-65f6" transform="translate(1500 0)"/>
    <use xlink:href="#MicrosoftYaHei-Bold-95f4" transform="translate(1600 0)"/>
   </g>
  </g>
  <g id="text_21">
   <!-- 每个点代表一个 Princeton 数据集和一种算法；标签标出优化算法对应的数据集。 -->
   <g style="fill: #6f768a" transform="translate(51.095625 37.114062) scale(0.095 -0.095)">
    <defs>
     <path id="MicrosoftYaHei-6bcf" d="M 125 2203
L 1044 2203
L 1325 3766
L 5456 3766
Q 5422 2928 5391 2203
L 6300 2203
L 6300 1753
L 5372 1753
Q 5344 1141 5319 616
L 6075 616
L 6075 178
L 5284 178
Q 5222 -278 5031 -484
Q 4788 -753 4181 -753
Q 3831 -753 3288 -728
Q 3256 -516 3194 -222
Q 3838 -278 4119 -278
Q 4513 -278 4638 -128
Q 4722 -41 4766 178
L 763 178
L 763 647
L 963 1753
L 125 1753
L 125 2203
z
M 4866 1753
L 1472 1753
L 1275 616
L 4813 616
Q 4844 1172 4866 1753
z
M 4925 3328
L 1750 3328
L 1553 2203
L 4888 2203
Q 4906 2753 4925 3328
z
M 100 3522
Q 1025 4309 1550 5359
L 2113 5359
Q 1966 5069 1803 4803
L 6156 4803
L 6156 4353
L 1509 4353
Q 1022 3659 413 3134
Q 281 3316 100 3522
z
M 2619 2978
L 2913 3303
Q 3388 2934 3750 2622
L 3413 2247
Q 3025 2628 2619 2978
z
M 2569 1391
L 2863 1716
Q 3338 1347 3700 1034
L 3369 666
Q 2888 1116 2569 1391
z
" transform="scale(0.015625)"/>
     <path id="MicrosoftYaHei-4e2a" d="M 2913 3028
L 3481 3028
L 3481 -841
L 2913 -841
L 2913 3028
z
M 3600 5178
L 3506 5034
Q 4519 3366 6319 2647
Q 6125 2341 5988 2084
Q 4150 3047 3206 4566
Q 2281 3122 400 1997
Q 263 2222 81 2491
Q 2031 3572 2981 5178
L 3600 5178
z
" transform="scale(0.015625)"/>
     <path id="MicrosoftYaHei-70b9" d="M 900 3378
L 2863 3378
L 2863 5341
L 3388 5341
L 3388 4591
L 6181 4591
L 6181 4141
L 3388 4141
L 3388 3378
L 5600 3378
L 5600 991
L 5088 991
L 5088 1253
L 1413 1253
L 1413 991
L 900 991
L 900 3378
z
M 5088 2928
L 1413 2928
L 1413 1703
L 5088 1703
L 5088 2928
z
M 5425 847
Q 5925 91 6225 -516
L 5750 -772
Q 5438 -134 4994 622
L 5425 847
z
M 1369 553
Q 894 -303 531 -791
L 100 -484
Q 506 53 931 803
L 1369 553
z
M 2413 828
Q 2700 197 2913 -503
L 2406 -678
Q 2213 3 1963 666
L 2413 828
z
M 3906 872
Q 4206 253 4450 -422
L 3956 -616
Q 3781 -53 3450 697
L 3906 872
z
" transform="scale(0.015625)"/>
     <path id="MicrosoftYaHei-4ee3" d="M 1850 3141
L 3328 3303
Q 3253 4097 3225 5284
L 3769 5284
Q 3756 4350 3847 3359
L 6138 3609
L 6194 3147
L 3897 2894
Q 4250 306 5256 -209
Q 5531 -322 5613 -28
Q 5731 416 5813 978
Q 6075 866 6313 797
Q 6219 191 6088 -278
Q 5919 -822 5419 -809
Q 4881 -791 4394 -166
Q 3669 678 3384 2838
L 1925 2678
L 1850 3141
z
M 38 2322
Q 1013 3634 1581 5322
L 2081 5147
Q 1803 4419 1500 3794
L 1500 -841
L 988 -841
L 988 2834
Q 631 2238 250 1759
Q 163 2016 38 2322
z
M 4344 4791
L 4669 5122
Q 5219 4703 5794 4191
L 5413 3803
Q 4888 4341 4344 4791
z
" transform="scale(0.015625)"/>
     <path id="MicrosoftYaHei-8868" d="M 5519 1891
L 5863 1459
L 4466 759
Q 5200 159 6306 -34
Q 6094 -309 5956 -534
Q 3941 -53 3066 1944
Q 2747 1538 2338 1172
L 2338 -166
Q 3163 103 3869 397
Q 3863 122 3875 -147
Q 3125 -403 2325 -709
Q 2156 -778 1994 -872
L 1700 -416
Q 1875 -291 1875 -66
L 1875 794
Q 1228 309 406 -84
Q 269 134 88 347
Q 1703 1009 2625 2122
L 156 2122
L 156 2553
L 2956 2553
L 2956 3191
L 600 3191
L 600 3622
L 2956 3622
L 2956 4234
L 350 4234
L 350 4666
L 2956 4666
L 2956 5366
L 3450 5366
L 3450 4666
L 6069 4666
L 6069 4234
L 3450 4234
L 3450 3622
L 5800 3622
L 5800 3191
L 3450 3191
L 3450 2553
L 6244 2553
L 6244 2122
L 3466 2122
Q 3728 1513 4141 1066
Q 4769 1378 5519 1891
z
" transform="scale(0.015625)"/>
     <path id="MicrosoftYaHei-4e00" d="M 100 2703
L 6313 2703
L 6313 2153
L 100 2153
L 100 2703
z
" transform="scale(0.015625)"/>
     <path id="MicrosoftYaHei-20" transform="scale(0.015625)"/>
     <path id="MicrosoftYaHei-50" d="M 1250 1809
L 1250 0
L 625 0
L 625 4841
L 2000 4841
Q 2784 4841 3217 4462
Q 3650 4084 3650 3381
Q 3650 2669 3144 2226
Q 2638 1784 1878 1809
L 1250 1809
z
M 1250 4291
L 1250 2359
L 1828 2359
Q 2400 2359 2697 2617
Q 2994 2875 2994 3356
Q 2994 4291 1888 4291
L 1250 4291
z
" transform="scale(0.015625)"/>
     <path id="MicrosoftYaHei-636e" d="M 2900 1334
L 4188 1334
L 4188 2128
L 2731 2128
Q 2663 206 1844 -841
Q 1694 -647 1506 -447
Q 2288 516 2288 2509
L 2288 4947
L 5975 4947
L 5975 3134
L 5525 3134
L 5525 3328
L 2738 3328
L 2738 2553
L 4188 2553
L 4188 3209
L 4638 3209
L 4638 2553
L 6288 2553
L 6288 2128
L 4638 2128
L 4638 1334
L 5938 1334
L 5938 -778
L 5488 -778
L 5488 -416
L 3350 -416
L 3350 -778
L 2900 -778
L 2900 1334
z
M 100 1966
Q 544 2088 963 2213
L 963 3641
L 175 3641
L 175 4091
L 963 4091
L 963 5284
L 1425 5284
L 1425 4091
L 2106 4091
L 2106 3641
L 1425 3641
L 1425 2356
Q 1722 2450 2006 2547
Q 2013 2266 2044 2059
Q 1722 1956 1425 1856
L 1425 -34
Q 1425 -741 806 -753
Q 613 -759 231 -747
Q 206 -497 156 -228
Q 500 -266 681 -266
Q 963 -266 963 53
L 963 1703
Q 534 1559 163 1428
L 100 1966
z
M 5525 4534
L 2738 4534
L 2738 3741
L 5525 3741
L 5525 4534
z
M 5488 922
L 3350 922
L 3350 -9
L 5488 -9
L 5488 922
z
" transform="scale(0.015625)"/>
     <path id="MicrosoftYaHei-96c6" d="M 3056 5134
L 3425 5359
Q 3719 5034 3906 4722
L 3619 4541
L 6013 4541
L 6013 4153
L 3644 4153
L 3644 3709
L 5738 3709
L 5738 3347
L 3644 3347
L 3644 2903
L 5738 2903
L 5738 2541
L 3644 2541
L 3644 2084
L 6031 2084
L 6031 1697
L 1475 1697
L 1475 1459
L 1038 1459
L 1038 3684
Q 716 3309 381 3009
Q 281 3191 81 3422
Q 988 4178 1613 5284
L 2044 5091
Q 1869 4803 1688 4541
L 3456 4541
Q 3288 4825 3056 5134
z
M 288 1141
L 2981 1141
L 2981 1566
L 3419 1566
L 3419 1141
L 6106 1141
L 6106 741
L 3906 741
Q 5000 -31 6338 -303
Q 6169 -566 6044 -766
Q 4519 -325 3419 631
L 3419 -834
L 2981 -834
L 2981 638
Q 1844 -313 356 -778
Q 225 -584 63 -384
Q 1406 -56 2475 741
L 288 741
L 288 1141
z
M 1475 2084
L 3206 2084
L 3206 2541
L 1475 2541
L 1475 2084
z
M 1475 2903
L 3206 2903
L 3206 3347
L 1475 3347
L 1475 2903
z
M 1475 3709
L 3206 3709
L 3206 4153
L 1475 4153
L 1475 3709
z
" transform="scale(0.015625)"/>
     <path id="MicrosoftYaHei-548c" d="M 3263 4553
L 6025 4553
L 6025 -666
L 5525 -666
L 5525 -59
L 3763 -59
L 3763 -666
L 3263 -666
L 3263 4553
z
M 5525 4091
L 3763 4091
L 3763 391
L 5525 391
L 5525 4091
z
M 75 897
Q 788 1841 1206 2997
L 113 2997
L 113 3422
L 1306 3422
L 1306 4409
Q 819 4334 319 4272
Q 263 4478 181 4703
Q 1481 4847 2700 5128
L 2844 4691
Q 2325 4584 1781 4491
L 1781 3422
L 2950 3422
L 2950 2997
L 1781 2997
L 1781 2191
L 2006 2416
Q 2500 1991 2975 1516
L 2619 1153
Q 2244 1584 1781 2034
L 1781 -872
L 1306 -872
L 1306 2128
Q 938 1203 313 359
Q 213 603 75 897
z
" transform="scale(0.015625)"/>
     <path id="MicrosoftYaHei-79cd" d="M 2700 4066
L 4113 4066
L 4113 5316
L 4588 5316
L 4588 4066
L 6006 4066
L 6006 1053
L 5556 1053
L 5556 1353
L 4588 1353
L 4588 -841
L 4113 -841
L 4113 1353
L 3150 1353
L 3150 1053
L 2700 1053
L 2700 4066
z
M 88 878
Q 669 1691 1063 2972
L 119 2972
L 119 3416
L 1119 3416
L 1119 4434
Q 738 4403 294 4372
Q 263 4584 200 4828
Q 1475 4897 2425 5034
L 2538 4559
Q 2141 4519 1581 4472
L 1581 3416
L 2475 3416
L 2475 2972
L 1581 2972
L 1581 2159
L 1850 2378
Q 2188 2028 2606 1516
L 2225 1203
Q 1888 1669 1581 2025
L 1581 -828
L 1119 -828
L 1119 1894
Q 791 972 306 341
Q 206 603 88 878
z
M 5556 3634
L 4588 3634
L 4588 1784
L 5556 1784
L 5556 3634
z
M 3150 1784
L 4113 1784
L 4113 3634
L 3150 3634
L 3150 1784
z
" transform="scale(0.015625)"/>
     <path id="MicrosoftYaHei-7b97" d="M 969 3728
L 2006 3728
Q 1775 4016 1544 4266
L 1769 4428
L 1244 4428
Q 875 3963 400 3566
Q 263 3722 88 3884
Q 856 4484 1300 5347
L 1831 5347
Q 1684 5059 1506 4791
L 3325 4791
L 3325 4428
L 1919 4428
Q 2144 4200 2369 3953
L 2072 3728
L 4953 3728
Q 4716 4003 4425 4266
L 4641 4428
L 4019 4428
Q 3772 4050 3506 3753
Q 3344 3897 3125 4047
Q 3656 4603 4000 5347
L 4538 5347
Q 4394 5053 4244 4791
L 6225 4791
L 6225 4428
L 4800 4428
Q 5069 4206 5294 3972
L 4991 3728
L 5475 3728
L 5475 916
L 5038 916
L 5038 1122
L 1406 1122
L 1406 916
L 969 916
L 969 3728
z
M 150 609
L 1850 609
Q 1875 788 1875 1003
L 2331 1003
Q 2331 794 2309 609
L 4356 609
L 4356 997
L 4819 997
L 4819 609
L 6300 609
L 6300 222
L 4819 222
L 4819 -828
L 4356 -828
L 4356 222
L 2244 222
Q 2019 -619 763 -884
Q 644 -691 488 -472
Q 1525 -297 1756 222
L 150 222
L 150 609
z
M 5038 3378
L 1406 3378
L 1406 2959
L 5038 2959
L 5038 3378
z
M 1406 1472
L 5038 1472
L 5038 1891
L 1406 1891
L 1406 1472
z
M 1406 2216
L 5038 2216
L 5038 2634
L 1406 2634
L 1406 2216
z
" transform="scale(0.015625)"/>
     <path id="MicrosoftYaHei-6cd5" d="M 4888 1328
Q 5488 509 6181 -553
Q 5931 -697 5694 -841
Q 5519 -550 5350 -278
Q 3300 -447 2138 -559
L 1906 -16
Q 2300 159 2675 716
Q 3088 1303 3441 1953
L 1800 1953
L 1800 2403
L 3763 2403
L 3763 3728
L 2106 3728
L 2106 4178
L 3763 4178
L 3763 5322
L 4263 5322
L 4263 4178
L 5994 4178
L 5994 3728
L 4263 3728
L 4263 2403
L 6288 2403
L 6288 1953
L 4069 1953
Q 3372 806 2706 -28
Q 3897 28 5088 141
Q 4766 644 4475 1066
L 4888 1328
z
M 1013 1828
Q 1244 1728 1506 1622
Q 1063 291 731 -784
L 194 -603
Q 606 497 1013 1828
z
M 400 3622
Q 869 3291 1500 2772
Q 1269 2509 1138 2366
Q 431 2997 88 3259
L 400 3622
z
M 644 5241
Q 1144 4841 1719 4328
Q 1506 4109 1350 3941
Q 775 4509 325 4897
L 644 5241
z
" transform="scale(0.015625)"/>
     <path id="MicrosoftYaHei-ff1b" d="M 1606 3531
Q 1772 3531 1890 3415
Q 2009 3300 2009 3138
Q 2009 2975 1893 2858
Q 1778 2741 1606 2741
Q 1434 2741 1318 2858
Q 1203 2975 1203 3138
Q 1203 3300 1322 3415
Q 1441 3531 1606 3531
z
M 1931 775
L 1403 -891
L 966 -891
L 1350 775
L 1931 775
z
" transform="scale(0.015625)"/>
     <path id="MicrosoftYaHei-7b7e" d="M 3644 3834
L 3531 3697
Q 4644 2547 6319 2122
Q 6125 1859 5981 1622
Q 5275 1866 4663 2228
L 4663 1897
L 1744 1897
L 1744 2259
Q 1113 1878 375 1541
Q 219 1791 63 1972
Q 1856 2678 3031 3834
L 3644 3834
z
M 338 -116
L 4019 -116
Q 4556 784 4913 1603
L 5388 1353
Q 4956 597 4525 -116
L 6075 -116
L 6075 -559
L 338 -559
L 338 -116
z
M 1294 5322
L 1831 5322
Q 1675 5009 1513 4728
L 3325 4728
L 3325 4309
L 1256 4309
Q 850 3697 394 3259
Q 256 3441 75 3628
Q 806 4316 1294 5322
z
M 4019 5322
L 4538 5322
Q 4400 5009 4250 4728
L 6250 4728
L 6250 4309
L 4006 4309
Q 3838 4047 3694 3853
Q 3463 3984 3244 4078
Q 3706 4597 4019 5322
z
M 3219 3372
Q 2619 2809 1838 2322
L 4506 2322
Q 3794 2766 3219 3372
z
M 963 1291
L 1363 1497
Q 1738 884 2044 234
L 1619 -3
Q 1325 672 963 1291
z
M 2744 1584
L 3175 1703
Q 3419 1022 3600 322
L 3138 184
Q 2963 959 2744 1584
z
M 5031 3153
Q 4756 3466 4331 3847
L 4631 4134
Q 5050 3784 5363 3472
L 5031 3153
z
M 1925 3241
Q 1663 3584 1394 3897
L 1719 4141
Q 2000 3872 2294 3534
L 1925 3241
z
" transform="scale(0.015625)"/>
     <path id="MicrosoftYaHei-51fa" d="M 5100 2172
L 5100 2403
L 3456 2403
L 3456 -47
L 5288 -47
L 5288 1734
L 5813 1734
L 5813 -747
L 5288 -747
L 5288 -522
L 588 -522
L 588 1734
L 1119 1734
L 1119 -47
L 2913 -47
L 2913 2403
L 756 2403
L 756 4647
L 1288 4647
L 1288 2878
L 2913 2878
L 2913 5222
L 3456 5222
L 3456 2878
L 5100 2878
L 5100 4647
L 5631 4647
L 5631 2172
L 5100 2172
z
" transform="scale(0.015625)"/>
     <path id="MicrosoftYaHei-4f18" d="M 1825 3609
L 3184 3609
Q 3216 4322 3213 5272
L 3713 5272
Q 3719 4338 3688 3609
L 6188 3609
L 6188 3153
L 4475 3153
L 4475 228
Q 4475 -122 4838 -122
L 5244 -122
Q 5656 -122 5700 303
Q 5750 659 5781 1266
Q 6031 1166 6294 1066
Q 6244 528 6175 109
Q 6100 -291 5900 -447
Q 5713 -603 5275 -597
L 4763 -597
Q 4325 -597 4150 -422
Q 3969 -259 3969 184
L 3969 3153
L 3663 3153
Q 3600 791 1950 -803
Q 1775 -597 1575 -397
Q 3100 1028 3159 3153
L 1825 3153
L 1825 3609
z
M 88 2334
Q 1056 3641 1556 5291
L 2063 5122
Q 1753 4253 1388 3522
L 1388 -809
L 913 -809
L 913 2666
Q 616 2184 288 1778
Q 194 2047 88 2334
z
M 4600 5184
Q 5269 4759 5713 4391
Q 5538 4197 5388 3991
Q 4875 4447 4325 4841
L 4600 5184
z
" transform="scale(0.015625)"/>
     <path id="MicrosoftYaHei-5316" d="M 1844 1453
Q 2663 1834 3375 2331
L 3375 5197
L 3913 5197
L 3913 2734
Q 4869 3506 5613 4516
L 6069 4184
Q 5159 2975 3913 2069
L 3913 303
Q 3913 -122 4363 -122
L 5156 -122
Q 5581 -122 5650 284
Q 5738 709 5763 1266
Q 6025 1166 6313 1084
Q 6263 559 6181 122
Q 6063 -597 5281 -597
L 4225 -597
Q 3375 -597 3375 241
L 3375 1703
Q 2791 1328 2144 1016
Q 2013 1222 1844 1453
z
M 88 2222
Q 1175 3666 1688 5291
L 2231 5134
Q 1934 4359 1588 3675
L 1588 -797
L 1063 -797
L 1063 2734
Q 716 2172 325 1678
Q 219 1947 88 2222
z
" transform="scale(0.015625)"/>
     <path id="MicrosoftYaHei-5bf9" d="M 694 3691
Q 1234 2909 1741 2166
Q 2113 3081 2213 4147
L 250 4147
L 250 4622
L 2725 4622
L 2725 4166
Q 2553 2809 2059 1700
Q 2569 953 3044 247
L 2594 -53
Q 2203 563 1803 1181
Q 1247 163 388 -622
Q 263 -428 81 -166
Q 975 638 1500 1647
Q 919 2538 319 3434
L 694 3691
z
M 2975 3941
L 5056 3941
L 5056 5278
L 5563 5278
L 5563 3941
L 6325 3941
L 6325 3466
L 5563 3466
L 5563 191
Q 5563 -716 4669 -716
Q 4388 -716 3744 -709
Q 3713 -478 3644 -147
Q 4263 -197 4588 -197
Q 5056 -197 5056 278
L 5056 3466
L 2975 3466
L 2975 3941
z
M 3088 2684
L 3494 2928
Q 4000 2184 4388 1484
L 3919 1216
Q 3550 1922 3088 2684
z
" transform="scale(0.015625)"/>
     <path id="MicrosoftYaHei-5e94" d="M 2969 5134
L 3425 5378
Q 3694 5034 3938 4634
L 3634 4459
L 6169 4459
L 6169 3984
L 1300 3984
L 1300 2453
Q 1300 241 388 -853
Q 238 -647 25 -422
Q 775 416 775 2441
L 775 4459
L 3419 4459
Q 3216 4803 2969 5134
z
M 1263 -9
L 4153 -9
Q 4641 1238 5188 3403
L 5731 3253
Q 5147 1191 4694 -9
L 6238 -9
L 6238 -484
L 1263 -484
L 1263 -9
z
M 1600 3059
L 2075 3222
Q 2463 2084 2825 672
L 2294 509
Q 2006 1747 1600 3059
z
M 3106 3372
L 3588 3509
Q 3913 2384 4163 991
L 3613 847
Q 3431 2084 3106 3372
z
" transform="scale(0.015625)"/>
     <path id="MicrosoftYaHei-7684" d="M 356 4284
L 988 4284
Q 1219 4853 1369 5322
L 1894 5172
Q 1697 4694 1513 4284
L 2763 4284
L 2763 -691
L 2263 -691
L 2263 -203
L 856 -203
L 856 -734
L 356 -734
L 356 4284
z
M 2856 3003
Q 3444 3934 3850 5322
L 4375 5191
Q 4216 4719 4050 4303
L 6063 4303
Q 5988 1091 5938 259
Q 5894 -722 4906 -722
Q 4338 -722 3750 -684
Q 3713 -372 3650 -128
L 3669 -128
Q 4294 -216 4813 -216
Q 5381 -216 5425 384
Q 5494 1316 5525 3834
L 3850 3834
Q 3578 3231 3288 2772
Q 3119 2891 2856 3003
z
M 856 266
L 2263 266
L 2263 1847
L 856 1847
L 856 266
z
M 2263 3816
L 856 3816
L 856 2297
L 2263 2297
L 2263 3816
z
M 3406 2578
L 3788 2859
Q 4481 2041 4894 1441
L 4431 1116
Q 3988 1841 3406 2578
z
" transform="scale(0.015625)"/>
     <path id="MicrosoftYaHei-3002" d="M 1219 863
Q 1525 863 1750 625
Q 1975 388 1975 72
Q 1975 -284 1747 -507
Q 1519 -731 1197 -731
Q 875 -731 642 -503
Q 409 -275 409 66
Q 409 413 656 638
Q 903 863 1219 863
z
M 1209 -275
Q 1328 -275 1431 -184
Q 1534 -94 1534 50
Q 1534 209 1434 304
Q 1334 400 1191 400
Q 1056 400 959 304
Q 863 209 863 53
Q 863 -100 977 -187
Q 1091 -275 1209 -275
z
" transform="scale(0.015625)"/>
    </defs>
    <use xlink:href="#MicrosoftYaHei-6bcf"/>
    <use xlink:href="#MicrosoftYaHei-4e2a" transform="translate(100 0)"/>
    <use xlink:href="#MicrosoftYaHei-70b9" transform="translate(200 0)"/>
    <use xlink:href="#MicrosoftYaHei-4ee3" transform="translate(300 0)"/>
    <use xlink:href="#MicrosoftYaHei-8868" transform="translate(400 0)"/>
    <use xlink:href="#MicrosoftYaHei-4e00" transform="translate(500 0)"/>
    <use xlink:href="#MicrosoftYaHei-4e2a" transform="translate(600 0)"/>
    <use xlink:href="#MicrosoftYaHei-20" transform="translate(700 0)"/>
    <use xlink:href="#MicrosoftYaHei-50" transform="translate(729.589844 0)"/>
    <use xlink:href="#MicrosoftYaHei-72" transform="translate(790.771484 0)"/>
    <use xlink:href="#MicrosoftYaHei-69" transform="translate(828.955078 0)"/>
    <use xlink:href="#MicrosoftYaHei-6e" transform="translate(855.566406 0)"/>
    <use xlink:href="#MicrosoftYaHei-63" transform="translate(917.1875 0)"/>
    <use xlink:href="#MicrosoftYaHei-65" transform="translate(967.333984 0)"/>
    <use xlink:href="#MicrosoftYaHei-74" transform="translate(1024.072266 0)"/>
    <use xlink:href="#MicrosoftYaHei-6f" transform="translate(1060.453125 0)"/>
    <use xlink:href="#MicrosoftYaHei-6e" transform="translate(1124.027344 0)"/>
    <use xlink:href="#MicrosoftYaHei-20" transform="translate(1185.648438 0)"/>
    <use xlink:href="#MicrosoftYaHei-6570" transform="translate(1215.238281 0)"/>
    <use xlink:href="#MicrosoftYaHei-636e" transform="translate(1315.238281 0)"/>
    <use xlink:href="#MicrosoftYaHei-96c6" transform="translate(1415.238281 0)"/>
    <use xlink:href="#MicrosoftYaHei-548c" transform="translate(1515.238281 0)"/>
    <use xlink:href="#MicrosoftYaHei-4e00" transform="translate(1615.238281 0)"/>
    <use xlink:href="#MicrosoftYaHei-79cd" transform="translate(1715.238281 0)"/>
    <use xlink:href="#MicrosoftYaHei-7b97" transform="translate(1815.238281 0)"/>
    <use xlink:href="#MicrosoftYaHei-6cd5" transform="translate(1915.238281 0)"/>
    <use xlink:href="#MicrosoftYaHei-ff1b" transform="translate(2015.238281 0)"/>
    <use xlink:href="#MicrosoftYaHei-6807" transform="translate(2115.238281 0)"/>
    <use xlink:href="#MicrosoftYaHei-7b7e" transform="translate(2215.238281 0)"/>
    <use xlink:href="#MicrosoftYaHei-6807" transform="translate(2315.238281 0)"/>
    <use xlink:href="#MicrosoftYaHei-51fa" transform="translate(2415.238281 0)"/>
    <use xlink:href="#MicrosoftYaHei-4f18" transform="translate(2515.238281 0)"/>
    <use xlink:href="#MicrosoftYaHei-5316" transform="translate(2615.238281 0)"/>
    <use xlink:href="#MicrosoftYaHei-7b97" transform="translate(2715.238281 0)"/>
    <use xlink:href="#MicrosoftYaHei-6cd5" transform="translate(2815.238281 0)"/>
    <use xlink:href="#MicrosoftYaHei-5bf9" transform="translate(2915.238281 0)"/>
    <use xlink:href="#MicrosoftYaHei-5e94" transform="translate(3015.238281 0)"/>
    <use xlink:href="#MicrosoftYaHei-7684" transform="translate(3115.238281 0)"/>
    <use xlink:href="#MicrosoftYaHei-6570" transform="translate(3215.238281 0)"/>
    <use xlink:href="#MicrosoftYaHei-636e" transform="translate(3315.238281 0)"/>
    <use xlink:href="#MicrosoftYaHei-96c6" transform="translate(3415.238281 0)"/>
    <use xlink:href="#MicrosoftYaHei-3002" transform="translate(3515.238281 0)"/>
   </g>
  </g>
 </g>
 <defs>
  <clipPath id="p79052f9564">
   <rect x="51.095625" y="85.32" width="665.28" height="299.088"/>
  </clipPath>
 </defs>
</svg>
