<?xml version="1.0" encoding="utf-8" standalone="no"?>
<!DOCTYPE svg PUBLIC "-//W3C//DTD SVG 1.1//EN"
  "http://www.w3.org/Graphics/SVG/1.1/DTD/svg11.dtd">
<svg xmlns:xlink="http://www.w3.org/1999/xlink" width="1018.775625pt" height="372.763281pt" viewBox="0 0 1018.775625 372.763281" xmlns="http://www.w3.org/2000/svg" version="1.1">
 <metadata>
  <rdf:RDF xmlns:dc="http://purl.org/dc/elements/1.1/" xmlns:cc="http://creativecommons.org/ns#" xmlns:rdf="http://www.w3.org/1999/02/22-rdf-syntax-ns#">
   <cc:Work>
    <dc:type rdf:resource="http://purl.org/dc/dcmitype/StillImage"/>
    <dc:date>2026-06-25T10:19:54.192168</dc:date>
    <dc:format>image/svg+xml</dc:format>
    <dc:creator>
     <cc:Agent>
      <dc:title>Matplotlib v3.10.0, https://matplotlib.org/</dc:title>
     </cc:Agent>
    </dc:creator>
   </cc:Work>
  </rdf:RDF>
 </metadata>
 <defs>
  <style type="text/css">*{stroke-linejoin: round; stroke-linecap: butt}</style>
 </defs>
 <g id="figure_1">
  <g id="patch_1">
   <path d="M 0 372.763281
L 1018.775625 372.763281
L 1018.775625 0
L 0 0
z
" style="fill: #fcfcfd"/>
  </g>
  <g id="axes_1">
   <g id="patch_2">
    <path d="M 51.095625 327.96
L 317.895625 327.96
L 317.895625 90.792
L 51.095625 90.792
z
" style="fill: #ffffff"/>
   </g>
   <g id="matplotlib.axis_1">
    <g id="xtick_1">
     <g id="text_1">
      <!-- 10 -->
      <g style="fill: #262626" transform="translate(81.026974 346.253125) scale(0.11 -0.11)">
       <defs>
        <path id="MicrosoftYaHei-31" d="M 1781 0
L 1781 4141
Q 1638 3997 1295 3819
Q 953 3641 663 3569
L 663 4169
Q 1047 4275 1484 4508
Q 1922 4741 2156 4947
L 2388 4947
L 2388 0
L 1781 0
z
" transform="scale(0.015625)"/>
        <path id="MicrosoftYaHei-30" d="M 284 2325
Q 284 3606 709 4264
Q 1134 4922 1941 4922
Q 3478 4922 3478 2441
Q 3478 1216 3045 567
Q 2613 -81 1831 -81
Q 1094 -81 689 534
Q 284 1150 284 2325
z
M 909 2353
Q 909 425 1888 425
Q 2850 425 2850 2384
Q 2850 4413 1906 4413
Q 909 4413 909 2353
z
" transform="scale(0.015625)"/>
       </defs>
       <use xlink:href="#MicrosoftYaHei-31"/>
       <use xlink:href="#MicrosoftYaHei-30" transform="translate(58.642578 0)"/>
      </g>
     </g>
    </g>
    <g id="xtick_2">
     <g id="text_2">
      <!-- 15 -->
      <g style="fill: #262626" transform="translate(141.663338 346.253125) scale(0.11 -0.11)">
       <defs>
        <path id="MicrosoftYaHei-35" d="M 3294 1494
Q 3294 784 2823 350
Q 2353 -84 1559 -84
Q 878 -84 544 119
L 544 744
Q 1034 425 1544 425
Q 2050 425 2361 704
Q 2672 984 2672 1447
Q 2672 1909 2348 2167
Q 2025 2425 1434 2425
Q 978 2425 613 2384
L 791 4841
L 3053 4841
L 3053 4303
L 1306 4303
L 1206 2931
L 1647 2950
Q 2416 2950 2855 2567
Q 3294 2184 3294 1494
z
" transform="scale(0.015625)"/>
       </defs>
       <use xlink:href="#MicrosoftYaHei-31"/>
       <use xlink:href="#MicrosoftYaHei-35" transform="translate(58.642578 0)"/>
      </g>
     </g>
    </g>
    <g id="xtick_3">
     <g id="text_3">
      <!-- 20 -->
      <g style="fill: #262626" transform="translate(202.299702 346.253125) scale(0.11 -0.11)">
       <defs>
        <path id="MicrosoftYaHei-32" d="M 2666 3572
Q 2666 3963 2419 4186
Q 2172 4409 1747 4409
Q 1447 4409 1140 4256
Q 834 4103 569 3819
L 569 4413
Q 806 4659 1107 4790
Q 1409 4922 1816 4922
Q 2472 4922 2872 4570
Q 3272 4219 3272 3619
Q 3272 3084 3026 2693
Q 2781 2303 2188 1894
Q 1581 1475 1376 1294
Q 1172 1113 1090 947
Q 1009 781 1009 544
L 3416 544
L 3416 0
L 372 0
L 372 241
Q 372 659 486 951
Q 600 1244 862 1520
Q 1125 1797 1681 2184
Q 2250 2584 2458 2886
Q 2666 3188 2666 3572
z
" transform="scale(0.015625)"/>
       </defs>
       <use xlink:href="#MicrosoftYaHei-32"/>
       <use xlink:href="#MicrosoftYaHei-30" transform="translate(58.642578 0)"/>
      </g>
     </g>
    </g>
    <g id="xtick_4">
     <g id="text_4">
      <!-- 25 -->
      <g style="fill: #262626" transform="translate(262.936065 346.253125) scale(0.11 -0.11)">
       <use xlink:href="#MicrosoftYaHei-32"/>
       <use xlink:href="#MicrosoftYaHei-35" transform="translate(58.642578 0)"/>
      </g>
     </g>
    </g>
    <g id="text_5">
     <!-- 球队数量 -->
     <g style="fill: #1f2430" transform="translate(160.495625 362.580156) scale(0.12 -0.12)">
      <defs>
       <path id="MicrosoftYaHei-7403" d="M 2244 766
Q 3059 1263 3950 1872
L 3950 3691
L 2350 3691
L 2350 4141
L 3950 4141
L 3950 5253
L 4425 5253
L 4425 4141
L 6200 4141
L 6200 3691
L 4425 3691
L 4425 3134
Q 4581 2622 4791 2184
Q 5331 2709 5694 3153
L 6100 2809
Q 5584 2300 5003 1778
Q 5547 838 6356 322
Q 6319 266 6194 128
Q 6056 -16 6000 -97
Q 4975 644 4425 2034
L 4425 16
Q 4425 -728 3650 -728
Q 3344 -728 2994 -722
Q 2956 -484 2894 -209
Q 3263 -253 3563 -253
Q 3950 -253 3950 128
L 3950 1319
Q 3303 869 2556 316
L 2244 766
z
M 94 359
Q 516 403 981 463
L 981 2353
L 213 2353
L 213 2803
L 981 2803
L 981 4272
L 131 4272
L 131 4722
L 2269 4722
L 2269 4272
L 1438 4272
L 1438 2803
L 2163 2803
L 2163 2353
L 1438 2353
L 1438 522
Q 1813 575 2213 634
Q 2188 384 2181 153
Q 1013 3 156 -128
L 94 359
z
M 2381 3022
L 2763 3253
Q 3169 2722 3569 2078
L 3169 1803
Q 2738 2534 2381 3022
z
M 4763 4884
L 5038 5197
Q 5481 4903 5850 4591
L 5550 4247
Q 5181 4591 4763 4884
z
" transform="scale(0.015625)"/>
       <path id="MicrosoftYaHei-961f" d="M 2456 1728
Q 2663 603 1831 466
Q 1575 422 1163 459
Q 1113 716 1019 997
Q 1369 916 1625 947
Q 2125 997 1931 1747
Q 1819 2266 1338 2866
Q 1688 3772 1931 4566
L 913 4566
L 913 -841
L 419 -841
L 419 5003
L 2469 5003
L 2469 4566
Q 2144 3609 1869 2947
Q 2381 2272 2456 1728
z
M 3738 5253
L 4250 5253
Q 4244 4366 4228 3656
Q 4584 794 6325 -228
Q 6094 -478 5913 -709
Q 4522 291 4056 2316
Q 3703 409 2094 -822
Q 1950 -647 1725 -422
Q 3688 972 3725 3697
Q 3738 4216 3738 5253
z
" transform="scale(0.015625)"/>
       <path id="MicrosoftYaHei-6570" d="M 4175 5303
L 4675 5228
Q 4544 4622 4369 4097
L 6281 4097
L 6281 3672
L 5888 3672
Q 5731 1834 5088 753
Q 5594 66 6375 -372
Q 6175 -647 6038 -866
Q 5275 -372 4769 309
Q 4194 -403 3400 -928
Q 3263 -747 3044 -534
Q 3919 41 4463 772
Q 3956 1647 3794 2791
Q 3663 2559 3519 2359
Q 3394 2541 3206 2759
Q 3931 3803 4175 5303
z
M 150 1697
L 1100 1697
Q 1238 1934 1369 2184
L 1819 2041
Q 1719 1866 1619 1697
L 3150 1697
L 3150 1291
Q 2913 678 2431 216
Q 2775 53 3131 -109
L 2856 -541
Q 2469 -322 2050 -103
Q 1344 -609 269 -903
Q 169 -703 56 -466
Q 969 -259 1600 128
Q 1063 403 475 691
Q 675 978 863 1284
L 150 1284
L 150 1697
z
M 219 3847
L 1656 3847
L 1656 5247
L 2119 5247
L 2119 3847
L 3319 3847
L 3319 3434
L 2119 3434
L 2119 3053
L 2306 3266
Q 2888 2841 3281 2516
L 2981 2166
Q 2638 2491 2119 2897
L 2119 2184
L 1656 2184
L 1656 3059
Q 1088 2466 331 2016
Q 213 2197 63 2397
Q 850 2822 1506 3434
L 219 3434
L 219 3847
z
M 5388 3672
L 4219 3672
Q 4188 3591 4150 3516
Q 4263 2191 4775 1247
Q 5275 2159 5388 3672
z
M 1088 834
Q 1531 634 2000 416
Q 2431 784 2675 1284
L 1375 1284
Q 1231 1053 1088 834
z
M 3038 5091
L 3425 4834
Q 3081 4384 2738 4003
Q 2594 4128 2400 4266
Q 2725 4647 3038 5091
z
M 381 4816
L 738 5059
Q 1019 4716 1319 4322
L 931 4047
Q 656 4453 381 4816
z
" transform="scale(0.015625)"/>
       <path id="MicrosoftYaHei-91cf" d="M 113 -278
L 2981 -278
L 2981 78
L 475 78
L 475 403
L 2981 403
L 2981 759
L 1494 759
L 1494 597
L 1069 597
L 1069 2516
L 5350 2516
L 5350 597
L 4925 597
L 4925 759
L 3419 759
L 3419 403
L 5931 403
L 5931 78
L 3419 78
L 3419 -278
L 6288 -278
L 6288 -616
L 113 -616
L 113 -278
z
M 1119 5072
L 5306 5072
L 5306 3284
L 4881 3284
L 4881 3453
L 1544 3453
L 1544 3284
L 1119 3284
L 1119 5072
z
M 163 3153
L 6263 3153
L 6263 2816
L 163 2816
L 163 3153
z
M 1544 3778
L 4881 3778
L 4881 4116
L 1544 4116
L 1544 3778
z
M 4881 4747
L 1544 4747
L 1544 4416
L 4881 4416
L 4881 4747
z
M 3419 1084
L 4925 1084
L 4925 1491
L 3419 1491
L 3419 1084
z
M 1494 1084
L 2981 1084
L 2981 1491
L 1494 1491
L 1494 1084
z
M 4925 2191
L 3419 2191
L 3419 1791
L 4925 1791
L 4925 2191
z
M 1494 1791
L 2981 1791
L 2981 2191
L 1494 2191
L 1494 1791
z
" transform="scale(0.015625)"/>
      </defs>
      <use xlink:href="#MicrosoftYaHei-7403"/>
      <use xlink:href="#MicrosoftYaHei-961f" transform="translate(100 0)"/>
      <use xlink:href="#MicrosoftYaHei-6570" transform="translate(200 0)"/>
      <use xlink:href="#MicrosoftYaHei-91cf" transform="translate(300 0)"/>
     </g>
    </g>
   </g>
   <g id="matplotlib.axis_2">
    <g id="ytick_1">
     <g id="line2d_1">
      <path d="M 51.095625 280.3025
L 317.895625 280.3025
" clip-path="url(#p4b3fb60c11)" style="fill: none; stroke: #e6e8f0; stroke-width: 0.8; stroke-linecap: round"/>
     </g>
     <g id="text_6">
      <!-- $\mathdefault{10^{4}}$ -->
      <g style="fill: #262626" transform="translate(23.775625 284.699063) scale(0.11 -0.11)">
       <defs>
        <path id="MicrosoftYaHei-34" d="M 2906 4841
L 2906 1644
L 3631 1644
L 3631 1138
L 2906 1138
L 2906 0
L 2313 0
L 2313 1138
L 53 1138
L 53 1616
Q 656 2294 1265 3178
Q 1875 4063 2272 4841
L 2906 4841
z
M 741 1644
L 2313 1644
L 2313 3950
Q 1988 3366 1616 2817
Q 1244 2269 741 1644
z
" transform="scale(0.015625)"/>
       </defs>
       <use xlink:href="#MicrosoftYaHei-31" transform="translate(0 0.251563)"/>
       <use xlink:href="#MicrosoftYaHei-30" transform="translate(58.642578 0.251563)"/>
       <use xlink:href="#MicrosoftYaHei-34" transform="translate(118.230156 38.051563) scale(0.7)"/>
      </g>
     </g>
    </g>
    <g id="ytick_2">
     <g id="line2d_2">
      <path d="M 51.095625 219.73781
L 317.895625 219.73781
" clip-path="url(#p4b3fb60c11)" style="fill: none; stroke: #e6e8f0; stroke-width: 0.8; stroke-linecap: round"/>
     </g>
     <g id="text_7">
      <!-- $\mathdefault{10^{5}}$ -->
      <g style="fill: #262626" transform="translate(23.775625 224.134373) scale(0.11 -0.11)">
       <use xlink:href="#MicrosoftYaHei-31" transform="translate(0 0.251563)"/>
       <use xlink:href="#MicrosoftYaHei-30" transform="translate(58.642578 0.251563)"/>
       <use xlink:href="#MicrosoftYaHei-35" transform="translate(118.230156 38.051563) scale(0.7)"/>
      </g>
     </g>
    </g>
    <g id="ytick_3">
     <g id="line2d_3">
      <path d="M 51.095625 159.17312
L 317.895625 159.17312
" clip-path="url(#p4b3fb60c11)" style="fill: none; stroke: #e6e8f0; stroke-width: 0.8; stroke-linecap: round"/>
     </g>
     <g id="text_8">
      <!-- $\mathdefault{10^{6}}$ -->
      <g style="fill: #262626" transform="translate(23.775625 163.569683) scale(0.11 -0.11)">
       <defs>
        <path id="MicrosoftYaHei-36" d="M 3181 4219
Q 2803 4413 2391 4413
Q 1763 4413 1381 3866
Q 1000 3319 994 2372
L 1009 2372
Q 1353 3038 2106 3038
Q 2734 3038 3109 2628
Q 3484 2219 3484 1541
Q 3484 831 3051 375
Q 2619 -81 1947 -81
Q 1209 -81 789 495
Q 369 1072 369 2131
Q 369 3413 920 4167
Q 1472 4922 2372 4922
Q 2888 4922 3181 4781
L 3181 4219
z
M 1031 1584
Q 1031 1106 1286 765
Q 1541 425 1963 425
Q 2363 425 2613 719
Q 2863 1013 2863 1475
Q 2863 1975 2627 2253
Q 2391 2531 1956 2531
Q 1544 2531 1287 2250
Q 1031 1969 1031 1584
z
" transform="scale(0.015625)"/>
       </defs>
       <use xlink:href="#MicrosoftYaHei-31" transform="translate(0 0.365625)"/>
       <use xlink:href="#MicrosoftYaHei-30" transform="translate(58.642578 0.365625)"/>
       <use xlink:href="#MicrosoftYaHei-36" transform="translate(118.230156 38.165625) scale(0.7)"/>
      </g>
     </g>
    </g>
    <g id="ytick_4">
     <g id="line2d_4">
      <path d="M 51.095625 98.608431
L 317.895625 98.608431
" clip-path="url(#p4b3fb60c11)" style="fill: none; stroke: #e6e8f0; stroke-width: 0.8; stroke-linecap: round"/>
     </g>
     <g id="text_9">
      <!-- $\mathdefault{10^{7}}$ -->
      <g style="fill: #262626" transform="translate(23.775625 103.004993) scale(0.11 -0.11)">
       <defs>
        <path id="MicrosoftYaHei-37" d="M 3422 4463
Q 2659 3131 2223 1998
Q 1788 866 1684 0
L 1047 0
Q 1163 853 1594 1947
Q 2025 3041 2747 4300
L 347 4300
L 347 4841
L 3422 4841
L 3422 4463
z
" transform="scale(0.015625)"/>
       </defs>
       <use xlink:href="#MicrosoftYaHei-31" transform="translate(0 0.251563)"/>
       <use xlink:href="#MicrosoftYaHei-30" transform="translate(58.642578 0.251563)"/>
       <use xlink:href="#MicrosoftYaHei-37" transform="translate(118.230156 38.051563) scale(0.7)"/>
      </g>
     </g>
    </g>
    <g id="ytick_5"/>
    <g id="ytick_6"/>
    <g id="ytick_7"/>
    <g id="ytick_8"/>
    <g id="ytick_9"/>
    <g id="ytick_10"/>
    <g id="ytick_11"/>
    <g id="ytick_12"/>
    <g id="ytick_13"/>
    <g id="ytick_14"/>
    <g id="ytick_15"/>
    <g id="ytick_16"/>
    <g id="ytick_17"/>
    <g id="ytick_18"/>
    <g id="ytick_19"/>
    <g id="ytick_20"/>
    <g id="ytick_21"/>
    <g id="ytick_22"/>
    <g id="ytick_23"/>
    <g id="ytick_24"/>
    <g id="ytick_25"/>
    <g id="ytick_26"/>
    <g id="ytick_27"/>
    <g id="ytick_28"/>
    <g id="ytick_29"/>
    <g id="ytick_30"/>
    <g id="ytick_31"/>
    <g id="ytick_32"/>
    <g id="ytick_33"/>
    <g id="ytick_34"/>
    <g id="ytick_35"/>
    <g id="ytick_36"/>
    <g id="text_10">
     <!-- 残量边检查次数 -->
     <g style="fill: #1f2430" transform="translate(16.7925 251.376) rotate(-90) scale(0.12 -0.12)">
      <defs>
       <path id="MicrosoftYaHei-6b8b" d="M 2131 59
Q 3113 331 3925 747
Q 3719 1294 3619 2006
L 2644 1866
L 2588 2316
L 3566 2456
Q 3525 2859 3494 3378
L 2744 3284
L 2681 3734
L 3466 3828
Q 3434 4488 3419 5297
L 3913 5297
Q 3922 4519 3944 3888
L 6013 4141
L 6056 3697
L 3966 3438
Q 3991 2919 4031 2522
L 6138 2828
L 6175 2378
L 4084 2075
Q 4172 1453 4350 981
Q 5019 1375 5556 1878
L 5900 1541
Q 5272 972 4553 541
Q 4828 50 5000 -133
Q 5172 -316 5400 -316
Q 5594 -316 5678 -28
Q 5763 259 5838 809
Q 6131 691 6306 628
Q 6200 28 6106 -316
Q 5900 -753 5481 -753
Q 5113 -753 4769 -544
Q 4366 -219 4125 300
Q 3300 -131 2363 -397
Q 2281 -197 2131 59
z
M 875 1847
L 1125 2197
Q 1409 2003 1738 1747
Q 1956 2369 2038 3084
L 1209 3084
Q 906 2063 394 1309
Q 281 1466 94 1697
Q 822 2791 1047 4422
L 219 4422
L 219 4859
L 2731 4859
L 2731 4422
L 1503 4422
Q 1431 3947 1325 3516
L 2500 3516
L 2500 3084
Q 2200 566 581 -772
Q 394 -591 213 -441
Q 1094 294 1559 1306
Q 1247 1563 875 1847
z
M 4313 4959
L 4588 5272
Q 5025 4972 5494 4591
L 5188 4241
Q 4850 4547 4313 4959
z
" transform="scale(0.015625)"/>
       <path id="MicrosoftYaHei-8fb9" d="M 2050 4172
L 3291 4172
Q 3306 4772 3306 5291
L 3831 5291
Q 3825 4788 3806 4172
L 5925 4172
Q 5850 2334 5781 1441
Q 5694 372 4819 372
Q 4363 372 3831 397
Q 3794 653 3738 959
Q 4344 897 4681 897
Q 5219 897 5275 1503
Q 5350 2372 5394 3697
L 3791 3697
Q 3744 1225 2044 259
Q 1894 447 1681 672
Q 3219 1528 3278 3697
L 2050 3697
L 2050 4172
z
M 2909 -153
L 4425 -172
L 6313 -109
Q 6206 -366 6113 -609
L 4356 -634
L 2897 -619
Q 1644 -597 1156 122
Q 775 -209 369 -697
L 100 -166
Q 609 275 931 550
L 931 2678
L 131 2678
L 131 3134
L 1431 3134
L 1431 456
Q 1894 -125 2909 -153
z
M 794 5266
Q 1175 4803 1656 4147
Q 1431 4016 1206 3853
Q 819 4453 406 4997
L 794 5266
z
" transform="scale(0.015625)"/>
       <path id="MicrosoftYaHei-68c0" d="M 81 1378
Q 675 2328 988 3597
L 144 3597
L 144 4009
L 1044 4009
L 1044 5266
L 1481 5266
L 1481 4009
L 2319 4009
L 2319 3597
L 1481 3597
L 1481 2672
L 1756 2872
Q 2094 2459 2350 2097
L 2006 1828
Q 1788 2197 1481 2597
L 1481 -841
L 1044 -841
L 1044 2647
Q 725 1534 281 828
Q 206 1103 81 1378
z
M 2163 -122
L 4544 -122
Q 4881 791 5244 2203
L 5750 2059
Q 5331 741 5013 -122
L 6188 -122
L 6188 -566
L 2163 -566
L 2163 -122
z
M 4538 5216
L 4456 5091
Q 5119 3891 6344 3166
Q 6175 2978 6000 2741
Q 4781 3603 4181 4672
Q 3438 3466 2475 2666
Q 2325 2866 2119 3059
Q 3281 3941 3944 5216
L 4538 5216
z
M 2900 2972
L 5463 2972
L 5463 2534
L 2900 2534
L 2900 2972
z
M 3656 2197
L 4094 2303
Q 4338 1441 4500 578
L 4031 459
Q 3875 1441 3656 2197
z
M 2469 1947
L 2900 2072
Q 3138 1378 3388 378
L 2925 241
Q 2719 1172 2469 1947
z
" transform="scale(0.015625)"/>
       <path id="MicrosoftYaHei-67e5" d="M 306 4659
L 2975 4659
L 2975 5328
L 3419 5328
L 3419 4659
L 6125 4659
L 6125 4241
L 3809 4241
Q 4797 3488 6306 3103
Q 6144 2859 6019 2659
Q 5681 2775 5369 2909
L 5369 197
L 4894 197
L 4894 478
L 1525 478
L 1525 191
L 1050 191
L 1050 2878
Q 731 2731 381 2597
Q 250 2791 88 2997
Q 1700 3506 2559 4241
L 306 4241
L 306 4659
z
M 156 -141
L 6244 -141
L 6244 -591
L 156 -591
L 156 -141
z
M 2975 3066
L 2975 4138
Q 2256 3444 1119 2909
L 5366 2909
Q 4213 3400 3419 4125
L 3419 3066
L 2975 3066
z
M 1525 909
L 4894 909
L 4894 1484
L 1525 1484
L 1525 909
z
M 4894 2478
L 1525 2478
L 1525 1909
L 4894 1909
L 4894 2478
z
" transform="scale(0.015625)"/>
       <path id="MicrosoftYaHei-6b21" d="M 4119 3472
Q 4113 3159 4091 2856
Q 4509 728 6319 -284
Q 6063 -559 5913 -772
Q 4344 331 3900 1944
Q 3491 200 1650 -866
Q 1525 -672 1306 -422
Q 3225 591 3525 2428
Q 3613 2878 3619 3472
L 4119 3472
z
M 4944 2647
Q 5225 3166 5450 3766
L 2991 3766
Q 2719 3144 2388 2572
Q 2163 2734 1938 2841
Q 2669 4034 3000 5309
L 3506 5166
Q 3356 4675 3175 4209
L 5988 4209
L 5988 3766
Q 5731 3072 5425 2466
Q 5213 2572 4944 2647
z
M 1388 2622
Q 1675 2403 1875 2284
Q 1075 859 575 -178
L 69 153
Q 713 1128 1388 2622
z
M 644 4916
Q 1150 4409 1781 3672
L 1375 3297
Q 769 4097 281 4591
L 644 4916
z
" transform="scale(0.015625)"/>
      </defs>
      <use xlink:href="#MicrosoftYaHei-6b8b"/>
      <use xlink:href="#MicrosoftYaHei-91cf" transform="translate(100 0)"/>
      <use xlink:href="#MicrosoftYaHei-8fb9" transform="translate(200 0)"/>
      <use xlink:href="#MicrosoftYaHei-68c0" transform="translate(300 0)"/>
      <use xlink:href="#MicrosoftYaHei-67e5" transform="translate(400 0)"/>
      <use xlink:href="#MicrosoftYaHei-6b21" transform="translate(500 0)"/>
      <use xlink:href="#MicrosoftYaHei-6570" transform="translate(600 0)"/>
     </g>
    </g>
   </g>
   <g id="line2d_5">
    <path d="M 63.222898 278.380689
L 111.731989 219.725188
L 160.24108 178.877848
L 208.75017 147.84526
L 257.259261 122.541127
L 305.768352 101.572364
" clip-path="url(#p4b3fb60c11)" style="fill: none; stroke-dasharray: 4.44,1.92; stroke-dashoffset: 0; stroke: #f0986e; stroke-width: 1.2"/>
    <defs>
     <path id="m2a3b85fae3" d="M 0 3
C 0.795609 3 1.55874 2.683901 2.12132 2.12132
C 2.683901 1.55874 3 0.795609 3 0
C 3 -0.795609 2.683901 -1.55874 2.12132 -2.12132
C 1.55874 -2.683901 0.795609 -3 0 -3
C -0.795609 -3 -1.55874 -2.683901 -2.12132 -2.12132
C -2.683901 -1.55874 -3 -0.795609 -3 0
C -3 0.795609 -2.683901 1.55874 -2.12132 2.12132
C -1.55874 2.683901 -0.795609 3 0 3
z
" style="stroke: #804126"/>
    </defs>
    <g clip-path="url(#p4b3fb60c11)">
     <use xlink:href="#m2a3b85fae3" x="63.222898" y="278.380689" style="fill: #f0986e; stroke: #804126"/>
     <use xlink:href="#m2a3b85fae3" x="111.731989" y="219.725188" style="fill: #f0986e; stroke: #804126"/>
     <use xlink:href="#m2a3b85fae3" x="160.24108" y="178.877848" style="fill: #f0986e; stroke: #804126"/>
     <use xlink:href="#m2a3b85fae3" x="208.75017" y="147.84526" style="fill: #f0986e; stroke: #804126"/>
     <use xlink:href="#m2a3b85fae3" x="257.259261" y="122.541127" style="fill: #f0986e; stroke: #804126"/>
     <use xlink:href="#m2a3b85fae3" x="305.768352" y="101.572364" style="fill: #f0986e; stroke: #804126"/>
    </g>
   </g>
   <g id="line2d_6">
    <path d="M 63.222898 317.179636
L 111.731989 281.907627
L 160.24108 257.412476
L 208.75017 238.835381
L 257.259261 223.665466
L 305.768352 211.1476
" clip-path="url(#p4b3fb60c11)" style="fill: none; stroke: #a3befa; stroke-width: 1.2; stroke-linecap: round"/>
    <defs>
     <path id="m1b05a9ac0f" d="M -3 3
L 3 3
L 3 -3
L -3 -3
z
" style="stroke: #2e4780; stroke-linejoin: miter"/>
    </defs>
    <g clip-path="url(#p4b3fb60c11)">
     <use xlink:href="#m1b05a9ac0f" x="63.222898" y="317.179636" style="fill: #a3befa; stroke: #2e4780; stroke-linejoin: miter"/>
     <use xlink:href="#m1b05a9ac0f" x="111.731989" y="281.907627" style="fill: #a3befa; stroke: #2e4780; stroke-linejoin: miter"/>
     <use xlink:href="#m1b05a9ac0f" x="160.24108" y="257.412476" style="fill: #a3befa; stroke: #2e4780; stroke-linejoin: miter"/>
     <use xlink:href="#m1b05a9ac0f" x="208.75017" y="238.835381" style="fill: #a3befa; stroke: #2e4780; stroke-linejoin: miter"/>
     <use xlink:href="#m1b05a9ac0f" x="257.259261" y="223.665466" style="fill: #a3befa; stroke: #2e4780; stroke-linejoin: miter"/>
     <use xlink:href="#m1b05a9ac0f" x="305.768352" y="211.1476" style="fill: #a3befa; stroke: #2e4780; stroke-linejoin: miter"/>
    </g>
   </g>
   <g id="patch_3">
    <path d="M 51.095625 327.96
L 51.095625 90.792
" style="fill: none; stroke: #d7dbe7; stroke-width: 1.25; stroke-linejoin: miter; stroke-linecap: square"/>
   </g>
   <g id="patch_4">
    <path d="M 51.095625 327.96
L 317.895625 327.96
" style="fill: none; stroke: #d7dbe7; stroke-width: 1.25; stroke-linejoin: miter; stroke-linecap: square"/>
   </g>
   <g id="legend_1">
    <g id="line2d_7">
     <path d="M 55.495625 70.320749
L 66.495625 70.320749
L 77.495625 70.320749
" style="fill: none; stroke-dasharray: 4.44,1.92; stroke-dashoffset: 0; stroke: #f0986e; stroke-width: 1.2"/>
     <g>
      <use xlink:href="#m2a3b85fae3" x="66.495625" y="70.320749" style="fill: #f0986e; stroke: #804126"/>
     </g>
    </g>
    <g id="text_11">
     <!-- Edmonds-Karp -->
     <g style="fill: #262626" transform="translate(86.295625 74.170749) scale(0.11 -0.11)">
      <defs>
       <path id="MicrosoftYaHei-45" d="M 3228 0
L 625 0
L 625 4841
L 3119 4841
L 3119 4284
L 1250 4284
L 1250 2734
L 2981 2734
L 2981 2181
L 1250 2181
L 1250 553
L 3228 553
L 3228 0
z
" transform="scale(0.015625)"/>
       <path id="MicrosoftYaHei-64" d="M 3547 0
L 2934 0
L 2934 575
L 2922 575
Q 2544 -81 1747 -81
Q 1091 -81 703 386
Q 316 853 316 1647
Q 316 2503 753 3020
Q 1191 3538 1897 3538
Q 2603 3538 2922 2988
L 2934 2988
L 2934 5116
L 3547 5116
L 3547 0
z
M 2938 2056
Q 2938 2472 2664 2751
Q 2391 3031 1991 3031
Q 1503 3031 1222 2667
Q 941 2303 941 1675
Q 941 1097 1211 761
Q 1481 425 1931 425
Q 2375 425 2656 754
Q 2938 1084 2938 1575
L 2938 2056
z
" transform="scale(0.015625)"/>
       <path id="MicrosoftYaHei-6d" d="M 5522 0
L 4909 0
L 4909 1984
Q 4909 2547 4734 2789
Q 4559 3031 4159 3031
Q 3822 3031 3581 2715
Q 3341 2400 3341 1969
L 3341 0
L 2728 0
L 2728 2047
Q 2728 3031 1969 3031
Q 1619 3031 1389 2731
Q 1159 2431 1159 1966
L 1159 0
L 547 0
L 547 3456
L 1159 3456
L 1159 2909
L 1172 2909
Q 1541 3538 2250 3538
Q 2597 3538 2862 3347
Q 3128 3156 3231 2831
Q 3616 3538 4381 3538
Q 5522 3538 5522 2131
L 5522 0
z
" transform="scale(0.015625)"/>
       <path id="MicrosoftYaHei-6f" d="M 316 1691
Q 316 2547 794 3042
Q 1272 3538 2091 3538
Q 2869 3538 3311 3061
Q 3753 2584 3753 1744
Q 3753 925 3281 422
Q 2809 -81 2016 -81
Q 1241 -81 778 406
Q 316 894 316 1691
z
M 941 1709
Q 941 1113 1242 769
Q 1544 425 2053 425
Q 2578 425 2853 761
Q 3128 1097 3128 1725
Q 3128 2356 2853 2693
Q 2578 3031 2053 3031
Q 1538 3031 1239 2678
Q 941 2325 941 1709
z
" transform="scale(0.015625)"/>
       <path id="MicrosoftYaHei-6e" d="M 3469 0
L 2859 0
L 2859 1966
Q 2859 3031 2081 3031
Q 1678 3031 1418 2731
Q 1159 2431 1159 1972
L 1159 0
L 547 0
L 547 3456
L 1159 3456
L 1159 2884
L 1172 2884
Q 1563 3538 2306 3538
Q 2875 3538 3172 3173
Q 3469 2809 3469 2113
L 3469 0
z
" transform="scale(0.015625)"/>
       <path id="MicrosoftYaHei-73" d="M 353 747
Q 816 413 1350 413
Q 2066 413 2066 881
Q 2066 1081 1909 1211
Q 1753 1341 1275 1519
Q 700 1750 528 1976
Q 356 2203 356 2525
Q 356 2984 745 3261
Q 1134 3538 1703 3538
Q 2144 3538 2522 3384
L 2522 2794
Q 2134 3044 1644 3044
Q 1350 3044 1165 2916
Q 981 2788 981 2578
Q 981 2372 1114 2256
Q 1247 2141 1703 1959
Q 2281 1744 2484 1512
Q 2688 1281 2688 941
Q 2688 466 2298 192
Q 1909 -81 1291 -81
Q 753 -81 353 122
L 353 747
z
" transform="scale(0.015625)"/>
       <path id="MicrosoftYaHei-2d" d="M 2328 1681
L 488 1681
L 488 2153
L 2328 2153
L 2328 1681
z
" transform="scale(0.015625)"/>
       <path id="MicrosoftYaHei-4b" d="M 4069 0
L 3213 0
L 1394 2200
Q 1300 2316 1266 2381
L 1250 2381
L 1250 0
L 625 0
L 625 4841
L 1250 4841
L 1250 2563
L 1266 2563
Q 1319 2647 1394 2741
L 3150 4841
L 3922 4841
L 1891 2519
L 4069 0
z
" transform="scale(0.015625)"/>
       <path id="MicrosoftYaHei-61" d="M 628 3216
Q 1144 3538 1819 3538
Q 3069 3538 3069 2225
L 3069 0
L 2463 0
L 2463 534
L 2447 534
Q 2088 -81 1388 -81
Q 884 -81 587 191
Q 291 463 291 925
Q 291 1894 1438 2053
L 2463 2197
Q 2463 3044 1763 3044
Q 1141 3044 628 2625
L 628 3216
z
M 1653 1625
Q 1228 1569 1067 1412
Q 906 1256 906 975
Q 906 728 1081 572
Q 1256 416 1544 416
Q 1944 416 2203 697
Q 2463 978 2463 1403
L 2463 1734
L 1653 1625
z
" transform="scale(0.015625)"/>
       <path id="MicrosoftYaHei-72" d="M 2400 2850
Q 2247 2959 1978 2959
Q 1622 2959 1390 2626
Q 1159 2294 1159 1750
L 1159 0
L 547 0
L 547 3456
L 1159 3456
L 1159 2753
L 1172 2753
Q 1434 3516 2078 3516
Q 2288 3516 2400 3469
L 2400 2850
z
" transform="scale(0.015625)"/>
       <path id="MicrosoftYaHei-70" d="M 1159 488
L 1159 -1591
L 547 -1591
L 547 3456
L 1159 3456
L 1159 2859
L 1172 2859
Q 1578 3538 2359 3538
Q 3022 3538 3398 3073
Q 3775 2609 3775 1828
Q 3775 966 3348 442
Q 2922 -81 2200 -81
Q 1534 -81 1172 488
L 1159 488
z
M 1156 1425
Q 1156 1003 1428 714
Q 1700 425 2109 425
Q 2597 425 2872 800
Q 3147 1175 3147 1838
Q 3147 2397 2890 2714
Q 2634 3031 2191 3031
Q 1738 3031 1447 2709
Q 1156 2388 1156 1884
L 1156 1425
z
" transform="scale(0.015625)"/>
      </defs>
      <use xlink:href="#MicrosoftYaHei-45"/>
      <use xlink:href="#MicrosoftYaHei-64" transform="translate(54.980469 0)"/>
      <use xlink:href="#MicrosoftYaHei-6d" transform="translate(118.945312 0)"/>
      <use xlink:href="#MicrosoftYaHei-6f" transform="translate(212.646484 0)"/>
      <use xlink:href="#MicrosoftYaHei-6e" transform="translate(276.220703 0)"/>
      <use xlink:href="#MicrosoftYaHei-64" transform="translate(337.841797 0)"/>
      <use xlink:href="#MicrosoftYaHei-73" transform="translate(401.806641 0)"/>
      <use xlink:href="#MicrosoftYaHei-2d" transform="translate(448.095703 0)"/>
      <use xlink:href="#MicrosoftYaHei-4b" transform="translate(491.357422 0)"/>
      <use xlink:href="#MicrosoftYaHei-61" transform="translate(554.833984 0)"/>
      <use xlink:href="#MicrosoftYaHei-72" transform="translate(610.107422 0)"/>
      <use xlink:href="#MicrosoftYaHei-70" transform="translate(648.291016 0)"/>
     </g>
    </g>
    <g id="line2d_8">
     <path d="M 186.639688 70.320749
L 197.639688 70.320749
L 208.639688 70.320749
" style="fill: none; stroke: #a3befa; stroke-width: 1.2; stroke-linecap: round"/>
     <g>
      <use xlink:href="#m1b05a9ac0f" x="197.639688" y="70.320749" style="fill: #a3befa; stroke: #2e4780; stroke-linejoin: miter"/>
     </g>
    </g>
    <g id="text_12">
     <!-- Dinic -->
     <g style="fill: #262626" transform="translate(217.439688 74.170749) scale(0.11 -0.11)">
      <defs>
       <path id="MicrosoftYaHei-44" d="M 625 0
L 625 4841
L 2006 4841
Q 3106 4841 3836 4200
Q 4566 3559 4566 2481
Q 4566 1356 3836 678
Q 3106 0 1956 0
L 625 0
z
M 1250 4284
L 1250 553
L 1953 553
Q 2875 553 3392 1056
Q 3909 1559 3909 2466
Q 3909 3372 3378 3828
Q 2847 4284 1981 4284
L 1250 4284
z
" transform="scale(0.015625)"/>
       <path id="MicrosoftYaHei-69" d="M 472 4675
Q 472 4838 583 4948
Q 694 5059 856 5059
Q 1022 5059 1136 4950
Q 1250 4841 1250 4675
Q 1250 4513 1136 4405
Q 1022 4297 856 4297
Q 691 4297 581 4405
Q 472 4513 472 4675
z
M 544 0
L 544 3456
L 1156 3456
L 1156 0
L 544 0
z
" transform="scale(0.015625)"/>
       <path id="MicrosoftYaHei-63" d="M 2934 156
Q 2538 -81 1978 -81
Q 1228 -81 772 400
Q 316 881 316 1647
Q 316 2497 808 3017
Q 1300 3538 2125 3538
Q 2600 3538 2938 3369
L 2938 2763
Q 2572 3031 2125 3031
Q 1600 3031 1270 2667
Q 941 2303 941 1697
Q 941 1100 1252 762
Q 1563 425 2091 425
Q 2538 425 2934 719
L 2934 156
z
" transform="scale(0.015625)"/>
      </defs>
      <use xlink:href="#MicrosoftYaHei-44"/>
      <use xlink:href="#MicrosoftYaHei-69" transform="translate(76.171875 0)"/>
      <use xlink:href="#MicrosoftYaHei-6e" transform="translate(102.783203 0)"/>
      <use xlink:href="#MicrosoftYaHei-69" transform="translate(164.404297 0)"/>
      <use xlink:href="#MicrosoftYaHei-63" transform="translate(191.015625 0)"/>
     </g>
    </g>
   </g>
  </g>
  <g id="axes_2">
   <g id="patch_5">
    <path d="M 397.935625 327.96
L 664.735625 327.96
L 664.735625 90.792
L 397.935625 90.792
z
" style="fill: #ffffff"/>
   </g>
   <g id="matplotlib.axis_3">
    <g id="xtick_5">
     <g id="text_13">
      <!-- 10 -->
      <g style="fill: #262626" transform="translate(427.866974 346.253125) scale(0.11 -0.11)">
       <use xlink:href="#MicrosoftYaHei-31"/>
       <use xlink:href="#MicrosoftYaHei-30" transform="translate(58.642578 0)"/>
      </g>
     </g>
    </g>
    <g id="xtick_6">
     <g id="text_14">
      <!-- 15 -->
      <g style="fill: #262626" transform="translate(488.503338 346.253125) scale(0.11 -0.11)">
       <use xlink:href="#MicrosoftYaHei-31"/>
       <use xlink:href="#MicrosoftYaHei-35" transform="translate(58.642578 0)"/>
      </g>
     </g>
    </g>
    <g id="xtick_7">
     <g id="text_15">
      <!-- 20 -->
      <g style="fill: #262626" transform="translate(549.139702 346.253125) scale(0.11 -0.11)">
       <use xlink:href="#MicrosoftYaHei-32"/>
       <use xlink:href="#MicrosoftYaHei-30" transform="translate(58.642578 0)"/>
      </g>
     </g>
    </g>
    <g id="xtick_8">
     <g id="text_16">
      <!-- 25 -->
      <g style="fill: #262626" transform="translate(609.776065 346.253125) scale(0.11 -0.11)">
       <use xlink:href="#MicrosoftYaHei-32"/>
       <use xlink:href="#MicrosoftYaHei-35" transform="translate(58.642578 0)"/>
      </g>
     </g>
    </g>
    <g id="text_17">
     <!-- 球队数量 -->
     <g style="fill: #1f2430" transform="translate(507.335625 362.580156) scale(0.12 -0.12)">
      <use xlink:href="#MicrosoftYaHei-7403"/>
      <use xlink:href="#MicrosoftYaHei-961f" transform="translate(100 0)"/>
      <use xlink:href="#MicrosoftYaHei-6570" transform="translate(200 0)"/>
      <use xlink:href="#MicrosoftYaHei-91cf" transform="translate(300 0)"/>
     </g>
    </g>
   </g>
   <g id="matplotlib.axis_4">
    <g id="ytick_37">
     <g id="line2d_9">
      <path d="M 397.935625 317.529648
L 664.735625 317.529648
" clip-path="url(#pb182547368)" style="fill: none; stroke: #e6e8f0; stroke-width: 0.8; stroke-linecap: round"/>
     </g>
     <g id="text_18">
      <!-- 0 -->
      <g style="fill: #262626" transform="translate(381.985156 321.926211) scale(0.11 -0.11)">
       <use xlink:href="#MicrosoftYaHei-30"/>
      </g>
     </g>
    </g>
    <g id="ytick_38">
     <g id="line2d_10">
      <path d="M 397.935625 273.778172
L 664.735625 273.778172
" clip-path="url(#pb182547368)" style="fill: none; stroke: #e6e8f0; stroke-width: 0.8; stroke-linecap: round"/>
     </g>
     <g id="text_19">
      <!-- 2000 -->
      <g style="fill: #262626" transform="translate(362.63375 278.174735) scale(0.11 -0.11)">
       <use xlink:href="#MicrosoftYaHei-32"/>
       <use xlink:href="#MicrosoftYaHei-30" transform="translate(58.642578 0)"/>
       <use xlink:href="#MicrosoftYaHei-30" transform="translate(117.285156 0)"/>
       <use xlink:href="#MicrosoftYaHei-30" transform="translate(175.927734 0)"/>
      </g>
     </g>
    </g>
    <g id="ytick_39">
     <g id="line2d_11">
      <path d="M 397.935625 230.026697
L 664.735625 230.026697
" clip-path="url(#pb182547368)" style="fill: none; stroke: #e6e8f0; stroke-width: 0.8; stroke-linecap: round"/>
     </g>
     <g id="text_20">
      <!-- 4000 -->
      <g style="fill: #262626" transform="translate(362.63375 234.423259) scale(0.11 -0.11)">
       <use xlink:href="#MicrosoftYaHei-34"/>
       <use xlink:href="#MicrosoftYaHei-30" transform="translate(58.642578 0)"/>
       <use xlink:href="#MicrosoftYaHei-30" transform="translate(117.285156 0)"/>
       <use xlink:href="#MicrosoftYaHei-30" transform="translate(175.927734 0)"/>
      </g>
     </g>
    </g>
    <g id="ytick_40">
     <g id="line2d_12">
      <path d="M 397.935625 186.275221
L 664.735625 186.275221
" clip-path="url(#pb182547368)" style="fill: none; stroke: #e6e8f0; stroke-width: 0.8; stroke-linecap: round"/>
     </g>
     <g id="text_21">
      <!-- 6000 -->
      <g style="fill: #262626" transform="translate(362.63375 190.671783) scale(0.11 -0.11)">
       <use xlink:href="#MicrosoftYaHei-36"/>
       <use xlink:href="#MicrosoftYaHei-30" transform="translate(58.642578 0)"/>
       <use xlink:href="#MicrosoftYaHei-30" transform="translate(117.285156 0)"/>
       <use xlink:href="#MicrosoftYaHei-30" transform="translate(175.927734 0)"/>
      </g>
     </g>
    </g>
    <g id="ytick_41">
     <g id="line2d_13">
      <path d="M 397.935625 142.523745
L 664.735625 142.523745
" clip-path="url(#pb182547368)" style="fill: none; stroke: #e6e8f0; stroke-width: 0.8; stroke-linecap: round"/>
     </g>
     <g id="text_22">
      <!-- 8000 -->
      <g style="fill: #262626" transform="translate(362.63375 146.920307) scale(0.11 -0.11)">
       <defs>
        <path id="MicrosoftYaHei-38" d="M 306 1350
Q 306 1769 556 2122
Q 806 2475 1200 2625
Q 884 2803 700 3081
Q 516 3359 516 3684
Q 516 4028 692 4312
Q 869 4597 1183 4759
Q 1497 4922 1875 4922
Q 2256 4922 2572 4761
Q 2888 4600 3063 4315
Q 3238 4031 3238 3684
Q 3238 3366 3058 3086
Q 2878 2806 2559 2625
Q 2953 2472 3200 2119
Q 3447 1766 3447 1350
Q 3447 938 3250 611
Q 3053 284 2690 103
Q 2328 -78 1875 -78
Q 1425 -78 1065 103
Q 706 284 506 612
Q 306 941 306 1350
z
M 906 1378
Q 906 947 1172 687
Q 1438 428 1878 428
Q 2309 428 2582 692
Q 2856 956 2856 1378
Q 2856 1778 2579 2051
Q 2303 2325 1878 2325
Q 1456 2325 1181 2058
Q 906 1791 906 1378
z
M 1081 3634
Q 1081 3309 1312 3076
Q 1544 2844 1878 2844
Q 2206 2844 2445 3078
Q 2684 3313 2684 3634
Q 2684 3963 2454 4191
Q 2225 4419 1878 4419
Q 1534 4419 1307 4195
Q 1081 3972 1081 3634
z
" transform="scale(0.015625)"/>
       </defs>
       <use xlink:href="#MicrosoftYaHei-38"/>
       <use xlink:href="#MicrosoftYaHei-30" transform="translate(58.642578 0)"/>
       <use xlink:href="#MicrosoftYaHei-30" transform="translate(117.285156 0)"/>
       <use xlink:href="#MicrosoftYaHei-30" transform="translate(175.927734 0)"/>
      </g>
     </g>
    </g>
    <g id="ytick_42">
     <g id="line2d_14">
      <path d="M 397.935625 98.772269
L 664.735625 98.772269
" clip-path="url(#pb182547368)" style="fill: none; stroke: #e6e8f0; stroke-width: 0.8; stroke-linecap: round"/>
     </g>
     <g id="text_23">
      <!-- 10000 -->
      <g style="fill: #262626" transform="translate(356.183281 103.168832) scale(0.11 -0.11)">
       <use xlink:href="#MicrosoftYaHei-31"/>
       <use xlink:href="#MicrosoftYaHei-30" transform="translate(58.642578 0)"/>
       <use xlink:href="#MicrosoftYaHei-30" transform="translate(117.285156 0)"/>
       <use xlink:href="#MicrosoftYaHei-30" transform="translate(175.927734 0)"/>
       <use xlink:href="#MicrosoftYaHei-30" transform="translate(234.570312 0)"/>
      </g>
     </g>
    </g>
    <g id="text_24">
     <!-- BFS / 分层轮数 -->
     <g style="fill: #1f2430" transform="translate(349.200156 249.8235) rotate(-90) scale(0.12 -0.12)">
      <defs>
       <path id="MicrosoftYaHei-42" d="M 625 0
L 625 4841
L 2047 4841
Q 2684 4841 3065 4536
Q 3447 4231 3447 3728
Q 3447 3328 3220 3022
Q 2994 2716 2597 2588
L 2597 2575
Q 3091 2519 3386 2201
Q 3681 1884 3681 1397
Q 3681 772 3232 386
Q 2784 0 2084 0
L 625 0
z
M 1250 4294
L 1250 2778
L 1819 2778
Q 2272 2778 2530 2998
Q 2788 3219 2788 3609
Q 2788 4294 1875 4294
L 1250 4294
z
M 1250 2234
L 1250 547
L 2000 547
Q 2491 547 2758 773
Q 3025 1000 3025 1403
Q 3025 2234 1897 2234
L 1250 2234
z
" transform="scale(0.015625)"/>
       <path id="MicrosoftYaHei-46" d="M 3119 4284
L 1250 4284
L 1250 2666
L 2981 2666
L 2981 2116
L 1250 2116
L 1250 0
L 625 0
L 625 4841
L 3119 4841
L 3119 4284
z
" transform="scale(0.015625)"/>
       <path id="MicrosoftYaHei-53" d="M 400 909
Q 622 716 994 591
Q 1366 466 1700 466
Q 2719 466 2719 1191
Q 2719 1394 2609 1556
Q 2500 1719 2309 1844
Q 2119 1969 1594 2228
Q 866 2591 634 2902
Q 403 3213 403 3613
Q 403 4216 887 4569
Q 1372 4922 2109 4922
Q 2831 4922 3169 4747
L 3169 4066
Q 2731 4369 2063 4369
Q 1619 4369 1339 4183
Q 1059 3997 1059 3666
Q 1059 3372 1253 3187
Q 1447 3003 2094 2684
Q 2806 2344 3090 2003
Q 3375 1663 3375 1238
Q 3375 600 2912 259
Q 2450 -81 1628 -81
Q 1341 -81 958 -1
Q 575 78 400 197
L 400 909
z
" transform="scale(0.015625)"/>
       <path id="MicrosoftYaHei-20" transform="scale(0.015625)"/>
       <path id="MicrosoftYaHei-2f" d="M 2791 4841
L 469 -803
L -103 -803
L 2219 4841
L 2791 4841
z
" transform="scale(0.015625)"/>
       <path id="MicrosoftYaHei-5206" d="M 900 2559
L 5056 2559
Q 5025 1497 4963 484
Q 4888 -684 3856 -678
Q 3350 -684 2788 -647
Q 2750 -384 2700 -116
Q 3181 -184 3775 -191
Q 4400 -203 4463 541
Q 4513 1216 4538 2097
L 2616 2097
Q 2541 1053 2181 416
Q 1706 -422 588 -878
Q 425 -666 231 -459
Q 1269 -72 1725 666
Q 2053 1225 2103 2097
L 900 2097
L 900 2559
z
M 3488 5159
L 3938 5353
Q 4625 3678 6350 2847
Q 6069 2553 5944 2372
Q 4225 3366 3488 5159
z
M 50 2766
Q 1338 3678 2250 5253
L 2694 5009
Q 1744 3347 413 2341
Q 281 2534 50 2766
z
" transform="scale(0.015625)"/>
       <path id="MicrosoftYaHei-5c42" d="M 394 -847
Q 213 -603 50 -409
Q 825 678 825 2709
L 825 5022
L 5963 5022
L 5963 3053
L 5488 3053
L 5488 3284
L 1300 3284
L 1300 2609
Q 1300 497 394 -847
z
M 4294 559
L 4631 853
Q 5556 53 6100 -528
L 5713 -872
Q 5522 -656 5328 -453
Q 3425 -463 2219 -553
Q 2044 -566 1775 -634
L 1563 -172
Q 1938 -28 2144 147
Q 2500 497 2906 1034
L 1375 1034
L 1375 1472
L 6288 1472
L 6288 1034
L 3550 1034
Q 3022 388 2569 -66
Q 3741 -59 4922 -34
Q 4613 272 4294 559
z
M 1300 4584
L 1300 3722
L 5488 3722
L 5488 4584
L 1300 4584
z
M 1819 2603
L 5731 2603
L 5731 2166
L 1819 2166
L 1819 2603
z
" transform="scale(0.015625)"/>
       <path id="MicrosoftYaHei-8f6e" d="M 688 2228
L 1438 2228
L 1438 3597
L 1888 3597
L 1888 2228
L 2688 2228
L 2688 1803
L 1888 1803
L 1888 959
Q 2344 1016 2763 1078
Q 2756 922 2744 616
Q 2313 566 1888 516
L 1888 -866
L 1438 -866
L 1438 466
Q 781 384 138 303
L 88 772
Q 794 834 1438 909
L 1438 1803
L 225 1803
L 225 2197
Q 550 3116 800 3916
L 156 3916
L 156 4341
L 925 4341
Q 1081 4859 1194 5322
L 1675 5216
Q 1538 4766 1400 4341
L 2781 4341
L 2781 3916
L 1263 3916
Q 975 3028 688 2228
z
M 3163 2891
L 3638 2891
L 3638 1509
Q 4456 1984 5150 2653
L 5544 2359
Q 4588 1484 3638 997
L 3638 191
Q 3638 -197 4075 -197
L 4925 -197
Q 5363 -197 5425 178
Q 5494 584 5525 1097
Q 5575 1078 5994 916
Q 5956 441 5881 28
Q 5775 -653 5013 -653
L 3925 -653
Q 3163 -653 3163 72
L 3163 2891
z
M 4656 5259
L 4544 5072
Q 5244 3722 6313 3178
Q 6113 2953 5975 2766
Q 4975 3359 4250 4622
Q 3531 3422 2625 2697
Q 2475 2891 2288 3059
Q 3406 3897 4044 5259
L 4656 5259
z
" transform="scale(0.015625)"/>
      </defs>
      <use xlink:href="#MicrosoftYaHei-42"/>
      <use xlink:href="#MicrosoftYaHei-46" transform="translate(62.744141 0)"/>
      <use xlink:href="#MicrosoftYaHei-53" transform="translate(114.494141 0)"/>
      <use xlink:href="#MicrosoftYaHei-20" transform="translate(172.208984 0)"/>
      <use xlink:href="#MicrosoftYaHei-2f" transform="translate(201.798828 0)"/>
      <use xlink:href="#MicrosoftYaHei-20" transform="translate(244.523438 0)"/>
      <use xlink:href="#MicrosoftYaHei-5206" transform="translate(274.113281 0)"/>
      <use xlink:href="#MicrosoftYaHei-5c42" transform="translate(374.113281 0)"/>
      <use xlink:href="#MicrosoftYaHei-8f6e" transform="translate(474.113281 0)"/>
      <use xlink:href="#MicrosoftYaHei-6570" transform="translate(574.113281 0)"/>
     </g>
    </g>
   </g>
   <g id="line2d_15">
    <path d="M 410.062898 313.592015
L 458.571989 302.785401
L 507.08108 280.297142
L 555.59017 242.167731
L 604.099261 183.497002
L 652.608352 101.572364
" clip-path="url(#pb182547368)" style="fill: none; stroke-dasharray: 4.44,1.92; stroke-dashoffset: 0; stroke: #f0986e; stroke-width: 1.2"/>
    <g clip-path="url(#pb182547368)">
     <use xlink:href="#m2a3b85fae3" x="410.062898" y="313.592015" style="fill: #f0986e; stroke: #804126"/>
     <use xlink:href="#m2a3b85fae3" x="458.571989" y="302.785401" style="fill: #f0986e; stroke: #804126"/>
     <use xlink:href="#m2a3b85fae3" x="507.08108" y="280.297142" style="fill: #f0986e; stroke: #804126"/>
     <use xlink:href="#m2a3b85fae3" x="555.59017" y="242.167731" style="fill: #f0986e; stroke: #804126"/>
     <use xlink:href="#m2a3b85fae3" x="604.099261" y="183.497002" style="fill: #f0986e; stroke: #804126"/>
     <use xlink:href="#m2a3b85fae3" x="652.608352" y="101.572364" style="fill: #f0986e; stroke: #804126"/>
    </g>
   </g>
   <g id="line2d_16">
    <path d="M 410.062898 317.179636
L 458.571989 317.00463
L 507.08108 316.829625
L 555.59017 316.654619
L 604.099261 316.479613
L 652.608352 316.304607
" clip-path="url(#pb182547368)" style="fill: none; stroke: #a3befa; stroke-width: 1.2; stroke-linecap: round"/>
    <g clip-path="url(#pb182547368)">
     <use xlink:href="#m1b05a9ac0f" x="410.062898" y="317.179636" style="fill: #a3befa; stroke: #2e4780; stroke-linejoin: miter"/>
     <use xlink:href="#m1b05a9ac0f" x="458.571989" y="317.00463" style="fill: #a3befa; stroke: #2e4780; stroke-linejoin: miter"/>
     <use xlink:href="#m1b05a9ac0f" x="507.08108" y="316.829625" style="fill: #a3befa; stroke: #2e4780; stroke-linejoin: miter"/>
     <use xlink:href="#m1b05a9ac0f" x="555.59017" y="316.654619" style="fill: #a3befa; stroke: #2e4780; stroke-linejoin: miter"/>
     <use xlink:href="#m1b05a9ac0f" x="604.099261" y="316.479613" style="fill: #a3befa; stroke: #2e4780; stroke-linejoin: miter"/>
     <use xlink:href="#m1b05a9ac0f" x="652.608352" y="316.304607" style="fill: #a3befa; stroke: #2e4780; stroke-linejoin: miter"/>
    </g>
   </g>
   <g id="patch_6">
    <path d="M 397.935625 327.96
L 397.935625 90.792
" style="fill: none; stroke: #d7dbe7; stroke-width: 1.25; stroke-linejoin: miter; stroke-linecap: square"/>
   </g>
   <g id="patch_7">
    <path d="M 397.935625 327.96
L 664.735625 327.96
" style="fill: none; stroke: #d7dbe7; stroke-width: 1.25; stroke-linejoin: miter; stroke-linecap: square"/>
   </g>
  </g>
  <g id="axes_3">
   <g id="patch_8">
    <path d="M 744.775625 327.96
L 1011.575625 327.96
L 1011.575625 90.792
L 744.775625 90.792
z
" style="fill: #ffffff"/>
   </g>
   <g id="matplotlib.axis_5">
    <g id="xtick_9">
     <g id="text_25">
      <!-- 10 -->
      <g style="fill: #262626" transform="translate(774.706974 346.253125) scale(0.11 -0.11)">
       <use xlink:href="#MicrosoftYaHei-31"/>
       <use xlink:href="#MicrosoftYaHei-30" transform="translate(58.642578 0)"/>
      </g>
     </g>
    </g>
    <g id="xtick_10">
     <g id="text_26">
      <!-- 15 -->
      <g style="fill: #262626" transform="translate(835.343338 346.253125) scale(0.11 -0.11)">
       <use xlink:href="#MicrosoftYaHei-31"/>
       <use xlink:href="#MicrosoftYaHei-35" transform="translate(58.642578 0)"/>
      </g>
     </g>
    </g>
    <g id="xtick_11">
     <g id="text_27">
      <!-- 20 -->
      <g style="fill: #262626" transform="translate(895.979702 346.253125) scale(0.11 -0.11)">
       <use xlink:href="#MicrosoftYaHei-32"/>
       <use xlink:href="#MicrosoftYaHei-30" transform="translate(58.642578 0)"/>
      </g>
     </g>
    </g>
    <g id="xtick_12">
     <g id="text_28">
      <!-- 25 -->
      <g style="fill: #262626" transform="translate(956.616065 346.253125) scale(0.11 -0.11)">
       <use xlink:href="#MicrosoftYaHei-32"/>
       <use xlink:href="#MicrosoftYaHei-35" transform="translate(58.642578 0)"/>
      </g>
     </g>
    </g>
    <g id="text_29">
     <!-- 球队数量 -->
     <g style="fill: #1f2430" transform="translate(854.175625 362.580156) scale(0.12 -0.12)">
      <use xlink:href="#MicrosoftYaHei-7403"/>
      <use xlink:href="#MicrosoftYaHei-961f" transform="translate(100 0)"/>
      <use xlink:href="#MicrosoftYaHei-6570" transform="translate(200 0)"/>
      <use xlink:href="#MicrosoftYaHei-91cf" transform="translate(300 0)"/>
     </g>
    </g>
   </g>
   <g id="matplotlib.axis_6">
    <g id="ytick_43">
     <g id="line2d_17">
      <path d="M 744.775625 317.206111
L 1011.575625 317.206111
" clip-path="url(#pcf3bfd155c)" style="fill: none; stroke: #e6e8f0; stroke-width: 0.8; stroke-linecap: round"/>
     </g>
     <g id="text_30">
      <!-- 0.00 -->
      <g style="fill: #262626" transform="translate(713.275625 321.602673) scale(0.11 -0.11)">
       <defs>
        <path id="MicrosoftYaHei-2e" d="M 372 322
Q 372 491 487 606
Q 603 722 775 722
Q 950 722 1065 605
Q 1181 488 1181 322
Q 1181 159 1065 42
Q 950 -75 772 -75
Q 600 -75 486 42
Q 372 159 372 322
z
" transform="scale(0.015625)"/>
       </defs>
       <use xlink:href="#MicrosoftYaHei-30"/>
       <use xlink:href="#MicrosoftYaHei-2e" transform="translate(58.642578 0)"/>
       <use xlink:href="#MicrosoftYaHei-30" transform="translate(82.714844 0)"/>
       <use xlink:href="#MicrosoftYaHei-30" transform="translate(141.357422 0)"/>
      </g>
     </g>
    </g>
    <g id="ytick_44">
     <g id="line2d_18">
      <path d="M 744.775625 290.518422
L 1011.575625 290.518422
" clip-path="url(#pcf3bfd155c)" style="fill: none; stroke: #e6e8f0; stroke-width: 0.8; stroke-linecap: round"/>
     </g>
     <g id="text_31">
      <!-- 0.25 -->
      <g style="fill: #262626" transform="translate(713.275625 294.914985) scale(0.11 -0.11)">
       <use xlink:href="#MicrosoftYaHei-30"/>
       <use xlink:href="#MicrosoftYaHei-2e" transform="translate(58.642578 0)"/>
       <use xlink:href="#MicrosoftYaHei-32" transform="translate(82.714844 0)"/>
       <use xlink:href="#MicrosoftYaHei-35" transform="translate(141.357422 0)"/>
      </g>
     </g>
    </g>
    <g id="ytick_45">
     <g id="line2d_19">
      <path d="M 744.775625 263.830734
L 1011.575625 263.830734
" clip-path="url(#pcf3bfd155c)" style="fill: none; stroke: #e6e8f0; stroke-width: 0.8; stroke-linecap: round"/>
     </g>
     <g id="text_32">
      <!-- 0.50 -->
      <g style="fill: #262626" transform="translate(713.275625 268.227296) scale(0.11 -0.11)">
       <use xlink:href="#MicrosoftYaHei-30"/>
       <use xlink:href="#MicrosoftYaHei-2e" transform="translate(58.642578 0)"/>
       <use xlink:href="#MicrosoftYaHei-35" transform="translate(82.714844 0)"/>
       <use xlink:href="#MicrosoftYaHei-30" transform="translate(141.357422 0)"/>
      </g>
     </g>
    </g>
    <g id="ytick_46">
     <g id="line2d_20">
      <path d="M 744.775625 237.143045
L 1011.575625 237.143045
" clip-path="url(#pcf3bfd155c)" style="fill: none; stroke: #e6e8f0; stroke-width: 0.8; stroke-linecap: round"/>
     </g>
     <g id="text_33">
      <!-- 0.75 -->
      <g style="fill: #262626" transform="translate(713.275625 241.539608) scale(0.11 -0.11)">
       <use xlink:href="#MicrosoftYaHei-30"/>
       <use xlink:href="#MicrosoftYaHei-2e" transform="translate(58.642578 0)"/>
       <use xlink:href="#MicrosoftYaHei-37" transform="translate(82.714844 0)"/>
       <use xlink:href="#MicrosoftYaHei-35" transform="translate(141.357422 0)"/>
      </g>
     </g>
    </g>
    <g id="ytick_47">
     <g id="line2d_21">
      <path d="M 744.775625 210.455357
L 1011.575625 210.455357
" clip-path="url(#pcf3bfd155c)" style="fill: none; stroke: #e6e8f0; stroke-width: 0.8; stroke-linecap: round"/>
     </g>
     <g id="text_34">
      <!-- 1.00 -->
      <g style="fill: #262626" transform="translate(713.275625 214.851919) scale(0.11 -0.11)">
       <use xlink:href="#MicrosoftYaHei-31"/>
       <use xlink:href="#MicrosoftYaHei-2e" transform="translate(58.642578 0)"/>
       <use xlink:href="#MicrosoftYaHei-30" transform="translate(82.714844 0)"/>
       <use xlink:href="#MicrosoftYaHei-30" transform="translate(141.357422 0)"/>
      </g>
     </g>
    </g>
    <g id="ytick_48">
     <g id="line2d_22">
      <path d="M 744.775625 183.767668
L 1011.575625 183.767668
" clip-path="url(#pcf3bfd155c)" style="fill: none; stroke: #e6e8f0; stroke-width: 0.8; stroke-linecap: round"/>
     </g>
     <g id="text_35">
      <!-- 1.25 -->
      <g style="fill: #262626" transform="translate(713.275625 188.164231) scale(0.11 -0.11)">
       <use xlink:href="#MicrosoftYaHei-31"/>
       <use xlink:href="#MicrosoftYaHei-2e" transform="translate(58.642578 0)"/>
       <use xlink:href="#MicrosoftYaHei-32" transform="translate(82.714844 0)"/>
       <use xlink:href="#MicrosoftYaHei-35" transform="translate(141.357422 0)"/>
      </g>
     </g>
    </g>
    <g id="ytick_49">
     <g id="line2d_23">
      <path d="M 744.775625 157.07998
L 1011.575625 157.07998
" clip-path="url(#pcf3bfd155c)" style="fill: none; stroke: #e6e8f0; stroke-width: 0.8; stroke-linecap: round"/>
     </g>
     <g id="text_36">
      <!-- 1.50 -->
      <g style="fill: #262626" transform="translate(713.275625 161.476543) scale(0.11 -0.11)">
       <use xlink:href="#MicrosoftYaHei-31"/>
       <use xlink:href="#MicrosoftYaHei-2e" transform="translate(58.642578 0)"/>
       <use xlink:href="#MicrosoftYaHei-35" transform="translate(82.714844 0)"/>
       <use xlink:href="#MicrosoftYaHei-30" transform="translate(141.357422 0)"/>
      </g>
     </g>
    </g>
    <g id="ytick_50">
     <g id="line2d_24">
      <path d="M 744.775625 130.392292
L 1011.575625 130.392292
" clip-path="url(#pcf3bfd155c)" style="fill: none; stroke: #e6e8f0; stroke-width: 0.8; stroke-linecap: round"/>
     </g>
     <g id="text_37">
      <!-- 1.75 -->
      <g style="fill: #262626" transform="translate(713.275625 134.788854) scale(0.11 -0.11)">
       <use xlink:href="#MicrosoftYaHei-31"/>
       <use xlink:href="#MicrosoftYaHei-2e" transform="translate(58.642578 0)"/>
       <use xlink:href="#MicrosoftYaHei-37" transform="translate(82.714844 0)"/>
       <use xlink:href="#MicrosoftYaHei-35" transform="translate(141.357422 0)"/>
      </g>
     </g>
    </g>
    <g id="ytick_51">
     <g id="line2d_25">
      <path d="M 744.775625 103.704603
L 1011.575625 103.704603
" clip-path="url(#pcf3bfd155c)" style="fill: none; stroke: #e6e8f0; stroke-width: 0.8; stroke-linecap: round"/>
     </g>
     <g id="text_38">
      <!-- 2.00 -->
      <g style="fill: #262626" transform="translate(713.275625 108.101166) scale(0.11 -0.11)">
       <use xlink:href="#MicrosoftYaHei-32"/>
       <use xlink:href="#MicrosoftYaHei-2e" transform="translate(58.642578 0)"/>
       <use xlink:href="#MicrosoftYaHei-30" transform="translate(82.714844 0)"/>
       <use xlink:href="#MicrosoftYaHei-30" transform="translate(141.357422 0)"/>
      </g>
     </g>
    </g>
    <g id="text_39">
     <!-- BFS 队列入队次数 -->
     <g style="fill: #1f2430" transform="translate(706.2925 257.48475) rotate(-90) scale(0.12 -0.12)">
      <defs>
       <path id="MicrosoftYaHei-5217" d="M 1163 1953
L 1469 2303
Q 1944 1913 2334 1538
Q 2753 2263 2925 3109
L 1519 3109
Q 1028 1984 313 1084
Q 175 1403 63 1584
Q 1006 2853 1516 4553
L 269 4553
L 269 5003
L 3775 5003
L 3775 4553
L 2031 4553
Q 1884 4038 1703 3559
L 3438 3559
L 3438 3103
Q 2925 541 744 -853
Q 581 -666 356 -472
Q 1425 219 2069 1125
Q 1713 1475 1163 1953
z
M 5419 5228
L 5919 5228
L 5919 66
Q 5919 -728 5200 -734
Q 4856 -741 4181 -728
Q 4150 -441 4081 -166
Q 4725 -222 5031 -222
Q 5419 -222 5419 197
L 5419 5228
z
M 4519 709
L 4038 709
L 4038 4534
L 4519 4534
L 4519 709
z
" transform="scale(0.015625)"/>
       <path id="MicrosoftYaHei-5165" d="M 1831 4947
L 2244 5241
Q 2944 4809 3781 3028
Q 4950 472 6319 -91
L 5881 -641
Q 4513 172 3350 2784
Q 3256 2994 3166 3184
Q 2441 700 469 -678
Q 300 -428 88 -209
Q 2116 1069 2819 3834
Q 2328 4653 1831 4947
z
" transform="scale(0.015625)"/>
      </defs>
      <use xlink:href="#MicrosoftYaHei-42"/>
      <use xlink:href="#MicrosoftYaHei-46" transform="translate(62.744141 0)"/>
      <use xlink:href="#MicrosoftYaHei-53" transform="translate(114.494141 0)"/>
      <use xlink:href="#MicrosoftYaHei-20" transform="translate(172.208984 0)"/>
      <use xlink:href="#MicrosoftYaHei-961f" transform="translate(201.798828 0)"/>
      <use xlink:href="#MicrosoftYaHei-5217" transform="translate(301.798828 0)"/>
      <use xlink:href="#MicrosoftYaHei-5165" transform="translate(401.798828 0)"/>
      <use xlink:href="#MicrosoftYaHei-961f" transform="translate(501.798828 0)"/>
      <use xlink:href="#MicrosoftYaHei-6b21" transform="translate(601.798828 0)"/>
      <use xlink:href="#MicrosoftYaHei-6570" transform="translate(701.798828 0)"/>
     </g>
    </g>
    <g id="text_40">
     <!-- 1e6 -->
     <g style="fill: #262626" transform="translate(744.775625 87.792) scale(0.11 -0.11)">
      <defs>
       <path id="MicrosoftYaHei-65" d="M 3363 1572
L 944 1572
Q 959 1019 1246 717
Q 1534 416 2050 416
Q 2631 416 3116 788
L 3116 241
Q 2659 -81 1906 -81
Q 1156 -81 736 394
Q 316 869 316 1713
Q 316 2506 777 3022
Q 1238 3538 1922 3538
Q 2600 3538 2981 3102
Q 3363 2666 3363 1881
L 3363 1572
z
M 2750 2063
Q 2747 2531 2528 2787
Q 2309 3044 1913 3044
Q 1547 3044 1280 2772
Q 1013 2500 944 2063
L 2750 2063
z
" transform="scale(0.015625)"/>
      </defs>
      <use xlink:href="#MicrosoftYaHei-31"/>
      <use xlink:href="#MicrosoftYaHei-65" transform="translate(58.642578 0)"/>
      <use xlink:href="#MicrosoftYaHei-36" transform="translate(115.380859 0)"/>
     </g>
    </g>
   </g>
   <g id="line2d_26">
    <path d="M 756.902898 316.833657
L 805.411989 314.304518
L 853.92108 304.581873
L 902.43017 278.064986
L 950.939261 217.838879
L 999.448352 101.572364
" clip-path="url(#pcf3bfd155c)" style="fill: none; stroke-dasharray: 4.44,1.92; stroke-dashoffset: 0; stroke: #f0986e; stroke-width: 1.2"/>
    <g clip-path="url(#pcf3bfd155c)">
     <use xlink:href="#m2a3b85fae3" x="756.902898" y="316.833657" style="fill: #f0986e; stroke: #804126"/>
     <use xlink:href="#m2a3b85fae3" x="805.411989" y="314.304518" style="fill: #f0986e; stroke: #804126"/>
     <use xlink:href="#m2a3b85fae3" x="853.92108" y="304.581873" style="fill: #f0986e; stroke: #804126"/>
     <use xlink:href="#m2a3b85fae3" x="902.43017" y="278.064986" style="fill: #f0986e; stroke: #804126"/>
     <use xlink:href="#m2a3b85fae3" x="950.939261" y="217.838879" style="fill: #f0986e; stroke: #804126"/>
     <use xlink:href="#m2a3b85fae3" x="999.448352" y="101.572364" style="fill: #f0986e; stroke: #804126"/>
    </g>
   </g>
   <g id="line2d_27">
    <path d="M 756.902898 317.179636
L 805.411989 317.117721
L 853.92108 316.996025
L 902.43017 316.794053
L 950.939261 316.491308
L 999.448352 316.067294
" clip-path="url(#pcf3bfd155c)" style="fill: none; stroke: #a3befa; stroke-width: 1.2; stroke-linecap: round"/>
    <g clip-path="url(#pcf3bfd155c)">
     <use xlink:href="#m1b05a9ac0f" x="756.902898" y="317.179636" style="fill: #a3befa; stroke: #2e4780; stroke-linejoin: miter"/>
     <use xlink:href="#m1b05a9ac0f" x="805.411989" y="317.117721" style="fill: #a3befa; stroke: #2e4780; stroke-linejoin: miter"/>
     <use xlink:href="#m1b05a9ac0f" x="853.92108" y="316.996025" style="fill: #a3befa; stroke: #2e4780; stroke-linejoin: miter"/>
     <use xlink:href="#m1b05a9ac0f" x="902.43017" y="316.794053" style="fill: #a3befa; stroke: #2e4780; stroke-linejoin: miter"/>
     <use xlink:href="#m1b05a9ac0f" x="950.939261" y="316.491308" style="fill: #a3befa; stroke: #2e4780; stroke-linejoin: miter"/>
     <use xlink:href="#m1b05a9ac0f" x="999.448352" y="316.067294" style="fill: #a3befa; stroke: #2e4780; stroke-linejoin: miter"/>
    </g>
   </g>
   <g id="patch_9">
    <path d="M 744.775625 327.96
L 744.775625 90.792
" style="fill: none; stroke: #d7dbe7; stroke-width: 1.25; stroke-linejoin: miter; stroke-linecap: square"/>
   </g>
   <g id="patch_10">
    <path d="M 744.775625 327.96
L 1011.575625 327.96
" style="fill: none; stroke: #d7dbe7; stroke-width: 1.25; stroke-linejoin: miter; stroke-linecap: square"/>
   </g>
  </g>
  <g id="text_41">
   <!-- 操作计数解释运行时间差距 -->
   <g style="fill: #1f2430" transform="translate(51.095625 18.39125) scale(0.14 -0.14)">
    <defs>
     <path id="MicrosoftYaHei-Bold-64cd" d="M 200 4166
L 725 4166
L 725 5266
L 1481 5266
L 1481 4166
L 2025 4166
L 2025 3384
L 1481 3384
L 1481 2475
Q 1716 2534 1900 2591
Q 1894 2097 1906 1753
L 1481 1628
L 1481 -9
Q 1481 -363 1364 -553
Q 1247 -744 939 -783
Q 631 -822 263 -816
Q 200 -453 113 -9
Q 550 -19 601 -11
Q 653 -3 687 59
Q 722 122 725 234
L 725 1406
L 144 1234
L 81 2153
Q 428 2225 725 2294
L 725 3384
L 200 3384
L 200 4166
z
M 2413 5122
L 5744 5122
L 5744 3584
L 2413 3584
L 2413 5122
z
M 4950 4178
L 4950 4534
L 3213 4534
L 3213 4178
L 4950 4178
z
M 4250 3303
L 6063 3303
L 6063 1797
L 4250 1797
L 4250 3303
z
M 5413 2328
L 5413 2772
L 4900 2772
L 4900 2328
L 5413 2328
z
M 2106 3303
L 3913 3303
L 3913 1797
L 2106 1797
L 2106 3303
z
M 3256 2328
L 3256 2772
L 2756 2772
L 2756 2328
L 3256 2328
z
M 1925 1416
L 3644 1416
L 3644 1709
L 4450 1709
L 4450 1416
L 6213 1416
L 6213 772
L 4828 772
Q 5388 259 6300 -3
Q 6044 -366 5856 -659
Q 4984 -241 4450 406
L 4450 -834
L 3644 -834
L 3644 413
Q 2944 -325 2225 -691
Q 2013 -453 1694 -109
Q 2622 281 3203 772
L 1925 772
L 1925 1416
z
" transform="scale(0.015625)"/>
     <path id="MicrosoftYaHei-Bold-4f5c" d="M 5944 1984
L 4250 1984
L 4250 1216
L 6088 1216
L 6088 428
L 4250 428
L 4250 -834
L 3369 -834
L 3369 3541
L 3184 3541
Q 2800 2681 2313 2041
Q 2131 2384 1831 2853
Q 2544 3922 2944 5328
L 3756 5134
Q 3638 4722 3506 4347
L 6300 4347
L 6300 3541
L 4250 3541
L 4250 2772
L 5944 2772
L 5944 1984
z
M 1319 5291
L 2156 5047
Q 1956 4419 1706 3828
L 1706 -828
L 856 -828
L 856 2163
Q 600 1744 313 1347
Q 244 1828 100 2509
Q 856 3703 1319 5291
z
" transform="scale(0.015625)"/>
     <path id="MicrosoftYaHei-Bold-8ba1" d="M 1194 5334
Q 1681 4678 2019 4172
L 1219 3691
Q 913 4241 463 4916
L 1194 5334
z
M 2175 3428
L 3763 3428
L 3763 5328
L 4700 5328
L 4700 3428
L 6300 3428
L 6300 2591
L 4700 2591
L 4700 -847
L 3763 -847
L 3763 2591
L 2175 2591
L 2175 3428
z
M 2481 1341
Q 2531 759 2588 416
Q 1388 -366 1063 -722
L 600 -109
Q 756 78 756 416
L 756 2422
L 119 2422
L 119 3234
L 1588 3234
L 1588 766
Q 1844 916 2481 1341
z
" transform="scale(0.015625)"/>
     <path id="MicrosoftYaHei-Bold-6570" d="M 238 4091
L 725 4091
Q 559 4425 281 4803
L 844 5153
Q 1038 4922 1369 4428
L 806 4091
L 1506 4091
L 1506 5316
L 2300 5316
L 2300 4091
L 2956 4091
L 2438 4428
Q 2750 4809 2963 5172
L 3550 4822
Q 3341 4466 3031 4091
L 3394 4091
L 3394 3453
L 2300 3453
L 2300 3016
L 2513 3303
Q 2903 3094 3253 2891
Q 3766 3841 4138 5347
L 4994 5266
Q 4869 4781 4728 4341
L 6294 4341
L 6294 3578
L 6041 3578
Q 5906 1922 5338 856
Q 5738 391 6319 53
Q 6094 -203 5775 -778
Q 5228 -413 4828 109
Q 4313 -497 3631 -872
Q 3378 -513 3072 -197
L 2850 -566
Q 2475 -350 2031 -128
Q 1347 -584 394 -778
Q 281 -434 63 -9
Q 716 59 1213 253
Q 781 444 300 641
Q 513 950 681 1259
L 169 1259
L 169 1897
L 991 1897
Q 1094 2144 1169 2391
L 1506 2359
L 1506 2959
Q 1044 2472 344 2053
Q 213 2472 50 2803
Q 672 3044 1172 3453
L 238 3453
L 238 4091
z
M 4394 3400
Q 4519 2359 4831 1659
Q 5203 2478 5275 3578
L 4463 3578
Q 4431 3488 4394 3400
z
M 2300 2216
L 1984 2216
Q 1913 2063 1825 1897
L 3281 1897
L 3281 1316
Q 3038 806 2672 413
L 3294 166
L 3169 -38
Q 3859 322 4347 894
Q 4041 1522 3878 2300
Q 3769 2103 3656 1922
Q 3513 2172 3322 2438
L 3138 2159
Q 2750 2422 2300 2691
L 2300 2216
z
M 1300 934
L 1950 691
Q 2231 934 2413 1259
L 1484 1259
L 1300 934
z
" transform="scale(0.015625)"/>
     <path id="MicrosoftYaHei-Bold-89e3" d="M 3188 953
L 4475 953
L 4475 1641
L 3888 1641
Q 3769 1331 3619 1078
Q 3288 1263 3013 1381
L 3013 47
Q 3013 -316 2888 -517
Q 2763 -719 2517 -758
Q 2272 -797 1963 -797
L 1884 -403
L 1406 -403
L 1406 778
L 1034 778
Q 941 -281 656 -897
Q 350 -516 69 -259
Q 419 541 419 2078
L 419 3113
Q 359 3053 300 2997
Q 225 3403 81 3866
Q 725 4522 1075 5359
L 1838 5259
Q 1759 5072 1672 4891
L 2806 4891
L 2806 4303
L 2488 3734
L 3013 3734
L 3013 1541
Q 3384 2147 3488 2803
L 4169 2709
Q 4134 2513 4091 2328
L 4475 2328
L 4475 2853
L 5263 2853
L 5263 2328
L 6131 2328
L 6131 1641
L 5263 1641
L 5263 953
L 6281 953
L 6281 266
L 5263 266
L 5263 -822
L 4475 -822
L 4475 266
L 3188 266
L 3188 953
z
M 963 3734
L 1697 3734
L 2000 4278
L 1338 4278
Q 1166 3997 963 3734
z
M 2363 3134
L 2006 3134
L 2006 2541
L 2363 2541
L 2363 3134
z
M 1081 2541
L 1406 2541
L 1406 3134
L 1081 3134
L 1081 2541
z
M 2006 1366
L 2363 1366
L 2363 1953
L 2006 1953
L 2006 1366
z
M 1072 1366
L 1406 1366
L 1406 1953
L 1081 1953
Q 1081 1909 1072 1366
z
M 2363 778
L 2006 778
L 2006 -81
Q 2231 -91 2297 -22
Q 2363 47 2363 247
L 2363 778
z
M 4581 2978
Q 4522 3366 4416 3697
Q 4206 3203 3581 2816
Q 3338 3153 3019 3484
Q 3725 3841 3775 4416
L 3194 4416
L 3194 5097
L 6119 5097
Q 6103 3772 5973 3492
Q 5844 3213 5614 3095
Q 5384 2978 4581 2978
z
M 4428 3725
Q 4741 3709 4894 3709
Q 5122 3709 5198 3821
Q 5275 3934 5275 4416
L 4581 4416
Q 4544 4019 4428 3725
z
" transform="scale(0.015625)"/>
     <path id="MicrosoftYaHei-Bold-91ca" d="M 100 747
Q 584 1394 938 2191
L 150 2191
L 150 2891
L 1025 2891
L 1025 4284
L 225 4216
Q 169 4559 100 4916
Q 1306 4978 2525 5128
L 2675 4453
L 1775 4353
L 1775 3263
Q 2050 3753 2231 4266
L 2806 4041
Q 2525 3478 2269 3022
L 1775 3250
L 1775 2891
L 2613 2891
L 2613 2191
L 1775 2191
L 1775 2022
Q 2300 1650 2700 1334
L 2225 741
Q 2003 966 1775 1184
L 1775 -809
L 1025 -809
L 1025 944
Q 713 266 369 -216
Q 231 328 100 747
z
M 5988 5066
L 5988 4303
Q 5650 3747 5156 3319
Q 5631 3150 6300 3059
Q 6131 2684 5988 2303
Q 5078 2459 4431 2816
Q 3844 2494 3038 2253
Q 2888 2622 2656 2997
Q 3241 3144 3706 3334
Q 3353 3659 3088 4078
L 3500 4372
L 2838 4372
L 2838 5066
L 5988 5066
z
M 4422 3700
Q 4878 3997 5125 4372
L 3709 4372
Q 4063 3956 4422 3700
z
M 94 3984
L 550 4184
Q 788 3716 1000 3266
L 463 3028
Q 319 3459 94 3984
z
M 2500 816
L 4013 816
L 4013 1266
L 2775 1266
L 2775 1991
L 4013 1991
L 4013 2434
L 4838 2434
L 4838 1991
L 6050 1991
L 6050 1266
L 4838 1266
L 4838 816
L 6250 816
L 6250 91
L 4838 91
L 4838 -822
L 4013 -822
L 4013 91
L 2500 91
L 2500 816
z
" transform="scale(0.015625)"/>
     <path id="MicrosoftYaHei-Bold-8fd0" d="M 1000 5353
Q 1469 4778 1906 4153
L 1138 3647
Q 744 4303 288 4897
L 1000 5353
z
M 5838 4209
L 2344 4209
L 2344 5022
L 5838 5022
L 5838 4209
z
M 5031 2591
Q 5631 1759 6194 772
L 5438 372
Q 5319 597 5197 816
Q 3209 700 2294 578
L 1956 1278
Q 2522 1750 2978 2647
L 1950 2647
L 1950 3459
L 6200 3459
L 6200 2647
L 3997 2647
Q 3638 2022 3194 1453
Q 3813 1475 4784 1538
Q 4572 1884 4356 2209
L 5031 2591
z
M 6313 134
L 6031 -684
Q 2466 -709 1978 -592
Q 1491 -475 1188 -78
Q 800 -447 431 -847
L 81 128
Q 372 394 700 650
L 700 2378
L 131 2378
L 131 3203
L 1563 3203
L 1563 659
Q 1763 419 2014 287
Q 2266 156 2536 125
Q 2806 94 3691 97
Q 4666 97 6313 134
z
" transform="scale(0.015625)"/>
     <path id="MicrosoftYaHei-Bold-884c" d="M 1663 5347
Q 2063 5072 2413 4809
Q 1756 4047 669 3178
Q 438 3528 113 3916
Q 1163 4716 1663 5347
z
M 2788 4903
L 6038 4903
L 6038 4091
L 2788 4091
L 2788 4903
z
M 1763 3722
L 2494 3253
Q 2219 2850 1894 2463
L 1894 -778
L 1025 -778
L 1025 1525
Q 738 1247 425 978
Q 300 1328 81 1847
Q 1044 2678 1763 3722
z
M 2581 3116
L 6313 3116
L 6313 2303
L 5338 2303
L 5338 291
Q 5338 -209 5105 -473
Q 4872 -738 4445 -766
Q 4019 -794 3181 -803
Q 3094 -391 2950 72
Q 3600 28 3975 28
Q 4431 28 4431 509
L 4431 2303
L 2581 2303
L 2581 3116
z
" transform="scale(0.015625)"/>
     <path id="MicrosoftYaHei-Bold-65f6" d="M 3038 4241
L 4888 4241
L 4888 5291
L 5781 5291
L 5781 4241
L 6306 4241
L 6306 3409
L 5781 3409
L 5781 316
Q 5781 -209 5547 -478
Q 5313 -747 4898 -762
Q 4484 -778 3669 -778
Q 3569 -209 3456 134
Q 4344 109 4431 109
Q 4888 109 4888 584
L 4888 3409
L 3038 3409
L 3038 4241
z
M 394 -497
L 394 4897
L 2856 4897
L 2856 -459
L 2031 -459
L 2031 -28
L 1219 -28
L 1219 -497
L 394 -497
z
M 2031 4072
L 1219 4072
L 1219 2834
L 2031 2834
L 2031 4072
z
M 1219 797
L 2031 797
L 2031 2034
L 1219 2034
L 1219 797
z
M 3588 3072
Q 4013 2541 4713 1559
L 3956 1066
Q 3388 2009 2938 2641
L 3588 3072
z
" transform="scale(0.015625)"/>
     <path id="MicrosoftYaHei-Bold-95f4" d="M 1088 5059
L 1906 5347
Q 2200 4884 2506 4334
L 1638 4003
Q 1356 4597 1088 5059
z
M 6056 347
Q 6056 -106 5904 -378
Q 5753 -650 5422 -736
Q 5091 -822 3950 -822
Q 3875 -359 3750 53
Q 4150 28 4769 28
Q 5188 28 5188 397
L 5188 4278
L 2719 4278
L 2719 5047
L 6056 5047
L 6056 347
z
M 344 4522
L 1213 4522
L 1213 -803
L 344 -803
L 344 4522
z
M 1788 3772
L 4581 3772
L 4581 484
L 2575 484
L 2575 141
L 1788 141
L 1788 3772
z
M 3794 3072
L 2575 3072
L 2575 2478
L 3794 2478
L 3794 3072
z
M 3794 1184
L 3794 1778
L 2575 1778
L 2575 1184
L 3794 1184
z
" transform="scale(0.015625)"/>
     <path id="MicrosoftYaHei-Bold-5dee" d="M 1013 72
L 3206 72
L 3206 722
L 1788 722
L 1788 866
Q 1213 269 444 -241
Q 263 322 88 678
Q 941 1150 1506 1803
L 256 1803
L 256 2478
L 1988 2478
Q 2094 2659 2181 2853
L 656 2853
L 656 3528
L 2425 3528
Q 2478 3713 2516 3903
L 381 3903
L 381 4578
L 1675 4578
Q 1513 4888 1363 5134
L 2225 5347
L 2672 4578
L 3759 4578
Q 4016 5016 4188 5341
L 5113 5116
L 4719 4578
L 6038 4578
L 6038 3903
L 3366 3903
Q 3331 3713 3284 3528
L 5763 3528
L 5763 2853
L 3072 2853
Q 3000 2663 2913 2478
L 6163 2478
L 6163 1803
L 2534 1803
Q 2406 1603 2256 1409
L 5700 1409
L 5700 722
L 4094 722
L 4094 72
L 6231 72
L 6231 -628
L 1013 -628
L 1013 72
z
" transform="scale(0.015625)"/>
     <path id="MicrosoftYaHei-Bold-8ddd" d="M 2863 4978
L 6163 4978
L 6163 4197
L 3694 4197
L 3694 3478
L 5963 3478
L 5963 928
L 3694 928
L 3694 147
L 6250 147
L 6250 -634
L 2863 -634
L 2863 4978
z
M 5138 1697
L 5138 2709
L 3694 2709
L 3694 1697
L 5138 1697
z
M 438 4966
L 2613 4966
L 2613 2816
L 2063 2816
L 2063 2066
L 2550 2066
L 2550 1341
L 2063 1341
L 2063 444
L 2763 534
Q 2750 259 2738 -303
Q 1344 -484 200 -659
L 106 222
L 313 244
L 313 2416
L 938 2416
L 938 309
L 1288 353
L 1288 2816
L 438 2816
L 438 4966
z
M 1213 3516
L 1838 3516
L 1838 4166
L 1213 4166
L 1213 3516
z
" transform="scale(0.015625)"/>
    </defs>
    <use xlink:href="#MicrosoftYaHei-Bold-64cd"/>
    <use xlink:href="#MicrosoftYaHei-Bold-4f5c" transform="translate(100 0)"/>
    <use xlink:href="#MicrosoftYaHei-Bold-8ba1" transform="translate(200 0)"/>
    <use xlink:href="#MicrosoftYaHei-Bold-6570" transform="translate(300 0)"/>
    <use xlink:href="#MicrosoftYaHei-Bold-89e3" transform="translate(400 0)"/>
    <use xlink:href="#MicrosoftYaHei-Bold-91ca" transform="translate(500 0)"/>
    <use xlink:href="#MicrosoftYaHei-Bold-8fd0" transform="translate(600 0)"/>
    <use xlink:href="#MicrosoftYaHei-Bold-884c" transform="translate(700 0)"/>
    <use xlink:href="#MicrosoftYaHei-Bold-65f6" transform="translate(800 0)"/>
    <use xlink:href="#MicrosoftYaHei-Bold-95f4" transform="translate(900 0)"/>
    <use xlink:href="#MicrosoftYaHei-Bold-5dee" transform="translate(1000 0)"/>
    <use xlink:href="#MicrosoftYaHei-Bold-8ddd" transform="translate(1100 0)"/>
   </g>
  </g>
  <g id="text_42">
   <!-- 计数汇总所有非直接淘汰目标球队网络；Dinic 在同一阶段复用分层图和当前弧。 -->
   <g style="fill: #6f768a" transform="translate(51.095625 34.234062) scale(0.095 -0.095)">
    <defs>
     <path id="MicrosoftYaHei-8ba1" d="M 2100 3153
L 3919 3153
L 3919 5303
L 4456 5303
L 4456 3153
L 6288 3153
L 6288 2703
L 4456 2703
L 4456 -822
L 3919 -822
L 3919 2703
L 2100 2703
L 2100 3153
z
M 2675 903
Q 2694 578 2719 359
Q 1719 -266 1069 -728
L 769 -303
Q 988 -116 988 266
L 988 2741
L 100 2741
L 100 3191
L 1488 3191
L 1488 153
Q 2031 484 2675 903
z
M 738 5222
Q 1419 4522 1725 4184
L 1288 3816
Q 894 4334 356 4891
L 738 5222
z
" transform="scale(0.015625)"/>
     <path id="MicrosoftYaHei-6c47" d="M 2169 4941
L 6163 4941
L 6163 4453
L 2700 4453
L 2700 -84
L 6250 -84
L 6250 -572
L 2169 -572
L 2169 4941
z
M 1019 1766
Q 1325 1603 1538 1522
Q 1200 422 819 -766
L 275 -516
Q 713 541 1019 1766
z
M 644 5241
Q 1231 4841 1769 4403
Q 1600 4203 1425 3978
Q 869 4466 331 4872
L 644 5241
z
M 344 3616
Q 988 3222 1538 2816
Q 1350 2572 1194 2366
Q 638 2828 44 3216
L 344 3616
z
" transform="scale(0.015625)"/>
     <path id="MicrosoftYaHei-603b" d="M 900 4253
L 3631 4253
Q 4022 4822 4331 5353
L 4813 5103
Q 4500 4675 4175 4253
L 5500 4253
L 5500 1703
L 5000 1703
L 5000 1978
L 1400 1978
L 1400 1703
L 900 1703
L 900 4253
z
M 5000 3803
L 1400 3803
L 1400 2428
L 5000 2428
L 5000 3803
z
M 1694 1378
L 2181 1378
L 2181 284
Q 2181 -203 2619 -203
L 3875 -203
Q 4244 -203 4338 172
Q 4394 366 4450 872
Q 4631 791 4931 684
Q 4850 209 4750 -97
Q 4556 -641 3900 -641
L 2519 -641
Q 1694 -641 1694 197
L 1694 1378
z
M 719 1422
L 1188 1272
Q 931 491 538 -334
Q 338 -247 81 -134
Q 444 597 719 1422
z
M 4881 1203
L 5238 1478
Q 5813 841 6319 197
L 5900 -134
Q 5456 491 4881 1203
z
M 2663 1591
L 3044 1841
Q 3488 1372 3863 841
L 3444 547
Q 3069 1109 2663 1591
z
M 1594 5109
L 1975 5353
Q 2350 4959 2650 4541
L 2225 4266
Q 1956 4653 1594 5109
z
" transform="scale(0.015625)"/>
     <path id="MicrosoftYaHei-6240" d="M 638 4853
Q 1675 4872 2806 5109
L 2969 4641
Q 2044 4503 1088 4434
L 1088 3466
L 2725 3466
L 2725 1159
L 2288 1159
L 2288 1434
L 1063 1434
Q 959 3 406 -834
Q 238 -628 63 -453
Q 638 334 638 2134
L 638 4853
z
M 3325 4816
Q 4813 4872 6031 5091
L 6200 4616
Q 4638 4441 3788 4391
L 3788 2997
L 6319 2997
L 6319 2566
L 5350 2566
L 5350 -809
L 4881 -809
L 4881 2566
L 3788 2566
L 3788 2216
Q 3788 247 2694 -878
Q 2513 -666 2338 -466
Q 3325 547 3325 2228
L 3325 4816
z
M 2288 1847
L 2288 3053
L 1088 3053
Q 1088 2122 1084 1847
L 2288 1847
z
" transform="scale(0.015625)"/>
     <path id="MicrosoftYaHei-6709" d="M 1856 -816
L 1363 -816
L 1363 2419
Q 909 1891 363 1403
Q 231 1622 63 1859
Q 1269 2869 1947 4097
L 238 4097
L 238 4559
L 2181 4559
Q 2359 4950 2488 5359
L 3006 5241
Q 2881 4894 2731 4559
L 6263 4559
L 6263 4097
L 2506 4097
Q 2313 3728 2081 3378
L 5506 3378
L 5506 41
Q 5506 -734 4750 -734
Q 4419 -741 3744 -741
Q 3713 -528 3650 -228
Q 4225 -272 4575 -272
Q 5006 -272 5006 153
L 5006 597
L 1856 597
L 1856 -816
z
M 1856 1022
L 5006 1022
L 5006 1772
L 1856 1772
L 1856 1022
z
M 5006 2941
L 1856 2941
L 1856 2197
L 5006 2197
L 5006 2941
z
" transform="scale(0.015625)"/>
     <path id="MicrosoftYaHei-975e" d="M 3688 5284
L 4188 5284
L 4188 4391
L 6131 4391
L 6131 3941
L 4188 3941
L 4188 2716
L 6038 2716
L 6038 2266
L 4188 2266
L 4188 1016
L 6269 1016
L 6269 566
L 4188 566
L 4188 -797
L 3688 -797
L 3688 5284
z
M 150 1016
L 2206 1016
L 2206 2266
L 375 2266
L 375 2716
L 2206 2716
L 2206 3941
L 275 3941
L 275 4391
L 2206 4391
L 2206 5284
L 2706 5284
L 2706 -797
L 2206 -797
L 2206 566
L 150 566
L 150 1016
z
" transform="scale(0.015625)"/>
     <path id="MicrosoftYaHei-76f4" d="M 119 -153
L 969 -153
L 969 3741
L 2900 3741
L 2900 4316
L 244 4316
L 244 4753
L 2900 4753
L 2900 5328
L 3400 5328
L 3400 4753
L 6175 4753
L 6175 4316
L 3400 4316
L 3400 3741
L 5400 3741
L 5400 -153
L 6294 -153
L 6294 -591
L 119 -591
L 119 -153
z
M 1450 -153
L 4919 -153
L 4919 422
L 1450 422
L 1450 -153
z
M 4919 3328
L 1450 3328
L 1450 2759
L 4919 2759
L 4919 3328
z
M 1450 822
L 4919 822
L 4919 1391
L 1450 1391
L 1450 822
z
M 1450 1791
L 4919 1791
L 4919 2359
L 1450 2359
L 1450 1791
z
" transform="scale(0.015625)"/>
     <path id="MicrosoftYaHei-63a5" d="M 1800 -366
Q 3019 -188 3784 222
Q 3200 484 2531 772
Q 2800 1119 3028 1466
L 2000 1466
L 2000 1884
L 3291 1884
Q 3491 2222 3656 2559
L 4119 2366
Q 3969 2116 3822 1884
L 6225 1884
L 6225 1466
L 5403 1466
Q 5156 778 4672 306
Q 5469 -25 6219 -353
L 5944 -816
Q 5241 -444 4288 -3
Q 3450 -572 2038 -841
Q 1950 -634 1800 -366
z
M 100 1966
Q 544 2088 963 2213
L 963 3641
L 175 3641
L 175 4091
L 963 4091
L 963 5259
L 1425 5259
L 1425 4091
L 2144 4091
L 2144 3641
L 1425 3641
L 1425 2356
Q 1722 2450 2006 2547
Q 2013 2266 2044 2059
Q 1722 1956 1425 1856
L 1425 -72
Q 1425 -747 819 -753
Q 588 -759 231 -747
Q 206 -491 156 -228
Q 531 -266 688 -266
Q 963 -266 963 66
L 963 1703
Q 534 1559 163 1428
L 100 1966
z
M 2019 3072
L 4453 3072
Q 4850 3622 5156 4103
L 5625 3847
Q 5300 3456 4966 3072
L 6269 3072
L 6269 2653
L 2019 2653
L 2019 3072
z
M 2263 4591
L 4028 4591
Q 3881 4875 3719 5153
L 4138 5347
Q 4338 5009 4519 4666
L 4359 4591
L 6119 4591
L 6119 4172
L 2263 4172
L 2263 4591
z
M 3181 909
Q 3703 703 4203 497
Q 4694 894 4900 1466
L 3553 1466
Q 3363 1175 3181 909
z
M 2825 3853
L 3188 4097
Q 3481 3753 3756 3372
L 3356 3103
Q 3119 3491 2825 3853
z
" transform="scale(0.015625)"/>
     <path id="MicrosoftYaHei-6dd8" d="M 2119 1528
L 2550 1528
L 2550 684
L 3375 684
L 3375 1803
L 1719 1803
L 1719 2209
L 3375 2209
L 3375 3022
L 2847 3022
Q 2613 2669 2369 2372
Q 2075 2584 1975 2641
Q 2550 3247 2944 4034
L 3344 3853
Q 3225 3631 3103 3428
L 5031 3428
L 5031 3022
L 3813 3022
L 3813 2209
L 5381 2209
L 5381 1803
L 3813 1803
L 3813 684
L 4644 684
L 4644 1528
L 5075 1528
L 5075 278
L 2119 278
L 2119 1528
z
M 1500 3466
Q 2256 4359 2700 5353
L 3138 5178
Q 3000 4900 2859 4647
L 6081 4647
Q 6038 1441 5988 422
Q 5956 -234 5688 -478
Q 5431 -734 4763 -722
Q 4281 -716 3963 -703
Q 3925 -453 3856 -178
Q 4288 -234 4744 -247
Q 5181 -253 5338 -97
Q 5506 47 5519 472
Q 5556 1428 5594 4222
L 2616 4222
Q 2250 3619 1869 3166
Q 1713 3297 1500 3466
z
M 831 1766
Q 1094 1641 1338 1559
Q 1050 391 781 -791
L 231 -628
Q 538 347 831 1766
z
M 400 3572
Q 831 3278 1494 2728
Q 1263 2472 1131 2328
Q 463 2934 88 3216
L 400 3572
z
M 663 5216
Q 1156 4828 1731 4309
Q 1519 4103 1356 3934
Q 669 4609 344 4872
L 663 5216
z
" transform="scale(0.015625)"/>
     <path id="MicrosoftYaHei-6c70" d="M 1881 3816
L 3575 3816
Q 3609 4422 3613 5303
L 4138 5303
Q 4134 4400 4109 3816
L 6175 3816
L 6175 3347
L 4163 3347
Q 4588 1084 6331 -172
Q 6069 -434 5906 -647
Q 4359 613 3909 2588
Q 3569 691 1738 -797
Q 1563 -578 1363 -378
Q 3400 1203 3544 3347
L 1881 3347
L 1881 3816
z
M 1050 1734
Q 1350 1559 1563 1478
Q 1344 803 781 -822
L 244 -559
Q 744 578 1050 1734
z
M 356 3616
Q 1031 3216 1575 2809
Q 1381 2559 1225 2359
Q 613 2847 56 3216
L 356 3616
z
M 700 5241
Q 1456 4728 1881 4391
Q 1700 4172 1531 3959
Q 981 4434 388 4866
L 700 5241
z
M 3169 534
L 3569 791
Q 3963 284 4275 -153
L 3825 -441
Q 3544 -9 3169 534
z
" transform="scale(0.015625)"/>
     <path id="MicrosoftYaHei-76ee" d="M 944 5016
L 5469 5016
L 5469 -772
L 4938 -772
L 4938 -303
L 1475 -303
L 1475 -772
L 944 -772
L 944 5016
z
M 1475 1341
L 1475 159
L 4938 159
L 4938 1341
L 1475 1341
z
M 1475 2947
L 1475 1778
L 4938 1778
L 4938 2947
L 1475 2947
z
M 1475 4553
L 1475 3384
L 4938 3384
L 4938 4553
L 1475 4553
z
" transform="scale(0.015625)"/>
     <path id="MicrosoftYaHei-6807" d="M 75 1409
Q 769 2478 1025 3647
L 119 3647
L 119 4072
L 1069 4072
L 1069 5297
L 1506 5297
L 1506 4072
L 2356 4072
L 2356 3647
L 1506 3647
L 1506 2541
L 1775 2822
Q 2175 2478 2481 2159
L 2150 1816
Q 1850 2156 1506 2503
L 1506 -797
L 1069 -797
L 1069 2588
Q 738 1513 281 859
Q 194 1128 75 1409
z
M 2350 3097
L 6250 3097
L 6250 2659
L 4525 2659
L 4525 47
Q 4525 -734 3806 -734
Q 3469 -741 2975 -728
Q 2944 -503 2888 -209
Q 3319 -259 3675 -259
Q 4050 -259 4050 203
L 4050 2659
L 2350 2659
L 2350 3097
z
M 2638 4928
L 5963 4928
L 5963 4491
L 2638 4491
L 2638 4928
z
M 4938 1853
L 5381 2066
Q 5975 928 6369 72
L 5869 -147
Q 5463 822 4938 1853
z
M 2931 2066
L 3400 1878
Q 2888 734 2381 -153
Q 2188 -41 1925 66
Q 2425 872 2931 2066
z
" transform="scale(0.015625)"/>
     <path id="MicrosoftYaHei-7f51" d="M 1075 3641
L 1444 3834
Q 1816 3244 2184 2628
Q 2488 3281 2706 3928
L 3131 3772
Q 2822 2931 2450 2175
Q 2809 1563 3163 922
L 2738 697
Q 2478 1191 2203 1691
Q 1819 969 1375 328
L 1000 544
L 1000 -759
L 531 -759
L 531 4953
L 5856 4953
L 5856 -59
Q 5856 -728 5138 -728
Q 4738 -728 4181 -716
Q 4150 -516 4094 -228
Q 4619 -272 4988 -272
Q 5388 -272 5388 72
L 5388 4503
L 1000 4503
L 1000 572
Q 1538 1363 1947 2150
Q 1531 2891 1075 3641
z
M 3156 3341
L 3519 3553
Q 3831 3047 4166 2481
Q 4525 3197 4775 3891
L 5200 3728
Q 4847 2838 4428 2028
Q 4822 1353 5244 597
L 4825 359
Q 4513 953 4175 1559
Q 3788 866 3350 241
L 2969 484
Q 3506 1263 3919 2016
Q 3553 2672 3156 3341
z
" transform="scale(0.015625)"/>
     <path id="MicrosoftYaHei-7edc" d="M 2244 3241
Q 3013 4303 3394 5366
L 3863 5209
Q 3741 4922 3609 4653
L 5844 4653
L 5844 4209
Q 5391 3431 4694 2831
Q 5297 2463 6313 2166
Q 6188 1947 6063 1628
Q 5028 1988 4294 2528
Q 3453 1941 2431 1553
Q 2300 1766 2131 1991
Q 3091 2316 3906 2853
Q 3441 3291 3166 3813
Q 2881 3328 2569 2909
Q 2450 3047 2244 3241
z
M 2725 1584
L 5813 1584
L 5813 -847
L 5331 -847
L 5331 -534
L 3206 -534
L 3206 -847
L 2725 -847
L 2725 1584
z
M 900 1616
Q 1550 1678 2131 1759
Q 2106 1478 2088 1334
Q 981 1197 350 1103
L 250 1559
Q 609 1822 1256 2941
Q 659 2900 288 2866
L 163 3278
Q 763 4197 1181 5297
L 1669 5122
Q 1250 4228 694 3316
Q 941 3316 1475 3328
Q 1703 3741 1963 4247
L 2425 4047
Q 1675 2716 900 1616
z
M 5331 1134
L 3206 1134
L 3206 -84
L 5331 -84
L 5331 1134
z
M 5275 4228
L 3419 4228
Q 3756 3584 4284 3125
Q 4888 3609 5275 4228
z
M 163 153
Q 1200 353 2325 616
Q 2300 316 2300 141
Q 1300 -84 300 -341
L 163 153
z
" transform="scale(0.015625)"/>
     <path id="MicrosoftYaHei-ff1b" d="M 1606 3531
Q 1772 3531 1890 3415
Q 2009 3300 2009 3138
Q 2009 2975 1893 2858
Q 1778 2741 1606 2741
Q 1434 2741 1318 2858
Q 1203 2975 1203 3138
Q 1203 3300 1322 3415
Q 1441 3531 1606 3531
z
M 1931 775
L 1403 -891
L 966 -891
L 1350 775
L 1931 775
z
" transform="scale(0.015625)"/>
     <path id="MicrosoftYaHei-5728" d="M 250 4553
L 2088 4553
Q 2241 4931 2363 5328
L 2881 5197
Q 2772 4869 2647 4553
L 6275 4553
L 6275 4091
L 2450 4091
Q 2078 3256 1581 2519
L 1581 -791
L 1094 -791
L 1094 1853
Q 756 1431 375 1047
Q 244 1266 75 1497
Q 1225 2691 1884 4091
L 250 4091
L 250 4553
z
M 1800 109
L 3756 109
L 3756 1978
L 2131 1978
L 2131 2428
L 3756 2428
L 3756 3684
L 4269 3684
L 4269 2428
L 5919 2428
L 5919 1978
L 4269 1978
L 4269 109
L 6275 109
L 6275 -328
L 1800 -328
L 1800 109
z
" transform="scale(0.015625)"/>
     <path id="MicrosoftYaHei-540c" d="M 1013 -772
L 531 -772
L 531 4959
L 5856 4959
L 5856 -47
Q 5856 -741 5125 -741
Q 4669 -741 4088 -716
Q 4056 -497 4000 -216
Q 4619 -272 5025 -272
Q 5375 -272 5375 78
L 5375 4497
L 1013 4497
L 1013 -772
z
M 1875 2566
L 4506 2566
L 4506 597
L 2338 597
L 2338 272
L 1875 272
L 1875 2566
z
M 4044 2116
L 2338 2116
L 2338 1047
L 4044 1047
L 4044 2116
z
M 1363 3734
L 5025 3734
L 5025 3284
L 1363 3284
L 1363 3734
z
" transform="scale(0.015625)"/>
     <path id="MicrosoftYaHei-4e00" d="M 100 2703
L 6313 2703
L 6313 2153
L 100 2153
L 100 2703
z
" transform="scale(0.015625)"/>
     <path id="MicrosoftYaHei-9636" d="M 2213 1816
Q 2388 616 1644 484
Q 1406 441 1031 478
Q 981 734 913 991
Q 1206 916 1475 941
Q 1894 991 1744 1797
Q 1669 2222 1188 2853
Q 1419 3616 1688 4578
L 863 4578
L 863 -853
L 400 -853
L 400 5016
L 2194 5016
L 2194 4578
Q 1906 3672 1663 2934
Q 2144 2284 2213 1816
z
M 3469 2834
L 3469 1841
Q 3469 78 2450 -897
Q 2269 -734 2031 -572
Q 2994 297 2994 1859
L 2994 2834
L 3469 2834
z
M 4806 2834
L 5281 2834
L 5281 -822
L 4806 -822
L 4806 2834
z
M 4475 5278
L 4388 5078
Q 5169 3653 6338 3134
Q 6175 2947 5994 2697
Q 4856 3384 4144 4634
Q 3494 3472 2356 2609
Q 2206 2828 2031 3003
Q 3244 3809 3981 5278
L 4475 5278
z
" transform="scale(0.015625)"/>
     <path id="MicrosoftYaHei-6bb5" d="M 2844 1978
L 2844 2422
L 5763 2422
L 5763 1953
Q 5397 1069 4731 416
Q 5378 -63 6338 -266
Q 6144 -516 6019 -747
Q 5031 -456 4359 88
Q 3638 -488 2631 -853
Q 2450 -559 2331 -422
Q 3313 -75 3997 428
Q 3400 1069 3138 1978
L 2844 1978
z
M 88 722
Q 325 744 569 769
L 569 4897
Q 1931 4972 2719 5116
L 2888 4653
Q 2175 4559 1031 4484
L 1031 3616
L 2613 3616
L 2613 3203
L 1031 3203
L 1031 2259
L 2594 2259
L 2594 1847
L 1031 1847
L 1031 819
Q 1891 916 2838 1041
Q 2831 916 2831 591
Q 1894 484 1031 366
L 1031 -816
L 569 -816
L 569 303
Q 381 275 200 247
L 88 722
z
M 5738 3209
Q 5981 3209 6306 3228
L 6219 2759
Q 5906 2747 5625 2747
Q 4988 2747 4988 3459
L 4988 4553
L 3831 4553
L 3831 4216
Q 3831 3053 2938 2522
Q 2781 2709 2600 2909
Q 3363 3272 3363 4241
L 3363 4997
L 5456 4997
L 5456 3497
Q 5456 3209 5738 3209
z
M 5256 1978
L 3613 1978
Q 3863 1241 4363 731
Q 4956 1275 5256 1978
z
" transform="scale(0.015625)"/>
     <path id="MicrosoftYaHei-590d" d="M 81 3559
Q 975 4259 1563 5347
L 2113 5347
Q 1963 5084 1803 4841
L 6200 4841
L 6200 4441
L 1525 4441
Q 1356 4209 1175 3997
L 5575 3997
L 5575 1697
L 5138 1697
L 5138 1859
L 1463 1859
L 1463 1634
L 1031 1634
L 1031 3828
Q 716 3475 369 3166
Q 263 3347 81 3559
z
M 81 291
Q 1231 853 1931 1709
L 2488 1709
Q 2350 1534 2206 1372
L 5588 1372
L 5588 1034
Q 4981 494 4038 69
Q 5016 -188 6319 -284
Q 6150 -566 6025 -797
Q 4503 -584 3416 -175
Q 2303 -563 725 -872
Q 606 -666 438 -447
Q 1988 -191 2856 59
Q 2153 397 1678 838
Q 1084 303 388 -53
Q 250 128 81 291
z
M 1463 2247
L 5138 2247
L 5138 2747
L 1463 2747
L 1463 2247
z
M 5138 3609
L 1463 3609
L 1463 3116
L 5138 3116
L 5138 3609
z
M 4869 1009
L 2025 1009
Q 2572 553 3428 253
Q 4297 591 4869 1009
z
" transform="scale(0.015625)"/>
     <path id="MicrosoftYaHei-7528" d="M 3088 -734
L 3088 1253
L 1269 1253
Q 1163 -47 513 -903
Q 350 -697 144 -472
Q 550 103 694 803
Q 831 1478 831 2716
L 831 4947
L 5925 4947
L 5925 -22
Q 5925 -766 5219 -766
Q 4788 -766 4250 -747
Q 4219 -541 4156 -228
Q 4700 -266 5038 -266
Q 5425 -266 5425 103
L 5425 1253
L 3588 1253
L 3588 -734
L 3088 -734
z
M 3588 1703
L 5425 1703
L 5425 2872
L 3588 2872
L 3588 1703
z
M 5425 4484
L 3588 4484
L 3588 3322
L 5425 3322
L 5425 4484
z
M 1303 1703
L 3088 1703
L 3088 2872
L 1331 2872
Q 1350 2266 1303 1703
z
M 1331 4484
L 1331 3322
L 3088 3322
L 3088 4484
L 1331 4484
z
" transform="scale(0.015625)"/>
     <path id="MicrosoftYaHei-56fe" d="M 431 5072
L 5944 5072
L 5944 -809
L 5475 -809
L 5475 -509
L 900 -509
L 900 -809
L 431 -809
L 431 5072
z
M 5475 4622
L 900 4622
L 900 -59
L 5475 -59
L 5475 4622
z
M 1113 3091
Q 1969 3709 2519 4547
L 2931 4353
Q 2816 4181 2681 4016
L 4894 4016
L 4894 3647
Q 4434 3091 3722 2644
Q 4381 2422 5338 2297
Q 5194 2016 5131 1828
Q 4022 2081 3256 2400
Q 2491 2056 1225 1728
Q 1138 1934 1013 2128
Q 2109 2353 2825 2644
Q 2384 2947 2066 3341
Q 1769 3056 1419 2784
Q 1294 2916 1113 3091
z
M 1563 672
L 1694 1103
Q 3256 897 4700 622
L 4531 147
Q 3150 453 1563 672
z
M 4275 3628
L 2347 3628
Q 2338 3616 2328 3606
Q 2691 3141 3244 2841
Q 3891 3188 4275 3628
z
M 2219 1503
L 2344 1922
Q 3263 1784 4275 1609
L 4144 1172
Q 3119 1378 2219 1503
z
" transform="scale(0.015625)"/>
     <path id="MicrosoftYaHei-548c" d="M 3263 4553
L 6025 4553
L 6025 -666
L 5525 -666
L 5525 -59
L 3763 -59
L 3763 -666
L 3263 -666
L 3263 4553
z
M 5525 4091
L 3763 4091
L 3763 391
L 5525 391
L 5525 4091
z
M 75 897
Q 788 1841 1206 2997
L 113 2997
L 113 3422
L 1306 3422
L 1306 4409
Q 819 4334 319 4272
Q 263 4478 181 4703
Q 1481 4847 2700 5128
L 2844 4691
Q 2325 4584 1781 4491
L 1781 3422
L 2950 3422
L 2950 2997
L 1781 2997
L 1781 2191
L 2006 2416
Q 2500 1991 2975 1516
L 2619 1153
Q 2244 1584 1781 2034
L 1781 -872
L 1306 -872
L 1306 2128
Q 938 1203 313 359
Q 213 603 75 897
z
" transform="scale(0.015625)"/>
     <path id="MicrosoftYaHei-5f53" d="M 344 -41
L 5294 -41
L 5294 1034
L 725 1034
L 725 1478
L 5294 1478
L 5294 2534
L 525 2534
L 525 2978
L 2944 2978
L 2944 5297
L 3463 5297
L 3463 2978
L 5813 2978
L 5813 -859
L 5294 -859
L 5294 -484
L 344 -484
L 344 -41
z
M 5725 4653
Q 5056 3897 4394 3291
L 4019 3628
Q 4656 4203 5300 4997
L 5725 4653
z
M 725 4678
L 1075 4991
Q 1750 4359 2331 3672
L 1913 3316
Q 1388 4003 725 4678
z
" transform="scale(0.015625)"/>
     <path id="MicrosoftYaHei-524d" d="M 1038 -841
L 563 -841
L 563 3322
L 3300 3322
L 3300 -172
Q 3300 -784 2669 -772
Q 2406 -772 1950 -759
Q 1913 -516 1856 -297
Q 2238 -328 2563 -328
Q 2825 -334 2825 -72
L 2825 722
L 1038 722
L 1038 -841
z
M 150 4372
L 2169 4372
Q 1963 4697 1644 5078
L 2038 5347
Q 2425 4916 2663 4578
L 2353 4372
L 4063 4372
L 3813 4509
Q 4144 4916 4388 5359
L 4863 5084
Q 4575 4691 4284 4372
L 6263 4372
L 6263 3934
L 150 3934
L 150 4372
z
M 5331 3522
L 5819 3522
L 5819 28
Q 5819 -741 5094 -747
Q 4763 -753 4269 -741
Q 4238 -484 4181 -216
Q 4644 -266 4931 -266
Q 5331 -266 5331 141
L 5331 3522
z
M 4044 3222
L 4519 3222
L 4519 409
L 4044 409
L 4044 3222
z
M 2825 2897
L 1038 2897
L 1038 2228
L 2825 2228
L 2825 2897
z
M 1038 1141
L 2825 1141
L 2825 1809
L 1038 1809
L 1038 1141
z
" transform="scale(0.015625)"/>
     <path id="MicrosoftYaHei-5f27" d="M 4388 1178
L 4781 1316
Q 5056 453 5306 -416
L 4863 -566
Q 4803 -306 4731 -22
Q 4494 -144 4163 -334
Q 3994 -447 3869 -559
L 3575 -141
Q 3775 -16 3775 316
L 3775 4434
Q 3431 4416 3094 4403
L 3094 1903
Q 3094 122 2438 -822
Q 2263 -616 2063 -441
Q 2656 359 2656 1941
L 2656 4828
Q 4544 4847 6013 5109
L 6175 4641
Q 5788 4597 5403 4559
Q 5359 966 6363 -428
Q 6144 -578 5919 -766
Q 4944 841 4966 4522
Q 4588 4488 4213 4463
L 4213 178
Q 4394 266 4622 384
Q 4516 759 4388 1178
z
M 413 3441
L 1719 3441
L 1719 4491
L 225 4491
L 225 4916
L 2181 4916
L 2181 2747
L 1719 2747
L 1719 3016
L 806 3016
L 688 2003
L 2056 2003
Q 2013 934 1950 209
Q 1881 -634 1125 -634
Q 819 -634 400 -628
Q 363 -397 300 -128
Q 644 -159 1019 -159
Q 1450 -159 1488 278
Q 1538 797 1575 1578
L 200 1578
L 413 3441
z
" transform="scale(0.015625)"/>
     <path id="MicrosoftYaHei-3002" d="M 1219 863
Q 1525 863 1750 625
Q 1975 388 1975 72
Q 1975 -284 1747 -507
Q 1519 -731 1197 -731
Q 875 -731 642 -503
Q 409 -275 409 66
Q 409 413 656 638
Q 903 863 1219 863
z
M 1209 -275
Q 1328 -275 1431 -184
Q 1534 -94 1534 50
Q 1534 209 1434 304
Q 1334 400 1191 400
Q 1056 400 959 304
Q 863 209 863 53
Q 863 -100 977 -187
Q 1091 -275 1209 -275
z
" transform="scale(0.015625)"/>
    </defs>
    <use xlink:href="#MicrosoftYaHei-8ba1"/>
    <use xlink:href="#MicrosoftYaHei-6570" transform="translate(100 0)"/>
    <use xlink:href="#MicrosoftYaHei-6c47" transform="translate(200 0)"/>
    <use xlink:href="#MicrosoftYaHei-603b" transform="translate(300 0)"/>
    <use xlink:href="#MicrosoftYaHei-6240" transform="translate(400 0)"/>
    <use xlink:href="#MicrosoftYaHei-6709" transform="translate(500 0)"/>
    <use xlink:href="#MicrosoftYaHei-975e" transform="translate(600 0)"/>
    <use xlink:href="#MicrosoftYaHei-76f4" transform="translate(700 0)"/>
    <use xlink:href="#MicrosoftYaHei-63a5" transform="translate(800 0)"/>
    <use xlink:href="#MicrosoftYaHei-6dd8" transform="translate(900 0)"/>
    <use xlink:href="#MicrosoftYaHei-6c70" transform="translate(1000 0)"/>
    <use xlink:href="#MicrosoftYaHei-76ee" transform="translate(1100 0)"/>
    <use xlink:href="#MicrosoftYaHei-6807" transform="translate(1200 0)"/>
    <use xlink:href="#MicrosoftYaHei-7403" transform="translate(1300 0)"/>
    <use xlink:href="#MicrosoftYaHei-961f" transform="translate(1400 0)"/>
    <use xlink:href="#MicrosoftYaHei-7f51" transform="translate(1500 0)"/>
    <use xlink:href="#MicrosoftYaHei-7edc" transform="translate(1600 0)"/>
    <use xlink:href="#MicrosoftYaHei-ff1b" transform="translate(1700 0)"/>
    <use xlink:href="#MicrosoftYaHei-44" transform="translate(1800 0)"/>
    <use xlink:href="#MicrosoftYaHei-69" transform="translate(1876.171875 0)"/>
    <use xlink:href="#MicrosoftYaHei-6e" transform="translate(1902.783203 0)"/>
    <use xlink:href="#MicrosoftYaHei-69" transform="translate(1964.404297 0)"/>
    <use xlink:href="#MicrosoftYaHei-63" transform="translate(1991.015625 0)"/>
    <use xlink:href="#MicrosoftYaHei-20" transform="translate(2041.162109 0)"/>
    <use xlink:href="#MicrosoftYaHei-5728" transform="translate(2070.751953 0)"/>
    <use xlink:href="#MicrosoftYaHei-540c" transform="translate(2170.751953 0)"/>
    <use xlink:href="#MicrosoftYaHei-4e00" transform="translate(2270.751953 0)"/>
    <use xlink:href="#MicrosoftYaHei-9636" transform="translate(2370.751953 0)"/>
    <use xlink:href="#MicrosoftYaHei-6bb5" transform="translate(2470.751953 0)"/>
    <use xlink:href="#MicrosoftYaHei-590d" transform="translate(2570.751953 0)"/>
    <use xlink:href="#MicrosoftYaHei-7528" transform="translate(2670.751953 0)"/>
    <use xlink:href="#MicrosoftYaHei-5206" transform="translate(2770.751953 0)"/>
    <use xlink:href="#MicrosoftYaHei-5c42" transform="translate(2870.751953 0)"/>
    <use xlink:href="#MicrosoftYaHei-56fe" transform="translate(2970.751953 0)"/>
    <use xlink:href="#MicrosoftYaHei-548c" transform="translate(3070.751953 0)"/>
    <use xlink:href="#MicrosoftYaHei-5f53" transform="translate(3170.751953 0)"/>
    <use xlink:href="#MicrosoftYaHei-524d" transform="translate(3270.751953 0)"/>
    <use xlink:href="#MicrosoftYaHei-5f27" transform="translate(3370.751953 0)"/>
    <use xlink:href="#MicrosoftYaHei-3002" transform="translate(3470.751953 0)"/>
   </g>
  </g>
 </g>
 <defs>
  <clipPath id="p4b3fb60c11">
   <rect x="51.095625" y="90.792" width="266.8" height="237.168"/>
  </clipPath>
  <clipPath id="pb182547368">
   <rect x="397.935625" y="90.792" width="266.8" height="237.168"/>
  </clipPath>
  <clipPath id="pcf3bfd155c">
   <rect x="744.775625" y="90.792" width="266.8" height="237.168"/>
  </clipPath>
 </defs>
</svg>
