<?xml version="1.0" encoding="utf-8" standalone="no"?>
<!DOCTYPE svg PUBLIC "-//W3C//DTD SVG 1.1//EN"
  "http://www.w3.org/Graphics/SVG/1.1/DTD/svg11.dtd">
<svg xmlns:xlink="http://www.w3.org/1999/xlink" width="723.575625pt" height="429.211281pt" viewBox="0 0 723.575625 429.211281" xmlns="http://www.w3.org/2000/svg" version="1.1">
 <metadata>
  <rdf:RDF xmlns:dc="http://purl.org/dc/elements/1.1/" xmlns:cc="http://creativecommons.org/ns#" xmlns:rdf="http://www.w3.org/1999/02/22-rdf-syntax-ns#">
   <cc:Work>
    <dc:type rdf:resource="http://purl.org/dc/dcmitype/StillImage"/>
    <dc:date>2026-06-25T10:19:53.382642</dc:date>
    <dc:format>image/svg+xml</dc:format>
    <dc:creator>
     <cc:Agent>
      <dc:title>Matplotlib v3.10.0, https://matplotlib.org/</dc:title>
     </cc:Agent>
    </dc:creator>
   </cc:Work>
  </rdf:RDF>
 </metadata>
 <defs>
  <style type="text/css">*{stroke-linejoin: round; stroke-linecap: butt}</style>
 </defs>
 <g id="figure_1">
  <g id="patch_1">
   <path d="M 0 429.211281
L 723.575625 429.211281
L 723.575625 0
L 0 0
z
" style="fill: #fcfcfd"/>
  </g>
  <g id="axes_1">
   <g id="patch_2">
    <path d="M 51.095625 384.408
L 716.375625 384.408
L 716.375625 85.32
L 51.095625 85.32
z
" style="fill: #ffffff"/>
   </g>
   <g id="matplotlib.axis_1">
    <g id="xtick_1">
     <g id="text_1">
      <!-- 7.5 -->
      <g style="fill: #262626" transform="translate(58.440859 402.701125) scale(0.11 -0.11)">
       <defs>
        <path id="MicrosoftYaHei-37" d="M 3422 4463
Q 2659 3131 2223 1998
Q 1788 866 1684 0
L 1047 0
Q 1163 853 1594 1947
Q 2025 3041 2747 4300
L 347 4300
L 347 4841
L 3422 4841
L 3422 4463
z
" transform="scale(0.015625)"/>
        <path id="MicrosoftYaHei-2e" d="M 372 322
Q 372 491 487 606
Q 603 722 775 722
Q 950 722 1065 605
Q 1181 488 1181 322
Q 1181 159 1065 42
Q 950 -75 772 -75
Q 600 -75 486 42
Q 372 159 372 322
z
" transform="scale(0.015625)"/>
        <path id="MicrosoftYaHei-35" d="M 3294 1494
Q 3294 784 2823 350
Q 2353 -84 1559 -84
Q 878 -84 544 119
L 544 744
Q 1034 425 1544 425
Q 2050 425 2361 704
Q 2672 984 2672 1447
Q 2672 1909 2348 2167
Q 2025 2425 1434 2425
Q 978 2425 613 2384
L 791 4841
L 3053 4841
L 3053 4303
L 1306 4303
L 1206 2931
L 1647 2950
Q 2416 2950 2855 2567
Q 3294 2184 3294 1494
z
" transform="scale(0.015625)"/>
       </defs>
       <use xlink:href="#MicrosoftYaHei-37"/>
       <use xlink:href="#MicrosoftYaHei-2e" transform="translate(58.642578 0)"/>
       <use xlink:href="#MicrosoftYaHei-35" transform="translate(82.714844 0)"/>
      </g>
     </g>
    </g>
    <g id="xtick_2">
     <g id="text_2">
      <!-- 10.0 -->
      <g style="fill: #262626" transform="translate(130.815625 402.701125) scale(0.11 -0.11)">
       <defs>
        <path id="MicrosoftYaHei-31" d="M 1781 0
L 1781 4141
Q 1638 3997 1295 3819
Q 953 3641 663 3569
L 663 4169
Q 1047 4275 1484 4508
Q 1922 4741 2156 4947
L 2388 4947
L 2388 0
L 1781 0
z
" transform="scale(0.015625)"/>
        <path id="MicrosoftYaHei-30" d="M 284 2325
Q 284 3606 709 4264
Q 1134 4922 1941 4922
Q 3478 4922 3478 2441
Q 3478 1216 3045 567
Q 2613 -81 1831 -81
Q 1094 -81 689 534
Q 284 1150 284 2325
z
M 909 2353
Q 909 425 1888 425
Q 2850 425 2850 2384
Q 2850 4413 1906 4413
Q 909 4413 909 2353
z
" transform="scale(0.015625)"/>
       </defs>
       <use xlink:href="#MicrosoftYaHei-31"/>
       <use xlink:href="#MicrosoftYaHei-30" transform="translate(58.642578 0)"/>
       <use xlink:href="#MicrosoftYaHei-2e" transform="translate(117.285156 0)"/>
       <use xlink:href="#MicrosoftYaHei-30" transform="translate(141.357422 0)"/>
      </g>
     </g>
    </g>
    <g id="xtick_3">
     <g id="text_3">
      <!-- 12.5 -->
      <g style="fill: #262626" transform="translate(206.415625 402.701125) scale(0.11 -0.11)">
       <defs>
        <path id="MicrosoftYaHei-32" d="M 2666 3572
Q 2666 3963 2419 4186
Q 2172 4409 1747 4409
Q 1447 4409 1140 4256
Q 834 4103 569 3819
L 569 4413
Q 806 4659 1107 4790
Q 1409 4922 1816 4922
Q 2472 4922 2872 4570
Q 3272 4219 3272 3619
Q 3272 3084 3026 2693
Q 2781 2303 2188 1894
Q 1581 1475 1376 1294
Q 1172 1113 1090 947
Q 1009 781 1009 544
L 3416 544
L 3416 0
L 372 0
L 372 241
Q 372 659 486 951
Q 600 1244 862 1520
Q 1125 1797 1681 2184
Q 2250 2584 2458 2886
Q 2666 3188 2666 3572
z
" transform="scale(0.015625)"/>
       </defs>
       <use xlink:href="#MicrosoftYaHei-31"/>
       <use xlink:href="#MicrosoftYaHei-32" transform="translate(58.642578 0)"/>
       <use xlink:href="#MicrosoftYaHei-2e" transform="translate(117.285156 0)"/>
       <use xlink:href="#MicrosoftYaHei-35" transform="translate(141.357422 0)"/>
      </g>
     </g>
    </g>
    <g id="xtick_4">
     <g id="text_4">
      <!-- 15.0 -->
      <g style="fill: #262626" transform="translate(282.015625 402.701125) scale(0.11 -0.11)">
       <use xlink:href="#MicrosoftYaHei-31"/>
       <use xlink:href="#MicrosoftYaHei-35" transform="translate(58.642578 0)"/>
       <use xlink:href="#MicrosoftYaHei-2e" transform="translate(117.285156 0)"/>
       <use xlink:href="#MicrosoftYaHei-30" transform="translate(141.357422 0)"/>
      </g>
     </g>
    </g>
    <g id="xtick_5">
     <g id="text_5">
      <!-- 17.5 -->
      <g style="fill: #262626" transform="translate(357.615625 402.701125) scale(0.11 -0.11)">
       <use xlink:href="#MicrosoftYaHei-31"/>
       <use xlink:href="#MicrosoftYaHei-37" transform="translate(58.642578 0)"/>
       <use xlink:href="#MicrosoftYaHei-2e" transform="translate(117.285156 0)"/>
       <use xlink:href="#MicrosoftYaHei-35" transform="translate(141.357422 0)"/>
      </g>
     </g>
    </g>
    <g id="xtick_6">
     <g id="text_6">
      <!-- 20.0 -->
      <g style="fill: #262626" transform="translate(433.215625 402.701125) scale(0.11 -0.11)">
       <use xlink:href="#MicrosoftYaHei-32"/>
       <use xlink:href="#MicrosoftYaHei-30" transform="translate(58.642578 0)"/>
       <use xlink:href="#MicrosoftYaHei-2e" transform="translate(117.285156 0)"/>
       <use xlink:href="#MicrosoftYaHei-30" transform="translate(141.357422 0)"/>
      </g>
     </g>
    </g>
    <g id="xtick_7">
     <g id="text_7">
      <!-- 22.5 -->
      <g style="fill: #262626" transform="translate(508.815625 402.701125) scale(0.11 -0.11)">
       <use xlink:href="#MicrosoftYaHei-32"/>
       <use xlink:href="#MicrosoftYaHei-32" transform="translate(58.642578 0)"/>
       <use xlink:href="#MicrosoftYaHei-2e" transform="translate(117.285156 0)"/>
       <use xlink:href="#MicrosoftYaHei-35" transform="translate(141.357422 0)"/>
      </g>
     </g>
    </g>
    <g id="xtick_8">
     <g id="text_8">
      <!-- 25.0 -->
      <g style="fill: #262626" transform="translate(584.415625 402.701125) scale(0.11 -0.11)">
       <use xlink:href="#MicrosoftYaHei-32"/>
       <use xlink:href="#MicrosoftYaHei-35" transform="translate(58.642578 0)"/>
       <use xlink:href="#MicrosoftYaHei-2e" transform="translate(117.285156 0)"/>
       <use xlink:href="#MicrosoftYaHei-30" transform="translate(141.357422 0)"/>
      </g>
     </g>
    </g>
    <g id="xtick_9">
     <g id="text_9">
      <!-- 27.5 -->
      <g style="fill: #262626" transform="translate(660.015625 402.701125) scale(0.11 -0.11)">
       <use xlink:href="#MicrosoftYaHei-32"/>
       <use xlink:href="#MicrosoftYaHei-37" transform="translate(58.642578 0)"/>
       <use xlink:href="#MicrosoftYaHei-2e" transform="translate(117.285156 0)"/>
       <use xlink:href="#MicrosoftYaHei-35" transform="translate(141.357422 0)"/>
      </g>
     </g>
    </g>
    <g id="text_10">
     <!-- 球队数量 -->
     <g style="fill: #1f2430" transform="translate(359.735625 419.028156) scale(0.12 -0.12)">
      <defs>
       <path id="MicrosoftYaHei-7403" d="M 2244 766
Q 3059 1263 3950 1872
L 3950 3691
L 2350 3691
L 2350 4141
L 3950 4141
L 3950 5253
L 4425 5253
L 4425 4141
L 6200 4141
L 6200 3691
L 4425 3691
L 4425 3134
Q 4581 2622 4791 2184
Q 5331 2709 5694 3153
L 6100 2809
Q 5584 2300 5003 1778
Q 5547 838 6356 322
Q 6319 266 6194 128
Q 6056 -16 6000 -97
Q 4975 644 4425 2034
L 4425 16
Q 4425 -728 3650 -728
Q 3344 -728 2994 -722
Q 2956 -484 2894 -209
Q 3263 -253 3563 -253
Q 3950 -253 3950 128
L 3950 1319
Q 3303 869 2556 316
L 2244 766
z
M 94 359
Q 516 403 981 463
L 981 2353
L 213 2353
L 213 2803
L 981 2803
L 981 4272
L 131 4272
L 131 4722
L 2269 4722
L 2269 4272
L 1438 4272
L 1438 2803
L 2163 2803
L 2163 2353
L 1438 2353
L 1438 522
Q 1813 575 2213 634
Q 2188 384 2181 153
Q 1013 3 156 -128
L 94 359
z
M 2381 3022
L 2763 3253
Q 3169 2722 3569 2078
L 3169 1803
Q 2738 2534 2381 3022
z
M 4763 4884
L 5038 5197
Q 5481 4903 5850 4591
L 5550 4247
Q 5181 4591 4763 4884
z
" transform="scale(0.015625)"/>
       <path id="MicrosoftYaHei-961f" d="M 2456 1728
Q 2663 603 1831 466
Q 1575 422 1163 459
Q 1113 716 1019 997
Q 1369 916 1625 947
Q 2125 997 1931 1747
Q 1819 2266 1338 2866
Q 1688 3772 1931 4566
L 913 4566
L 913 -841
L 419 -841
L 419 5003
L 2469 5003
L 2469 4566
Q 2144 3609 1869 2947
Q 2381 2272 2456 1728
z
M 3738 5253
L 4250 5253
Q 4244 4366 4228 3656
Q 4584 794 6325 -228
Q 6094 -478 5913 -709
Q 4522 291 4056 2316
Q 3703 409 2094 -822
Q 1950 -647 1725 -422
Q 3688 972 3725 3697
Q 3738 4216 3738 5253
z
" transform="scale(0.015625)"/>
       <path id="MicrosoftYaHei-6570" d="M 4175 5303
L 4675 5228
Q 4544 4622 4369 4097
L 6281 4097
L 6281 3672
L 5888 3672
Q 5731 1834 5088 753
Q 5594 66 6375 -372
Q 6175 -647 6038 -866
Q 5275 -372 4769 309
Q 4194 -403 3400 -928
Q 3263 -747 3044 -534
Q 3919 41 4463 772
Q 3956 1647 3794 2791
Q 3663 2559 3519 2359
Q 3394 2541 3206 2759
Q 3931 3803 4175 5303
z
M 150 1697
L 1100 1697
Q 1238 1934 1369 2184
L 1819 2041
Q 1719 1866 1619 1697
L 3150 1697
L 3150 1291
Q 2913 678 2431 216
Q 2775 53 3131 -109
L 2856 -541
Q 2469 -322 2050 -103
Q 1344 -609 269 -903
Q 169 -703 56 -466
Q 969 -259 1600 128
Q 1063 403 475 691
Q 675 978 863 1284
L 150 1284
L 150 1697
z
M 219 3847
L 1656 3847
L 1656 5247
L 2119 5247
L 2119 3847
L 3319 3847
L 3319 3434
L 2119 3434
L 2119 3053
L 2306 3266
Q 2888 2841 3281 2516
L 2981 2166
Q 2638 2491 2119 2897
L 2119 2184
L 1656 2184
L 1656 3059
Q 1088 2466 331 2016
Q 213 2197 63 2397
Q 850 2822 1506 3434
L 219 3434
L 219 3847
z
M 5388 3672
L 4219 3672
Q 4188 3591 4150 3516
Q 4263 2191 4775 1247
Q 5275 2159 5388 3672
z
M 1088 834
Q 1531 634 2000 416
Q 2431 784 2675 1284
L 1375 1284
Q 1231 1053 1088 834
z
M 3038 5091
L 3425 4834
Q 3081 4384 2738 4003
Q 2594 4128 2400 4266
Q 2725 4647 3038 5091
z
M 381 4816
L 738 5059
Q 1019 4716 1319 4322
L 931 4047
Q 656 4453 381 4816
z
" transform="scale(0.015625)"/>
       <path id="MicrosoftYaHei-91cf" d="M 113 -278
L 2981 -278
L 2981 78
L 475 78
L 475 403
L 2981 403
L 2981 759
L 1494 759
L 1494 597
L 1069 597
L 1069 2516
L 5350 2516
L 5350 597
L 4925 597
L 4925 759
L 3419 759
L 3419 403
L 5931 403
L 5931 78
L 3419 78
L 3419 -278
L 6288 -278
L 6288 -616
L 113 -616
L 113 -278
z
M 1119 5072
L 5306 5072
L 5306 3284
L 4881 3284
L 4881 3453
L 1544 3453
L 1544 3284
L 1119 3284
L 1119 5072
z
M 163 3153
L 6263 3153
L 6263 2816
L 163 2816
L 163 3153
z
M 1544 3778
L 4881 3778
L 4881 4116
L 1544 4116
L 1544 3778
z
M 4881 4747
L 1544 4747
L 1544 4416
L 4881 4416
L 4881 4747
z
M 3419 1084
L 4925 1084
L 4925 1491
L 3419 1491
L 3419 1084
z
M 1494 1084
L 2981 1084
L 2981 1491
L 1494 1491
L 1494 1084
z
M 4925 2191
L 3419 2191
L 3419 1791
L 4925 1791
L 4925 2191
z
M 1494 1791
L 2981 1791
L 2981 2191
L 1494 2191
L 1494 1791
z
" transform="scale(0.015625)"/>
      </defs>
      <use xlink:href="#MicrosoftYaHei-7403"/>
      <use xlink:href="#MicrosoftYaHei-961f" transform="translate(100 0)"/>
      <use xlink:href="#MicrosoftYaHei-6570" transform="translate(200 0)"/>
      <use xlink:href="#MicrosoftYaHei-91cf" transform="translate(300 0)"/>
     </g>
    </g>
   </g>
   <g id="matplotlib.axis_2">
    <g id="ytick_1">
     <g id="line2d_1">
      <path d="M 51.095625 325.201111
L 716.375625 325.201111
" clip-path="url(#p7a19420119)" style="fill: none; stroke: #e6e8f0; stroke-width: 0.8; stroke-linecap: round"/>
     </g>
     <g id="text_11">
      <!-- $\mathdefault{10^{1}}$ -->
      <g style="fill: #262626" transform="translate(23.775625 329.597673) scale(0.11 -0.11)">
       <use xlink:href="#MicrosoftYaHei-31" transform="translate(0 0.092188)"/>
       <use xlink:href="#MicrosoftYaHei-30" transform="translate(58.642578 0.092188)"/>
       <use xlink:href="#MicrosoftYaHei-31" transform="translate(118.230156 37.892188) scale(0.7)"/>
      </g>
     </g>
    </g>
    <g id="ytick_2">
     <g id="line2d_2">
      <path d="M 51.095625 231.543731
L 716.375625 231.543731
" clip-path="url(#p7a19420119)" style="fill: none; stroke: #e6e8f0; stroke-width: 0.8; stroke-linecap: round"/>
     </g>
     <g id="text_12">
      <!-- $\mathdefault{10^{2}}$ -->
      <g style="fill: #262626" transform="translate(23.775625 235.940294) scale(0.11 -0.11)">
       <use xlink:href="#MicrosoftYaHei-31" transform="translate(0 0.365625)"/>
       <use xlink:href="#MicrosoftYaHei-30" transform="translate(58.642578 0.365625)"/>
       <use xlink:href="#MicrosoftYaHei-32" transform="translate(118.230156 38.165625) scale(0.7)"/>
      </g>
     </g>
    </g>
    <g id="ytick_3">
     <g id="line2d_3">
      <path d="M 51.095625 137.886352
L 716.375625 137.886352
" clip-path="url(#p7a19420119)" style="fill: none; stroke: #e6e8f0; stroke-width: 0.8; stroke-linecap: round"/>
     </g>
     <g id="text_13">
      <!-- $\mathdefault{10^{3}}$ -->
      <g style="fill: #262626" transform="translate(23.775625 142.282914) scale(0.11 -0.11)">
       <defs>
        <path id="MicrosoftYaHei-33" d="M 447 809
Q 944 425 1569 425
Q 2069 425 2361 670
Q 2653 916 2653 1328
Q 2653 2247 1338 2247
L 934 2247
L 934 2753
L 1319 2753
Q 2484 2753 2484 3616
Q 2484 4413 1594 4413
Q 1084 4413 634 4069
L 634 4647
Q 1109 4922 1744 4922
Q 2363 4922 2738 4598
Q 3113 4275 3113 3759
Q 3113 2809 2144 2538
L 2144 2525
Q 2669 2469 2973 2155
Q 3278 1841 3278 1372
Q 3278 719 2808 319
Q 2338 -81 1556 -81
Q 869 -81 447 175
L 447 809
z
" transform="scale(0.015625)"/>
       </defs>
       <use xlink:href="#MicrosoftYaHei-31" transform="translate(0 0.365625)"/>
       <use xlink:href="#MicrosoftYaHei-30" transform="translate(58.642578 0.365625)"/>
       <use xlink:href="#MicrosoftYaHei-33" transform="translate(118.230156 38.165625) scale(0.7)"/>
      </g>
     </g>
    </g>
    <g id="ytick_4"/>
    <g id="ytick_5"/>
    <g id="ytick_6"/>
    <g id="ytick_7"/>
    <g id="ytick_8"/>
    <g id="ytick_9"/>
    <g id="ytick_10"/>
    <g id="ytick_11"/>
    <g id="ytick_12"/>
    <g id="ytick_13"/>
    <g id="ytick_14"/>
    <g id="ytick_15"/>
    <g id="ytick_16"/>
    <g id="ytick_17"/>
    <g id="ytick_18"/>
    <g id="ytick_19"/>
    <g id="ytick_20"/>
    <g id="ytick_21"/>
    <g id="ytick_22"/>
    <g id="ytick_23"/>
    <g id="ytick_24"/>
    <g id="ytick_25"/>
    <g id="ytick_26"/>
    <g id="ytick_27"/>
    <g id="ytick_28"/>
    <g id="text_14">
     <!-- 中位运行时间（毫秒） -->
     <g style="fill: #1f2430" transform="translate(16.7925 294.864) rotate(-90) scale(0.12 -0.12)">
      <defs>
       <path id="MicrosoftYaHei-4e2d" d="M 525 3972
L 2931 3972
L 2931 5334
L 3469 5334
L 3469 3972
L 5900 3972
L 5900 1122
L 5388 1122
L 5388 1459
L 3469 1459
L 3469 -866
L 2931 -866
L 2931 1459
L 1038 1459
L 1038 1122
L 525 1122
L 525 3972
z
M 5388 3509
L 3469 3509
L 3469 1922
L 5388 1922
L 5388 3509
z
M 1038 1922
L 2931 1922
L 2931 3509
L 1038 3509
L 1038 1922
z
" transform="scale(0.015625)"/>
       <path id="MicrosoftYaHei-4f4d" d="M 1788 -59
L 4228 -59
Q 4678 1144 5269 3372
L 5831 3203
Q 5453 2044 4756 -59
L 6319 -59
L 6319 -522
L 1788 -522
L 1788 -59
z
M 81 2291
Q 975 3641 1431 5322
L 1963 5191
Q 1703 4397 1406 3709
L 1406 -853
L 938 -853
L 938 2731
Q 644 2181 319 1716
Q 231 1953 81 2291
z
M 1919 4191
L 4122 4191
Q 3844 4659 3506 5059
L 3931 5353
Q 4206 5034 4613 4497
L 4150 4191
L 6206 4191
L 6206 3728
L 1919 3728
L 1919 4191
z
M 2769 3309
Q 3181 2184 3669 584
L 3150 434
Q 2725 1966 2294 3147
L 2769 3309
z
" transform="scale(0.015625)"/>
       <path id="MicrosoftYaHei-8fd0" d="M 4319 2197
L 4713 2447
Q 5419 1522 5963 666
L 5513 359
Q 5372 597 5225 834
Q 3450 722 2681 622
Q 2469 591 2238 516
L 2006 966
Q 2250 1134 2413 1366
Q 2838 2009 3250 2859
L 1919 2859
L 1919 3334
L 6200 3334
L 6200 2859
L 3844 2859
Q 3303 1866 2800 1116
Q 3750 1172 4959 1253
Q 4650 1731 4319 2197
z
M 2756 -141
L 4588 -178
L 6313 -109
Q 6206 -366 6113 -609
L 4250 -622
L 2650 -603
Q 1656 -578 1156 122
Q 769 -209 369 -697
L 100 -166
Q 116 -147 931 547
L 931 2678
L 131 2678
L 131 3141
L 1431 3141
L 1431 459
Q 1903 -125 2756 -141
z
M 2338 4947
L 5838 4947
L 5838 4472
L 2338 4472
L 2338 4947
z
M 794 5278
Q 1275 4697 1744 4078
L 1300 3778
Q 881 4403 413 5003
L 794 5278
z
" transform="scale(0.015625)"/>
       <path id="MicrosoftYaHei-884c" d="M 2363 2978
L 6319 2978
L 6319 2509
L 5106 2509
L 5106 66
Q 5106 -709 4325 -709
Q 3800 -709 3256 -703
Q 3219 -453 3163 -141
Q 3650 -191 4144 -191
Q 4575 -191 4575 234
L 4575 2509
L 2363 2509
L 2363 2978
z
M 100 1578
Q 1069 2372 1863 3809
L 2300 3541
Q 1978 2984 1619 2500
L 1619 -809
L 1100 -809
L 1100 1856
Q 725 1431 319 1072
Q 219 1334 100 1578
z
M 2725 4866
L 5969 4866
L 5969 4397
L 2725 4397
L 2725 4866
z
M 131 3559
Q 1125 4328 1731 5347
L 2181 5072
Q 1456 3959 381 3078
Q 269 3316 131 3559
z
" transform="scale(0.015625)"/>
       <path id="MicrosoftYaHei-65f6" d="M 344 4728
L 2500 4728
L 2500 -366
L 2006 -366
L 2006 153
L 838 153
L 838 -441
L 344 -441
L 344 4728
z
M 2706 3941
L 4925 3941
L 4925 5322
L 5425 5322
L 5425 3941
L 6313 3941
L 6313 3478
L 5425 3478
L 5425 116
Q 5425 -722 4625 -722
Q 4263 -722 3563 -703
Q 3531 -478 3463 -178
Q 4119 -228 4488 -228
Q 4925 -228 4925 216
L 4925 3478
L 2706 3478
L 2706 3941
z
M 838 616
L 2006 616
L 2006 2234
L 838 2234
L 838 616
z
M 2006 4266
L 838 4266
L 838 2684
L 2006 2684
L 2006 4266
z
M 3406 2878
Q 3906 1966 4163 1422
Q 4000 1347 3663 1172
Q 3419 1766 2963 2653
L 3406 2878
z
" transform="scale(0.015625)"/>
       <path id="MicrosoftYaHei-95f4" d="M 1863 3647
L 4513 3647
L 4513 553
L 2313 553
L 2313 166
L 1863 166
L 1863 3647
z
M 2388 4453
L 2388 4922
L 6013 4922
L 6013 -28
Q 6013 -816 5119 -816
Q 4756 -816 4169 -803
Q 4144 -616 4069 -297
Q 4588 -334 5056 -334
Q 5525 -334 5525 122
L 5525 4453
L 2388 4453
z
M 419 4084
L 906 4084
L 906 -816
L 419 -816
L 419 4084
z
M 2313 997
L 4063 997
L 4063 1884
L 2313 1884
L 2313 997
z
M 4063 3203
L 2313 3203
L 2313 2328
L 4063 2328
L 4063 3203
z
M 744 5003
L 1100 5322
Q 1575 4872 1981 4447
L 1575 4091
Q 1194 4541 744 5003
z
" transform="scale(0.015625)"/>
       <path id="MicrosoftYaHei-ff08" d="M 5288 -1100
Q 4172 119 4172 1850
Q 4172 3603 5288 4838
L 5825 4838
Q 4716 3572 4716 1856
Q 4716 166 5819 -1100
L 5288 -1100
z
" transform="scale(0.015625)"/>
       <path id="MicrosoftYaHei-6beb" d="M 238 -47
L 194 297
L 2763 469
L 2763 847
L 781 709
L 738 1066
L 2763 1200
L 2763 1559
Q 1875 1506 1056 1472
Q 1031 1591 975 1822
Q 3006 1909 5106 2078
L 5231 1734
Q 4181 1650 3213 1588
L 3213 1228
L 5425 1378
L 5456 1034
L 3213 878
L 3213 497
L 6188 697
L 6225 347
L 3213 147
L 3213 53
Q 3213 -309 3575 -309
L 5200 -309
Q 5463 -309 5525 -153
Q 5575 -22 5619 247
Q 5850 134 6056 84
Q 5950 -428 5788 -559
Q 5631 -703 5163 -703
L 3394 -703
Q 2763 -703 2763 -47
L 2763 119
L 238 -47
z
M 1131 4047
L 5269 4047
L 5269 2853
L 4819 2853
L 4819 2972
L 1581 2972
L 1581 2853
L 1131 2853
L 1131 4047
z
M 350 2628
L 6063 2628
L 6063 1666
L 5606 1666
L 5606 2253
L 806 2253
L 806 1666
L 350 1666
L 350 2628
z
M 213 4747
L 3016 4747
Q 2894 4972 2794 5153
L 3244 5366
Q 3381 5113 3563 4747
L 6200 4747
L 6200 4372
L 213 4372
L 213 4747
z
M 4819 3709
L 1581 3709
L 1581 3309
L 4819 3309
L 4819 3709
z
" transform="scale(0.015625)"/>
       <path id="MicrosoftYaHei-79d2" d="M 44 903
Q 616 1744 978 3059
L 113 3059
L 113 3484
L 1100 3484
L 1100 4456
Q 703 4400 281 4353
Q 231 4566 150 4784
Q 1244 4878 2344 5128
L 2481 4691
Q 2041 4603 1563 4525
L 1563 3484
L 2438 3484
L 2438 3059
L 1563 3059
L 1563 2178
L 1844 2422
Q 2094 2166 2575 1603
L 2200 1297
Q 1809 1794 1563 2088
L 1563 -822
L 1100 -822
L 1100 2175
Q 766 1059 256 359
Q 156 628 44 903
z
M 1944 -316
Q 4481 253 5594 2284
L 6025 2003
Q 4756 -141 2206 -766
Q 2088 -534 1944 -316
z
M 4025 5278
L 4513 5278
L 4513 1328
L 4025 1328
L 4025 5278
z
M 3075 4266
L 3544 4141
Q 3275 3078 2906 1997
Q 2681 2097 2425 2172
Q 2850 3247 3075 4266
z
M 4950 4141
L 5375 4341
Q 5856 3566 6281 2722
L 5831 2484
Q 5444 3328 4950 4141
z
" transform="scale(0.015625)"/>
       <path id="MicrosoftYaHei-ff09" d="M 1113 -1100
L 575 -1100
Q 1684 163 1684 1888
Q 1684 3581 581 4838
L 1113 4838
Q 2222 3628 2222 1888
Q 2222 128 1113 -1100
z
" transform="scale(0.015625)"/>
      </defs>
      <use xlink:href="#MicrosoftYaHei-4e2d"/>
      <use xlink:href="#MicrosoftYaHei-4f4d" transform="translate(100 0)"/>
      <use xlink:href="#MicrosoftYaHei-8fd0" transform="translate(200 0)"/>
      <use xlink:href="#MicrosoftYaHei-884c" transform="translate(300 0)"/>
      <use xlink:href="#MicrosoftYaHei-65f6" transform="translate(400 0)"/>
      <use xlink:href="#MicrosoftYaHei-95f4" transform="translate(500 0)"/>
      <use xlink:href="#MicrosoftYaHei-ff08" transform="translate(600 0)"/>
      <use xlink:href="#MicrosoftYaHei-6beb" transform="translate(700 0)"/>
      <use xlink:href="#MicrosoftYaHei-79d2" transform="translate(800 0)"/>
      <use xlink:href="#MicrosoftYaHei-ff09" transform="translate(900 0)"/>
     </g>
    </g>
   </g>
   <g id="line2d_4">
    <path d="M 81.335625 346.133742
L 202.295625 268.921681
L 323.255625 210.271305
L 444.215625 164.508019
L 565.175625 126.985154
L 686.135625 98.914909
" clip-path="url(#p7a19420119)" style="fill: none; stroke-dasharray: 4.81,2.08; stroke-dashoffset: 0; stroke: #f0986e; stroke-width: 1.3"/>
    <defs>
     <path id="md407852e7f" d="M 0 3
C 0.795609 3 1.55874 2.683901 2.12132 2.12132
C 2.683901 1.55874 3 0.795609 3 0
C 3 -0.795609 2.683901 -1.55874 2.12132 -2.12132
C 1.55874 -2.683901 0.795609 -3 0 -3
C -0.795609 -3 -1.55874 -2.683901 -2.12132 -2.12132
C -2.683901 -1.55874 -3 -0.795609 -3 0
C -3 0.795609 -2.683901 1.55874 -2.12132 2.12132
C -1.55874 2.683901 -0.795609 3 0 3
z
" style="stroke: #804126"/>
    </defs>
    <g clip-path="url(#p7a19420119)">
     <use xlink:href="#md407852e7f" x="81.335625" y="346.133742" style="fill: #f0986e; stroke: #804126"/>
     <use xlink:href="#md407852e7f" x="202.295625" y="268.921681" style="fill: #f0986e; stroke: #804126"/>
     <use xlink:href="#md407852e7f" x="323.255625" y="210.271305" style="fill: #f0986e; stroke: #804126"/>
     <use xlink:href="#md407852e7f" x="444.215625" y="164.508019" style="fill: #f0986e; stroke: #804126"/>
     <use xlink:href="#md407852e7f" x="565.175625" y="126.985154" style="fill: #f0986e; stroke: #804126"/>
     <use xlink:href="#md407852e7f" x="686.135625" y="98.914909" style="fill: #f0986e; stroke: #804126"/>
    </g>
   </g>
   <g id="line2d_5">
    <path d="M 81.335625 370.813091
L 202.295625 317.575253
L 323.255625 280.319197
L 444.215625 251.339628
L 565.175625 228.699834
L 686.135625 213.114006
" clip-path="url(#p7a19420119)" style="fill: none; stroke: #a3befa; stroke-width: 1.3; stroke-linecap: round"/>
    <defs>
     <path id="m5adf28f028" d="M -3 3
L 3 3
L 3 -3
L -3 -3
z
" style="stroke: #2e4780; stroke-linejoin: miter"/>
    </defs>
    <g clip-path="url(#p7a19420119)">
     <use xlink:href="#m5adf28f028" x="81.335625" y="370.813091" style="fill: #a3befa; stroke: #2e4780; stroke-linejoin: miter"/>
     <use xlink:href="#m5adf28f028" x="202.295625" y="317.575253" style="fill: #a3befa; stroke: #2e4780; stroke-linejoin: miter"/>
     <use xlink:href="#m5adf28f028" x="323.255625" y="280.319197" style="fill: #a3befa; stroke: #2e4780; stroke-linejoin: miter"/>
     <use xlink:href="#m5adf28f028" x="444.215625" y="251.339628" style="fill: #a3befa; stroke: #2e4780; stroke-linejoin: miter"/>
     <use xlink:href="#m5adf28f028" x="565.175625" y="228.699834" style="fill: #a3befa; stroke: #2e4780; stroke-linejoin: miter"/>
     <use xlink:href="#m5adf28f028" x="686.135625" y="213.114006" style="fill: #a3befa; stroke: #2e4780; stroke-linejoin: miter"/>
    </g>
   </g>
   <g id="patch_3">
    <path d="M 51.095625 384.408
L 51.095625 85.32
" style="fill: none; stroke: #d7dbe7; stroke-width: 1.25; stroke-linejoin: miter; stroke-linecap: square"/>
   </g>
   <g id="patch_4">
    <path d="M 51.095625 384.408
L 716.375625 384.408
" style="fill: none; stroke: #d7dbe7; stroke-width: 1.25; stroke-linejoin: miter; stroke-linecap: square"/>
   </g>
   <g id="legend_1">
    <g id="line2d_6">
     <path d="M 55.495625 68.353709
L 66.495625 68.353709
L 77.495625 68.353709
" style="fill: none; stroke-dasharray: 4.81,2.08; stroke-dashoffset: 0; stroke: #f0986e; stroke-width: 1.3"/>
     <g>
      <use xlink:href="#md407852e7f" x="66.495625" y="68.353709" style="fill: #f0986e; stroke: #804126"/>
     </g>
    </g>
    <g id="text_15">
     <!-- Edmonds-Karp -->
     <g style="fill: #262626" transform="translate(86.295625 72.203709) scale(0.11 -0.11)">
      <defs>
       <path id="MicrosoftYaHei-45" d="M 3228 0
L 625 0
L 625 4841
L 3119 4841
L 3119 4284
L 1250 4284
L 1250 2734
L 2981 2734
L 2981 2181
L 1250 2181
L 1250 553
L 3228 553
L 3228 0
z
" transform="scale(0.015625)"/>
       <path id="MicrosoftYaHei-64" d="M 3547 0
L 2934 0
L 2934 575
L 2922 575
Q 2544 -81 1747 -81
Q 1091 -81 703 386
Q 316 853 316 1647
Q 316 2503 753 3020
Q 1191 3538 1897 3538
Q 2603 3538 2922 2988
L 2934 2988
L 2934 5116
L 3547 5116
L 3547 0
z
M 2938 2056
Q 2938 2472 2664 2751
Q 2391 3031 1991 3031
Q 1503 3031 1222 2667
Q 941 2303 941 1675
Q 941 1097 1211 761
Q 1481 425 1931 425
Q 2375 425 2656 754
Q 2938 1084 2938 1575
L 2938 2056
z
" transform="scale(0.015625)"/>
       <path id="MicrosoftYaHei-6d" d="M 5522 0
L 4909 0
L 4909 1984
Q 4909 2547 4734 2789
Q 4559 3031 4159 3031
Q 3822 3031 3581 2715
Q 3341 2400 3341 1969
L 3341 0
L 2728 0
L 2728 2047
Q 2728 3031 1969 3031
Q 1619 3031 1389 2731
Q 1159 2431 1159 1966
L 1159 0
L 547 0
L 547 3456
L 1159 3456
L 1159 2909
L 1172 2909
Q 1541 3538 2250 3538
Q 2597 3538 2862 3347
Q 3128 3156 3231 2831
Q 3616 3538 4381 3538
Q 5522 3538 5522 2131
L 5522 0
z
" transform="scale(0.015625)"/>
       <path id="MicrosoftYaHei-6f" d="M 316 1691
Q 316 2547 794 3042
Q 1272 3538 2091 3538
Q 2869 3538 3311 3061
Q 3753 2584 3753 1744
Q 3753 925 3281 422
Q 2809 -81 2016 -81
Q 1241 -81 778 406
Q 316 894 316 1691
z
M 941 1709
Q 941 1113 1242 769
Q 1544 425 2053 425
Q 2578 425 2853 761
Q 3128 1097 3128 1725
Q 3128 2356 2853 2693
Q 2578 3031 2053 3031
Q 1538 3031 1239 2678
Q 941 2325 941 1709
z
" transform="scale(0.015625)"/>
       <path id="MicrosoftYaHei-6e" d="M 3469 0
L 2859 0
L 2859 1966
Q 2859 3031 2081 3031
Q 1678 3031 1418 2731
Q 1159 2431 1159 1972
L 1159 0
L 547 0
L 547 3456
L 1159 3456
L 1159 2884
L 1172 2884
Q 1563 3538 2306 3538
Q 2875 3538 3172 3173
Q 3469 2809 3469 2113
L 3469 0
z
" transform="scale(0.015625)"/>
       <path id="MicrosoftYaHei-73" d="M 353 747
Q 816 413 1350 413
Q 2066 413 2066 881
Q 2066 1081 1909 1211
Q 1753 1341 1275 1519
Q 700 1750 528 1976
Q 356 2203 356 2525
Q 356 2984 745 3261
Q 1134 3538 1703 3538
Q 2144 3538 2522 3384
L 2522 2794
Q 2134 3044 1644 3044
Q 1350 3044 1165 2916
Q 981 2788 981 2578
Q 981 2372 1114 2256
Q 1247 2141 1703 1959
Q 2281 1744 2484 1512
Q 2688 1281 2688 941
Q 2688 466 2298 192
Q 1909 -81 1291 -81
Q 753 -81 353 122
L 353 747
z
" transform="scale(0.015625)"/>
       <path id="MicrosoftYaHei-2d" d="M 2328 1681
L 488 1681
L 488 2153
L 2328 2153
L 2328 1681
z
" transform="scale(0.015625)"/>
       <path id="MicrosoftYaHei-4b" d="M 4069 0
L 3213 0
L 1394 2200
Q 1300 2316 1266 2381
L 1250 2381
L 1250 0
L 625 0
L 625 4841
L 1250 4841
L 1250 2563
L 1266 2563
Q 1319 2647 1394 2741
L 3150 4841
L 3922 4841
L 1891 2519
L 4069 0
z
" transform="scale(0.015625)"/>
       <path id="MicrosoftYaHei-61" d="M 628 3216
Q 1144 3538 1819 3538
Q 3069 3538 3069 2225
L 3069 0
L 2463 0
L 2463 534
L 2447 534
Q 2088 -81 1388 -81
Q 884 -81 587 191
Q 291 463 291 925
Q 291 1894 1438 2053
L 2463 2197
Q 2463 3044 1763 3044
Q 1141 3044 628 2625
L 628 3216
z
M 1653 1625
Q 1228 1569 1067 1412
Q 906 1256 906 975
Q 906 728 1081 572
Q 1256 416 1544 416
Q 1944 416 2203 697
Q 2463 978 2463 1403
L 2463 1734
L 1653 1625
z
" transform="scale(0.015625)"/>
       <path id="MicrosoftYaHei-72" d="M 2400 2850
Q 2247 2959 1978 2959
Q 1622 2959 1390 2626
Q 1159 2294 1159 1750
L 1159 0
L 547 0
L 547 3456
L 1159 3456
L 1159 2753
L 1172 2753
Q 1434 3516 2078 3516
Q 2288 3516 2400 3469
L 2400 2850
z
" transform="scale(0.015625)"/>
       <path id="MicrosoftYaHei-70" d="M 1159 488
L 1159 -1591
L 547 -1591
L 547 3456
L 1159 3456
L 1159 2859
L 1172 2859
Q 1578 3538 2359 3538
Q 3022 3538 3398 3073
Q 3775 2609 3775 1828
Q 3775 966 3348 442
Q 2922 -81 2200 -81
Q 1534 -81 1172 488
L 1159 488
z
M 1156 1425
Q 1156 1003 1428 714
Q 1700 425 2109 425
Q 2597 425 2872 800
Q 3147 1175 3147 1838
Q 3147 2397 2890 2714
Q 2634 3031 2191 3031
Q 1738 3031 1447 2709
Q 1156 2388 1156 1884
L 1156 1425
z
" transform="scale(0.015625)"/>
      </defs>
      <use xlink:href="#MicrosoftYaHei-45"/>
      <use xlink:href="#MicrosoftYaHei-64" transform="translate(54.980469 0)"/>
      <use xlink:href="#MicrosoftYaHei-6d" transform="translate(118.945312 0)"/>
      <use xlink:href="#MicrosoftYaHei-6f" transform="translate(212.646484 0)"/>
      <use xlink:href="#MicrosoftYaHei-6e" transform="translate(276.220703 0)"/>
      <use xlink:href="#MicrosoftYaHei-64" transform="translate(337.841797 0)"/>
      <use xlink:href="#MicrosoftYaHei-73" transform="translate(401.806641 0)"/>
      <use xlink:href="#MicrosoftYaHei-2d" transform="translate(448.095703 0)"/>
      <use xlink:href="#MicrosoftYaHei-4b" transform="translate(491.357422 0)"/>
      <use xlink:href="#MicrosoftYaHei-61" transform="translate(554.833984 0)"/>
      <use xlink:href="#MicrosoftYaHei-72" transform="translate(610.107422 0)"/>
      <use xlink:href="#MicrosoftYaHei-70" transform="translate(648.291016 0)"/>
     </g>
    </g>
    <g id="line2d_7">
     <path d="M 186.639688 68.353709
L 197.639688 68.353709
L 208.639688 68.353709
" style="fill: none; stroke: #a3befa; stroke-width: 1.3; stroke-linecap: round"/>
     <g>
      <use xlink:href="#m5adf28f028" x="197.639688" y="68.353709" style="fill: #a3befa; stroke: #2e4780; stroke-linejoin: miter"/>
     </g>
    </g>
    <g id="text_16">
     <!-- Dinic -->
     <g style="fill: #262626" transform="translate(217.439688 72.203709) scale(0.11 -0.11)">
      <defs>
       <path id="MicrosoftYaHei-44" d="M 625 0
L 625 4841
L 2006 4841
Q 3106 4841 3836 4200
Q 4566 3559 4566 2481
Q 4566 1356 3836 678
Q 3106 0 1956 0
L 625 0
z
M 1250 4284
L 1250 553
L 1953 553
Q 2875 553 3392 1056
Q 3909 1559 3909 2466
Q 3909 3372 3378 3828
Q 2847 4284 1981 4284
L 1250 4284
z
" transform="scale(0.015625)"/>
       <path id="MicrosoftYaHei-69" d="M 472 4675
Q 472 4838 583 4948
Q 694 5059 856 5059
Q 1022 5059 1136 4950
Q 1250 4841 1250 4675
Q 1250 4513 1136 4405
Q 1022 4297 856 4297
Q 691 4297 581 4405
Q 472 4513 472 4675
z
M 544 0
L 544 3456
L 1156 3456
L 1156 0
L 544 0
z
" transform="scale(0.015625)"/>
       <path id="MicrosoftYaHei-63" d="M 2934 156
Q 2538 -81 1978 -81
Q 1228 -81 772 400
Q 316 881 316 1647
Q 316 2497 808 3017
Q 1300 3538 2125 3538
Q 2600 3538 2938 3369
L 2938 2763
Q 2572 3031 2125 3031
Q 1600 3031 1270 2667
Q 941 2303 941 1697
Q 941 1100 1252 762
Q 1563 425 2091 425
Q 2538 425 2934 719
L 2934 156
z
" transform="scale(0.015625)"/>
      </defs>
      <use xlink:href="#MicrosoftYaHei-44"/>
      <use xlink:href="#MicrosoftYaHei-69" transform="translate(76.171875 0)"/>
      <use xlink:href="#MicrosoftYaHei-6e" transform="translate(102.783203 0)"/>
      <use xlink:href="#MicrosoftYaHei-69" transform="translate(164.404297 0)"/>
      <use xlink:href="#MicrosoftYaHei-63" transform="translate(191.015625 0)"/>
     </g>
    </g>
   </g>
  </g>
  <g id="text_17">
   <!-- 球队规模增大时，Dinic 增长更平稳 -->
   <g style="fill: #1f2430" transform="translate(51.095625 18.39125) scale(0.14 -0.14)">
    <defs>
     <path id="MicrosoftYaHei-Bold-7403" d="M 5231 5322
Q 5625 5034 6056 4634
L 5728 4291
L 6206 4291
L 6206 3528
L 4650 3528
L 4650 3109
Q 4772 2775 4916 2463
Q 5331 2913 5638 3316
L 6319 2797
Q 5853 2294 5288 1772
Q 5734 1050 6338 509
Q 6063 91 5850 -341
Q 5109 447 4650 1356
L 4650 3
Q 4650 -369 4484 -564
Q 4319 -759 3964 -784
Q 3609 -809 3006 -809
Q 2931 -259 2838 41
Q 3247 3 3441 3
Q 3838 3 3825 428
L 3825 1041
Q 3231 641 2563 209
L 2194 1053
Q 2844 1403 3825 2025
L 3825 3528
L 2369 3528
L 2369 4291
L 3825 4291
L 3825 5316
L 4650 5316
L 4650 4291
L 5384 4291
Q 5088 4575 4763 4841
L 5231 5322
z
M 250 -459
L 75 428
L 813 578
L 813 2097
L 206 2097
L 206 2884
L 813 2884
L 813 4141
L 150 4141
L 150 4941
L 2263 4941
L 2263 4141
L 1625 4141
L 1625 2884
L 2163 2884
L 2163 2097
L 1625 2097
L 1625 750
L 2256 884
Q 2250 422 2269 41
Q 1244 -178 250 -459
z
M 2919 3322
Q 3244 2872 3631 2203
L 2931 1778
Q 2588 2459 2269 2928
L 2919 3322
z
" transform="scale(0.015625)"/>
     <path id="MicrosoftYaHei-Bold-961f" d="M 3744 5278
L 4663 5278
Q 4650 4319 4613 3647
Q 4850 2153 5234 1393
Q 5619 634 6344 159
Q 6094 -172 5719 -759
Q 4538 503 4247 1959
Q 3975 541 2513 -803
Q 2275 -391 1931 34
Q 3106 897 3425 1870
Q 3744 2844 3744 4872
L 3744 5278
z
M 1419 666
Q 1334 966 1169 1413
L 1169 -872
L 350 -872
L 350 5066
L 2731 5066
L 2731 4466
L 2188 2922
Q 2750 2303 2750 1641
Q 2750 1113 2376 900
Q 2003 688 1419 666
z
M 1363 2834
Q 1600 3528 1850 4341
L 1169 4341
L 1169 1522
Q 1416 1503 1613 1503
Q 1931 1503 1931 1753
Q 1931 2234 1363 2834
z
" transform="scale(0.015625)"/>
     <path id="MicrosoftYaHei-Bold-89c4" d="M 88 2766
L 894 2766
L 894 3516
L 188 3516
L 188 4291
L 894 4291
L 894 5284
L 1694 5284
L 1694 4291
L 2400 4291
L 2400 3516
L 1694 3516
L 1694 2766
L 2488 2766
L 2488 1984
L 1675 1984
Q 1666 1816 1647 1656
Q 2091 1247 2650 666
Q 2306 341 2088 91
Q 1869 369 1506 788
Q 1278 -194 769 -878
Q 369 -447 75 -178
Q 747 550 866 1984
L 88 1984
L 88 2766
z
M 2650 1128
L 2650 5066
L 5913 5066
L 5913 1197
L 5100 1197
L 5100 4259
L 3463 4259
L 3463 1128
L 2650 1128
z
M 5525 978
Q 6000 747 6306 628
Q 6184 -291 6031 -522
Q 5878 -753 5469 -753
L 4906 -753
Q 4188 -753 4188 -78
L 4188 644
Q 3728 -297 2613 -884
Q 2394 -572 2044 -172
Q 3225 394 3540 1169
Q 3856 1944 3856 3872
L 4688 3872
Q 4675 2513 4506 1641
L 4931 1641
L 4931 222
Q 4931 -28 5150 -28
L 5219 -28
Q 5369 -28 5417 112
Q 5466 253 5525 978
z
" transform="scale(0.015625)"/>
     <path id="MicrosoftYaHei-Bold-6a21" d="M 6250 534
L 4825 534
Q 5419 84 6325 -53
Q 6131 -403 5913 -859
Q 4769 -522 4169 334
Q 3694 -503 2406 -897
Q 2206 -509 1925 -159
Q 3013 66 3419 534
L 2088 534
L 2088 1141
L 3719 1141
Q 3756 1284 3769 1459
L 2425 1459
L 2425 2134
L 1944 1659
Q 1800 1878 1638 2109
L 1638 -841
L 863 -841
L 863 1803
Q 619 1141 275 547
Q 213 978 75 1691
Q 525 2453 788 3328
L 138 3328
L 138 4066
L 863 4066
L 863 5291
L 1638 5291
L 1638 4066
L 2219 4066
L 2219 3328
L 1638 3328
L 1638 2972
Q 2081 2559 2425 2209
L 2425 3703
L 6025 3703
L 6025 1459
L 4556 1459
Q 4544 1291 4519 1141
L 6250 1141
L 6250 534
z
M 5250 2009
L 5250 2353
L 3200 2353
L 3200 2009
L 5250 2009
z
M 5250 3147
L 3200 3147
L 3200 2816
L 5250 2816
L 5250 3147
z
M 5413 3853
L 4675 3853
L 4675 4203
L 3719 4203
L 3719 3853
L 2981 3853
L 2981 4203
L 2175 4203
L 2175 4822
L 2981 4822
L 2981 5291
L 3719 5291
L 3719 4822
L 4675 4822
L 4675 5291
L 5413 5291
L 5413 4822
L 6275 4822
L 6275 4203
L 5413 4203
L 5413 3853
z
" transform="scale(0.015625)"/>
     <path id="MicrosoftYaHei-Bold-589e" d="M 3325 5341
Q 3553 4994 3763 4653
L 4397 4653
L 4794 5347
L 5575 5091
L 5241 4653
L 6069 4653
L 6069 2241
L 2056 2241
L 2056 4653
L 2900 4653
Q 2766 4856 2613 5078
L 3325 5341
z
M 5369 2891
L 5369 4016
L 4400 4016
L 4400 2891
L 5369 2891
z
M 4875 3934
L 5313 3703
Q 5100 3284 4894 2947
Q 4663 3091 4456 3191
Q 4706 3591 4875 3934
z
M 2756 2891
L 3725 2891
L 3725 4016
L 2756 4016
L 2756 2891
z
M 3238 3928
Q 3425 3609 3644 3191
Q 3369 3053 3181 2941
Q 2988 3359 2788 3691
L 3238 3928
z
M 263 -372
L 100 572
L 650 725
L 650 2859
L 200 2859
L 200 3716
L 650 3716
L 650 5266
L 1463 5266
L 1463 3716
L 1850 3716
L 1850 2859
L 1463 2859
L 1463 966
Q 1734 1047 2006 1134
Q 1994 913 1994 694
Q 1994 472 2006 253
Q 1238 -9 263 -372
z
M 2331 -847
L 2331 1959
L 5781 1959
L 5781 -847
L 5000 -847
L 5000 -597
L 3125 -597
L 3125 -847
L 2331 -847
z
M 5000 1341
L 3125 1341
L 3125 966
L 5000 966
L 5000 1341
z
M 3125 16
L 5000 16
L 5000 391
L 3125 391
L 3125 16
z
" transform="scale(0.015625)"/>
     <path id="MicrosoftYaHei-Bold-5927" d="M 213 3728
L 2681 3728
Q 2725 4409 2719 5303
L 3669 5303
Q 3650 4375 3619 3728
L 6200 3728
L 6200 2866
L 3691 2866
Q 4228 778 6288 59
Q 5844 -447 5575 -803
Q 3872 -3 3203 1775
Q 2684 147 806 -847
Q 556 -528 100 -47
Q 2375 984 2591 2866
L 213 2866
L 213 3728
z
" transform="scale(0.015625)"/>
     <path id="MicrosoftYaHei-Bold-65f6" d="M 3038 4241
L 4888 4241
L 4888 5291
L 5781 5291
L 5781 4241
L 6306 4241
L 6306 3409
L 5781 3409
L 5781 316
Q 5781 -209 5547 -478
Q 5313 -747 4898 -762
Q 4484 -778 3669 -778
Q 3569 -209 3456 134
Q 4344 109 4431 109
Q 4888 109 4888 584
L 4888 3409
L 3038 3409
L 3038 4241
z
M 394 -497
L 394 4897
L 2856 4897
L 2856 -459
L 2031 -459
L 2031 -28
L 1219 -28
L 1219 -497
L 394 -497
z
M 2031 4072
L 1219 4072
L 1219 2834
L 2031 2834
L 2031 4072
z
M 1219 797
L 2031 797
L 2031 2034
L 1219 2034
L 1219 797
z
M 3588 3072
Q 4013 2541 4713 1559
L 3956 1066
Q 3388 2009 2938 2641
L 3588 3072
z
" transform="scale(0.015625)"/>
     <path id="MicrosoftYaHei-Bold-ff0c" d="M 2075 831
L 1569 -863
L 831 -863
L 1191 831
L 2075 831
z
" transform="scale(0.015625)"/>
     <path id="MicrosoftYaHei-Bold-44" d="M 559 0
L 559 4841
L 2231 4841
Q 4809 4841 4809 2481
Q 4809 1359 4087 679
Q 3366 0 2225 0
L 559 0
z
M 1591 3997
L 1591 844
L 2153 844
Q 2888 844 3306 1281
Q 3725 1719 3725 2466
Q 3725 3188 3287 3592
Q 2850 3997 2150 3997
L 1591 3997
z
" transform="scale(0.015625)"/>
     <path id="MicrosoftYaHei-Bold-69" d="M 369 4572
Q 369 4803 533 4948
Q 697 5094 953 5094
Q 1216 5094 1378 4945
Q 1541 4797 1541 4572
Q 1541 4344 1375 4192
Q 1209 4041 953 4041
Q 700 4041 534 4194
Q 369 4347 369 4572
z
M 444 0
L 444 3456
L 1450 3456
L 1450 0
L 444 0
z
" transform="scale(0.015625)"/>
     <path id="MicrosoftYaHei-Bold-6e" d="M 3744 0
L 2741 0
L 2741 1928
Q 2741 2766 2138 2766
Q 1850 2766 1659 2542
Q 1469 2319 1469 1972
L 1469 0
L 459 0
L 459 3456
L 1469 3456
L 1469 2906
L 1481 2906
Q 1859 3541 2594 3541
Q 3744 3541 3744 2116
L 3744 0
z
" transform="scale(0.015625)"/>
     <path id="MicrosoftYaHei-Bold-63" d="M 3050 128
Q 2688 -84 2019 -84
Q 1228 -84 740 397
Q 253 878 253 1644
Q 253 2525 778 3033
Q 1303 3541 2178 3541
Q 2769 3541 3053 3378
L 3053 2513
Q 2706 2766 2297 2766
Q 1834 2766 1554 2484
Q 1275 2203 1275 1713
Q 1275 1238 1540 964
Q 1806 691 2263 691
Q 2666 691 3050 947
L 3050 128
z
" transform="scale(0.015625)"/>
     <path id="MicrosoftYaHei-Bold-20" transform="scale(0.015625)"/>
     <path id="MicrosoftYaHei-Bold-957f" d="M 175 2816
L 1031 2816
L 1031 5322
L 1900 5322
L 1900 2816
L 6194 2816
L 6194 2009
L 3825 2009
Q 4563 728 6313 216
Q 6031 -153 5681 -647
Q 3713 172 2969 2009
L 1900 2009
L 1900 266
L 3513 797
Q 3494 359 3506 -22
Q 1653 -588 1269 -903
L 794 -103
Q 1031 134 1031 628
L 1031 2009
L 175 2009
L 175 2816
z
M 5006 5272
L 5663 4491
Q 4338 3747 2863 3091
L 2350 3766
Q 4013 4547 5006 5272
z
" transform="scale(0.015625)"/>
     <path id="MicrosoftYaHei-Bold-66f4" d="M 700 3984
L 2788 3984
L 2788 4359
L 219 4359
L 219 5066
L 6181 5066
L 6181 4359
L 3650 4359
L 3650 3984
L 5738 3984
L 5738 872
L 4900 872
L 4900 1222
L 3638 1222
Q 3594 719 3403 375
Q 4519 116 6288 84
L 5806 -772
Q 3775 -681 2716 -263
Q 2047 -619 688 -866
Q 475 -534 94 -41
Q 1228 66 1822 241
Q 1375 550 1038 903
L 1497 1222
L 700 1222
L 700 3984
z
M 4900 3316
L 3650 3316
L 3650 2909
L 4900 2909
L 4900 3316
z
M 1538 2909
L 2788 2909
L 2788 3316
L 1538 3316
L 1538 2909
z
M 1538 1891
L 2788 1891
L 2788 2297
L 1538 2297
L 1538 1891
z
M 4900 1891
L 4900 2297
L 3650 2297
L 3650 1891
L 4900 1891
z
M 2766 1222
L 1684 1222
Q 2044 888 2547 659
Q 2716 875 2766 1222
z
" transform="scale(0.015625)"/>
     <path id="MicrosoftYaHei-Bold-5e73" d="M 175 1959
L 2719 1959
L 2719 4253
L 450 4253
L 450 5078
L 5975 5078
L 5975 4253
L 3669 4253
L 3669 1959
L 6250 1959
L 6250 1134
L 3669 1134
L 3669 -809
L 2719 -809
L 2719 1134
L 175 1134
L 175 1959
z
M 538 3691
L 1194 4134
Q 1794 3434 2438 2584
L 1681 2084
Q 1050 3041 538 3691
z
M 5988 3628
Q 5325 2834 4588 2066
L 3950 2584
Q 4675 3334 5250 4128
L 5988 3628
z
" transform="scale(0.015625)"/>
     <path id="MicrosoftYaHei-Bold-7a33" d="M 150 3566
L 975 3566
L 975 4272
Q 638 4241 275 4222
Q 244 4541 163 4991
Q 1131 5041 2294 5253
L 2469 4497
Q 2138 4422 1763 4366
L 1763 3566
L 2413 3566
L 2413 2822
L 1763 2822
L 1763 2400
L 1838 2466
Q 2094 2231 2506 1822
L 2506 1884
L 5213 1884
L 5213 2203
L 2631 2203
L 2631 2741
L 5213 2741
L 5213 3059
L 2563 3059
L 2563 3569
Q 2366 3759 2175 3909
Q 2781 4478 3213 5303
L 4063 5303
Q 3919 5031 3769 4784
L 5625 4784
L 5625 4259
L 5241 3716
L 6000 3716
L 6000 1228
L 4650 1228
Q 4763 978 4869 716
L 4200 459
Q 4056 888 3931 1228
L 2506 1228
L 2506 1700
L 2088 1228
Q 1916 1466 1763 1666
L 1763 -866
L 975 -866
L 975 1638
Q 747 919 425 272
Q 325 741 138 1322
Q 534 1900 859 2822
L 150 2822
L 150 3566
z
M 3006 3716
L 4416 3716
L 4681 4097
L 3309 4097
Q 3163 3894 3006 3716
z
M 4831 597
Q 5103 475 5434 350
L 5263 916
L 5925 1066
Q 6175 328 6344 -266
L 5663 -434
L 5509 97
Q 5319 -538 5050 -677
Q 4781 -816 4463 -816
L 3906 -816
Q 3031 -816 3031 9
L 3031 1034
L 3788 1034
L 3788 241
Q 3788 -122 4138 -122
L 4375 -122
Q 4584 -122 4670 -17
Q 4756 88 4831 597
z
M 2313 934
L 2963 728
Q 2781 197 2488 -528
Q 2181 -391 1850 -266
Q 2119 328 2313 934
z
" transform="scale(0.015625)"/>
    </defs>
    <use xlink:href="#MicrosoftYaHei-Bold-7403"/>
    <use xlink:href="#MicrosoftYaHei-Bold-961f" transform="translate(100 0)"/>
    <use xlink:href="#MicrosoftYaHei-Bold-89c4" transform="translate(200 0)"/>
    <use xlink:href="#MicrosoftYaHei-Bold-6a21" transform="translate(300 0)"/>
    <use xlink:href="#MicrosoftYaHei-Bold-589e" transform="translate(400 0)"/>
    <use xlink:href="#MicrosoftYaHei-Bold-5927" transform="translate(500 0)"/>
    <use xlink:href="#MicrosoftYaHei-Bold-65f6" transform="translate(600 0)"/>
    <use xlink:href="#MicrosoftYaHei-Bold-ff0c" transform="translate(700 0)"/>
    <use xlink:href="#MicrosoftYaHei-Bold-44" transform="translate(800 0)"/>
    <use xlink:href="#MicrosoftYaHei-Bold-69" transform="translate(879.150391 0)"/>
    <use xlink:href="#MicrosoftYaHei-Bold-6e" transform="translate(908.740234 0)"/>
    <use xlink:href="#MicrosoftYaHei-Bold-69" transform="translate(973.535156 0)"/>
    <use xlink:href="#MicrosoftYaHei-Bold-63" transform="translate(1003.125 0)"/>
    <use xlink:href="#MicrosoftYaHei-Bold-20" transform="translate(1054.785156 0)"/>
    <use xlink:href="#MicrosoftYaHei-Bold-589e" transform="translate(1084.570312 0)"/>
    <use xlink:href="#MicrosoftYaHei-Bold-957f" transform="translate(1184.570312 0)"/>
    <use xlink:href="#MicrosoftYaHei-Bold-66f4" transform="translate(1284.570312 0)"/>
    <use xlink:href="#MicrosoftYaHei-Bold-5e73" transform="translate(1384.570312 0)"/>
    <use xlink:href="#MicrosoftYaHei-Bold-7a33" transform="translate(1484.570312 0)"/>
   </g>
  </g>
  <g id="text_18">
   <!-- 分析全部球队的中位耗时；预热 1 次后重复 3 次；稠密随机赛程，统计全部球队淘汰判定。 -->
   <g style="fill: #6f768a" transform="translate(51.095625 37.114062) scale(0.095 -0.095)">
    <defs>
     <path id="MicrosoftYaHei-5206" d="M 900 2559
L 5056 2559
Q 5025 1497 4963 484
Q 4888 -684 3856 -678
Q 3350 -684 2788 -647
Q 2750 -384 2700 -116
Q 3181 -184 3775 -191
Q 4400 -203 4463 541
Q 4513 1216 4538 2097
L 2616 2097
Q 2541 1053 2181 416
Q 1706 -422 588 -878
Q 425 -666 231 -459
Q 1269 -72 1725 666
Q 2053 1225 2103 2097
L 900 2097
L 900 2559
z
M 3488 5159
L 3938 5353
Q 4625 3678 6350 2847
Q 6069 2553 5944 2372
Q 4225 3366 3488 5159
z
M 50 2766
Q 1338 3678 2250 5253
L 2694 5009
Q 1744 3347 413 2341
Q 281 2534 50 2766
z
" transform="scale(0.015625)"/>
     <path id="MicrosoftYaHei-6790" d="M 2775 4797
Q 4319 4822 5863 5066
L 6031 4616
Q 4713 4422 3256 4359
L 3256 2966
L 6306 2966
L 6306 2509
L 5131 2509
L 5131 -816
L 4650 -816
L 4650 2509
L 3256 2509
L 3256 2272
Q 3256 241 2225 -853
Q 2069 -628 1900 -441
Q 2775 497 2775 2278
L 2775 4797
z
M 88 1391
Q 738 2341 1069 3584
L 175 3584
L 175 4016
L 1081 4016
L 1081 5259
L 1538 5259
L 1538 4016
L 2400 4016
L 2400 3584
L 1538 3584
L 1538 2872
L 1769 3053
Q 2338 2384 2594 1984
L 2206 1697
Q 1913 2159 1538 2659
L 1538 -816
L 1081 -816
L 1081 2397
Q 763 1459 306 834
Q 231 1053 88 1391
z
" transform="scale(0.015625)"/>
     <path id="MicrosoftYaHei-5168" d="M 369 -103
L 2950 -103
L 2950 984
L 925 984
L 925 1441
L 2950 1441
L 2950 2403
L 1156 2403
L 1156 2859
L 5269 2859
L 5269 2403
L 3469 2403
L 3469 1441
L 5500 1441
L 5500 984
L 3469 984
L 3469 -103
L 6044 -103
L 6044 -566
L 369 -566
L 369 -103
z
M 3656 5234
L 3531 5078
Q 4581 3703 6319 3009
Q 6125 2734 5988 2509
Q 4338 3322 3219 4691
Q 2263 3453 394 2428
Q 269 2641 81 2897
Q 2013 3866 3000 5234
L 3656 5234
z
" transform="scale(0.015625)"/>
     <path id="MicrosoftYaHei-90e8" d="M 6288 1247
Q 6288 172 5444 84
Q 5125 47 4594 109
Q 4563 334 4513 659
Q 4969 584 5294 584
Q 5844 584 5794 1341
Q 5769 2009 4838 2709
Q 5244 3516 5663 4503
L 4388 4503
L 4388 -828
L 3913 -828
L 3913 4966
L 6163 4966
L 6163 4453
Q 5919 3822 5406 2816
Q 6288 2128 6288 1247
z
M 575 1753
L 3275 1753
L 3275 -791
L 2813 -791
L 2813 -328
L 1038 -328
L 1038 -797
L 575 -797
L 575 1753
z
M 2813 1334
L 1038 1334
L 1038 103
L 2813 103
L 2813 1334
z
M 125 2822
L 2125 2822
Q 2497 3466 2731 3997
L 3194 3759
Q 2922 3284 2616 2822
L 3706 2822
L 3706 2403
L 125 2403
L 125 2822
z
M 263 4472
L 1825 4472
Q 1703 4753 1456 5159
L 1888 5359
Q 2169 4891 2288 4616
L 1981 4472
L 3594 4472
L 3594 4053
L 263 4053
L 263 4472
z
M 681 3728
L 1063 3959
Q 1375 3516 1631 3072
L 1206 2828
Q 1013 3222 681 3728
z
" transform="scale(0.015625)"/>
     <path id="MicrosoftYaHei-7684" d="M 356 4284
L 988 4284
Q 1219 4853 1369 5322
L 1894 5172
Q 1697 4694 1513 4284
L 2763 4284
L 2763 -691
L 2263 -691
L 2263 -203
L 856 -203
L 856 -734
L 356 -734
L 356 4284
z
M 2856 3003
Q 3444 3934 3850 5322
L 4375 5191
Q 4216 4719 4050 4303
L 6063 4303
Q 5988 1091 5938 259
Q 5894 -722 4906 -722
Q 4338 -722 3750 -684
Q 3713 -372 3650 -128
L 3669 -128
Q 4294 -216 4813 -216
Q 5381 -216 5425 384
Q 5494 1316 5525 3834
L 3850 3834
Q 3578 3231 3288 2772
Q 3119 2891 2856 3003
z
M 856 266
L 2263 266
L 2263 1847
L 856 1847
L 856 266
z
M 2263 3816
L 856 3816
L 856 2297
L 2263 2297
L 2263 3816
z
M 3406 2578
L 3788 2859
Q 4481 2041 4894 1441
L 4431 1116
Q 3988 1841 3406 2578
z
" transform="scale(0.015625)"/>
     <path id="MicrosoftYaHei-8017" d="M 2506 1622
L 3913 1753
L 3913 2878
L 2738 2772
L 2706 3197
L 3913 3303
L 3913 4459
Q 3381 4403 2794 4353
Q 2769 4584 2700 4809
Q 4225 4916 5706 5172
L 5819 4697
Q 5188 4603 4381 4509
L 4381 3347
L 5825 3478
L 5850 3053
L 4381 2916
L 4381 1797
L 6150 1966
L 6175 1541
L 4381 1366
L 4381 128
Q 4381 -241 4706 -241
L 5400 -241
Q 5688 -241 5750 147
Q 5813 566 5844 991
Q 6094 866 6319 791
Q 6250 291 6194 -28
Q 6094 -691 5456 -691
L 4588 -691
Q 3913 -691 3913 72
L 3913 1322
L 2538 1197
L 2506 1622
z
M 88 191
Q 769 1072 1088 2022
L 138 2022
L 138 2422
L 1250 2422
L 1250 3028
L 363 3028
L 363 3428
L 1250 3428
L 1250 4016
L 231 4016
L 231 4416
L 1250 4416
L 1250 5303
L 1675 5303
L 1675 4416
L 2631 4416
L 2631 4016
L 1675 4016
L 1675 3428
L 2519 3428
L 2519 3028
L 1675 3028
L 1675 2422
L 2700 2422
L 2700 2022
L 1675 2022
L 1675 1334
L 1894 1547
Q 2381 1078 2806 622
L 2463 316
Q 2125 747 1675 1203
L 1675 -841
L 1250 -841
L 1250 1491
Q 869 434 281 -297
Q 188 -16 88 191
z
" transform="scale(0.015625)"/>
     <path id="MicrosoftYaHei-ff1b" d="M 1606 3531
Q 1772 3531 1890 3415
Q 2009 3300 2009 3138
Q 2009 2975 1893 2858
Q 1778 2741 1606 2741
Q 1434 2741 1318 2858
Q 1203 2975 1203 3138
Q 1203 3300 1322 3415
Q 1441 3531 1606 3531
z
M 1931 775
L 1403 -891
L 966 -891
L 1350 775
L 1931 775
z
" transform="scale(0.015625)"/>
     <path id="MicrosoftYaHei-9884" d="M 531 3872
L 844 4147
Q 1069 3947 1275 3747
L 1938 4553
L 175 4553
L 175 4991
L 2513 4991
L 2513 4553
L 1588 3434
Q 1694 3322 1794 3216
L 1544 2997
L 2681 2997
L 2681 2578
Q 2581 2097 2369 1466
Q 2175 1534 1938 1609
Q 2094 2003 2213 2559
L 1588 2559
L 1588 -72
Q 1588 -784 888 -784
L 225 -784
Q 194 -559 138 -278
Q 450 -316 769 -316
Q 1119 -316 1119 84
L 1119 2559
L 113 2559
L 113 2997
L 1344 2997
Q 938 3484 531 3872
z
M 2969 3716
L 4025 3716
L 4181 4572
L 2744 4572
L 2744 5009
L 6294 5009
L 6294 4572
L 4688 4572
L 4506 3716
L 6006 3716
L 6006 641
L 5550 641
L 5550 3284
L 3425 3284
L 3425 641
L 2969 641
L 2969 3716
z
M 4244 3028
L 4706 3028
L 4706 2097
Q 4706 1366 4519 841
Q 5500 184 6306 -441
L 5963 -847
Q 5200 -197 4325 428
Q 4263 334 4200 247
Q 3694 -397 2613 -897
Q 2413 -641 2263 -484
Q 3381 -22 3831 572
Q 4244 1109 4244 2128
L 4244 3028
z
" transform="scale(0.015625)"/>
     <path id="MicrosoftYaHei-70ed" d="M 2456 3028
L 2725 3384
Q 3013 3209 3297 3031
Q 3394 3453 3400 3953
L 2631 3953
L 2631 4403
L 3409 4403
Q 3422 4922 3419 5347
L 3900 5347
Q 3900 4941 3888 4403
L 5338 4403
Q 5281 2553 5419 1897
Q 5500 1528 5656 1528
Q 5781 1528 5819 1741
Q 5875 2047 5919 2578
Q 6156 2491 6381 2428
Q 6319 1872 6250 1547
Q 6119 972 5669 972
Q 5131 972 4944 1841
Q 4831 2422 4850 3953
L 3878 3953
Q 3869 3300 3728 2756
Q 4169 2472 4594 2178
L 4281 1734
Q 3913 2019 3569 2269
Q 3178 1334 2313 816
Q 2156 1009 1950 1222
Q 2803 1672 3153 2563
Q 2791 2816 2456 3028
z
M 175 2753
Q 663 2878 1138 3013
L 1138 3966
L 250 3966
L 250 4397
L 1138 4397
L 1138 5322
L 1613 5322
L 1613 4397
L 2350 4397
L 2350 3966
L 1613 3966
L 1613 3150
Q 1956 3256 2294 3366
Q 2294 3078 2306 2891
Q 2272 2878 1613 2672
L 1613 1753
Q 1613 997 906 997
Q 638 997 325 1009
Q 300 1222 250 1522
Q 556 1472 806 1472
Q 1138 1472 1138 1809
L 1138 2525
Q 763 2406 269 2253
L 175 2753
z
M 5044 634
L 5444 872
Q 5850 272 6250 -397
L 5806 -659
Q 5475 -41 5044 634
z
M 900 728
L 1338 541
Q 1056 -103 650 -791
Q 463 -684 219 -572
Q 650 103 900 728
z
M 1919 478
L 2331 659
Q 2619 134 2925 -503
L 2463 -703
Q 2194 -59 1919 478
z
M 3506 509
L 3919 691
Q 4238 134 4519 -453
L 4063 -647
Q 3825 -59 3506 509
z
" transform="scale(0.015625)"/>
     <path id="MicrosoftYaHei-20" transform="scale(0.015625)"/>
     <path id="MicrosoftYaHei-6b21" d="M 4119 3472
Q 4113 3159 4091 2856
Q 4509 728 6319 -284
Q 6063 -559 5913 -772
Q 4344 331 3900 1944
Q 3491 200 1650 -866
Q 1525 -672 1306 -422
Q 3225 591 3525 2428
Q 3613 2878 3619 3472
L 4119 3472
z
M 4944 2647
Q 5225 3166 5450 3766
L 2991 3766
Q 2719 3144 2388 2572
Q 2163 2734 1938 2841
Q 2669 4034 3000 5309
L 3506 5166
Q 3356 4675 3175 4209
L 5988 4209
L 5988 3766
Q 5731 3072 5425 2466
Q 5213 2572 4944 2647
z
M 1388 2622
Q 1675 2403 1875 2284
Q 1075 859 575 -178
L 69 153
Q 713 1128 1388 2622
z
M 644 4916
Q 1150 4409 1781 3672
L 1375 3297
Q 769 4097 281 4591
L 644 4916
z
" transform="scale(0.015625)"/>
     <path id="MicrosoftYaHei-540e" d="M 1888 1984
L 5688 1984
L 5688 -828
L 5188 -828
L 5188 -403
L 2388 -403
L 2388 -828
L 1888 -828
L 1888 1984
z
M 1313 2991
Q 1313 1272 1138 672
Q 963 -16 394 -847
Q 250 -634 50 -409
Q 494 222 650 859
Q 806 1472 806 2659
L 806 4766
Q 3544 4853 5631 5141
L 5931 4622
Q 3344 4359 1313 4284
L 1313 3459
L 6263 3459
L 6263 2991
L 1313 2991
z
M 5188 1528
L 2388 1528
L 2388 41
L 5188 41
L 5188 1528
z
" transform="scale(0.015625)"/>
     <path id="MicrosoftYaHei-91cd" d="M 113 -203
L 2975 -203
L 2975 259
L 600 259
L 600 628
L 2975 628
L 2975 1153
L 1288 1153
L 1288 928
L 850 928
L 850 3278
L 2975 3278
L 2975 3728
L 163 3728
L 163 4116
L 2975 4116
L 2975 4606
Q 1841 4572 625 4547
Q 588 4747 538 4972
Q 3706 5009 5669 5141
L 5744 4716
Q 4631 4663 3425 4619
L 3425 4116
L 6263 4116
L 6263 3728
L 3425 3728
L 3425 3278
L 5569 3278
L 5569 934
L 5131 934
L 5131 1153
L 3425 1153
L 3425 628
L 5806 628
L 5806 259
L 3425 259
L 3425 -203
L 6263 -203
L 6263 -591
L 113 -591
L 113 -203
z
M 3425 1516
L 5131 1516
L 5131 2053
L 3425 2053
L 3425 1516
z
M 1288 1516
L 2975 1516
L 2975 2053
L 1288 2053
L 1288 1516
z
M 5131 2916
L 3425 2916
L 3425 2384
L 5131 2384
L 5131 2916
z
M 1288 2384
L 2975 2384
L 2975 2916
L 1288 2916
L 1288 2384
z
" transform="scale(0.015625)"/>
     <path id="MicrosoftYaHei-590d" d="M 81 3559
Q 975 4259 1563 5347
L 2113 5347
Q 1963 5084 1803 4841
L 6200 4841
L 6200 4441
L 1525 4441
Q 1356 4209 1175 3997
L 5575 3997
L 5575 1697
L 5138 1697
L 5138 1859
L 1463 1859
L 1463 1634
L 1031 1634
L 1031 3828
Q 716 3475 369 3166
Q 263 3347 81 3559
z
M 81 291
Q 1231 853 1931 1709
L 2488 1709
Q 2350 1534 2206 1372
L 5588 1372
L 5588 1034
Q 4981 494 4038 69
Q 5016 -188 6319 -284
Q 6150 -566 6025 -797
Q 4503 -584 3416 -175
Q 2303 -563 725 -872
Q 606 -666 438 -447
Q 1988 -191 2856 59
Q 2153 397 1678 838
Q 1084 303 388 -53
Q 250 128 81 291
z
M 1463 2247
L 5138 2247
L 5138 2747
L 1463 2747
L 1463 2247
z
M 5138 3609
L 1463 3609
L 1463 3116
L 5138 3116
L 5138 3609
z
M 4869 1009
L 2025 1009
Q 2572 553 3428 253
Q 4297 591 4869 1009
z
" transform="scale(0.015625)"/>
     <path id="MicrosoftYaHei-7a20" d="M 2869 4509
L 2869 1872
Q 2869 159 2125 -853
Q 1969 -622 1800 -453
Q 2438 491 2438 1841
L 2438 4934
L 5994 4934
L 5994 3
Q 5994 -766 5231 -766
Q 4856 -766 4469 -747
Q 4444 -509 4381 -266
Q 4913 -309 5175 -309
Q 5563 -309 5563 97
L 5563 4509
L 2869 4509
z
M 56 966
Q 631 1816 956 3097
L 156 3097
L 156 3522
L 1025 3522
L 1025 4434
Q 669 4397 263 4366
Q 231 4578 175 4809
Q 1269 4859 2138 5022
L 2250 4597
Q 1888 4534 1456 4478
L 1456 3522
L 2263 3522
L 2263 3097
L 1456 3097
L 1456 2391
L 1700 2559
Q 1969 2197 2244 1797
L 1894 1553
Q 1706 1866 1456 2222
L 1456 -866
L 1025 -866
L 1025 2128
Q 706 1084 269 428
Q 169 747 56 966
z
M 3331 1891
L 5075 1891
L 5075 253
L 3750 253
L 3750 -116
L 3331 -116
L 3331 1891
z
M 3038 2791
L 4000 2791
L 4000 3366
L 3206 3366
L 3206 3766
L 4000 3766
L 4000 4359
L 4431 4359
L 4431 3766
L 5206 3766
L 5206 3366
L 4431 3366
L 4431 2791
L 5381 2791
L 5381 2391
L 3038 2391
L 3038 2791
z
M 4650 1491
L 3750 1491
L 3750 653
L 4650 653
L 4650 1491
z
" transform="scale(0.015625)"/>
     <path id="MicrosoftYaHei-5bc6" d="M 63 1622
Q 947 1872 1800 2228
L 1800 3659
L 2244 3659
L 2244 2419
Q 3594 3034 4850 3909
L 5144 3534
Q 3834 2656 2391 1997
Q 2522 1872 2775 1872
L 3975 1872
Q 4350 1872 4425 2084
Q 4506 2291 4550 2753
Q 4756 2666 5025 2572
Q 4931 2091 4888 1953
Q 4756 1441 4094 1441
L 2669 1441
Q 2128 1441 1925 1794
Q 1131 1459 300 1191
Q 197 1419 63 1622
z
M 5063 -809
L 5063 -566
L 850 -566
L 850 1078
L 1325 1078
L 1325 -116
L 2944 -116
L 2944 1322
L 3444 1322
L 3444 -116
L 5063 -116
L 5063 1078
L 5538 1078
L 5538 -809
L 5063 -809
z
M 331 4672
L 3009 4672
Q 2894 4897 2750 5141
L 3213 5359
Q 3406 5041 3569 4672
L 6075 4672
L 6075 3559
L 5569 3559
L 5569 4222
L 838 4222
L 838 3559
L 331 3559
L 331 4672
z
M 1063 3534
L 1500 3366
Q 1206 2684 863 2116
Q 663 2216 406 2316
Q 750 2809 1063 3534
z
M 5075 3053
L 5438 3322
Q 5925 2791 6275 2322
L 5863 2016
Q 5531 2503 5075 3053
z
M 2588 3847
L 2913 4128
Q 3331 3797 3656 3478
L 3294 3141
Q 2938 3528 2588 3847
z
" transform="scale(0.015625)"/>
     <path id="MicrosoftYaHei-968f" d="M 3256 4641
L 4128 4641
Q 4247 4963 4331 5291
L 4756 5172
Q 4663 4897 4563 4641
L 6181 4641
L 6181 4228
L 4397 4228
Q 4266 3916 4122 3628
L 5794 3628
L 5794 791
Q 5794 134 5156 134
L 4569 134
Q 4563 178 4481 597
Q 4838 578 5056 578
Q 5369 578 5369 891
L 5369 1328
L 4113 1328
L 4113 122
L 3688 122
L 3688 2841
Q 3459 2475 3213 2153
Q 3119 2397 3019 2597
Q 3600 3394 3963 4228
L 3256 4228
L 3256 4641
z
M 2081 1809
Q 2225 666 1531 509
Q 1325 466 969 503
Q 925 697 844 991
Q 1163 916 1375 947
Q 1756 1009 1625 1809
Q 1531 2241 1075 2772
Q 1325 3578 1563 4459
L 831 4459
L 831 -809
L 388 -809
L 388 4909
L 2025 4909
L 2025 4459
Q 1788 3647 1550 2853
Q 1975 2359 2081 1809
z
M 3969 -172
Q 4688 -203 6244 -153
Q 6144 -409 6063 -647
Q 4763 -672 3956 -622
Q 3069 -584 2600 78
Q 2275 -366 1988 -834
L 1681 -447
Q 1891 -131 2444 572
L 2444 2709
L 1938 2709
L 1938 3134
L 2881 3134
L 2881 403
Q 3263 -156 3969 -172
z
M 4113 1716
L 5369 1716
L 5369 2278
L 4113 2278
L 4113 1716
z
M 5369 3228
L 4113 3228
L 4113 2666
L 5369 2666
L 5369 3228
z
M 2575 5253
Q 2881 4491 3044 3959
Q 2794 3878 2606 3797
Q 2450 4378 2181 5116
L 2575 5253
z
" transform="scale(0.015625)"/>
     <path id="MicrosoftYaHei-673a" d="M 3375 4434
L 3375 2366
Q 3375 128 2256 -878
Q 2081 -666 1888 -453
Q 2875 416 2875 2253
L 2875 4909
L 5200 4909
L 5200 209
Q 5200 -103 5419 -103
L 5563 -103
Q 5763 -103 5819 247
Q 5881 728 5906 1284
Q 6125 1178 6381 1084
Q 6325 466 6269 72
Q 6169 -591 5631 -591
L 5300 -591
Q 4700 -591 4700 122
L 4700 4434
L 3375 4434
z
M 81 1403
Q 781 2447 1078 3653
L 144 3653
L 144 4078
L 1119 4078
L 1119 5309
L 1569 5309
L 1569 4078
L 2444 4078
L 2444 3653
L 1569 3653
L 1569 2616
L 1819 2866
Q 2300 2428 2575 2153
L 2238 1809
Q 1853 2234 1569 2516
L 1569 -784
L 1119 -784
L 1119 2566
Q 784 1506 288 853
Q 188 1134 81 1403
z
" transform="scale(0.015625)"/>
     <path id="MicrosoftYaHei-8d5b" d="M 6306 1097
Q 6144 909 5994 691
Q 5419 934 4963 1234
L 4963 53
L 4538 53
L 4538 1178
L 1900 1178
L 1900 16
L 1475 16
L 1475 1222
Q 938 866 375 622
Q 219 847 94 984
Q 1100 1366 1894 1991
L 250 1991
L 250 2353
L 2100 2353
L 2100 2753
L 775 2753
L 775 3103
L 2100 3103
L 2100 3503
L 900 3503
L 900 3853
L 2100 3853
L 2100 4159
L 2513 4159
L 2513 3853
L 3900 3853
L 3900 4159
L 4313 4159
L 4313 3853
L 5500 3853
L 5500 3503
L 4313 3503
L 4313 3103
L 5663 3103
L 5663 2753
L 4313 2753
L 4313 2353
L 6150 2353
L 6150 1991
L 4581 1991
Q 5231 1434 6306 1097
z
M 363 4734
L 3000 4734
Q 2869 4966 2756 5147
L 3200 5347
Q 3350 5122 3569 4734
L 6044 4734
L 6044 3728
L 5581 3728
L 5581 4359
L 819 4359
L 819 3722
L 363 3722
L 363 4734
z
M 3450 1028
Q 3450 584 3338 278
Q 4613 -47 5900 -428
L 5713 -878
Q 4531 -472 3144 -72
Q 2681 -641 775 -884
Q 756 -847 544 -441
Q 2313 -234 2706 134
Q 3006 378 3006 1028
L 3450 1028
z
M 1900 1528
L 4563 1528
Q 4294 1747 4075 1991
L 2444 1991
Q 2175 1741 1900 1528
z
M 2513 3103
L 3900 3103
L 3900 3503
L 2513 3503
L 2513 3103
z
M 2513 2353
L 3900 2353
L 3900 2753
L 2513 2753
L 2513 2353
z
" transform="scale(0.015625)"/>
     <path id="MicrosoftYaHei-7a0b" d="M 2750 5028
L 5850 5028
L 5850 2884
L 5375 2884
L 5375 3141
L 3225 3141
L 3225 2884
L 2750 2884
L 2750 5028
z
M 44 903
Q 663 1806 994 3041
L 119 3041
L 119 3453
L 1094 3453
L 1094 4431
Q 700 4375 288 4328
Q 238 4541 156 4759
Q 1219 4847 2300 5097
L 2438 4659
Q 2003 4572 1544 4497
L 1544 3453
L 2413 3453
L 2413 3041
L 1544 3041
L 1544 2216
L 1788 2428
Q 2038 2172 2519 1609
L 2144 1303
Q 1781 1766 1544 2050
L 1544 -841
L 1094 -841
L 1094 2153
Q 763 1078 256 359
Q 156 628 44 903
z
M 2250 -84
L 4038 -84
L 4038 841
L 2619 841
L 2619 1259
L 4038 1259
L 4038 2109
L 2469 2109
L 2469 2528
L 6113 2528
L 6113 2109
L 4538 2109
L 4538 1259
L 5956 1259
L 5956 841
L 4538 841
L 4538 -84
L 6325 -84
L 6325 -503
L 2250 -503
L 2250 -84
z
M 5375 4603
L 3225 4603
L 3225 3566
L 5375 3566
L 5375 4603
z
" transform="scale(0.015625)"/>
     <path id="MicrosoftYaHei-ff0c" d="M 1931 775
L 1403 -891
L 966 -891
L 1350 775
L 1931 775
z
" transform="scale(0.015625)"/>
     <path id="MicrosoftYaHei-7edf" d="M 5100 3641
Q 5625 2934 6175 2047
Q 5956 1922 5713 1766
Q 5556 2031 5413 2275
Q 5122 2256 4813 2241
L 4813 122
Q 4813 -259 5094 -259
L 5400 -259
Q 5706 -259 5750 53
Q 5800 428 5813 866
Q 6019 778 6313 684
Q 6263 141 6206 -159
Q 6119 -703 5550 -703
L 5013 -703
Q 4331 -703 4331 78
L 4331 2213
Q 3981 2194 3606 2169
Q 3556 809 3256 272
Q 2900 -416 1925 -866
Q 1788 -672 1606 -447
Q 2513 -78 2819 522
Q 3100 1000 3122 2138
Q 2994 2128 2863 2122
Q 2594 2097 2363 2041
L 2150 2528
Q 2419 2641 2581 2828
Q 3050 3388 3463 4047
L 2100 4047
L 2100 4491
L 4094 4491
Q 3859 4850 3650 5128
L 4063 5384
Q 4300 5091 4594 4684
L 4297 4491
L 6200 4491
L 6200 4047
L 3663 4047
L 4006 3897
Q 3488 3197 2988 2609
Q 4166 2650 5153 2694
Q 4916 3075 4700 3391
L 5100 3641
z
M 894 1534
Q 1394 1603 2175 1722
Q 2138 1472 2113 1259
Q 1331 1153 325 991
L 225 1441
Q 616 1841 1153 2744
Q 503 2700 219 2678
L 100 3103
Q 650 3828 1288 5316
L 1763 5128
Q 1156 3941 656 3141
Q 1066 3147 1394 3159
Q 1581 3494 1788 3884
L 2256 3678
Q 1544 2434 894 1534
z
M 81 222
Q 1119 422 2225 672
Q 2200 347 2200 222
Q 1069 -28 225 -253
L 81 222
z
" transform="scale(0.015625)"/>
     <path id="MicrosoftYaHei-8ba1" d="M 2100 3153
L 3919 3153
L 3919 5303
L 4456 5303
L 4456 3153
L 6288 3153
L 6288 2703
L 4456 2703
L 4456 -822
L 3919 -822
L 3919 2703
L 2100 2703
L 2100 3153
z
M 2675 903
Q 2694 578 2719 359
Q 1719 -266 1069 -728
L 769 -303
Q 988 -116 988 266
L 988 2741
L 100 2741
L 100 3191
L 1488 3191
L 1488 153
Q 2031 484 2675 903
z
M 738 5222
Q 1419 4522 1725 4184
L 1288 3816
Q 894 4334 356 4891
L 738 5222
z
" transform="scale(0.015625)"/>
     <path id="MicrosoftYaHei-6dd8" d="M 2119 1528
L 2550 1528
L 2550 684
L 3375 684
L 3375 1803
L 1719 1803
L 1719 2209
L 3375 2209
L 3375 3022
L 2847 3022
Q 2613 2669 2369 2372
Q 2075 2584 1975 2641
Q 2550 3247 2944 4034
L 3344 3853
Q 3225 3631 3103 3428
L 5031 3428
L 5031 3022
L 3813 3022
L 3813 2209
L 5381 2209
L 5381 1803
L 3813 1803
L 3813 684
L 4644 684
L 4644 1528
L 5075 1528
L 5075 278
L 2119 278
L 2119 1528
z
M 1500 3466
Q 2256 4359 2700 5353
L 3138 5178
Q 3000 4900 2859 4647
L 6081 4647
Q 6038 1441 5988 422
Q 5956 -234 5688 -478
Q 5431 -734 4763 -722
Q 4281 -716 3963 -703
Q 3925 -453 3856 -178
Q 4288 -234 4744 -247
Q 5181 -253 5338 -97
Q 5506 47 5519 472
Q 5556 1428 5594 4222
L 2616 4222
Q 2250 3619 1869 3166
Q 1713 3297 1500 3466
z
M 831 1766
Q 1094 1641 1338 1559
Q 1050 391 781 -791
L 231 -628
Q 538 347 831 1766
z
M 400 3572
Q 831 3278 1494 2728
Q 1263 2472 1131 2328
Q 463 2934 88 3216
L 400 3572
z
M 663 5216
Q 1156 4828 1731 4309
Q 1519 4103 1356 3934
Q 669 4609 344 4872
L 663 5216
z
" transform="scale(0.015625)"/>
     <path id="MicrosoftYaHei-6c70" d="M 1881 3816
L 3575 3816
Q 3609 4422 3613 5303
L 4138 5303
Q 4134 4400 4109 3816
L 6175 3816
L 6175 3347
L 4163 3347
Q 4588 1084 6331 -172
Q 6069 -434 5906 -647
Q 4359 613 3909 2588
Q 3569 691 1738 -797
Q 1563 -578 1363 -378
Q 3400 1203 3544 3347
L 1881 3347
L 1881 3816
z
M 1050 1734
Q 1350 1559 1563 1478
Q 1344 803 781 -822
L 244 -559
Q 744 578 1050 1734
z
M 356 3616
Q 1031 3216 1575 2809
Q 1381 2559 1225 2359
Q 613 2847 56 3216
L 356 3616
z
M 700 5241
Q 1456 4728 1881 4391
Q 1700 4172 1531 3959
Q 981 4434 388 4866
L 700 5241
z
M 3169 534
L 3569 791
Q 3963 284 4275 -153
L 3825 -441
Q 3544 -9 3169 534
z
" transform="scale(0.015625)"/>
     <path id="MicrosoftYaHei-5224" d="M 200 1803
L 1622 1803
Q 1700 2222 1709 2697
L 331 2697
L 331 3134
L 1725 3134
Q 1756 3959 1756 5259
L 2244 5259
Q 2238 4016 2219 3134
L 3594 3134
L 3594 2697
L 2209 2697
Q 2203 2225 2138 1803
L 3700 1803
L 3700 1366
L 2050 1366
Q 1716 -28 694 -872
Q 513 -653 313 -472
Q 1194 234 1519 1366
L 200 1366
L 200 1803
z
M 5475 5284
L 5963 5284
L 5963 53
Q 5963 -753 5169 -753
Q 4856 -753 4275 -741
Q 4244 -466 4188 -209
Q 4669 -259 5019 -259
Q 5475 -259 5475 228
L 5475 5284
z
M 4144 4584
L 4625 4584
L 4625 759
L 4144 759
L 4144 4584
z
M 2525 3728
Q 3000 4309 3313 4866
L 3756 4591
Q 3306 3928 2906 3434
L 2525 3728
z
M 269 4603
L 656 4853
Q 1075 4316 1444 3759
L 1013 3466
Q 606 4153 269 4603
z
" transform="scale(0.015625)"/>
     <path id="MicrosoftYaHei-5b9a" d="M 81 -384
Q 1119 509 1281 2241
L 1806 2159
Q 1731 1581 1578 1081
Q 2063 50 3081 -103
L 3081 2647
L 225 2647
L 225 3116
L 6163 3116
L 6163 2647
L 3600 2647
L 3600 1634
L 5775 1634
L 5775 1172
L 3600 1172
L 3600 -138
Q 4844 -169 6306 -116
Q 6200 -359 6125 -634
Q 4594 -653 3450 -616
Q 2041 -616 1378 528
Q 1022 -300 413 -872
Q 269 -628 81 -384
z
M 450 4566
L 3116 4566
Q 2931 4834 2725 5091
L 3200 5347
Q 3444 5066 3731 4716
L 3450 4566
L 5981 4566
L 5981 3378
L 5488 3378
L 5488 4097
L 944 4097
L 944 3384
L 450 3384
L 450 4566
z
" transform="scale(0.015625)"/>
     <path id="MicrosoftYaHei-3002" d="M 1219 863
Q 1525 863 1750 625
Q 1975 388 1975 72
Q 1975 -284 1747 -507
Q 1519 -731 1197 -731
Q 875 -731 642 -503
Q 409 -275 409 66
Q 409 413 656 638
Q 903 863 1219 863
z
M 1209 -275
Q 1328 -275 1431 -184
Q 1534 -94 1534 50
Q 1534 209 1434 304
Q 1334 400 1191 400
Q 1056 400 959 304
Q 863 209 863 53
Q 863 -100 977 -187
Q 1091 -275 1209 -275
z
" transform="scale(0.015625)"/>
    </defs>
    <use xlink:href="#MicrosoftYaHei-5206"/>
    <use xlink:href="#MicrosoftYaHei-6790" transform="translate(100 0)"/>
    <use xlink:href="#MicrosoftYaHei-5168" transform="translate(200 0)"/>
    <use xlink:href="#MicrosoftYaHei-90e8" transform="translate(300 0)"/>
    <use xlink:href="#MicrosoftYaHei-7403" transform="translate(400 0)"/>
    <use xlink:href="#MicrosoftYaHei-961f" transform="translate(500 0)"/>
    <use xlink:href="#MicrosoftYaHei-7684" transform="translate(600 0)"/>
    <use xlink:href="#MicrosoftYaHei-4e2d" transform="translate(700 0)"/>
    <use xlink:href="#MicrosoftYaHei-4f4d" transform="translate(800 0)"/>
    <use xlink:href="#MicrosoftYaHei-8017" transform="translate(900 0)"/>
    <use xlink:href="#MicrosoftYaHei-65f6" transform="translate(1000 0)"/>
    <use xlink:href="#MicrosoftYaHei-ff1b" transform="translate(1100 0)"/>
    <use xlink:href="#MicrosoftYaHei-9884" transform="translate(1200 0)"/>
    <use xlink:href="#MicrosoftYaHei-70ed" transform="translate(1300 0)"/>
    <use xlink:href="#MicrosoftYaHei-20" transform="translate(1400 0)"/>
    <use xlink:href="#MicrosoftYaHei-31" transform="translate(1429.589844 0)"/>
    <use xlink:href="#MicrosoftYaHei-20" transform="translate(1488.232422 0)"/>
    <use xlink:href="#MicrosoftYaHei-6b21" transform="translate(1517.822266 0)"/>
    <use xlink:href="#MicrosoftYaHei-540e" transform="translate(1617.822266 0)"/>
    <use xlink:href="#MicrosoftYaHei-91cd" transform="translate(1717.822266 0)"/>
    <use xlink:href="#MicrosoftYaHei-590d" transform="translate(1817.822266 0)"/>
    <use xlink:href="#MicrosoftYaHei-20" transform="translate(1917.822266 0)"/>
    <use xlink:href="#MicrosoftYaHei-33" transform="translate(1947.412109 0)"/>
    <use xlink:href="#MicrosoftYaHei-20" transform="translate(2006.054688 0)"/>
    <use xlink:href="#MicrosoftYaHei-6b21" transform="translate(2035.644531 0)"/>
    <use xlink:href="#MicrosoftYaHei-ff1b" transform="translate(2135.644531 0)"/>
    <use xlink:href="#MicrosoftYaHei-7a20" transform="translate(2235.644531 0)"/>
    <use xlink:href="#MicrosoftYaHei-5bc6" transform="translate(2335.644531 0)"/>
    <use xlink:href="#MicrosoftYaHei-968f" transform="translate(2435.644531 0)"/>
    <use xlink:href="#MicrosoftYaHei-673a" transform="translate(2535.644531 0)"/>
    <use xlink:href="#MicrosoftYaHei-8d5b" transform="translate(2635.644531 0)"/>
    <use xlink:href="#MicrosoftYaHei-7a0b" transform="translate(2735.644531 0)"/>
    <use xlink:href="#MicrosoftYaHei-ff0c" transform="translate(2835.644531 0)"/>
    <use xlink:href="#MicrosoftYaHei-7edf" transform="translate(2935.644531 0)"/>
    <use xlink:href="#MicrosoftYaHei-8ba1" transform="translate(3035.644531 0)"/>
    <use xlink:href="#MicrosoftYaHei-5168" transform="translate(3135.644531 0)"/>
    <use xlink:href="#MicrosoftYaHei-90e8" transform="translate(3235.644531 0)"/>
    <use xlink:href="#MicrosoftYaHei-7403" transform="translate(3335.644531 0)"/>
    <use xlink:href="#MicrosoftYaHei-961f" transform="translate(3435.644531 0)"/>
    <use xlink:href="#MicrosoftYaHei-6dd8" transform="translate(3535.644531 0)"/>
    <use xlink:href="#MicrosoftYaHei-6c70" transform="translate(3635.644531 0)"/>
    <use xlink:href="#MicrosoftYaHei-5224" transform="translate(3735.644531 0)"/>
    <use xlink:href="#MicrosoftYaHei-5b9a" transform="translate(3835.644531 0)"/>
    <use xlink:href="#MicrosoftYaHei-3002" transform="translate(3935.644531 0)"/>
   </g>
  </g>
 </g>
 <defs>
  <clipPath id="p7a19420119">
   <rect x="51.095625" y="85.32" width="665.28" height="299.088"/>
  </clipPath>
 </defs>
</svg>
